<svg width="21" height="20" viewBox="0 0 21 20" fill="none" xmlns="http://www.w3.org/2000/svg">
<g clip-path="url(#clip0_1_457)">
<path d="M19.3507 4.832L12.0529 1.49246C11.6702 1.31852 11.3174 1.1918 10.9944 1.11228C10.6763 1.03277 10.3632 0.995499 10.0551 1.00047C9.75197 0.995499 9.43889 1.03277 9.11586 1.11228C8.79284 1.1918 8.44 1.31852 8.05735 1.49246L0.767 4.832C0.528461 4.93636 0.349557 5.07799 0.230288 5.2569C0.115988 5.4358 0.0588379 5.61968 0.0588379 5.80852C0.0588379 6.00233 0.115988 6.18621 0.230288 6.36014C0.349557 6.53408 0.528461 6.67571 0.767 6.78504L3.83819 8.18646L8.55679 5.97252C8.51703 5.92282 8.49715 5.86815 8.49715 5.80852C8.49715 5.64949 8.57418 5.50786 8.72824 5.38362C8.88229 5.25938 9.08108 5.16248 9.32459 5.0929C9.56809 5.01836 9.82154 4.98109 10.0849 4.98109C10.3533 4.98109 10.6067 5.01836 10.8453 5.0929C11.0888 5.16248 11.2851 5.25938 11.4342 5.38362C11.5882 5.50786 11.6652 5.64949 11.6652 5.80852C11.6652 5.97252 11.5882 6.11912 11.4342 6.24833C11.2851 6.37257 11.0888 6.47196 10.8453 6.5465C10.6067 6.62104 10.3533 6.65831 10.0849 6.65831C9.83148 6.65831 9.59543 6.62601 9.37677 6.56141L4.87434 8.67099L8.05735 10.132C8.44497 10.306 8.79781 10.4327 9.11586 10.5122C9.43889 10.5917 9.75197 10.629 10.0551 10.624C10.3632 10.629 10.6763 10.5917 10.9944 10.5122C11.3174 10.4327 11.6702 10.306 12.0529 10.132L19.3507 6.78504C19.5892 6.67571 19.7656 6.53408 19.8799 6.36014C19.9992 6.18621 20.0588 6.00233 20.0588 5.80852C20.0588 5.61968 19.9992 5.4358 19.8799 5.2569C19.7656 5.07799 19.5892 4.93636 19.3507 4.832ZM4.84453 9.77423V14.3065C5.47069 14.6891 6.22358 14.9873 7.10319 15.201C7.98777 15.4197 8.97175 15.529 10.0551 15.529C11.1534 15.529 12.1473 15.4197 13.0368 15.201C13.9264 14.9873 14.6867 14.6891 15.3179 14.3065C15.949 13.9288 16.4335 13.4915 16.7715 12.9945C17.1144 12.4975 17.2858 11.9708 17.2858 11.4142V8.84989L12.4778 11.0489C11.5982 11.4515 10.7906 11.6502 10.0551 11.6453C9.32459 11.6502 8.51703 11.4515 7.63245 11.0489L4.84453 9.77423ZM2.83185 8.84989V11.4142C2.83185 11.7372 2.92131 12.09 3.10021 12.4727C3.27911 12.8504 3.53753 13.2107 3.87546 13.5536V9.33442L2.83185 8.84989ZM3.87546 16.0359H4.84453V14.3065C4.66065 14.1922 4.48672 14.0729 4.32272 13.9487C4.15873 13.8244 4.00964 13.6927 3.87546 13.5536V16.0359ZM3.28657 16.0881V18.0485C3.28657 18.3418 3.37354 18.5753 3.54747 18.7493C3.72637 18.9282 3.96243 19.0176 4.25563 19.0176H4.4569C4.7501 19.0176 4.98367 18.9282 5.15761 18.7493C5.33651 18.5753 5.42596 18.3418 5.42596 18.0485V16.0881C5.42596 15.7949 5.33651 15.5588 5.15761 15.3799C4.98367 15.206 4.7501 15.119 4.4569 15.119H4.25563C3.96243 15.119 3.72637 15.206 3.54747 15.3799C3.37354 15.5588 3.28657 15.7949 3.28657 16.0881Z" fill="black"/>
</g>
<defs>
<clipPath id="clip0_1_457">
<rect width="20" height="20" fill="white" transform="translate(0.0588379 3.05176e-05)"/>
</clipPath>
</defs>
</svg>
