<svg width="24" height="24" viewBox="0 0 24 24" fill="none" xmlns="http://www.w3.org/2000/svg">
<path d="M21.2918 6.82823L13.994 3.49194C13.6114 3.31818 13.2585 3.19158 12.9355 3.11214C12.6175 3.03271 12.3044 2.99547 11.9963 3.00044C11.6931 2.99547 11.38 3.03271 11.057 3.11214C10.734 3.19158 10.3812 3.31818 9.99851 3.49194L2.70816 6.82823C2.46962 6.93249 2.29072 7.07398 2.17145 7.25271C2.05715 7.43144 2 7.61514 2 7.8038C2 7.99742 2.05715 8.18111 2.17145 8.35488C2.29072 8.52864 2.46962 8.67014 2.70816 8.77936L5.77935 10.1794L10.498 7.96763C10.4582 7.91799 10.4383 7.86337 10.4383 7.8038C10.4383 7.64493 10.5153 7.50343 10.6694 7.37931C10.8235 7.2552 11.0222 7.15838 11.2657 7.08888C11.5093 7.01441 11.7627 6.97717 12.0261 6.97717C12.2944 6.97717 12.5479 7.01441 12.7864 7.08888C13.0299 7.15838 13.2262 7.2552 13.3753 7.37931C13.5294 7.50343 13.6064 7.64493 13.6064 7.8038C13.6064 7.96763 13.5294 8.11409 13.3753 8.24317C13.2262 8.36729 13.0299 8.46659 12.7864 8.54106C12.5479 8.61553 12.2944 8.65276 12.0261 8.65276C11.7726 8.65276 11.5366 8.62049 11.3179 8.55595L6.81551 10.6635L9.99851 12.1231C10.3861 12.2969 10.739 12.4235 11.057 12.5029C11.38 12.5823 11.6931 12.6196 11.9963 12.6146C12.3044 12.6196 12.6175 12.5823 12.9355 12.5029C13.2585 12.4235 13.6114 12.2969 13.994 12.1231L21.2918 8.77936C21.5304 8.67014 21.7068 8.52864 21.8211 8.35488C21.9404 8.18111 22 7.99742 22 7.8038C22 7.61514 21.9404 7.43144 21.8211 7.25271C21.7068 7.07398 21.5304 6.93249 21.2918 6.82823ZM6.78569 11.7656V16.2935C7.41185 16.6757 8.16474 16.9736 9.04435 17.1871C9.92894 17.4055 10.9129 17.5148 11.9963 17.5148C13.0945 17.5148 14.0885 17.4055 14.978 17.1871C15.8676 16.9736 16.6279 16.6757 17.259 16.2935C17.8902 15.9161 18.3747 15.4792 18.7126 14.9828C19.0555 14.4863 19.227 13.96 19.227 13.404V10.8422L14.4189 13.0391C13.5393 13.4412 12.7318 13.6398 11.9963 13.6348C11.2657 13.6398 10.4582 13.4412 9.57361 13.0391L6.78569 11.7656ZM4.77302 10.8422V13.404C4.77302 13.7267 4.86247 14.0792 5.04137 14.4615C5.22028 14.8388 5.47869 15.1987 5.81662 15.5413V11.3263L4.77302 10.8422ZM5.81662 18.0212H6.78569V16.2935C6.60181 16.1793 6.42788 16.0601 6.26388 15.936C6.09989 15.8119 5.9508 15.6803 5.81662 15.5413V18.0212ZM5.22773 18.0733V20.0319C5.22773 20.3248 5.3147 20.5581 5.48863 20.7319C5.66754 20.9106 5.90359 21 6.19679 21H6.39806C6.69127 21 6.92484 20.9106 7.09877 20.7319C7.27767 20.5581 7.36713 20.3248 7.36713 20.0319V18.0733C7.36713 17.7804 7.27767 17.5446 7.09877 17.3658C6.92484 17.1921 6.69127 17.1052 6.39806 17.1052H6.19679C5.90359 17.1052 5.66754 17.1921 5.48863 17.3658C5.3147 17.5446 5.22773 17.7804 5.22773 18.0733Z" fill="black"/>
</svg>
