<svg width="21" height="20" viewBox="0 0 21 20" fill="none" xmlns="http://www.w3.org/2000/svg">
<g clip-path="url(#clip0_1_458)">
<path d="M9.97232 20C10.5639 20 11.1248 19.8549 11.655 19.5647C12.1908 19.2801 12.6652 18.8866 13.0782 18.3843C13.4912 17.8876 13.8149 17.3239 14.0493 16.6932C14.2893 16.0625 14.4093 15.404 14.4093 14.7175C14.4093 14.5054 14.3898 14.3101 14.3507 14.1315C14.3116 13.9529 14.2558 13.7882 14.1833 13.6375C14.3061 13.671 14.4261 13.7045 14.5433 13.738C14.6661 13.7659 14.786 13.7966 14.9032 13.8301C15.1935 13.9082 15.386 14.0143 15.4809 14.1482C15.5814 14.2766 15.6121 14.4663 15.573 14.7175L14.9619 18.7275C14.9228 18.9675 14.9646 19.1545 15.0874 19.2884C15.2158 19.4224 15.3776 19.4894 15.573 19.4894C15.7795 19.4894 15.933 19.428 16.0334 19.3052C16.1339 19.188 16.2009 19.0261 16.2344 18.8196L16.9208 14.4747C16.999 13.9836 16.932 13.5985 16.7199 13.3194C16.5134 13.0348 16.1423 12.8311 15.6065 12.7083L11.8308 11.8292L11.8225 11.7455C12.0066 11.6562 12.1573 11.5334 12.2745 11.3772C12.3917 11.2153 12.4782 11.0395 12.5341 10.8498L15.1042 10.4814C15.6288 10.4088 16.0111 10.2275 16.2511 9.93724C16.4967 9.64702 16.6194 9.24239 16.6194 8.72335V5.82674C16.6194 5.62582 16.5636 5.46954 16.452 5.35792C16.3404 5.24072 16.1841 5.18212 15.9832 5.18212C15.7823 5.18212 15.626 5.24072 15.5144 5.35792C15.4028 5.46954 15.3469 5.62582 15.3469 5.82674V8.46382C15.3469 8.75962 15.2716 8.96892 15.1209 9.0917C14.9702 9.2089 14.7581 9.28704 14.4847 9.32611L12.5675 9.58563C12.5229 9.45727 12.4587 9.33727 12.375 9.22565C12.2913 9.11403 12.1936 9.01915 12.082 8.94101V8.85729C12.7964 8.72893 13.3461 8.45824 13.7312 8.04524C14.1163 7.62665 14.3089 7.09924 14.3089 6.46299C14.3089 5.9272 14.214 5.41931 14.0242 4.93934C13.84 4.45936 13.5833 4.0324 13.254 3.65847L13.3294 3.59986C13.7368 3.30964 13.9768 2.95803 14.0493 2.54503C14.1219 2.12644 14.027 1.68553 13.7647 1.2223L13.2708 0.410244C13.1145 0.136768 12.9136 3.05176e-05 12.668 3.05176e-05C12.495 3.05176e-05 12.3499 0.0558419 12.2327 0.167465C12.1211 0.279087 12.0652 0.415825 12.0652 0.577678C12.0652 0.650233 12.0708 0.714416 12.082 0.770227C12.0987 0.826039 12.1322 0.895803 12.1824 0.97952L12.6178 1.64088C12.7517 1.85855 12.8159 2.06226 12.8103 2.25202C12.8047 2.4362 12.7154 2.60363 12.5424 2.75432C12.5201 2.77106 12.4978 2.7906 12.4755 2.81292C12.4531 2.82967 12.428 2.84641 12.4001 2.86315C12.0541 2.62875 11.6746 2.44736 11.2616 2.31899C10.8486 2.18505 10.4188 2.11807 9.97232 2.11807C9.53141 2.11807 9.10724 2.18505 8.69982 2.31899C8.29239 2.44736 7.91846 2.62596 7.57801 2.85478C7.55568 2.84362 7.53057 2.82688 7.50266 2.80455C7.48034 2.78223 7.45801 2.76269 7.43569 2.74595C7.26826 2.59526 7.17896 2.42782 7.1678 2.24365C7.16221 2.05947 7.22919 1.85855 7.36872 1.64088L7.80404 0.97952C7.84869 0.895803 7.87939 0.826039 7.89613 0.770227C7.91288 0.714416 7.92125 0.650233 7.92125 0.577678C7.92125 0.415825 7.86265 0.279087 7.74544 0.167465C7.63382 0.0558419 7.4915 3.05176e-05 7.31849 3.05176e-05C7.06733 3.05176e-05 6.86641 0.136768 6.71572 0.410244L6.22179 1.2223C5.95948 1.68553 5.8646 2.12644 5.93715 2.54503C6.00971 2.95803 6.2497 3.30964 6.65712 3.59986L6.71572 3.64172C6.38086 4.01566 6.11575 4.44541 5.92041 4.93096C5.73065 5.41652 5.63577 5.9272 5.63577 6.46299C5.63577 7.09924 5.82832 7.62665 6.21342 8.04524C6.6041 8.45824 7.15663 8.72893 7.87102 8.85729V8.94101C7.75381 9.01915 7.65335 9.11403 7.56964 9.22565C7.4915 9.33727 7.43011 9.45727 7.38546 9.58563L5.46834 9.32611C5.19486 9.28704 4.98278 9.2089 4.83209 9.0917C4.6814 8.96892 4.60605 8.75962 4.60605 8.46382V5.82674C4.60605 5.62582 4.55024 5.46954 4.43862 5.35792C4.327 5.24072 4.17073 5.18212 3.9698 5.18212C3.76888 5.18212 3.61261 5.24072 3.50099 5.35792C3.38937 5.46954 3.33355 5.62582 3.33355 5.82674V8.72335C3.33355 9.24239 3.45355 9.64702 3.69354 9.93724C3.93911 10.2275 4.32421 10.4088 4.84883 10.4814L7.41895 10.8498C7.47476 11.0395 7.56127 11.2153 7.67847 11.3772C7.79567 11.5334 7.94636 11.6562 8.13054 11.7455V11.8292L4.34653 12.7083C3.80516 12.8311 3.43122 13.0348 3.22472 13.3194C3.01822 13.5985 2.95404 13.9836 3.03217 14.4747L3.71865 18.8196C3.74656 19.0261 3.81074 19.188 3.9112 19.3052C4.01724 19.428 4.17352 19.4894 4.38002 19.4894C4.57536 19.4894 4.73442 19.4224 4.85721 19.2884C4.98557 19.1545 5.03022 18.9675 4.99115 18.7275L4.38002 14.7175C4.34095 14.4663 4.36886 14.2766 4.46373 14.1482C4.5642 14.0143 4.75954 13.9082 5.04975 13.8301C5.16696 13.7966 5.28416 13.7659 5.40137 13.738C5.52415 13.7045 5.64415 13.671 5.76135 13.6375C5.68879 13.7882 5.63298 13.9529 5.59391 14.1315C5.56043 14.3101 5.54368 14.5054 5.54368 14.7175C5.54368 15.404 5.66089 16.0625 5.8953 16.6932C6.13529 17.3239 6.46178 17.8876 6.87479 18.3843C7.28779 18.8866 7.7594 19.2801 8.2896 19.5647C8.81981 19.8549 9.38072 20 9.97232 20Z" fill="black"/>
</g>
<defs>
<clipPath id="clip0_1_458">
<rect width="20" height="20" fill="white" transform="translate(0.0588379 3.05176e-05)"/>
</clipPath>
</defs>
</svg>
