<svg width="21" height="20" viewBox="0 0 21 20" fill="none" xmlns="http://www.w3.org/2000/svg">
<g clip-path="url(#clip0_1_459)">
<path d="M4.34454 8.14288H12.2017V9.57145H4.34454V8.14288ZM4.34454 11.7143H13.6303V13.1429H4.34454V11.7143Z" fill="black"/>
<path d="M18.6303 1.00003H1.48741C1.10853 1.00003 0.745166 1.15054 0.477257 1.41845C0.209348 1.68636 0.0588379 2.04972 0.0588379 2.4286V16.7143C0.0588379 17.0932 0.209348 17.4566 0.477257 17.7245C0.745166 17.9924 1.10853 18.1429 1.48741 18.1429H18.6303C19.0091 18.1429 19.3725 17.9924 19.6404 17.7245C19.9083 17.4566 20.0588 17.0932 20.0588 16.7143V2.4286C20.0588 2.04972 19.9083 1.68636 19.6404 1.41845C19.3725 1.15054 19.0091 1.00003 18.6303 1.00003V1.00003ZM18.6303 2.4286V3.85717H1.48741V2.4286H18.6303ZM1.48741 16.7143V5.28575H18.6303V16.7143H1.48741Z" fill="black"/>
</g>
<defs>
<clipPath id="clip0_1_459">
<rect width="20" height="20" fill="white" transform="translate(0.0588379 3.05176e-05)"/>
</clipPath>
</defs>
</svg>
