<svg width="20" height="20" viewBox="0 0 20 20" fill="none" xmlns="http://www.w3.org/2000/svg">
<path d="M4.28571 8.14288H12.1428V9.57145H4.28571V8.14288ZM4.28571 11.7143H13.5714V13.1429H4.28571V11.7143Z" fill="black"/>
<path d="M18.5714 1.00003H1.42857C1.04969 1.00003 0.686328 1.15054 0.418419 1.41845C0.15051 1.68636 0 2.04972 0 2.4286V16.7143C0 17.0932 0.15051 17.4566 0.418419 17.7245C0.686328 17.9924 1.04969 18.1429 1.42857 18.1429H18.5714C18.9503 18.1429 19.3137 17.9924 19.5816 17.7245C19.8495 17.4566 20 17.0932 20 16.7143V2.4286C20 2.04972 19.8495 1.68636 19.5816 1.41845C19.3137 1.15054 18.9503 1.00003 18.5714 1.00003V1.00003ZM18.5714 2.4286V3.85717H1.42857V2.4286H18.5714ZM1.42857 16.7143V5.28575H18.5714V16.7143H1.42857Z" fill="black"/>
</svg>
