<svg width="24" height="24" viewBox="0 0 24 24" fill="none" xmlns="http://www.w3.org/2000/svg">
<path d="M2 12.3518C2 12.1977 2.0268 12.0536 2.0804 11.9196C2.134 11.7789 2.21776 11.6549 2.33166 11.5477L7.64824 6.33166C7.86935 6.11055 8.1273 6 8.42211 6C8.73702 6 8.99162 6.09715 9.18593 6.29146C9.38023 6.48576 9.47739 6.73702 9.47739 7.04523C9.47739 7.19933 9.44724 7.33668 9.38693 7.45729C9.32663 7.57789 9.24958 7.68509 9.15578 7.77889L6.98492 9.8995L5.25628 11.3668L7.51759 11.2764H16.4824L18.7437 11.3668L17.0251 9.8995L14.8442 7.77889C14.7504 7.68509 14.6734 7.57789 14.6131 7.45729C14.5595 7.33668 14.5327 7.19933 14.5327 7.04523C14.5327 6.73702 14.6265 6.48576 14.8141 6.29146C15.0084 6.09715 15.2663 6 15.5879 6C15.876 6 16.1307 6.11055 16.3518 6.33166L21.6683 11.5477C21.7822 11.6549 21.866 11.7789 21.9196 11.9196C21.9732 12.0536 22 12.1977 22 12.3518C22 12.4925 21.9732 12.6332 21.9196 12.7739C21.866 12.9079 21.7822 13.0318 21.6683 13.1457L16.3518 18.3618C16.1307 18.5829 15.876 18.6935 15.5879 18.6935C15.2663 18.6935 15.0084 18.5963 14.8141 18.402C14.6265 18.201 14.5327 17.9497 14.5327 17.6482C14.5327 17.4941 14.5595 17.3568 14.6131 17.2362C14.6734 17.1156 14.7504 17.005 14.8442 16.9045L17.0251 14.794L18.7437 13.3166L16.4824 13.4171H7.51759L5.25628 13.3166L6.98492 14.794L9.15578 16.9045C9.24958 17.005 9.32663 17.1156 9.38693 17.2362C9.44724 17.3568 9.47739 17.4941 9.47739 17.6482C9.47739 17.9497 9.38023 18.201 9.18593 18.402C8.99162 18.5963 8.73702 18.6935 8.42211 18.6935C8.1273 18.6935 7.86935 18.5829 7.64824 18.3618L2.33166 13.1457C2.21776 13.0318 2.134 12.9079 2.0804 12.7739C2.0268 12.6332 2 12.4925 2 12.3518Z" fill="black"/>
</svg>
