<svg width="24" height="24" viewBox="0 0 24 24" fill="none" xmlns="http://www.w3.org/2000/svg">
<path d="M13.8225 20.2C14.1183 20.2 14.4036 20.0838 14.6572 19.8408L21.6196 12.8783C21.8627 12.6459 22 12.3289 22 12.012C22 11.6844 21.8627 11.3675 21.6196 11.135L14.6783 4.19367C14.4036 3.92954 14.1183 3.81332 13.8225 3.81332C13.1463 3.81332 12.6603 4.28876 12.6603 4.93324C12.6603 5.27133 12.7977 5.55659 13.009 5.76789L15.3862 8.17677L18.4501 10.9766L15.9989 10.8286H3.19387C2.486 10.8286 2 11.3146 2 12.012C2 12.6987 2.486 13.1847 3.19387 13.1847H15.9989L18.4501 13.0368L15.3862 15.8366L13.009 18.2454C12.7977 18.4567 12.6603 18.742 12.6603 19.0801C12.6603 19.7246 13.1463 20.2 13.8225 20.2Z" fill="black"/>
</svg>
