<svg width="20" height="20" viewBox="0 0 20 20" fill="none" xmlns="http://www.w3.org/2000/svg">
<path d="M11.8225 18.3867C12.1183 18.3867 12.4036 18.2705 12.6572 18.0275L19.6197 11.065C19.8627 10.8326 20 10.5156 20 10.1987C20 9.87113 19.8627 9.55418 19.6197 9.32174L12.6783 2.38038C12.4036 2.11625 12.1183 2.00003 11.8225 2.00003C11.1463 2.00003 10.6603 2.47547 10.6603 3.11995C10.6603 3.45803 10.7977 3.7433 11.009 3.9546L13.3862 6.36347L16.4501 9.16326L13.9989 9.01535H1.19387C0.486001 9.01535 0 9.50135 0 10.1987C0 10.8854 0.486001 11.3714 1.19387 11.3714H13.9989L16.4501 11.2235L13.3862 14.0233L11.009 16.4321C10.7977 16.6435 10.6603 16.9287 10.6603 17.2668C10.6603 17.9113 11.1463 18.3867 11.8225 18.3867Z" fill="black"/>
</svg>
