<svg width="24" height="24" viewBox="0 0 24 24" fill="none" xmlns="http://www.w3.org/2000/svg">
<path d="M19.7797 4.24894C20.2691 4.73835 20.5964 5.32627 20.7617 6.01271C20.9269 6.69915 21.0095 7.52542 21.0095 8.49153V15.5085C21.0095 16.4746 20.9269 17.3008 20.7617 17.9873C20.5964 18.6737 20.2691 19.2617 19.7797 19.7511C19.2775 20.2532 18.6801 20.5869 17.9873 20.7521C17.3008 20.9174 16.4778 21 15.518 21H8.49153C7.53178 21 6.70869 20.9174 6.02225 20.7521C5.33581 20.5869 4.74153 20.2532 4.23941 19.7511C3.74364 19.2617 3.41314 18.6737 3.24788 17.9873C3.08263 17.3008 3 16.4746 3 15.5085V8.47246C3 7.51271 3.08263 6.6928 3.24788 6.01271C3.41314 5.32627 3.74364 4.73835 4.23941 4.24894C4.73517 3.74682 5.32627 3.41314 6.01271 3.24788C6.70551 3.08263 7.5286 3 8.48199 3H15.518C16.4778 3 17.3008 3.08263 17.9873 3.24788C18.6801 3.41314 19.2775 3.74682 19.7797 4.24894ZM15.1271 14.8506C15.4322 14.8506 15.6706 14.7489 15.8422 14.5456C16.0201 14.3422 16.1091 14.0752 16.1091 13.7447V9.1875C16.1091 8.7553 15.9915 8.42797 15.7564 8.20551C15.5212 7.98305 15.197 7.87182 14.7839 7.87182H10.2076C9.87076 7.87182 9.60064 7.9608 9.39725 8.13877C9.19386 8.31674 9.09216 8.55826 9.09216 8.86335C9.09216 9.16208 9.19068 9.40042 9.38771 9.57839C9.5911 9.75636 9.86123 9.84534 10.1981 9.84534H11.6472L12.8294 9.6928L11.4756 10.8845L8.28178 14.0784C8.04025 14.3136 7.91949 14.5869 7.91949 14.8983C7.91949 15.2415 8.02754 15.5148 8.24364 15.7182C8.4661 15.9216 8.73305 16.0233 9.04449 16.0233C9.20975 16.0233 9.36547 15.9947 9.51165 15.9375C9.65784 15.8803 9.79449 15.7881 9.92161 15.661L13.0869 12.4958L14.2691 11.1515L14.1356 12.3909V13.7447C14.1356 14.0816 14.2246 14.3517 14.4025 14.5551C14.5805 14.7521 14.822 14.8506 15.1271 14.8506Z" fill="black"/>
</svg>
