<svg width="24" height="24" viewBox="0 0 24 24" fill="none" xmlns="http://www.w3.org/2000/svg">
<path d="M5.37901 20.2837C4.4683 20.2837 3.76079 20.0291 3.25647 19.5199C2.75216 19.0156 2.5 18.3081 2.5 17.3973V6.58637C2.5 5.67566 2.75216 4.96815 3.25647 4.46383C3.76079 3.95462 4.4683 3.70001 5.37901 3.70001H13.311C14.2217 3.70001 14.9292 3.95462 15.4335 4.46383C15.9378 4.96815 16.19 5.67566 16.19 6.58637V9.48741H13.5827V6.98297C13.5827 6.75774 13.5313 6.58882 13.4285 6.4762C13.3257 6.36359 13.1543 6.30728 12.9144 6.30728H5.78295C5.53814 6.30728 5.36432 6.36359 5.2615 6.4762C5.15868 6.58882 5.10727 6.75774 5.10727 6.98297V17.0007C5.10727 17.226 5.15868 17.3949 5.2615 17.5075C5.36432 17.6201 5.53814 17.6764 5.78295 17.6764H12.9144C13.1543 17.6764 13.3257 17.6201 13.4285 17.5075C13.5313 17.3949 13.5827 17.226 13.5827 17.0007V14.5477H16.19V17.3973C16.19 18.3081 15.9378 19.0156 15.4335 19.5199C14.9292 20.0291 14.2217 20.2837 13.311 20.2837H5.37901ZM11.0783 13.1009C10.7845 13.1009 10.5274 12.9931 10.3071 12.7777C10.0868 12.5623 9.97661 12.2979 9.97661 11.9845C9.97661 11.6663 10.0868 11.4019 10.3071 11.1913C10.5274 10.9759 10.7845 10.8682 11.0783 10.8682H17.8351L18.8927 10.971L18.2758 10.6992L17.5781 10.0382C17.3675 9.84239 17.2623 9.60492 17.2623 9.32583C17.2623 9.09081 17.3455 8.87782 17.512 8.68687C17.6785 8.49102 17.8963 8.39309 18.1656 8.39309C18.4104 8.39309 18.6259 8.48612 18.8119 8.67218L21.1034 11.0665C21.2454 11.2133 21.3458 11.3651 21.4045 11.5218C21.4682 11.6785 21.5 11.8327 21.5 11.9845C21.5 12.1363 21.4682 12.2905 21.4045 12.4472C21.3458 12.599 21.2454 12.7508 21.1034 12.9026L18.8119 15.2895C18.6259 15.4805 18.4104 15.5759 18.1656 15.5759C17.8963 15.5759 17.6785 15.478 17.512 15.2822C17.3455 15.0863 17.2623 14.8709 17.2623 14.6358C17.2623 14.3617 17.3675 14.1266 17.5781 13.9308L18.2758 13.2698L18.8927 12.998L17.8351 13.1009H11.0783Z" fill="black"/>
</svg>
