<svg width="21" height="20" viewBox="0 0 21 20" fill="none" xmlns="http://www.w3.org/2000/svg">
<path d="M11.8813 18.3867C12.1772 18.3867 12.4624 18.2705 12.716 18.0275L19.6785 11.065C19.9215 10.8326 20.0588 10.5156 20.0588 10.1987C20.0588 9.87113 19.9215 9.55418 19.6785 9.32174L12.7371 2.38038C12.4624 2.11625 12.1772 2.00003 11.8813 2.00003C11.2052 2.00003 10.7192 2.47547 10.7192 3.11995C10.7192 3.45803 10.8565 3.7433 11.0678 3.9546L13.445 6.36347L16.5089 9.16326L14.0578 9.01535H1.25271C0.544839 9.01535 0.0588379 9.50135 0.0588379 10.1987C0.0588379 10.8854 0.544839 11.3714 1.25271 11.3714H14.0578L16.5089 11.2235L13.445 14.0233L11.0678 16.4321C10.8565 16.6435 10.7192 16.9287 10.7192 17.2668C10.7192 17.9113 11.2052 18.3867 11.8813 18.3867Z" fill="black"/>
</svg>
