<svg width="21" height="20" viewBox="0 0 21 20" fill="none" xmlns="http://www.w3.org/2000/svg">
<path d="M8.23633 2.00003C7.94051 2.00003 7.65525 2.11625 7.40168 2.35925L0.439188 9.32174C0.196187 9.55418 0.0588379 9.87113 0.0588379 10.1881C0.0588379 10.5156 0.196187 10.8326 0.439188 11.065L7.38055 18.0064C7.65525 18.2705 7.94051 18.3867 8.23633 18.3867C8.91251 18.3867 9.39851 17.9113 9.39851 17.2668C9.39851 16.9287 9.26116 16.6435 9.04986 16.4321L6.67268 14.0233L3.60876 11.2235L6.05989 11.3714H18.865C19.5728 11.3714 20.0588 10.8854 20.0588 10.1881C20.0588 9.50135 19.5728 9.01535 18.865 9.01535H6.05989L3.60876 9.16326L6.67268 6.36348L9.04986 3.9546C9.26116 3.7433 9.39851 3.45804 9.39851 3.11995C9.39851 2.47547 8.91251 2.00003 8.23633 2.00003Z" fill="black"/>
</svg>
