<svg width="24" height="24" viewBox="0 0 24 24" fill="none" xmlns="http://www.w3.org/2000/svg">
<path d="M2.40002 12.3959C2.40002 11.4321 2.54735 10.4898 2.84201 9.56902C3.14281 8.64206 3.56025 7.78571 4.09432 6.99995C4.63453 6.21419 5.26375 5.54813 5.98199 5.00178C6.25823 4.76851 6.54062 4.66415 6.82914 4.6887C7.1238 4.70712 7.36321 4.8299 7.54737 5.05703C7.73767 5.30872 7.80213 5.57575 7.74074 5.85814C7.68549 6.14052 7.54123 6.38914 7.30796 6.604C6.73706 7.0644 6.24289 7.59541 5.82545 8.197C5.40802 8.79246 5.08266 9.44624 4.84939 10.1583C4.62225 10.8643 4.50869 11.6102 4.50869 12.3959C4.50869 13.4334 4.70206 14.4064 5.0888 15.3149C5.47554 16.2234 6.00961 17.0215 6.69102 17.709C7.37856 18.3904 8.17659 18.9245 9.08513 19.3112C9.99367 19.698 10.9667 19.8913 12.0041 19.8913C13.0416 19.8913 14.0115 19.698 14.9139 19.3112C15.8224 18.9245 16.6174 18.3904 17.2988 17.709C17.9863 17.0215 18.5235 16.2234 18.9102 15.3149C19.297 14.4064 19.4903 13.4334 19.4903 12.3959C19.4903 11.5242 19.3522 10.7016 19.076 9.92813C18.8059 9.14851 18.4222 8.44255 17.9249 7.81026C17.4338 7.17183 16.8537 6.62855 16.1846 6.18042C15.5155 5.72615 14.7788 5.39466 13.9747 5.18594V6.383C13.9747 6.75747 13.8549 6.99074 13.6155 7.08282C13.3761 7.16876 13.1029 7.10431 12.796 6.88945L9.59158 4.6887C9.33989 4.51068 9.21098 4.29582 9.20484 4.04413C9.20484 3.79245 9.33375 3.58066 9.59158 3.40877L12.796 1.21724C13.1091 1.00852 13.3823 0.950201 13.6155 1.04228C13.8549 1.12822 13.9747 1.35536 13.9747 1.72368V3.00362C15.0612 3.23689 16.068 3.63898 16.9949 4.20988C17.9219 4.78079 18.7291 5.48674 19.4167 6.32775C20.1042 7.16262 20.6413 8.09571 21.0281 9.12703C21.4148 10.1583 21.6082 11.248 21.6082 12.3959C21.6082 13.7096 21.3565 14.9466 20.8531 16.1068C20.3497 17.267 19.6561 18.2891 18.7721 19.1731C17.8942 20.0571 16.8752 20.7477 15.715 21.2449C14.5548 21.7483 13.3178 22 12.0041 22C10.6904 22 9.45346 21.7483 8.29323 21.2449C7.13301 20.7477 6.1109 20.0571 5.22692 19.1731C4.34294 18.2891 3.64926 17.267 3.14588 16.1068C2.64864 14.9466 2.40002 13.7096 2.40002 12.3959ZM9.46266 16.3094C9.24781 16.3094 9.07285 16.2388 8.9378 16.0976C8.80889 15.9564 8.74443 15.7692 8.74443 15.5359V10.6924L8.0262 11.2909C7.94025 11.3892 7.85738 11.4567 7.77758 11.4935C7.69777 11.5242 7.59955 11.5396 7.48291 11.5396C7.31103 11.5396 7.1637 11.4782 7.04092 11.3554C6.92429 11.2326 6.86597 11.0822 6.86597 10.9042C6.86597 10.7691 6.89666 10.6494 6.95805 10.5451C7.01944 10.4346 7.11766 10.3241 7.25271 10.2136L8.38531 9.36644C8.57561 9.21911 8.74136 9.11782 8.88255 9.06257C9.02374 9.00732 9.17414 8.9797 9.33375 8.9797C9.59772 8.9797 9.80643 9.05643 9.9599 9.2099C10.1134 9.36337 10.1901 9.5905 10.1901 9.8913V15.5359C10.1901 15.7753 10.1226 15.9656 9.98753 16.1068C9.85861 16.2418 9.68366 16.3094 9.46266 16.3094ZM14.0483 16.383C13.4774 16.383 12.9955 16.2511 12.6026 15.9871C12.2159 15.717 11.9611 15.4285 11.8384 15.1215C11.8077 15.0417 11.7862 14.9681 11.7739 14.9005C11.7616 14.833 11.7555 14.7624 11.7555 14.6887C11.7555 14.5046 11.8107 14.3542 11.9212 14.2375C12.0379 14.1209 12.1883 14.0626 12.3724 14.0626C12.5075 14.0626 12.618 14.0933 12.7039 14.1547C12.796 14.2161 12.8789 14.2989 12.9525 14.4033C13.0692 14.612 13.2227 14.7839 13.413 14.9189C13.6033 15.0479 13.8304 15.1123 14.0944 15.1123C14.4258 15.1123 14.699 14.9957 14.9139 14.7624C15.1349 14.5291 15.2454 14.2314 15.2454 13.8692C15.2454 13.5254 15.1472 13.2431 14.9507 13.0221C14.7604 12.8011 14.4995 12.6906 14.168 12.6906C13.9961 12.6906 13.8396 12.7243 13.6984 12.7919C13.5572 12.8594 13.4099 12.9607 13.2564 13.0957C13.1398 13.1878 13.0354 13.2553 12.9433 13.2983C12.8513 13.3351 12.7162 13.3536 12.5382 13.3536C12.3049 13.3536 12.1207 13.286 11.9857 13.151C11.8568 13.0159 11.8015 12.8226 11.8199 12.5709L12.0041 9.95576C12.0409 9.36644 12.3264 9.07178 12.8605 9.07178H15.7702C15.9544 9.07178 16.1048 9.13009 16.2214 9.24673C16.3442 9.35723 16.4056 9.50763 16.4056 9.69793C16.4056 9.88823 16.3442 10.0448 16.2214 10.1675C16.1048 10.2842 15.9544 10.3425 15.7702 10.3425H13.2104L13.0538 12.267H13.0446C13.1735 12.0337 13.37 11.8526 13.6339 11.7237C13.8979 11.5948 14.1772 11.5303 14.4719 11.5303C15.0858 11.5303 15.5984 11.7421 16.0096 12.1657C16.4209 12.5831 16.6266 13.1387 16.6266 13.8324C16.6266 14.6059 16.3903 15.2259 15.9176 15.6924C15.451 16.1528 14.8279 16.383 14.0483 16.383Z" fill="black"/>
</svg>
