<svg width="21" height="20" viewBox="0 0 21 20" fill="none" xmlns="http://www.w3.org/2000/svg">
<path d="M2.71234 16.0892H17.6682C18.6808 16.0892 19.3124 15.504 19.3124 14.6401C19.3124 13.6182 18.4578 12.7636 17.6032 11.9833C16.9158 11.3516 16.7672 10.0047 16.6092 8.63914C16.4142 5.36928 15.3645 3.00978 13.0235 2.16445C12.6148 0.928967 11.5558 3.05176e-05 10.1903 3.05176e-05C8.81546 3.05176e-05 7.76576 0.928967 7.35703 2.16445C5.00682 3.00978 3.95712 5.36928 3.76204 8.63914C3.60412 10.0047 3.46478 11.3516 2.77737 11.9833C1.91346 12.7636 1.05884 13.6182 1.05884 14.6401C1.05884 15.504 1.6998 16.0892 2.71234 16.0892ZM10.1903 20C11.8902 20 13.1257 18.8017 13.2465 17.399H7.12479C7.24555 18.8017 8.49033 20 10.1903 20Z" fill="black"/>
</svg>
