<svg width="20" height="20" viewBox="0 0 20 20" fill="none" xmlns="http://www.w3.org/2000/svg">
<path d="M2.65351 16.0892H17.6094C18.6219 16.0892 19.2536 15.504 19.2536 14.6401C19.2536 13.6182 18.399 12.7636 17.5444 11.9833C16.8569 11.3516 16.7083 10.0047 16.5504 8.63914C16.3553 5.36928 15.3056 3.00978 12.9647 2.16445C12.556 0.928967 11.497 3.05176e-05 10.1314 3.05176e-05C8.75662 3.05176e-05 7.70692 0.928967 7.29819 2.16445C4.94798 3.00978 3.89828 5.36928 3.7032 8.63914C3.54529 10.0047 3.40595 11.3516 2.71853 11.9833C1.85462 12.7636 1 13.6182 1 14.6401C1 15.504 1.64097 16.0892 2.65351 16.0892ZM10.1314 20C11.8314 20 13.0669 18.8017 13.1876 17.399H7.06595C7.18672 18.8017 8.43149 20 10.1314 20Z" fill="black"/>
</svg>
