<svg width="24" height="24" viewBox="0 0 24 24" fill="none" xmlns="http://www.w3.org/2000/svg">
<path d="M5.97187 20.3934C5.35987 20.5013 4.76375 20.4881 4.18353 20.3538C3.60756 20.2187 3.0796 19.9831 2.59965 19.6471C2.12471 19.3145 1.72565 18.9028 1.40247 18.412C1.07854 17.917 0.86225 17.3613 0.753588 16.7451C0.645675 16.1331 0.657507 15.5416 0.789084 14.9706C0.924162 14.3947 1.15798 13.8692 1.49054 13.3942C1.8266 12.9143 2.24253 12.5145 2.73832 12.1948C3.23335 11.8709 3.79112 11.6542 4.41163 11.5448C5.02364 11.4369 5.6155 11.4509 6.18722 11.5867C6.76244 11.7175 7.2879 11.9513 7.7636 12.2881C8.24279 12.62 8.64436 13.0334 8.96828 13.5284C9.29146 14.0192 9.507 14.5706 9.61492 15.1826C9.72283 15.7946 9.70712 16.389 9.56779 16.9657C9.43272 17.5417 9.1989 18.0671 8.86634 18.5421C8.53452 19.0213 8.1211 19.4228 7.62606 19.7468C7.13527 20.0699 6.58388 20.2855 5.97187 20.3934ZM5.69872 18.8443C6.09397 18.7746 6.45274 18.6346 6.77501 18.4244C7.09728 18.2142 7.36694 17.9541 7.58398 17.6442C7.80102 17.3342 7.95319 16.9918 8.04049 16.6171C8.12779 16.2424 8.13622 15.8553 8.06578 15.4558C7.99608 15.0605 7.85614 14.7017 7.64593 14.3795C7.43573 14.0572 7.17565 13.7875 6.86568 13.5705C6.55572 13.3535 6.21337 13.2013 5.83864 13.114C5.46391 13.0267 5.07891 13.0179 4.68366 13.0876C4.28416 13.158 3.92327 13.2983 3.60099 13.5085C3.27872 13.7187 3.00694 13.9792 2.78565 14.2899C2.56861 14.5999 2.41644 14.9422 2.32914 15.317C2.24109 15.6874 2.23228 16.0724 2.30273 16.4719C2.37392 16.8757 2.51462 17.2387 2.72482 17.561C2.93502 17.8833 3.1951 18.1529 3.50507 18.37C3.81928 18.5862 4.16126 18.7363 4.53099 18.8201C4.90572 18.9074 5.29496 18.9154 5.69872 18.8443ZM19.7675 17.9608C19.1512 18.0695 18.5551 18.0563 17.9792 17.9212C17.4032 17.7861 16.8752 17.5506 16.3953 17.2145C15.9203 16.882 15.5191 16.4707 15.1917 15.9806C14.8678 15.4856 14.6515 14.9299 14.5428 14.3137C14.4349 13.7017 14.4489 13.1098 14.5847 12.5381C14.724 11.9614 14.96 11.4355 15.2925 10.9606C15.6286 10.4806 16.0445 10.0808 16.5403 9.76115C17.0354 9.43723 17.591 9.22093 18.2073 9.11227C18.8193 9.00436 19.4111 9.01831 19.9828 9.15414C20.5581 9.28497 21.0835 9.51879 21.5592 9.8556C22.0384 10.1874 22.4379 10.6012 22.7575 11.097C23.0807 11.5878 23.2963 12.1392 23.4042 12.7512C23.5128 13.3674 23.4996 13.9636 23.3645 14.5395C23.233 15.1105 22.9988 15.6338 22.662 16.1095C22.3301 16.5887 21.9167 16.9903 21.4217 17.3142C20.9266 17.6381 20.3753 17.8537 19.7675 17.9608ZM19.4943 16.4117C19.8896 16.342 20.2484 16.2021 20.5706 15.9919C20.8929 15.7817 21.1626 15.5216 21.3796 15.2116C21.5966 14.9017 21.7488 14.5593 21.8361 14.1846C21.9234 13.8098 21.9318 13.4227 21.8614 13.0232C21.7917 12.628 21.6521 12.2713 21.4427 11.9533C21.2325 11.631 20.9724 11.3614 20.6624 11.1443C20.3517 10.923 20.009 10.7687 19.6343 10.6814C19.2595 10.5941 18.8745 10.5853 18.4793 10.655C18.0798 10.7255 17.7189 10.8658 17.3966 11.076C17.0743 11.2862 16.8047 11.5463 16.5876 11.8562C16.3706 12.1662 16.2163 12.5089 16.1248 12.8844C16.0375 13.2592 16.0287 13.6441 16.0983 14.0394C16.1928 14.5749 16.4082 15.0387 16.7446 15.4307C17.0803 15.8185 17.4874 16.1017 17.9659 16.2802C18.4493 16.4623 18.9588 16.5061 19.4943 16.4117ZM10.4124 5.57649C10.3756 5.36824 10.4185 5.17662 10.5411 5.00164C10.6671 4.82166 10.8364 4.71294 11.0489 4.67547L13.1973 4.29665C13.6733 4.21271 14.0322 4.35976 14.2742 4.73779L19.7824 13.4227L18.4282 14.1676L13.2383 5.94588C13.208 5.89862 13.1653 5.87987 13.11 5.88961L11.3186 6.20548C11.1061 6.24295 10.9103 6.2008 10.731 6.07902C10.5561 5.9565 10.4498 5.78899 10.4124 5.57649ZM16.066 9.68046L8.85301 11.9054L8.59896 10.4647L15.8119 8.2397L16.066 9.68046ZM11.2149 15.7944L5.49013 16.8039L5.23609 15.3631L10.9609 14.3537L11.2149 15.7944ZM12.2022 16.4354C11.8962 16.4894 11.6051 16.4662 11.3288 16.3659C11.0519 16.2614 10.8173 16.099 10.6251 15.8787C10.4321 15.6542 10.3136 15.3924 10.2697 15.0934C10.22 14.7867 10.2478 14.497 10.353 14.2242C10.4583 13.9515 10.6219 13.7233 10.8436 13.5395C11.0646 13.3516 11.326 13.231 11.6278 13.1778C11.9295 13.1246 12.2168 13.1506 12.4895 13.2559C12.7615 13.3569 12.9915 13.518 13.1794 13.739C13.3709 13.955 13.4932 14.2139 13.5464 14.5157C13.5997 14.8174 13.5736 15.1047 13.4683 15.3774C13.3673 15.6494 13.2066 15.8815 12.9864 16.0737C12.7653 16.2616 12.504 16.3822 12.2022 16.4354ZM11.9984 15.2422C12.1259 15.2197 12.2229 15.161 12.2894 15.066C12.3594 14.966 12.3847 14.8607 12.3652 14.7502C12.342 14.6185 12.28 14.5155 12.1792 14.4412C12.0785 14.367 11.9665 14.3407 11.8432 14.3624C11.7157 14.3849 11.6135 14.4511 11.5365 14.5611C11.463 14.6661 11.4374 14.7824 11.4599 14.9099C11.4794 15.0204 11.5413 15.1102 11.6455 15.1795C11.749 15.2445 11.8666 15.2654 11.9984 15.2422ZM5.38847 17.0847C5.06972 17.1409 4.78285 17.0798 4.52788 16.9012C4.27216 16.7185 4.11907 16.4716 4.06862 16.1606C4.01666 15.8411 4.0782 15.5563 4.25323 15.3064C4.43252 15.0556 4.67941 14.9025 4.99391 14.8471C5.30416 14.7924 5.58678 14.8543 5.84175 15.0328C6.09597 15.2071 6.25081 15.4515 6.30626 15.766C6.36097 16.0763 6.2973 16.3614 6.11527 16.6213C5.93674 16.8763 5.69447 17.0308 5.38847 17.0847ZM19.1841 14.6522C18.8696 14.7076 18.5827 14.6465 18.3235 14.4687C18.0678 14.2859 17.9147 14.039 17.8642 13.728C17.8123 13.4085 17.8738 13.1238 18.0489 12.8738C18.2281 12.6231 18.475 12.47 18.7895 12.4145C19.104 12.3591 19.3866 12.421 19.6374 12.6003C19.8916 12.7746 20.0464 13.019 20.1019 13.3335C20.1566 13.6437 20.0951 13.9285 19.9173 14.1877C19.7387 14.4426 19.4943 14.5975 19.1841 14.6522ZM11.306 13.813L14.5454 9.03488L16.4092 8.7194L12.7346 14.3104L11.306 13.813ZM4.43991 15.8059L7.71208 10.6539L9.13473 11.1918L5.84832 16.3003L4.43991 15.8059ZM10.7388 14.7346L6.22771 8.9831L7.66214 8.39494L11.8456 13.5929L10.7388 14.7346ZM4.61714 8.72151C4.58042 8.51325 4.62333 8.32164 4.74585 8.14666C4.87187 7.96668 5.04113 7.85795 5.25364 7.82048L8.59416 7.23146C8.80242 7.19474 8.99441 7.23976 9.17014 7.36654C9.34937 7.48831 9.45734 7.65332 9.49406 7.86157C9.53153 8.07408 9.48901 8.26782 9.36648 8.4428C9.24396 8.61778 9.07645 8.724 8.86395 8.76147L5.52342 9.3505C5.31092 9.38797 5.11505 9.34582 4.93582 9.22404C4.76084 9.10152 4.65461 8.93401 4.61714 8.72151Z" fill="black"/>
</svg>
