<svg width="24" height="24" viewBox="0 0 24 24" fill="none" xmlns="http://www.w3.org/2000/svg">
<path d="M7.69823 19.5765H16.3018C18.0193 19.5765 18.7737 18.6857 19.0385 16.9762L20.1942 9.42404C21.3258 9.38391 22 8.62147 22 7.48183V6.3502C22 5.17043 21.2857 4.39996 20.1059 4.39996H3.90209C2.75441 4.39996 2 5.17043 2 6.3502V7.48183C2 8.62147 2.68218 9.38391 3.80578 9.42404L4.96148 16.9762C5.22632 18.6857 5.98074 19.5765 7.69823 19.5765ZM4.19101 7.79483C3.85393 7.79483 3.69342 7.62629 3.69342 7.28921V6.54282C3.69342 6.20574 3.85393 6.0372 4.19101 6.0372H19.817C20.1541 6.0372 20.3066 6.20574 20.3066 6.54282V7.28921C20.3066 7.62629 20.1541 7.79483 19.817 7.79483H4.19101ZM7.82665 17.7868C7.19262 17.7868 6.86356 17.5139 6.75923 16.8077L5.60353 9.43207H18.3965L17.2408 16.8077C17.1364 17.5139 16.8074 17.7868 16.1734 17.7868H7.82665ZM9.86517 16.4545C10.0658 16.4545 10.2344 16.3743 10.3788 16.2298L11.992 14.6006L13.6132 16.2298C13.7576 16.3663 13.9262 16.4545 14.1348 16.4545C14.5441 16.4545 14.8732 16.1094 14.8732 15.7082C14.8732 15.4834 14.801 15.3309 14.6485 15.1785L13.0433 13.5733L14.6565 11.9521C14.809 11.7996 14.8812 11.6391 14.8812 11.4385C14.8812 11.0212 14.5522 10.6921 14.1348 10.6921C13.9422 10.6921 13.7817 10.7643 13.6212 10.9168L11.992 12.546L10.3788 10.9168C10.2263 10.7724 10.0658 10.7001 9.86517 10.7001C9.45586 10.7001 9.11878 11.0292 9.11878 11.4385C9.11878 11.6472 9.19101 11.8157 9.3435 11.9602L10.9567 13.5733L9.3435 15.1865C9.19904 15.3309 9.11878 15.4915 9.11878 15.7082C9.11878 16.1094 9.45586 16.4545 9.86517 16.4545Z" fill="black"/>
</svg>
