<svg width="21" height="20" viewBox="0 0 21 20" fill="none" xmlns="http://www.w3.org/2000/svg">
<g clip-path="url(#clip0_1_463)">
<path d="M5.75707 17.1766H14.3606C16.0781 17.1766 16.8325 16.2857 17.0974 14.5763L18.2531 7.02411C19.3847 6.98398 20.0588 6.22154 20.0588 5.08189V3.95027C20.0588 2.7705 19.3446 2.00003 18.1648 2.00003H1.96092C0.813252 2.00003 0.0588379 2.7705 0.0588379 3.95027V5.08189C0.0588379 6.22154 0.741021 6.98398 1.86462 7.02411L3.02031 14.5763C3.28516 16.2857 4.03958 17.1766 5.75707 17.1766ZM2.24985 5.39489C1.91277 5.39489 1.75226 5.22635 1.75226 4.88928V4.14289C1.75226 3.80581 1.91277 3.63727 2.24985 3.63727H17.8759C18.2129 3.63727 18.3654 3.80581 18.3654 4.14289V4.88928C18.3654 5.22635 18.2129 5.39489 17.8759 5.39489H2.24985ZM5.88548 15.3869C5.25145 15.3869 4.9224 15.114 4.81807 14.4077L3.66237 7.03213H16.4553L15.2996 14.4077C15.1953 15.114 14.8662 15.3869 14.2322 15.3869H5.88548ZM7.92401 14.0546C8.12465 14.0546 8.29319 13.9743 8.43765 13.8299L10.0508 12.2007L11.672 13.8299C11.8165 13.9663 11.985 14.0546 12.1937 14.0546C12.603 14.0546 12.932 13.7095 12.932 13.3082C12.932 13.0835 12.8598 12.931 12.7073 12.7785L11.1022 11.1734L12.7153 9.5522C12.8678 9.39971 12.9401 9.2392 12.9401 9.03855C12.9401 8.62122 12.611 8.29217 12.1937 8.29217C12.0011 8.29217 11.8405 8.3644 11.68 8.51688L10.0508 10.1461L8.43765 8.51688C8.28516 8.37242 8.12465 8.30019 7.92401 8.30019C7.5147 8.30019 7.17762 8.62924 7.17762 9.03855C7.17762 9.24722 7.24985 9.41576 7.40234 9.56022L9.0155 11.1734L7.40234 12.7865C7.25788 12.931 7.17762 13.0915 7.17762 13.3082C7.17762 13.7095 7.5147 14.0546 7.92401 14.0546Z" fill="black"/>
</g>
<defs>
<clipPath id="clip0_1_463">
<rect width="20" height="20" fill="white" transform="translate(0.0588379 3.05176e-05)"/>
</clipPath>
</defs>
</svg>
