<svg width="21" height="20" viewBox="0 0 21 20" fill="none" xmlns="http://www.w3.org/2000/svg">
<g clip-path="url(#clip0_1_464)">
<path fill-rule="evenodd" clip-rule="evenodd" d="M13.6655 6.19003C13.8062 6.15367 13.9556 6.1739 14.0816 6.2464C14.2076 6.31889 14.3001 6.43787 14.3394 6.57781C14.5239 7.23823 14.5531 7.93238 14.4246 8.60596C14.2962 9.27953 14.0137 9.91425 13.5991 10.4605C13.1846 11.0067 12.6493 11.4496 12.0351 11.7545C11.4209 12.0594 10.7445 12.2181 10.0588 12.2181C9.37312 12.2181 8.69671 12.0594 8.08253 11.7545C7.46835 11.4496 6.93304 11.0067 6.5185 10.4605C6.10397 9.91425 5.82143 9.27953 5.69302 8.60596C5.5646 7.93238 5.59378 7.23823 5.77827 6.57781C5.81754 6.43787 5.9101 6.31889 6.03608 6.2464C6.16206 6.1739 6.31143 6.15367 6.45216 6.19003C8.51994 6.72337 11.5977 6.72337 13.6655 6.19003V6.19003ZM6.74771 7.3967C6.69461 7.86324 6.74067 8.33574 6.88287 8.78324C7.02508 9.23074 7.26023 9.64314 7.57291 9.99344C7.8856 10.3437 8.26876 10.624 8.69731 10.8159C9.12585 11.0078 9.59011 11.107 10.0597 11.107C10.5292 11.107 10.9935 11.0078 11.422 10.8159C11.8506 10.624 12.2337 10.3437 12.5464 9.99344C12.8591 9.64314 13.0942 9.23074 13.2364 8.78324C13.3787 8.33574 13.4247 7.86324 13.3716 7.3967C11.3622 7.80226 8.7566 7.80226 6.74771 7.3967Z" fill="black"/>
<path fill-rule="evenodd" clip-rule="evenodd" d="M7.28106 12.4945C3.95495 13.075 0.0588379 14.5573 0.0588379 16.6667V20H20.0588V16.6667C20.0588 14.5573 16.1627 13.075 12.8366 12.4945V15H7.28106V12.4945V12.4945ZM3.94773 20V15H5.05884V20H3.94773ZM15.6144 15V20H16.7255V15H15.6144ZM10.6144 0.0322528V2.48892C10.6144 2.63626 10.5559 2.77757 10.4517 2.88176C10.3475 2.98594 10.2062 3.04447 10.0588 3.04447C9.9115 3.04447 9.77019 2.98594 9.666 2.88176C9.56181 2.77757 9.50328 2.63626 9.50328 2.48892V3.05176e-05C8.92972 0.0303458 8.36579 0.160051 7.83662 0.383364V3.60003C7.83662 3.74737 7.77808 3.88868 7.6739 3.99287C7.56971 4.09705 7.4284 4.15559 7.28106 4.15559C7.13372 4.15559 6.99241 4.09705 6.88822 3.99287C6.78404 3.88868 6.7255 3.74737 6.7255 3.60003V1.07503C5.96439 1.72947 5.5255 2.57836 5.38606 3.32225C5.38129 3.34812 5.37684 3.37405 5.37273 3.40003L5.36162 3.41114C5.31217 3.76059 5.33939 4.04836 5.41051 4.24614C5.45605 4.38376 5.446 4.53373 5.38251 4.66405C5.31901 4.79436 5.20709 4.8947 5.07064 4.94364C4.93419 4.99257 4.78402 4.98624 4.65217 4.92599C4.52033 4.86574 4.41725 4.75634 4.36495 4.62114C4.35553 4.5954 4.34664 4.56947 4.33828 4.54336C1.11217 8.75559 19.0233 8.75336 15.7738 4.53614C15.7654 4.56334 15.7565 4.59038 15.7472 4.61725C15.6959 4.75294 15.5937 4.86321 15.4623 4.92452C15.3308 4.98583 15.1806 4.99331 15.0438 4.94536C14.9069 4.89741 14.7942 4.79784 14.7297 4.66792C14.6653 4.53799 14.6542 4.38802 14.6988 4.25003C14.7788 4.02003 14.8022 3.73336 14.7588 3.4167C14.7555 3.41425 14.7522 3.41185 14.7488 3.40948C14.6288 2.65836 14.1722 1.82781 13.3922 1.17336V3.60003C13.3922 3.74737 13.3336 3.88868 13.2295 3.99287C13.1253 4.09705 12.984 4.15559 12.8366 4.15559C12.6893 4.15559 12.548 4.09705 12.4438 3.99287C12.3396 3.88868 12.2811 3.74737 12.2811 3.60003V0.478919C12.0641 0.381477 11.8408 0.298879 11.6127 0.231697C11.2863 0.136564 10.9523 0.0696517 10.6144 0.0316973V0.0322528Z" fill="black"/>
</g>
<defs>
<clipPath id="clip0_1_464">
<rect width="20" height="20" fill="white" transform="translate(0.0588379 3.05176e-05)"/>
</clipPath>
</defs>
</svg>
