<svg width="21" height="20" viewBox="0 0 21 20" fill="none" xmlns="http://www.w3.org/2000/svg">
<g clip-path="url(#clip0_1_465)">
<path d="M13.0308 15.4753C13.4179 15.4753 13.6788 15.218 13.6788 14.8444V13.6156C13.6788 11.6065 16.683 10.3695 16.683 6.63349C16.683 2.67334 13.9396 3.05176e-05 9.87511 3.05176e-05C5.80218 3.05176e-05 3.05884 2.67334 3.05884 6.63349C3.05884 10.3695 6.06304 11.6065 6.06304 13.6156V14.8444C6.06304 15.218 6.33233 15.4753 6.71101 15.4753H13.0308ZM12.0462 13.8896H7.704V13.5575C7.704 10.9672 4.71662 9.75512 4.71662 6.63349C4.71662 3.62809 6.77833 1.63556 9.87511 1.63556C12.9719 1.63556 15.0336 3.62809 15.0336 6.63349C15.0336 9.75512 12.0462 10.9672 12.0462 13.5575V13.8896ZM12.8457 17.8498C13.3253 17.8498 13.7124 17.4596 13.7124 16.9946C13.7124 16.5297 13.3253 16.1395 12.8457 16.1395H6.90456C6.4249 16.1395 6.0378 16.5297 6.0378 16.9946C6.0378 17.4596 6.4249 17.8498 6.90456 17.8498H12.8457ZM9.87511 20C11.1626 20 12.0883 19.4023 12.1809 18.5139H7.56936C7.65351 19.4023 8.57076 20 9.87511 20Z" fill="black"/>
</g>
<defs>
<clipPath id="clip0_1_465">
<rect width="20" height="20" fill="white" transform="translate(0.0588379 3.05176e-05)"/>
</clipPath>
</defs>
</svg>
