<svg width="21" height="20" viewBox="0 0 21 20" fill="none" xmlns="http://www.w3.org/2000/svg">
<g clip-path="url(#clip0_1_466)">
<path d="M6.70628 15.4184H12.937C13.3594 15.4184 13.66 15.1259 13.66 14.7035V13.5662C13.66 11.6004 16.5844 10.4225 16.5844 6.67753C16.5844 2.70515 13.8549 3.05176e-05 9.81757 3.05176e-05C5.78833 3.05176e-05 3.05884 2.70515 3.05884 6.67753C3.05884 10.4225 5.98329 11.6004 5.98329 13.5662V14.7035C5.98329 15.1259 6.28386 15.4184 6.70628 15.4184ZM7.77045 13.4688C7.77045 10.8449 4.86225 9.70759 4.86225 6.68565C4.86225 3.75308 6.83625 1.81157 9.81757 1.81157C12.807 1.81157 14.781 3.75308 14.781 6.68565C14.781 9.70759 11.8728 10.8449 11.8728 13.4688V13.6881H7.77045V13.4688ZM6.82001 17.8229H12.8233C13.3107 17.8229 13.7006 17.4168 13.7006 16.9456C13.7006 16.4744 13.3107 16.0601 12.8233 16.0601H6.82001C6.3326 16.0601 5.94267 16.4744 5.94267 16.9456C5.94267 17.4168 6.3326 17.8229 6.82001 17.8229ZM9.81757 20C11.1417 20 12.084 19.3908 12.1815 18.4647H7.46176C7.55112 19.3908 8.48532 20 9.81757 20Z" fill="black"/>
</g>
<defs>
<clipPath id="clip0_1_466">
<rect width="20" height="20" fill="white" transform="translate(0.0588379 3.05176e-05)"/>
</clipPath>
</defs>
</svg>
