<svg width="20" height="20" viewBox="0 0 20 20" fill="none" xmlns="http://www.w3.org/2000/svg">
<path d="M6.64744 15.4184H12.8781C13.3006 15.4184 13.6011 15.1259 13.6011 14.7035V13.5662C13.6011 11.6004 16.5256 10.4225 16.5256 6.67753C16.5256 2.70515 13.7961 3.05176e-05 9.75873 3.05176e-05C5.72949 3.05176e-05 3 2.70515 3 6.67753C3 10.4225 5.92445 11.6004 5.92445 13.5662V14.7035C5.92445 15.1259 6.22502 15.4184 6.64744 15.4184ZM7.71162 13.4688C7.71162 10.8449 4.80341 9.70759 4.80341 6.68565C4.80341 3.75308 6.77742 1.81157 9.75873 1.81157C12.7482 1.81157 14.7222 3.75308 14.7222 6.68565C14.7222 9.70759 11.814 10.8449 11.814 13.4688V13.6881H7.71162V13.4688ZM6.76117 17.8229H12.7644C13.2518 17.8229 13.6418 17.4168 13.6418 16.9456C13.6418 16.4744 13.2518 16.0601 12.7644 16.0601H6.76117C6.27376 16.0601 5.88383 16.4744 5.88383 16.9456C5.88383 17.4168 6.27376 17.8229 6.76117 17.8229ZM9.75873 20C11.0829 20 12.0252 19.3908 12.1227 18.4647H7.40292C7.49228 19.3908 8.42648 20 9.75873 20Z" fill="black"/>
</svg>
