<svg width="24" height="24" viewBox="0 0 24 24" fill="none" xmlns="http://www.w3.org/2000/svg">
<path d="M14.9719 17.4753C15.359 17.4753 15.6199 17.2179 15.6199 16.8443V15.6156C15.6199 13.6065 18.6241 12.3694 18.6241 8.63346C18.6241 4.67331 15.8808 2 11.8163 2C7.74334 2 5 4.67331 5 8.63346C5 12.3694 8.00421 13.6065 8.00421 15.6156V16.8443C8.00421 17.2179 8.27349 17.4753 8.65217 17.4753H14.9719ZM13.9874 15.8896H9.64516V15.5575C9.64516 12.9672 6.65778 11.7551 6.65778 8.63346C6.65778 5.62806 8.71949 3.63553 11.8163 3.63553C14.913 3.63553 16.9748 5.62806 16.9748 8.63346C16.9748 11.7551 13.9874 12.9672 13.9874 15.5575V15.8896ZM14.7868 19.8497C15.2665 19.8497 15.6536 19.4595 15.6536 18.9946C15.6536 18.5297 15.2665 18.1395 14.7868 18.1395H8.84572C8.36606 18.1395 7.97896 18.5297 7.97896 18.9946C7.97896 19.4595 8.36606 19.8497 8.84572 19.8497H14.7868ZM11.8163 22C13.1038 22 14.0295 21.4022 14.122 20.5139H9.51052C9.59467 21.4022 10.5119 22 11.8163 22Z" fill="black"/>
</svg>
