<svg width="20" height="20" viewBox="0 0 20 20" fill="none" xmlns="http://www.w3.org/2000/svg">
<path d="M12.9719 15.4753C13.359 15.4753 13.6199 15.218 13.6199 14.8444V13.6156C13.6199 11.6065 16.6241 10.3695 16.6241 6.63349C16.6241 2.67334 13.8808 3.05176e-05 9.81627 3.05176e-05C5.74334 3.05176e-05 3 2.67334 3 6.63349C3 10.3695 6.00421 11.6065 6.00421 13.6156V14.8444C6.00421 15.218 6.27349 15.4753 6.65217 15.4753H12.9719ZM11.9874 13.8896H7.64516V13.5575C7.64516 10.9672 4.65778 9.75512 4.65778 6.63349C4.65778 3.62809 6.71949 1.63556 9.81627 1.63556C12.913 1.63556 14.9748 3.62809 14.9748 6.63349C14.9748 9.75512 11.9874 10.9672 11.9874 13.5575V13.8896ZM12.7868 17.8498C13.2665 17.8498 13.6536 17.4596 13.6536 16.9946C13.6536 16.5297 13.2665 16.1395 12.7868 16.1395H6.84572C6.36606 16.1395 5.97896 16.5297 5.97896 16.9946C5.97896 17.4596 6.36606 17.8498 6.84572 17.8498H12.7868ZM9.81627 20C11.1038 20 12.0295 19.4023 12.122 18.5139H7.51052C7.59467 19.4023 8.51192 20 9.81627 20Z" fill="black"/>
</svg>
