<svg width="24" height="24" viewBox="0 0 24 24" fill="none" xmlns="http://www.w3.org/2000/svg">
<path d="M5.3 21.3H18.7129C20.871 21.3 22.0129 20.1484 22.0129 18.0194V6.27097C22.0129 4.14194 20.871 3 18.7129 3H5.3C3.15161 3 2 4.14194 2 6.27097V18.0194C2 20.1581 3.15161 21.3 5.3 21.3ZM5.39677 19.0839C4.62258 19.0839 4.21613 18.6968 4.21613 17.8935V9.14516C4.21613 8.33226 4.62258 7.95484 5.39677 7.95484H18.6161C19.3806 7.95484 19.7968 8.33226 19.7968 9.14516V17.8935C19.7968 18.6968 19.3806 19.0839 18.6161 19.0839H5.39677ZM10.1677 11.1871H10.729C11.0871 11.1871 11.2032 11.0806 11.2032 10.7323V10.1613C11.2032 9.8129 11.0871 9.70645 10.729 9.70645H10.1677C9.80968 9.70645 9.69355 9.8129 9.69355 10.1613V10.7323C9.69355 11.0806 9.80968 11.1871 10.1677 11.1871ZM13.2839 11.1871H13.8548C14.2032 11.1871 14.3194 11.0806 14.3194 10.7323V10.1613C14.3194 9.8129 14.2032 9.70645 13.8548 9.70645H13.2839C12.9355 9.70645 12.8097 9.8129 12.8097 10.1613V10.7323C12.8097 11.0806 12.9355 11.1871 13.2839 11.1871ZM16.4 11.1871H16.971C17.3194 11.1871 17.4355 11.0806 17.4355 10.7323V10.1613C17.4355 9.8129 17.3194 9.70645 16.971 9.70645H16.4C16.0516 9.70645 15.9355 9.8129 15.9355 10.1613V10.7323C15.9355 11.0806 16.0516 11.1871 16.4 11.1871ZM7.04194 14.2548H7.6129C7.96129 14.2548 8.0871 14.1484 8.0871 13.8V13.229C8.0871 12.8806 7.96129 12.7742 7.6129 12.7742H7.04194C6.69355 12.7742 6.57742 12.8806 6.57742 13.229V13.8C6.57742 14.1484 6.69355 14.2548 7.04194 14.2548ZM10.1677 14.2548H10.729C11.0871 14.2548 11.2032 14.1484 11.2032 13.8V13.229C11.2032 12.8806 11.0871 12.7742 10.729 12.7742H10.1677C9.80968 12.7742 9.69355 12.8806 9.69355 13.229V13.8C9.69355 14.1484 9.80968 14.2548 10.1677 14.2548ZM13.2839 14.2548H13.8548C14.2032 14.2548 14.3194 14.1484 14.3194 13.8V13.229C14.3194 12.8806 14.2032 12.7742 13.8548 12.7742H13.2839C12.9355 12.7742 12.8097 12.8806 12.8097 13.229V13.8C12.8097 14.1484 12.9355 14.2548 13.2839 14.2548ZM16.4 14.2548H16.971C17.3194 14.2548 17.4355 14.1484 17.4355 13.8V13.229C17.4355 12.8806 17.3194 12.7742 16.971 12.7742H16.4C16.0516 12.7742 15.9355 12.8806 15.9355 13.229V13.8C15.9355 14.1484 16.0516 14.2548 16.4 14.2548ZM7.04194 17.3323H7.6129C7.96129 17.3323 8.0871 17.2161 8.0871 16.8677V16.3065C8.0871 15.9581 7.96129 15.8419 7.6129 15.8419H7.04194C6.69355 15.8419 6.57742 15.9581 6.57742 16.3065V16.8677C6.57742 17.2161 6.69355 17.3323 7.04194 17.3323ZM10.1677 17.3323H10.729C11.0871 17.3323 11.2032 17.2161 11.2032 16.8677V16.3065C11.2032 15.9581 11.0871 15.8419 10.729 15.8419H10.1677C9.80968 15.8419 9.69355 15.9581 9.69355 16.3065V16.8677C9.69355 17.2161 9.80968 17.3323 10.1677 17.3323ZM13.2839 17.3323H13.8548C14.2032 17.3323 14.3194 17.2161 14.3194 16.8677V16.3065C14.3194 15.9581 14.2032 15.8419 13.8548 15.8419H13.2839C12.9355 15.8419 12.8097 15.9581 12.8097 16.3065V16.8677C12.8097 17.2161 12.9355 17.3323 13.2839 17.3323Z" fill="black"/>
</svg>
