<svg width="21" height="20" viewBox="0 0 21 20" fill="none" xmlns="http://www.w3.org/2000/svg">
<g clip-path="url(#clip0_1_467)">
<path d="M3.35671 19.2882H16.761C18.9176 19.2882 20.0588 18.1374 20.0588 16.0097V4.26889C20.0588 2.14123 18.9176 1.00003 16.761 1.00003H3.35671C1.20971 1.00003 0.0588379 2.14123 0.0588379 4.26889V16.0097C0.0588379 18.147 1.20971 19.2882 3.35671 19.2882ZM3.45342 17.0735C2.67973 17.0735 2.27354 16.6867 2.27354 15.884V7.14123C2.27354 6.32885 2.67973 5.95167 3.45342 5.95167H16.6643C17.4283 5.95167 17.8441 6.32885 17.8441 7.14123V15.884C17.8441 16.6867 17.4283 17.0735 16.6643 17.0735H3.45342ZM8.22131 9.18185H8.78224C9.14008 9.18185 9.25613 9.07547 9.25613 8.7273V8.1567C9.25613 7.80854 9.14008 7.70216 8.78224 7.70216H8.22131C7.86348 7.70216 7.74743 7.80854 7.74743 8.1567V8.7273C7.74743 9.07547 7.86348 9.18185 8.22131 9.18185ZM11.3354 9.18185H11.906C12.2542 9.18185 12.3702 9.07547 12.3702 8.7273V8.1567C12.3702 7.80854 12.2542 7.70216 11.906 7.70216H11.3354C10.9873 7.70216 10.8615 7.80854 10.8615 8.1567V8.7273C10.8615 9.07547 10.9873 9.18185 11.3354 9.18185ZM14.4496 9.18185H15.0202C15.3683 9.18185 15.4844 9.07547 15.4844 8.7273V8.1567C15.4844 7.80854 15.3683 7.70216 15.0202 7.70216H14.4496C14.1014 7.70216 13.9853 7.80854 13.9853 8.1567V8.7273C13.9853 9.07547 14.1014 9.18185 14.4496 9.18185ZM5.09752 12.2476H5.66812C6.01628 12.2476 6.14201 12.1412 6.14201 11.7931V11.2225C6.14201 10.8743 6.01628 10.7679 5.66812 10.7679H5.09752C4.74936 10.7679 4.63331 10.8743 4.63331 11.2225V11.7931C4.63331 12.1412 4.74936 12.2476 5.09752 12.2476ZM8.22131 12.2476H8.78224C9.14008 12.2476 9.25613 12.1412 9.25613 11.7931V11.2225C9.25613 10.8743 9.14008 10.7679 8.78224 10.7679H8.22131C7.86348 10.7679 7.74743 10.8743 7.74743 11.2225V11.7931C7.74743 12.1412 7.86348 12.2476 8.22131 12.2476ZM11.3354 12.2476H11.906C12.2542 12.2476 12.3702 12.1412 12.3702 11.7931V11.2225C12.3702 10.8743 12.2542 10.7679 11.906 10.7679H11.3354C10.9873 10.7679 10.8615 10.8743 10.8615 11.2225V11.7931C10.8615 12.1412 10.9873 12.2476 11.3354 12.2476ZM14.4496 12.2476H15.0202C15.3683 12.2476 15.4844 12.1412 15.4844 11.7931V11.2225C15.4844 10.8743 15.3683 10.7679 15.0202 10.7679H14.4496C14.1014 10.7679 13.9853 10.8743 13.9853 11.2225V11.7931C13.9853 12.1412 14.1014 12.2476 14.4496 12.2476ZM5.09752 15.323H5.66812C6.01628 15.323 6.14201 15.207 6.14201 14.8588V14.2979C6.14201 13.9497 6.01628 13.8337 5.66812 13.8337H5.09752C4.74936 13.8337 4.63331 13.9497 4.63331 14.2979V14.8588C4.63331 15.207 4.74936 15.323 5.09752 15.323ZM8.22131 15.323H8.78224C9.14008 15.323 9.25613 15.207 9.25613 14.8588V14.2979C9.25613 13.9497 9.14008 13.8337 8.78224 13.8337H8.22131C7.86348 13.8337 7.74743 13.9497 7.74743 14.2979V14.8588C7.74743 15.207 7.86348 15.323 8.22131 15.323ZM11.3354 15.323H11.906C12.2542 15.323 12.3702 15.207 12.3702 14.8588V14.2979C12.3702 13.9497 12.2542 13.8337 11.906 13.8337H11.3354C10.9873 13.8337 10.8615 13.9497 10.8615 14.2979V14.8588C10.8615 15.207 10.9873 15.323 11.3354 15.323Z" fill="black"/>
</g>
<defs>
<clipPath id="clip0_1_467">
<rect width="20" height="20" fill="white" transform="translate(0.0588379 3.05176e-05)"/>
</clipPath>
</defs>
</svg>
