<svg width="20" height="20" viewBox="0 0 20 20" fill="none" xmlns="http://www.w3.org/2000/svg">
<path d="M10.0052 20C15.4719 20 20 15.4719 20 9.99487C20 4.52814 15.4616 3.05176e-05 9.99484 3.05176e-05C4.52811 3.05176e-05 0 4.52814 0 9.99487C0 15.4719 4.53842 20 10.0052 20ZM8.66426 15.0387C8.32388 15.0387 8.04538 14.884 7.76689 14.5436L4.96132 11.0882C4.79629 10.9026 4.71377 10.6653 4.71377 10.4384C4.71377 9.96393 5.0851 9.5926 5.54925 9.5926C5.82775 9.5926 6.0753 9.69575 6.31253 10.0052L8.623 12.9758L13.1099 5.78652C13.3161 5.46677 13.574 5.31205 13.8525 5.31205C14.296 5.31205 14.7292 5.61117 14.7292 6.09596C14.7292 6.32288 14.6055 6.56011 14.4817 6.7664L9.52037 14.5333C9.30376 14.8737 9.01496 15.0387 8.66426 15.0387Z" fill="black"/>
</svg>
