<svg width="24" height="24" viewBox="0 0 24 24" fill="none" xmlns="http://www.w3.org/2000/svg">
<path d="M6.32322 21C5.25 21 4.42782 20.7144 3.85669 20.1433C3.28556 19.5785 3 18.7626 3 17.6956V6.30439C3 5.23745 3.28556 4.42155 3.85669 3.85669C4.42782 3.28556 5.25 3 6.32322 3H17.6768C18.75 3 19.5722 3.28556 20.1433 3.85669C20.7144 4.42155 21 5.23745 21 6.30439V17.6956C21 18.7626 20.7144 19.5785 20.1433 20.1433C19.5722 20.7144 18.75 21 17.6768 21H6.32322ZM11.0209 16.7071C11.228 16.7071 11.4163 16.66 11.5858 16.5659C11.7615 16.4655 11.9121 16.3243 12.0377 16.1423L16.4153 9.45816C16.4906 9.33891 16.5502 9.21653 16.5941 9.091C16.6444 8.96548 16.6695 8.8431 16.6695 8.72385C16.6695 8.43515 16.5596 8.19665 16.34 8.00837C16.1266 7.82008 15.8787 7.72594 15.5962 7.72594C15.2259 7.72594 14.9153 7.92678 14.6642 8.32845L11.0021 14.1559L9.3546 12.1412C9.22908 11.9843 9.09728 11.8713 8.95921 11.8023C8.82741 11.7333 8.67364 11.6987 8.49791 11.6987C8.21548 11.6987 7.97071 11.8023 7.7636 12.0094C7.55649 12.2103 7.45293 12.455 7.45293 12.7437C7.45293 12.8818 7.47803 13.0136 7.52824 13.1391C7.57845 13.2646 7.6569 13.3933 7.7636 13.5251L9.96653 16.1611C10.1172 16.3431 10.2772 16.4812 10.4467 16.5753C10.6161 16.6632 10.8075 16.7071 11.0209 16.7071Z" fill="black"/>
</svg>
