<svg width="21" height="20" viewBox="0 0 21 20" fill="none" xmlns="http://www.w3.org/2000/svg">
<path d="M10.064 20C15.5307 20 20.0588 15.4719 20.0588 9.99487C20.0588 4.52814 15.5204 3.05176e-05 10.0537 3.05176e-05C4.58695 3.05176e-05 0.0588379 4.52814 0.0588379 9.99487C0.0588379 15.4719 4.59726 20 10.064 20ZM8.7231 15.0387C8.38272 15.0387 8.10422 14.884 7.82573 14.5436L5.02016 11.0882C4.85512 10.9026 4.77261 10.6653 4.77261 10.4384C4.77261 9.96393 5.14393 9.5926 5.60809 9.5926C5.88658 9.5926 6.13413 9.69575 6.37137 10.0052L8.68184 12.9758L13.1687 5.78652C13.375 5.46677 13.6328 5.31205 13.9113 5.31205C14.3549 5.31205 14.7881 5.61117 14.7881 6.09596C14.7881 6.32288 14.6643 6.56011 14.5405 6.7664L9.57921 14.5333C9.3626 14.8737 9.07379 15.0387 8.7231 15.0387Z" fill="black"/>
</svg>
