<svg width="24" height="24" viewBox="0 0 24 24" fill="none" xmlns="http://www.w3.org/2000/svg">
<path d="M6.45231 20.9908C5.35077 20.9908 4.49846 20.6923 3.89538 20.0954C3.29846 19.4985 3 18.6523 3 17.5569V6.43385C3 5.33846 3.29846 4.49231 3.89538 3.89538C4.49846 3.29846 5.35077 3 6.45231 3H17.5477C18.6492 3 19.4985 3.29846 20.0954 3.89538C20.6985 4.49231 21 5.33846 21 6.43385V17.5569C21 18.6523 20.6985 19.4985 20.0954 20.0954C19.4985 20.6923 18.6492 20.9908 17.5477 20.9908H6.45231ZM6.84 18.1385H17.16C17.4862 18.1385 17.7292 18.0615 17.8892 17.9077C18.0554 17.7477 18.1385 17.4954 18.1385 17.1508V6.84C18.1385 6.48923 18.0554 6.23692 17.8892 6.08308C17.7292 5.92923 17.4862 5.85231 17.16 5.85231H6.84C6.51385 5.85231 6.26769 5.92923 6.10154 6.08308C5.94154 6.23692 5.86154 6.48923 5.86154 6.84V17.1508C5.86154 17.4954 5.94154 17.7477 6.10154 17.9077C6.26769 18.0615 6.51385 18.1385 6.84 18.1385ZM11.0585 16.3846C10.8431 16.3846 10.6462 16.3354 10.4677 16.2369C10.2954 16.1385 10.1354 16.0031 9.98769 15.8308L8.02154 13.5231C7.81231 13.2646 7.70769 13.0031 7.70769 12.7385C7.70769 12.4369 7.81538 12.1815 8.03077 11.9723C8.25231 11.7569 8.51385 11.6492 8.81538 11.6492C8.98769 11.6492 9.14154 11.6862 9.27692 11.76C9.41231 11.8277 9.54154 11.9323 9.66462 12.0738L11.0492 13.7169L14.0769 8.81538C14.3354 8.39692 14.6615 8.18769 15.0554 8.18769C15.3508 8.18769 15.6123 8.28615 15.84 8.48308C16.0738 8.68 16.1908 8.93231 16.1908 9.24C16.1908 9.35077 16.1662 9.47077 16.1169 9.6C16.0738 9.72308 16.0123 9.84615 15.9323 9.96923L12.1015 15.8031C11.8431 16.1908 11.4954 16.3846 11.0585 16.3846Z" fill="black"/>
</svg>
