<svg width="21" height="20" viewBox="0 0 21 20" fill="none" xmlns="http://www.w3.org/2000/svg">
<g clip-path="url(#clip0_1_470)">
<path d="M15.5695 10C15.5583 9.60544 15.4117 9.26722 15.1073 8.96283L6.33618 0.383345C6.07688 0.135318 5.77248 3.05176e-05 5.40044 3.05176e-05C4.64508 3.05176e-05 4.05884 0.586276 4.05884 1.34163C4.05884 1.7024 4.2054 2.04062 4.4647 2.29992L12.3565 10L4.4647 17.7001C4.2054 17.9594 4.05884 18.2864 4.05884 18.6584C4.05884 19.4138 4.64508 20 5.40044 20C5.76121 20 6.07688 19.8647 6.33618 19.6167L15.1073 11.026C15.423 10.7328 15.5695 10.3946 15.5695 10Z" fill="black"/>
</g>
<defs>
<clipPath id="clip0_1_470">
<rect width="20" height="20" fill="white" transform="translate(0.0588379 3.05176e-05)"/>
</clipPath>
</defs>
</svg>
