<svg width="21" height="20" viewBox="0 0 21 20" fill="none" xmlns="http://www.w3.org/2000/svg">
<g clip-path="url(#clip0_1_469)">
<path d="M10.0533 15.6917C10.5303 15.6917 10.9407 15.5031 11.3068 15.137L19.6151 6.61789C19.9035 6.32948 20.0588 5.97452 20.0588 5.553C20.0588 4.68777 19.3711 4.00003 18.517 4.00003C18.0954 4.00003 17.6961 4.16642 17.3855 4.47701L10.0644 12.02L2.73216 4.47701C2.42157 4.17751 2.03332 4.00003 1.60071 4.00003C0.746581 4.00003 0.0588379 4.68777 0.0588379 5.553C0.0588379 5.97452 0.214135 6.32948 0.502543 6.62898L8.81092 15.137C9.19916 15.5142 9.5874 15.6917 10.0533 15.6917Z" fill="black"/>
</g>
<defs>
<clipPath id="clip0_1_469">
<rect width="20" height="20" fill="white" transform="translate(0.0588379 3.05176e-05)"/>
</clipPath>
</defs>
</svg>
