<svg width="20" height="20" viewBox="0 0 20 20" fill="none" xmlns="http://www.w3.org/2000/svg">
<path d="M15.5107 10C15.4994 9.60544 15.3529 9.26722 15.0485 8.96283L6.27734 0.383345C6.01804 0.135318 5.71364 3.05176e-05 5.3416 3.05176e-05C4.58625 3.05176e-05 4 0.586276 4 1.34163C4 1.7024 4.14656 2.04062 4.40586 2.29992L12.2976 10L4.40586 17.7001C4.14656 17.9594 4 18.2864 4 18.6584C4 19.4138 4.58625 20 5.3416 20C5.70237 20 6.01804 19.8647 6.27734 19.6167L15.0485 11.026C15.3641 10.7328 15.5107 10.3946 15.5107 10Z" fill="black"/>
</svg>
