<svg width="24" height="24" viewBox="0 0 24 24" fill="none" xmlns="http://www.w3.org/2000/svg">
<path d="M12 22C10.6301 22 9.34217 21.738 8.13636 21.214C6.93056 20.6963 5.86679 19.9766 4.94508 19.0549C4.02336 18.1395 3.30051 17.0789 2.77652 15.8731C2.25884 14.6673 2 13.3763 2 12C2 10.6301 2.25884 9.34217 2.77652 8.13636C3.30051 6.93056 4.0202 5.86679 4.93561 4.94508C5.85732 4.02336 6.92109 3.30366 8.12689 2.78598C9.33902 2.26199 10.6301 2 12 2C13.3699 2 14.6578 2.26199 15.8636 2.78598C17.0758 3.30366 18.1395 4.02336 19.0549 4.94508C19.9766 5.86679 20.6995 6.93056 21.2235 8.13636C21.7475 9.34217 22.0095 10.6301 22.0095 12C22.0095 13.3763 21.7475 14.6673 21.2235 15.8731C20.6995 17.0789 19.9766 18.1395 19.0549 19.0549C18.1395 19.9766 17.0789 20.6963 15.8731 21.214C14.6673 21.738 13.3763 22 12 22ZM12 19.5095C13.0417 19.5095 14.017 19.3138 14.9261 18.9223C15.8352 18.5372 16.6338 18.0038 17.322 17.322C18.0101 16.6338 18.5467 15.8352 18.9318 14.9261C19.3232 14.017 19.5189 13.0417 19.5189 12C19.5189 10.9583 19.3232 9.98611 18.9318 9.08333C18.5404 8.17424 18.0006 7.37563 17.3125 6.6875C16.6307 5.99937 15.8352 5.46275 14.9261 5.07765C14.017 4.68624 13.0417 4.49053 12 4.49053C10.9583 4.49053 9.98295 4.68624 9.07386 5.07765C8.17109 5.46275 7.37563 5.99937 6.6875 6.6875C5.99937 7.37563 5.46275 8.17424 5.07765 9.08333C4.69255 9.98611 4.5 10.9583 4.5 12C4.5 13.0417 4.69255 14.017 5.07765 14.9261C5.46275 15.8352 5.99937 16.6338 6.6875 17.322C7.37563 18.0038 8.17424 18.5372 9.08333 18.9223C9.99242 19.3138 10.9646 19.5095 12 19.5095ZM13.1174 14.964C12.9091 15.1913 12.6692 15.3428 12.3977 15.4186C12.1326 15.4943 11.8674 15.4943 11.6023 15.4186C11.3371 15.3365 11.0972 15.1818 10.8826 14.9545L7.4072 11.233C7.2178 11.0436 7.12311 10.8194 7.12311 10.5606C7.12311 10.3018 7.20833 10.0903 7.37879 9.92614C7.56818 9.73043 7.79545 9.63258 8.06061 9.63258C8.32576 9.62626 8.54672 9.72096 8.72348 9.91667L12 13.411L15.2765 9.91667C15.4596 9.72096 15.6806 9.62626 15.9394 9.63258C16.2045 9.63258 16.435 9.73043 16.6307 9.92614C16.8011 10.084 16.8832 10.2955 16.8769 10.5606C16.8769 10.8194 16.7854 11.0467 16.6023 11.2424L13.1174 14.964Z" fill="black"/>
</svg>
