<svg width="21" height="20" viewBox="0 0 21 20" fill="none" xmlns="http://www.w3.org/2000/svg">
<g clip-path="url(#clip0_1_471)">
<path d="M5.17016 11.2101H10.0492C10.2686 11.2101 10.4525 11.1359 10.6009 10.9874C10.7494 10.839 10.8236 10.6551 10.8236 10.4357V4.0949C10.8236 3.88193 10.7494 3.70122 10.6009 3.55279C10.4525 3.40435 10.2686 3.33014 10.0492 3.33014C9.83618 3.33014 9.65548 3.40435 9.50705 3.55279C9.35861 3.70122 9.28439 3.88193 9.28439 4.0949V9.67089H5.17016C4.95074 9.67089 4.76681 9.74511 4.61837 9.89354C4.46994 10.0355 4.39572 10.2162 4.39572 10.4357C4.39572 10.6551 4.46994 10.839 4.61837 10.9874C4.76681 11.1359 4.95074 11.2101 5.17016 11.2101ZM10.0588 20C11.427 20 12.7145 19.7387 13.9214 19.2159C15.1282 18.6996 16.1931 17.98 17.116 17.0571C18.0388 16.1343 18.7616 15.0694 19.2844 13.8626C19.8071 12.6557 20.0685 11.3682 20.0685 10C20.0685 8.63185 19.8071 7.34434 19.2844 6.13749C18.7616 4.93065 18.0388 3.86902 17.116 2.9526C16.1931 2.02972 15.1282 1.3069 13.9214 0.784154C12.7145 0.261405 11.4238 3.05176e-05 10.0492 3.05176e-05C8.68097 3.05176e-05 7.39346 0.261405 6.18662 0.784154C4.98623 1.3069 3.9246 2.02972 3.00172 2.9526C2.0853 3.86902 1.36571 4.93065 0.842962 6.13749C0.320213 7.34434 0.0588379 8.63185 0.0588379 10C0.0588379 11.3682 0.320213 12.6557 0.842962 13.8626C1.36571 15.0694 2.0853 16.1343 3.00172 17.0571C3.9246 17.98 4.98946 18.6996 6.1963 19.2159C7.40314 19.7387 8.69065 20 10.0588 20ZM10.0588 18.0252C8.9488 18.0252 7.90653 17.8187 6.93202 17.4056C5.96397 16.9926 5.11208 16.4182 4.37636 15.6825C3.64709 14.9468 3.07594 14.0949 2.6629 13.1268C2.24987 12.1588 2.04335 11.1165 2.04335 10C2.04335 8.89 2.24987 7.85095 2.6629 6.8829C3.07594 5.90839 3.64709 5.05327 4.37636 4.31755C5.10563 3.58183 5.95429 3.00745 6.92234 2.59442C7.89685 2.18138 8.93912 1.97486 10.0492 1.97486C11.1656 1.97486 12.2079 2.18138 13.176 2.59442C14.144 3.00745 14.9959 3.58183 15.7316 4.31755C16.4738 5.05327 17.0514 5.90839 17.4645 6.8829C17.8775 7.85095 18.084 8.89 18.084 10C18.084 11.1165 17.8775 12.1588 17.4645 13.1268C17.0514 14.0949 16.477 14.9468 15.7413 15.6825C15.012 16.4182 14.1602 16.9926 13.1857 17.4056C12.2176 17.8187 11.1753 18.0252 10.0588 18.0252Z" fill="black"/>
</g>
<defs>
<clipPath id="clip0_1_471">
<rect width="20" height="20" fill="white" transform="translate(0.0588379 3.05176e-05)"/>
</clipPath>
</defs>
</svg>
