<svg width="24" height="24" viewBox="0 0 24 24" fill="none" xmlns="http://www.w3.org/2000/svg">
<path d="M7.28284 13.2943C7.04634 13.2943 6.845 13.2144 6.67881 13.0546C6.51902 12.8949 6.43912 12.6967 6.43912 12.4602C6.43912 12.2301 6.51902 12.0352 6.67881 11.8754C6.845 11.7156 7.04634 11.6357 7.28284 11.6357H11.1659V6.32406C11.1659 6.08757 11.2458 5.88942 11.4056 5.72963C11.5654 5.56983 11.7603 5.48993 11.9904 5.48993C12.2269 5.48993 12.4251 5.56983 12.5849 5.72963C12.7446 5.88942 12.8245 6.08757 12.8245 6.32406V12.4602C12.8245 12.6967 12.7446 12.8949 12.5849 13.0546C12.4251 13.2144 12.2269 13.2943 11.9904 13.2943H7.28284ZM12 21.9904C10.6322 21.9904 9.3442 21.7283 8.13615 21.2042C6.92809 20.6865 5.86385 19.9674 4.94343 19.047C4.02301 18.1266 3.30074 17.0655 2.77661 15.8639C2.25887 14.6558 2 13.3647 2 11.9904C2 10.6226 2.25887 9.33781 2.77661 8.13615C3.30074 6.92809 4.01981 5.86385 4.93384 4.94343C5.85427 4.02301 6.9185 3.30393 8.12656 2.78619C9.33461 2.26206 10.6226 2 11.9904 2C13.3583 2 14.6462 2.26206 15.8543 2.78619C17.0687 3.30393 18.133 4.02301 19.047 4.94343C19.9674 5.86385 20.6897 6.92809 21.2138 8.13615C21.7379 9.33781 22 10.6226 22 11.9904C22 13.3647 21.7379 14.6558 21.2138 15.8639C20.6897 17.0655 19.9674 18.1266 19.047 19.047C18.133 19.9674 17.0719 20.6865 15.8639 21.2042C14.6558 21.7283 13.3678 21.9904 12 21.9904ZM12 19.7948C13.0802 19.7948 14.0901 19.5935 15.0297 19.1908C15.9757 18.7881 16.8066 18.232 17.5225 17.5225C18.2384 16.8066 18.7977 15.9789 19.2004 15.0393C19.6031 14.0933 19.8044 13.077 19.8044 11.9904C19.8044 10.9102 19.5999 9.90029 19.1908 8.96069C18.7881 8.0147 18.2288 7.18376 17.5129 6.46788C16.8035 5.752 15.9757 5.19271 15.0297 4.79003C14.0901 4.38734 13.077 4.186 11.9904 4.186C10.9102 4.186 9.89709 4.38734 8.9511 4.79003C8.01151 5.19271 7.18376 5.752 6.46788 6.46788C5.75839 7.18376 5.2023 8.0147 4.79962 8.96069C4.40332 9.90029 4.20518 10.9102 4.20518 11.9904C4.20518 13.077 4.40332 14.0933 4.79962 15.0393C5.2023 15.9789 5.76159 16.8066 6.47747 17.5225C7.19335 18.232 8.02109 18.7881 8.96069 19.1908C9.90668 19.5935 10.9198 19.7948 12 19.7948Z" fill="black"/>
</svg>
