<svg width="21" height="20" viewBox="0 0 21 20" fill="none" xmlns="http://www.w3.org/2000/svg">
<g clip-path="url(#clip0_1_513)">
<path d="M5.98907 19.5081C6.61519 19.5081 7.11608 19.2487 7.88531 18.5778L10.8996 15.9392H15.6492C18.3862 15.9392 20.0588 14.2487 20.0588 11.5385V4.40075C20.0588 1.69055 18.3862 3.05176e-05 15.6492 3.05176e-05H4.45955C1.73147 3.05176e-05 0.0588379 1.6816 0.0588379 4.40075V11.5385C0.0588379 14.2576 1.84775 15.9392 4.28961 15.9392H4.53111V17.8981C4.53111 18.8999 5.08567 19.5081 5.98907 19.5081ZM6.56152 16.8515V14.3918C6.56152 13.7746 6.26635 13.5421 5.72073 13.5421H4.62056C3.17154 13.5421 2.45598 12.8176 2.45598 11.3864V4.5528C2.45598 3.12168 3.17154 2.38822 4.62056 2.38822H15.4971C16.9372 2.38822 17.6617 3.12168 17.6617 4.5528V11.3864C17.6617 12.8176 16.9372 13.5421 15.4971 13.5421H10.7207C10.0946 13.5421 9.81734 13.6673 9.36116 14.1235L6.56152 16.8515Z" fill="black"/>
</g>
<defs>
<clipPath id="clip0_1_513">
<rect width="20" height="20" fill="white" transform="translate(0.0588379 3.05176e-05)"/>
</clipPath>
</defs>
</svg>
