<svg width="24" height="24" viewBox="0 0 24 24" fill="none" xmlns="http://www.w3.org/2000/svg">
<path d="M7.81206 6.74992V4.87426C7.81206 4.03389 8.02721 3.39602 8.45752 2.96064C8.8929 2.52021 9.52824 2.29999 10.3636 2.29999H13.1732C13.639 2.29999 14.0541 2.3658 14.4186 2.49742C14.7831 2.62905 15.1122 2.84674 15.4058 3.15049L19.1571 6.97013C19.4659 7.28907 19.6836 7.63079 19.8102 7.99529C19.9367 8.35979 20 8.80276 20 9.32419V15.2321C20 16.0674 19.7823 16.7053 19.3469 17.1457C18.9166 17.5862 18.2838 17.8064 17.4485 17.8064H15.907V16.113H17.2738C17.6181 16.113 17.8763 16.0269 18.0484 15.8548C18.2205 15.6776 18.3066 15.422 18.3066 15.0878V8.9521H15.1096C14.6236 8.9521 14.2465 8.82047 13.9782 8.55723C13.7149 8.29398 13.5833 7.91682 13.5833 7.42576V3.99339H10.5382C10.1889 3.99339 9.92818 4.08198 9.75605 4.25917C9.58899 4.4313 9.50546 4.68442 9.50546 5.01854V6.74992H7.81206ZM14.935 7.23592C14.935 7.36754 14.9628 7.46373 15.0185 7.52448C15.0793 7.58016 15.1729 7.60801 15.2995 7.60801H17.8662L14.935 4.63126V7.23592ZM4 19.2036V8.84579C4 8.01048 4.21516 7.37513 4.64547 6.93976C5.08084 6.49932 5.71618 6.2791 6.5515 6.2791H9.17133C9.65227 6.2791 10.0522 6.32973 10.3711 6.43098C10.6901 6.53223 11.009 6.74739 11.328 7.07645L15.3906 11.1923C15.6083 11.415 15.7728 11.6302 15.8842 11.8377C16.0006 12.0453 16.0791 12.2756 16.1196 12.5287C16.1652 12.7768 16.1879 13.0755 16.1879 13.4248V19.2036C16.1879 20.044 15.9703 20.6819 15.5349 21.1173C15.0995 21.5577 14.4667 21.7779 13.6364 21.7779H6.5515C5.71618 21.7779 5.08084 21.5577 4.64547 21.1173C4.21516 20.6819 4 20.044 4 19.2036ZM5.68581 19.0594C5.68581 19.3935 5.77187 19.6491 5.944 19.8263C6.11612 20.0035 6.37431 20.0921 6.71856 20.0921H13.4618C13.8111 20.0921 14.0693 20.0035 14.2364 19.8263C14.4085 19.6491 14.4945 19.3935 14.4945 19.0594V13.6906H10.6901C10.1028 13.6906 9.6624 13.5463 9.36877 13.2577C9.08021 12.9692 8.93593 12.5287 8.93593 11.9364V7.96491H6.72615C6.37684 7.96491 6.11612 8.05351 5.944 8.23069C5.77187 8.40788 5.68581 8.66101 5.68581 8.99007V19.0594ZM10.842 12.2554H14.3123L10.3787 8.26866V11.7922C10.3787 11.9542 10.4142 12.0731 10.4851 12.1491C10.561 12.2199 10.68 12.2554 10.842 12.2554Z" fill="black"/>
</svg>
