<svg width="20" height="20" viewBox="0 0 20 20" fill="none" xmlns="http://www.w3.org/2000/svg">
<path d="M0.536864 16.7392C-0.174118 17.4356 -0.188628 18.7124 0.551374 19.4523C1.29137 20.1923 2.56824 20.1633 3.26471 19.4668L9.99727 12.7349L16.7298 19.4523C17.4553 20.1778 18.7032 20.1923 19.4432 19.4378C20.1832 18.6979 20.1832 17.4502 19.4577 16.7247L12.7396 10.0073L19.4577 3.27533C20.1832 2.5499 20.1832 1.30217 19.4432 0.562236C18.7032 -0.192207 17.4553 -0.177699 16.7298 0.547727L9.99727 7.26517L3.26471 0.533219C2.56824 -0.16319 1.29137 -0.192207 0.551374 0.547727C-0.188628 1.28766 -0.174118 2.56441 0.536864 3.27533L7.26942 10.0073L0.536864 16.7392Z" fill="black"/>
</svg>
