<svg width="21" height="20" viewBox="0 0 21 20" fill="none" xmlns="http://www.w3.org/2000/svg">
<path d="M0.595702 16.7392C-0.11528 17.4356 -0.12979 18.7124 0.610211 19.4523C1.35021 20.1923 2.62708 20.1633 3.32355 19.4668L10.0561 12.7349L16.7887 19.4523C17.5142 20.1778 18.762 20.1923 19.502 19.4378C20.242 18.6979 20.242 17.4502 19.5165 16.7247L12.7985 10.0073L19.5165 3.27533C20.242 2.5499 20.242 1.30217 19.502 0.562236C18.762 -0.192207 17.5142 -0.177699 16.7887 0.547727L10.0561 7.26517L3.32355 0.533219C2.62708 -0.16319 1.35021 -0.192207 0.610211 0.547727C-0.12979 1.28766 -0.11528 2.56441 0.595702 3.27533L7.32826 10.0073L0.595702 16.7392Z" fill="black"/>
</svg>
