<svg width="20" height="20" viewBox="0 0 20 20" fill="none" xmlns="http://www.w3.org/2000/svg">
<path d="M2.28214 15.4126L8.60019 18.7822C9.49417 19.2579 10.3882 19.2579 11.2821 18.7822L17.5916 15.4126C18.0672 15.1605 18.4111 14.8682 18.6231 14.5358C18.8351 14.1977 18.9412 13.7393 18.9412 13.1605V5.75931C18.9412 5.26648 18.8409 4.84814 18.6403 4.5043C18.4397 4.16046 18.1131 3.87106 17.6604 3.6361L11.7463 0.464183C11.179 0.154728 10.5773 0 9.94116 0C9.30506 0 8.70334 0.154728 8.136 0.464183L2.23056 3.6361C1.77211 3.87106 1.44259 4.16046 1.24202 4.5043C1.04145 4.84814 0.941162 5.26648 0.941162 5.75931V13.1605C0.941162 13.7393 1.04718 14.1977 1.25921 14.5358C1.47125 14.8682 1.81222 15.1605 2.28214 15.4126ZM3.72626 13.4871C3.53142 13.384 3.39388 13.2693 3.31366 13.1433C3.23343 13.0115 3.19331 12.851 3.19331 12.6619V7.11748L8.76351 10.1089V16.2464L3.72626 13.4871ZM16.1561 13.4871L11.1188 16.2464V10.1089L16.689 7.11748V12.6619C16.689 12.851 16.6489 13.0115 16.5687 13.1433C16.4884 13.2693 16.3509 13.384 16.1561 13.4871ZM9.94116 8.05444L4.49131 5.12321L9.17612 2.59599C9.68615 2.32665 10.1962 2.32665 10.7062 2.59599L15.3996 5.12321L9.94116 8.05444Z" fill="black"/>
</svg>
