<svg width="21" height="20" viewBox="0 0 21 20" fill="none" xmlns="http://www.w3.org/2000/svg">
<g clip-path="url(#clip0_1_475)">
<path d="M2.0758 15.8709L9.03351 19.7181C9.71867 20.094 10.4038 20.094 11.089 19.7181L18.0467 15.8709C18.5015 15.6162 18.838 15.3252 19.0562 14.9978C19.2745 14.6703 19.3837 14.1913 19.3837 13.5607V6.09371C19.3837 5.60258 19.2867 5.19027 19.0926 4.85678C18.8986 4.5233 18.5924 4.24135 18.174 4.01094L11.8075 0.472973C11.2375 0.157678 10.6555 3.05176e-05 10.0613 3.05176e-05C9.46704 3.05176e-05 8.88496 0.157678 8.315 0.472973L1.95757 4.01094C1.53313 4.24135 1.2239 4.5233 1.02987 4.85678C0.835844 5.19027 0.738831 5.60258 0.738831 6.09371V13.5607C0.738831 14.1913 0.847971 14.6703 1.06625 14.9978C1.2906 15.3252 1.62711 15.6162 2.0758 15.8709ZM3.1854 14.3247C2.94286 14.1913 2.77309 14.0488 2.67607 13.8973C2.58512 13.7396 2.53965 13.5456 2.53965 13.3152V6.85769L9.12446 10.5412V17.6535L3.1854 14.3247ZM16.9462 14.3247L10.998 17.6535V10.5412L17.5829 6.85769V13.3152C17.5829 13.5456 17.5343 13.7396 17.4373 13.8973C17.3464 14.0488 17.1827 14.1913 16.9462 14.3247ZM10.0613 8.89498L3.55829 5.28425L9.12446 2.17375C9.75505 1.82207 10.3796 1.82207 10.998 2.17375L16.5733 5.28425L10.0613 8.89498Z" fill="black"/>
</g>
<defs>
<clipPath id="clip0_1_475">
<rect width="20" height="20" fill="white" transform="translate(0.0588379 3.05176e-05)"/>
</clipPath>
</defs>
</svg>
