<svg width="21" height="20" viewBox="0 0 21 20" fill="none" xmlns="http://www.w3.org/2000/svg">
<g clip-path="url(#clip0_1_474)">
<path d="M2.34097 15.4126L8.65903 18.7822C9.55301 19.2579 10.447 19.2579 11.341 18.7822L17.6504 15.4126C18.1261 15.1605 18.4699 14.8682 18.6819 14.5358C18.894 14.1977 19 13.7393 19 13.1605V5.75931C19 5.26648 18.8997 4.84814 18.6991 4.5043C18.4986 4.16046 18.1719 3.87106 17.7192 3.6361L11.8052 0.464183C11.2378 0.154728 10.6361 0 10 0C9.3639 0 8.76218 0.154728 8.19484 0.464183L2.2894 3.6361C1.83095 3.87106 1.50143 4.16046 1.30086 4.5043C1.10029 4.84814 1 5.26648 1 5.75931V13.1605C1 13.7393 1.10602 14.1977 1.31805 14.5358C1.53009 14.8682 1.87106 15.1605 2.34097 15.4126ZM3.7851 13.4871C3.59026 13.384 3.45272 13.2693 3.37249 13.1433C3.29226 13.0115 3.25215 12.851 3.25215 12.6619V7.11748L8.82235 10.1089V16.2464L3.7851 13.4871ZM16.2149 13.4871L11.1777 16.2464V10.1089L16.7479 7.11748V12.6619C16.7479 12.851 16.7077 13.0115 16.6275 13.1433C16.5473 13.2693 16.4097 13.384 16.2149 13.4871ZM10 8.05444L4.55014 5.12321L9.23496 2.59599C9.74499 2.32665 10.255 2.32665 10.765 2.59599L15.4585 5.12321L10 8.05444Z" fill="black"/>
</g>
<defs>
<clipPath id="clip0_1_474">
<rect width="20" height="20" fill="white" transform="translate(0.0588379 3.05176e-05)"/>
</clipPath>
</defs>
</svg>
