<svg width="24" height="24" viewBox="0 0 24 24" fill="none" xmlns="http://www.w3.org/2000/svg">
<path d="M4.00702 17.8709L10.9647 21.7181C11.6499 22.094 12.335 22.094 13.0202 21.7181L19.9779 17.8709C20.4327 17.6162 20.7692 17.3251 20.9875 16.9977C21.2057 16.6703 21.3149 16.1913 21.3149 15.5607V8.09368C21.3149 7.60255 21.2179 7.19024 21.0238 6.85675C20.8298 6.52327 20.5236 6.24132 20.1052 6.01091L13.7387 2.47294C13.1688 2.15765 12.5867 2 11.9925 2C11.3983 2 10.8162 2.15765 10.2462 2.47294L3.88878 6.01091C3.46434 6.24132 3.15511 6.52327 2.96109 6.85675C2.76706 7.19024 2.67004 7.60255 2.67004 8.09368V15.5607C2.67004 16.1913 2.77918 16.6703 2.99747 16.9977C3.22181 17.3251 3.55833 17.6162 4.00702 17.8709ZM5.11661 16.3247C4.87408 16.1913 4.7043 16.0488 4.60729 15.8972C4.51634 15.7396 4.47086 15.5456 4.47086 15.3151V8.85766L11.0557 12.5412V19.6535L5.11661 16.3247ZM18.8774 16.3247L12.9293 19.6535V12.5412L19.5141 8.85766V15.3151C19.5141 15.5456 19.4656 15.7396 19.3685 15.8972C19.2776 16.0488 19.1139 16.1913 18.8774 16.3247ZM11.9925 10.895L5.48951 7.28422L11.0557 4.17372C11.6863 3.82204 12.3108 3.82204 12.9293 4.17372L18.5045 7.28422L11.9925 10.895Z" fill="black"/>
</svg>
