<svg width="21" height="20" viewBox="0 0 21 20" fill="none" xmlns="http://www.w3.org/2000/svg">
<g clip-path="url(#clip0_1_477)">
<path d="M3.04562 17.6564H17.2659C18.1469 17.6564 18.8312 17.4038 19.3187 16.8987C19.8121 16.3994 20.0588 15.6652 20.0588 14.6961V4.95157C20.0588 3.98828 19.8063 3.25701 19.3011 2.75774C18.796 2.2526 18.053 2.00003 17.0721 2.00003H2.85179C1.97073 2.00003 1.28351 2.2526 0.790115 2.75774C0.302597 3.25701 0.0588379 3.98828 0.0588379 4.95157V14.6961C0.0588379 15.6652 0.311408 16.3994 0.816547 16.8987C1.32756 17.4038 2.07059 17.6564 3.04562 17.6564ZM3.08086 15.8062C2.6932 15.8062 2.39658 15.7093 2.191 15.5154C1.98542 15.3157 1.88263 15.0103 1.88263 14.5991V5.04849C1.88263 4.6432 1.98542 4.34364 2.191 4.14981C2.39658 3.9501 2.6932 3.85025 3.08086 3.85025H17.0456C17.4274 3.85025 17.7211 3.9501 17.9267 4.14981C18.1323 4.34364 18.235 4.64614 18.235 5.0573V14.608C18.235 15.0132 18.1323 15.3157 17.9267 15.5154C17.7211 15.7093 17.4274 15.8062 17.0456 15.8062H3.08086ZM10.0676 12.2555C10.4083 12.2555 10.7402 12.1851 11.0632 12.0441C11.3863 11.8972 11.7094 11.6623 12.0324 11.3392L19.0721 4.41413L17.9179 3.24232L11.0368 10.0441C10.8547 10.2203 10.6873 10.3495 10.5346 10.4317C10.3819 10.514 10.2262 10.5551 10.0676 10.5551C9.91493 10.5551 9.76222 10.514 9.6095 10.4317C9.45678 10.3436 9.28938 10.2144 9.1073 10.0441L2.19981 3.2247L1.03681 4.3877L8.10289 11.3392C8.42594 11.6623 8.749 11.8972 9.07205 12.0441C9.39511 12.1851 9.72697 12.2555 10.0676 12.2555ZM17.7857 16.2115L18.9487 15.0397L13.3716 9.51545L12.2086 10.6696L17.7857 16.2115ZM1.18659 15.0397L2.34959 16.2115L7.93549 10.6696L6.76368 9.51545L1.18659 15.0397Z" fill="black"/>
</g>
<defs>
<clipPath id="clip0_1_477">
<rect width="20" height="20" fill="white" transform="translate(0.0588379 3.05176e-05)"/>
</clipPath>
</defs>
</svg>
