<svg width="24" height="24" viewBox="0 0 24 24" fill="none" xmlns="http://www.w3.org/2000/svg">
<path d="M5.125 12H18.875C19.2854 12 19.6917 12.0808 20.0709 12.2379C20.45 12.3949 20.7945 12.6251 21.0847 12.9153C21.3749 13.2055 21.6051 13.55 21.7621 13.9291C21.9192 14.3083 22 14.7146 22 15.125V18.875C22 19.2854 21.9192 19.6917 21.7621 20.0709C21.6051 20.45 21.3749 20.7945 21.0847 21.0847C20.7945 21.3749 20.45 21.6051 20.0709 21.7621C19.6917 21.9192 19.2854 22 18.875 22H5.125C4.71462 22 4.30826 21.9192 3.92911 21.7621C3.54997 21.6051 3.20547 21.3749 2.91529 21.0847C2.62511 20.7945 2.39492 20.45 2.23788 20.0709C2.08083 19.6917 2 19.2854 2 18.875V15.125C2 14.2962 2.32924 13.5013 2.91529 12.9153C3.50134 12.3292 4.2962 12 5.125 12Z" fill="black"/>
<path d="M5.75 9.5H18.25C18.5815 9.5 18.8995 9.3683 19.1339 9.13388C19.3683 8.89946 19.5 8.58152 19.5 8.25C19.5 7.91848 19.3683 7.60054 19.1339 7.36612C18.8995 7.1317 18.5815 7 18.25 7H5.75C5.41848 7 5.10054 7.1317 4.86612 7.36612C4.6317 7.60054 4.5 7.91848 4.5 8.25C4.5 8.58152 4.6317 8.89946 4.86612 9.13388C5.10054 9.3683 5.41848 9.5 5.75 9.5Z" fill="black"/>
<path d="M7 3.25C7 3.58152 7.1317 3.89946 7.36612 4.13388C7.60054 4.3683 7.91848 4.5 8.25 4.5H15.75C16.0815 4.5 16.3995 4.3683 16.6339 4.13388C16.8683 3.89946 17 3.58152 17 3.25C17 2.91848 16.8683 2.60054 16.6339 2.36612C16.3995 2.1317 16.0815 2 15.75 2H8.25C7.91848 2 7.60054 2.1317 7.36612 2.36612C7.1317 2.60054 7 2.91848 7 3.25Z" fill="black"/>
</svg>
