<svg width="24" height="24" viewBox="0 0 24 24" fill="none" xmlns="http://www.w3.org/2000/svg">
<path d="M12 21.9904C10.6322 21.9904 9.3442 21.7283 8.13615 21.2042C6.92809 20.6865 5.86385 19.9674 4.94343 19.047C4.02301 18.1266 3.30074 17.0655 2.77661 15.8639C2.25887 14.6558 2 13.3647 2 11.9904C2 10.6226 2.25887 9.33781 2.77661 8.13615C3.30074 6.92809 4.01981 5.86385 4.93384 4.94343C5.85427 4.02301 6.9185 3.30393 8.12656 2.78619C9.33461 2.26206 10.6226 2 11.9904 2C13.3583 2 14.6462 2.26206 15.8543 2.78619C17.0687 3.30393 18.1329 4.02301 19.047 4.94343C19.9674 5.86385 20.6897 6.92809 21.2138 8.13615C21.7379 9.33781 22 10.6226 22 11.9904C22 13.3647 21.7379 14.6558 21.2138 15.8639C20.6897 17.0655 19.9674 18.1266 19.047 19.047C18.1329 19.9674 17.0719 20.6865 15.8639 21.2042C14.6558 21.7283 13.3678 21.9904 12 21.9904ZM12 13.5532C12.6136 13.5532 12.9332 13.2336 12.9588 12.5944L13.1122 8.05944C13.125 7.74625 13.0227 7.48738 12.8054 7.28284C12.5944 7.07191 12.3228 6.96644 11.9904 6.96644C11.6516 6.96644 11.3768 7.06871 11.1659 7.27325C10.9549 7.47779 10.8559 7.73985 10.8686 8.05944L11.0125 12.5944C11.038 13.2336 11.3672 13.5532 12 13.5532ZM12 16.9281C12.3452 16.9281 12.6392 16.8226 12.8821 16.6117C13.125 16.3944 13.2464 16.1163 13.2464 15.7776C13.2464 15.4452 13.125 15.1703 12.8821 14.953C12.6392 14.7357 12.3452 14.627 12 14.627C11.6484 14.627 11.3512 14.7357 11.1083 14.953C10.8655 15.1703 10.744 15.4452 10.744 15.7776C10.744 16.1163 10.8655 16.3944 11.1083 16.6117C11.3576 16.8226 11.6548 16.9281 12 16.9281Z" fill="black"/>
</svg>
