<svg width="21" height="20" viewBox="0 0 21 20" fill="none" xmlns="http://www.w3.org/2000/svg">
<g clip-path="url(#clip0_1_478)">
<path d="M10.7886 10.6328V13.4596L10.7147 14.9007L12.1281 13.4319C12.202 13.358 12.2852 13.2995 12.3775 13.2564C12.4761 13.2071 12.5777 13.1825 12.6824 13.1825C12.8856 13.1825 13.055 13.2502 13.1905 13.3857C13.3321 13.5212 13.4029 13.6906 13.4029 13.8938C13.4029 14.0108 13.3814 14.1124 13.3383 14.1986C13.2952 14.2849 13.2305 14.368 13.1443 14.4481L10.5946 16.7852C10.4899 16.8838 10.3883 16.9546 10.2898 16.9977C10.1974 17.0408 10.0958 17.0624 9.98494 17.0624C9.86792 17.0624 9.76323 17.0408 9.67085 16.9977C9.57847 16.9546 9.47685 16.8838 9.366 16.7852L6.81634 14.4481C6.73012 14.368 6.66546 14.2849 6.62235 14.1986C6.57924 14.1124 6.55768 14.0108 6.55768 13.8938C6.55768 13.6906 6.62543 13.5212 6.76092 13.3857C6.90256 13.2502 7.07808 13.1825 7.28748 13.1825C7.37985 13.1825 7.47531 13.2071 7.57385 13.2564C7.67239 13.2995 7.75861 13.358 7.83251 13.4319L9.24591 14.9007L9.18124 13.4596V10.6328C9.18124 10.4173 9.25822 10.2356 9.41219 10.0878C9.57231 9.93383 9.76323 9.85684 9.98494 9.85684C10.2005 9.85684 10.3883 9.93383 10.5484 10.0878C10.7086 10.2356 10.7886 10.4173 10.7886 10.6328ZM5.06115 20C4.06962 20 3.32135 19.7444 2.81634 19.2333C2.31134 18.7221 2.05884 17.9677 2.05884 16.97V3.03005C2.05884 2.03852 2.31134 1.28717 2.81634 0.776012C3.32135 0.258691 4.06962 3.05176e-05 5.06115 3.05176e-05H9.5138C9.90179 3.05176e-05 10.2405 0.0277441 10.53 0.0831714C10.8194 0.13244 11.0873 0.227898 11.3337 0.369546C11.58 0.505034 11.8325 0.705188 12.0912 0.970007L16.9318 5.89379C17.2028 6.16477 17.406 6.42651 17.5415 6.67901C17.6832 6.92536 17.7786 7.19941 17.8279 7.50118C17.8772 7.7968 17.9018 8.16015 17.9018 8.59125V16.97C17.9018 17.9615 17.6493 18.7129 17.1443 19.224C16.6393 19.7414 15.891 20 14.8995 20H5.06115ZM5.20895 18.1802H14.7517C15.2013 18.1802 15.5369 18.0662 15.7586 17.8384C15.9803 17.6105 16.0912 17.2841 16.0912 16.8592V8.84068H11.112C10.453 8.84068 9.9603 8.67747 9.6339 8.35107C9.31365 8.02466 9.15353 7.53198 9.15353 6.87301V1.81065H5.21819C4.76861 1.81065 4.43297 1.92767 4.21126 2.16169C3.98955 2.39572 3.8787 2.7252 3.8787 3.15015V16.8592C3.8787 17.2841 3.98955 17.6105 4.21126 17.8384C4.43297 18.0662 4.76554 18.1802 5.20895 18.1802ZM11.2875 7.24252H15.8417L10.7517 2.06008V6.69749C10.7517 6.88841 10.7917 7.02697 10.8718 7.11319C10.958 7.19941 11.0966 7.24252 11.2875 7.24252Z" fill="black"/>
</g>
<defs>
<clipPath id="clip0_1_478">
<rect width="20" height="20" fill="white" transform="translate(0.0588379 3.05176e-05)"/>
</clipPath>
</defs>
</svg>
