<svg width="20" height="20" viewBox="0 0 20 20" fill="none" xmlns="http://www.w3.org/2000/svg">
<path d="M10.7298 10.6328V13.4596L10.6559 14.9007L12.0693 13.4319C12.1432 13.358 12.2263 13.2995 12.3187 13.2564C12.4172 13.2071 12.5189 13.1825 12.6236 13.1825C12.8268 13.1825 12.9962 13.2502 13.1316 13.3857C13.2733 13.5212 13.3441 13.6906 13.3441 13.8938C13.3441 14.0108 13.3226 14.1124 13.2794 14.1986C13.2363 14.2849 13.1717 14.368 13.0855 14.4481L10.5358 16.7852C10.4311 16.8838 10.3295 16.9546 10.2309 16.9977C10.1386 17.0408 10.037 17.0624 9.9261 17.0624C9.80908 17.0624 9.70439 17.0408 9.61201 16.9977C9.51963 16.9546 9.41801 16.8838 9.30716 16.7852L6.75751 14.4481C6.67129 14.368 6.60662 14.2849 6.56351 14.1986C6.5204 14.1124 6.49885 14.0108 6.49885 13.8938C6.49885 13.6906 6.56659 13.5212 6.70208 13.3857C6.84373 13.2502 7.01925 13.1825 7.22864 13.1825C7.32102 13.1825 7.41647 13.2071 7.51501 13.2564C7.61355 13.2995 7.69977 13.358 7.77367 13.4319L9.18707 14.9007L9.1224 13.4596V10.6328C9.1224 10.4173 9.19938 10.2356 9.35335 10.0878C9.51347 9.93383 9.70439 9.85684 9.9261 9.85684C10.1416 9.85684 10.3295 9.93383 10.4896 10.0878C10.6497 10.2356 10.7298 10.4173 10.7298 10.6328ZM5.00231 20C4.01078 20 3.26251 19.7444 2.75751 19.2333C2.2525 18.7221 2 17.9677 2 16.97V3.03005C2 2.03852 2.2525 1.28717 2.75751 0.776012C3.26251 0.258691 4.01078 3.05176e-05 5.00231 3.05176e-05H9.45497C9.84296 3.05176e-05 10.1817 0.0277441 10.4711 0.0831714C10.7606 0.13244 11.0285 0.227898 11.2748 0.369546C11.5212 0.505034 11.7737 0.705188 12.0323 0.970007L16.873 5.89379C17.144 6.16477 17.3472 6.42651 17.4827 6.67901C17.6243 6.92536 17.7198 7.19941 17.7691 7.50118C17.8183 7.7968 17.843 8.16015 17.843 8.59125V16.97C17.843 17.9615 17.5905 18.7129 17.0855 19.224C16.5804 19.7414 15.8322 20 14.8406 20H5.00231ZM5.15012 18.1802H14.6928C15.1424 18.1802 15.4781 18.0662 15.6998 17.8384C15.9215 17.6105 16.0323 17.2841 16.0323 16.8592V8.84068H11.0531C10.3941 8.84068 9.90146 8.67747 9.57506 8.35107C9.25481 8.02466 9.09469 7.53198 9.09469 6.87301V1.81065H5.15935C4.70978 1.81065 4.37413 1.92767 4.15243 2.16169C3.93072 2.39572 3.81986 2.7252 3.81986 3.15015V16.8592C3.81986 17.2841 3.93072 17.6105 4.15243 17.8384C4.37413 18.0662 4.7067 18.1802 5.15012 18.1802ZM11.2286 7.24252H15.7829L10.6928 2.06008V6.69749C10.6928 6.88841 10.7329 7.02697 10.8129 7.11319C10.8992 7.19941 11.0377 7.24252 11.2286 7.24252Z" fill="black"/>
</svg>
