<svg width="24" height="24" viewBox="0 0 24 24" fill="none" xmlns="http://www.w3.org/2000/svg">
<path d="M12.8097 12.6328V15.4596L12.7358 16.9007L14.1492 15.4319C14.2231 15.358 14.3063 15.2995 14.3987 15.2564C14.4972 15.2071 14.5988 15.1824 14.7035 15.1824C14.9067 15.1824 15.0761 15.2502 15.2116 15.3857C15.3532 15.5212 15.4241 15.6905 15.4241 15.8938C15.4241 16.0108 15.4025 16.1124 15.3594 16.1986C15.3163 16.2848 15.2516 16.368 15.1654 16.448L12.6158 18.7852C12.5111 18.8838 12.4094 18.9546 12.3109 18.9977C12.2185 19.0408 12.1169 19.0624 12.0061 19.0624C11.889 19.0624 11.7843 19.0408 11.692 18.9977C11.5996 18.9546 11.498 18.8838 11.3871 18.7852L8.83746 16.448C8.75124 16.368 8.68658 16.2848 8.64347 16.1986C8.60036 16.1124 8.5788 16.0108 8.5788 15.8938C8.5788 15.6905 8.64655 15.5212 8.78203 15.3857C8.92368 15.2502 9.0992 15.1824 9.30859 15.1824C9.40097 15.1824 9.49643 15.2071 9.59497 15.2564C9.6935 15.2995 9.77972 15.358 9.85363 15.4319L11.267 16.9007L11.2024 15.4596V12.6328C11.2024 12.4172 11.2793 12.2356 11.4333 12.0878C11.5934 11.9338 11.7843 11.8568 12.0061 11.8568C12.2216 11.8568 12.4094 11.9338 12.5696 12.0878C12.7297 12.2356 12.8097 12.4172 12.8097 12.6328ZM7.08227 22C6.09073 22 5.34247 21.7444 4.83746 21.2333C4.33246 20.7221 4.07996 19.9677 4.07996 18.97V5.03002C4.07996 4.03849 4.33246 3.28714 4.83746 2.77598C5.34247 2.25866 6.09073 2 7.08227 2H11.5349C11.9229 2 12.2616 2.02771 12.5511 2.08314C12.8405 2.13241 13.1084 2.22787 13.3548 2.36952C13.6011 2.505 13.8536 2.70516 14.1123 2.96998L18.9529 7.89376C19.2239 8.16474 19.4271 8.42648 19.5626 8.67898C19.7043 8.92533 19.7997 9.19938 19.849 9.50115C19.8983 9.79677 19.9229 10.1601 19.9229 10.5912V18.97C19.9229 19.9615 19.6704 20.7129 19.1654 21.224C18.6604 21.7413 17.9121 22 16.9206 22H7.08227ZM7.23007 20.1801H16.7728C17.2224 20.1801 17.558 20.0662 17.7797 19.8383C18.0014 19.6105 18.1123 19.2841 18.1123 18.8591V10.8406H13.1331C12.4741 10.8406 11.9814 10.6774 11.655 10.351C11.3348 10.0246 11.1746 9.53195 11.1746 8.87298V3.81062H7.23931C6.78973 3.81062 6.45409 3.92764 6.23238 4.16166C6.01067 4.39569 5.89982 4.72517 5.89982 5.15012V18.8591C5.89982 19.2841 6.01067 19.6105 6.23238 19.8383C6.45409 20.0662 6.78665 20.1801 7.23007 20.1801ZM13.3086 9.24249H17.8629L12.7728 4.06005V8.69746C12.7728 8.88838 12.8128 9.02694 12.8929 9.11316C12.9791 9.19938 13.1177 9.24249 13.3086 9.24249Z" fill="black"/>
</svg>
