<svg width="24" height="24" viewBox="0 0 24 24" fill="none" xmlns="http://www.w3.org/2000/svg">
<path d="M11.9964 18.3476C18.0159 18.3476 22 13.5015 22 12.0238C22 10.5316 18.0087 5.70001 11.9964 5.70001C6.07099 5.70001 2 10.5316 2 12.0238C2 13.5015 6.06374 18.3476 11.9964 18.3476ZM11.9964 16.725C7.49801 16.725 3.99928 13.0162 3.99928 12.0238C3.99928 11.1835 7.49801 7.32261 11.9964 7.32261C16.4875 7.32261 20.0007 11.1835 20.0007 12.0238C20.0007 13.0162 16.4875 16.725 11.9964 16.725ZM12.0036 15.7761C14.0898 15.7761 15.7631 14.0665 15.7631 12.0238C15.7631 9.93036 14.0898 8.27154 12.0036 8.27154C9.91018 8.27154 8.22963 9.92312 8.23687 12.0238C8.24411 14.0665 9.91018 15.7761 12.0036 15.7761ZM11.9964 13.1973C11.3444 13.1973 10.8156 12.6613 10.8156 12.0238C10.8156 11.3719 11.3444 10.8431 11.9964 10.8431C12.6556 10.8431 13.1844 11.3719 13.1844 12.0238C13.1844 12.6613 12.6556 13.1973 11.9964 13.1973Z" fill="black"/>
</svg>
