<svg width="21" height="20" viewBox="0 0 21 20" fill="none" xmlns="http://www.w3.org/2000/svg">
<g clip-path="url(#clip0_1_479)">
<path d="M10.0552 16.6476C16.0748 16.6476 20.0588 11.8016 20.0588 10.3238C20.0588 8.83161 16.0675 4.00003 10.0552 4.00003C4.12983 4.00003 0.0588379 8.83161 0.0588379 10.3238C0.0588379 11.8016 4.12258 16.6476 10.0552 16.6476ZM10.0552 15.025C5.55685 15.025 2.05811 11.3162 2.05811 10.3238C2.05811 9.48355 5.55685 5.62263 10.0552 5.62263C14.5463 5.62263 18.0596 9.48355 18.0596 10.3238C18.0596 11.3162 14.5463 15.025 10.0552 15.025ZM10.0625 14.0761C12.1487 14.0761 13.822 12.3666 13.822 10.3238C13.822 8.23038 12.1487 6.57156 10.0625 6.57156C7.96902 6.57156 6.28846 8.22314 6.29571 10.3238C6.30295 12.3666 7.96902 14.0761 10.0625 14.0761ZM10.0552 11.4973C9.40328 11.4973 8.87448 10.9613 8.87448 10.3238C8.87448 9.67189 9.40328 9.14309 10.0552 9.14309C10.7144 9.14309 11.2432 9.67189 11.2432 10.3238C11.2432 10.9613 10.7144 11.4973 10.0552 11.4973Z" fill="black"/>
</g>
<defs>
<clipPath id="clip0_1_479">
<rect width="20" height="20" fill="white" transform="translate(0.0588379 3.05176e-05)"/>
</clipPath>
</defs>
</svg>
