<svg width="21" height="20" viewBox="0 0 21 20" fill="none" xmlns="http://www.w3.org/2000/svg">
<g clip-path="url(#clip0_1_480)">
<path d="M10.0588 3.05176e-05C4.53634 3.05176e-05 0.0588379 4.47753 0.0588379 10C0.0588379 15.0134 3.75217 19.1534 8.56384 19.8767V12.65H6.08967V10.0217H8.56384V8.27253C8.56384 5.3767 9.97467 4.10586 12.3813 4.10586C13.5338 4.10586 14.1438 4.1917 14.4322 4.23003V6.5242H12.7905C11.7688 6.5242 11.4122 7.49336 11.4122 8.58503V10.0217H14.4063L14.0005 12.65H11.4122V19.8975C16.293 19.2359 20.0588 15.0625 20.0588 10C20.0588 4.47753 15.5813 3.05176e-05 10.0588 3.05176e-05Z" fill="black"/>
</g>
<defs>
<clipPath id="clip0_1_480">
<rect width="20" height="20" fill="white" transform="translate(0.0588379 3.05176e-05)"/>
</clipPath>
</defs>
</svg>
