<svg width="20" height="20" viewBox="0 0 20 20" fill="none" xmlns="http://www.w3.org/2000/svg">
<path fill-rule="evenodd" clip-rule="evenodd" d="M14.1189 3.73003L13.3333 1.11114C13.3333 0.497253 11.6733 3.05176e-05 9.99999 3.05176e-05C8.32666 3.05176e-05 6.66666 0.497253 6.66666 1.11114L5.8811 3.73003C4.00555 4.13114 2.77777 4.79947 2.77777 5.55559C2.77777 6.78336 6.0111 7.77781 9.99999 7.77781C13.9889 7.77781 17.2222 6.78336 17.2222 5.55559C17.2222 4.79947 15.9944 4.13114 14.1189 3.73003ZM12.2955 1.51892C12.1852 1.46474 12.0708 1.41924 11.9533 1.38281C11.4572 1.22336 10.7417 1.11114 9.99999 1.11114C9.25833 1.11114 8.54277 1.22336 8.04666 1.38336C7.88999 1.43336 7.77833 1.48114 7.70444 1.51892L7.29833 2.87281C9.09128 3.11519 10.9087 3.11519 12.7017 2.87281L12.2961 1.51892H12.2955ZM13.0244 3.94892C12.8369 3.97695 12.6489 4.00195 12.4605 4.02392C10.8257 4.21425 9.17429 4.21425 7.53944 4.02392C7.35108 4.00199 7.16309 3.97699 6.97555 3.94892L6.7561 4.67892L6.11333 4.8167C5.23333 5.00447 4.58222 5.24114 4.17999 5.47225C4.13465 5.49856 4.09018 5.52635 4.04666 5.55559C4.27999 5.71281 4.66499 5.89447 5.21999 6.06503C6.39444 6.42614 8.08444 6.6667 9.99999 6.6667C11.9155 6.6667 13.6055 6.42614 14.78 6.06503C15.335 5.89447 15.72 5.71281 15.9533 5.55503C15.9098 5.52617 15.8653 5.49875 15.82 5.47281C15.4178 5.24114 14.7667 5.00447 13.8867 4.8167L13.2439 4.67892L13.0244 3.94892V3.94892ZM16.1461 5.71836L16.1422 5.71225L16.1461 5.71836ZM16.1444 5.3967C16.146 5.39345 16.1481 5.39045 16.1505 5.38781C16.1505 5.38781 16.1494 5.39114 16.145 5.3967H16.1444ZM3.84944 5.38781C3.84944 5.38781 3.85222 5.39059 3.85499 5.3967C3.85268 5.39405 3.85081 5.39105 3.84944 5.38781ZM3.85388 5.71836L3.85777 5.71225L3.85666 5.71447C3.85557 5.71564 3.85463 5.71695 3.85388 5.71836V5.71836ZM7.59944 1.58225C7.59704 1.58388 7.59481 1.58574 7.59277 1.58781L7.60166 1.58003L7.59944 1.58225V1.58225ZM12.3983 1.58003L12.4078 1.58781C12.4042 1.58577 12.401 1.58314 12.3983 1.58003V1.58003Z" fill="black"/>
<path d="M5.5567 7.3078C5.57924 8.47142 6.05731 9.57977 6.88819 10.3947C7.71908 11.2097 8.83648 11.6662 10.0003 11.6662C11.1641 11.6662 12.2815 11.2097 13.1124 10.3947C13.9433 9.57977 14.4214 8.47142 14.4439 7.3078C14.0721 7.39636 13.697 7.47049 13.3195 7.53002C13.2437 8.35799 12.8612 9.12773 12.247 9.6882C11.6329 10.2487 10.8315 10.5594 10 10.5594C9.1686 10.5594 8.36718 10.2487 7.75305 9.6882C7.13892 9.12773 6.75641 8.35799 6.68059 7.53002C6.30323 7.47047 5.92832 7.39634 5.5567 7.3078V7.3078Z" fill="black"/>
<path fill-rule="evenodd" clip-rule="evenodd" d="M4.35004 20C4.41115 19.8261 4.44448 19.6389 4.44448 19.4445V18.8889H15.5556V17.2222H13.5278C13.2396 17.3185 12.947 17.4014 12.6511 17.4706C11.7821 17.6741 10.8926 17.7772 10 17.7778C8.92337 17.7778 8.00337 17.6245 7.34948 17.4706C7.0534 17.4014 6.76068 17.3185 6.47226 17.2222H5.17615C5.60508 16.9371 5.96249 16.5569 6.22059 16.1111H6.6667V13.0078C7.7718 12.8604 8.88517 12.7836 10 12.7778C13.3378 12.7778 20 13.6572 20 16.6667V20H4.35004ZM18.2417 15.6795C18.7511 16.06 18.8889 16.3856 18.8889 16.6667V18.8889H16.6667V16.6667C16.6667 16.5193 16.6082 16.378 16.504 16.2739C16.3998 16.1697 16.2585 16.1111 16.1111 16.1111V14.7106C17.0178 14.9828 17.7495 15.3117 18.2417 15.6795ZM13.3334 14.1295C13.8906 14.2061 14.4539 14.3039 15 14.4239V16.1111H13.3334V14.1289V14.1295ZM10 13.8889C10.7421 13.8918 11.4836 13.9289 12.2223 14V16.4278C11.492 16.5858 10.7471 16.6658 10 16.6667C9.25293 16.6658 8.50803 16.5858 7.77781 16.4278V14C8.59281 13.9234 9.36004 13.8889 10 13.8889Z" fill="black"/>
<path d="M1.11111 10.5556C1.11111 10.4082 1.05258 10.2669 0.948392 10.1627C0.844206 10.0586 0.702898 10 0.555556 10C0.408213 10 0.266905 10.0586 0.162719 10.1627C0.0585317 10.2669 0 10.4082 0 10.5556V14.4445C0 15.0338 0.234126 15.5991 0.650874 16.0158C1.06762 16.4326 1.63285 16.6667 2.22222 16.6667V19.4445C2.22222 19.5918 2.28075 19.7331 2.38494 19.8373C2.48913 19.9415 2.63044 20 2.77778 20C2.92512 20 3.06643 19.9415 3.17061 19.8373C3.2748 19.7331 3.33333 19.5918 3.33333 19.4445V16.6667C3.9227 16.6667 4.48793 16.4326 4.90468 16.0158C5.32143 15.5991 5.55556 15.0338 5.55556 14.4445V10.5556C5.55556 10.4082 5.49702 10.2669 5.39284 10.1627C5.28865 10.0586 5.14734 10 5 10C4.85266 10 4.71135 10.0586 4.60716 10.1627C4.50298 10.2669 4.44444 10.4082 4.44444 10.5556V14.4445C4.44444 14.7392 4.32738 15.0218 4.11901 15.2302C3.91063 15.4385 3.62802 15.5556 3.33333 15.5556V10.5556C3.33333 10.4082 3.2748 10.2669 3.17061 10.1627C3.06643 10.0586 2.92512 10 2.77778 10C2.63044 10 2.48913 10.0586 2.38494 10.1627C2.28075 10.2669 2.22222 10.4082 2.22222 10.5556V15.5556C1.92754 15.5556 1.64492 15.4385 1.43655 15.2302C1.22817 15.0218 1.11111 14.7392 1.11111 14.4445V10.5556Z" fill="black"/>
</svg>
