<svg width="21" height="20" viewBox="0 0 21 20" fill="none" xmlns="http://www.w3.org/2000/svg">
<g clip-path="url(#clip0_1_482)">
<path fill-rule="evenodd" clip-rule="evenodd" d="M14.1777 3.73003L13.3922 1.11114C13.3922 0.497253 11.7322 3.05176e-05 10.0588 3.05176e-05C8.3855 3.05176e-05 6.7255 0.497253 6.7255 1.11114L5.93994 3.73003C4.06439 4.13114 2.83661 4.79947 2.83661 5.55559C2.83661 6.78336 6.06994 7.77781 10.0588 7.77781C14.0477 7.77781 17.2811 6.78336 17.2811 5.55559C17.2811 4.79947 16.0533 4.13114 14.1777 3.73003ZM12.3544 1.51892C12.244 1.46474 12.1296 1.41924 12.0122 1.38281C11.5161 1.22336 10.8005 1.11114 10.0588 1.11114C9.31716 1.11114 8.60161 1.22336 8.1055 1.38336C7.94883 1.43336 7.83716 1.48114 7.76328 1.51892L7.35716 2.87281C9.15012 3.11519 10.9675 3.11519 12.7605 2.87281L12.3549 1.51892H12.3544ZM13.0833 3.94892C12.8957 3.97695 12.7077 4.00195 12.5194 4.02392C10.8845 4.21425 9.23312 4.21425 7.59828 4.02392C7.40992 4.00199 7.22193 3.97699 7.03439 3.94892L6.81494 4.67892L6.17216 4.8167C5.29216 5.00447 4.64105 5.24114 4.23883 5.47225C4.19349 5.49856 4.14902 5.52635 4.1055 5.55559C4.33883 5.71281 4.72383 5.89447 5.27883 6.06503C6.45328 6.42614 8.14328 6.6667 10.0588 6.6667C11.9744 6.6667 13.6644 6.42614 14.8388 6.06503C15.3938 5.89447 15.7788 5.71281 16.0122 5.55503C15.9686 5.52617 15.9242 5.49875 15.8788 5.47281C15.4766 5.24114 14.8255 5.00447 13.9455 4.8167L13.3027 4.67892L13.0833 3.94892V3.94892ZM16.2049 5.71836L16.2011 5.71225L16.2049 5.71836ZM16.2033 5.3967C16.2049 5.39345 16.2069 5.39045 16.2094 5.38781C16.2094 5.38781 16.2083 5.39114 16.2038 5.3967H16.2033ZM3.90828 5.38781C3.90828 5.38781 3.91105 5.39059 3.91383 5.3967C3.91152 5.39405 3.90965 5.39105 3.90828 5.38781ZM3.91272 5.71836L3.91661 5.71225L3.9155 5.71447C3.91441 5.71564 3.91347 5.71695 3.91272 5.71836V5.71836ZM7.65828 1.58225C7.65588 1.58388 7.65364 1.58574 7.65161 1.58781L7.6605 1.58003L7.65828 1.58225V1.58225ZM12.4572 1.58003L12.4666 1.58781C12.463 1.58577 12.4598 1.58314 12.4572 1.58003V1.58003Z" fill="black"/>
<path d="M5.61554 7.3078C5.63808 8.47142 6.11614 9.57977 6.94703 10.3947C7.77792 11.2097 8.89532 11.6662 10.0592 11.6662C11.223 11.6662 12.3404 11.2097 13.1713 10.3947C14.0022 9.57977 14.4802 8.47142 14.5028 7.3078C14.131 7.39636 13.7559 7.47049 13.3783 7.53002C13.3025 8.35799 12.92 9.12773 12.3059 9.6882C11.6917 10.2487 10.8903 10.5594 10.0589 10.5594C9.22744 10.5594 8.42602 10.2487 7.81189 9.6882C7.19776 9.12773 6.81525 8.35799 6.73943 7.53002C6.36207 7.47047 5.98716 7.39634 5.61554 7.3078V7.3078Z" fill="black"/>
<path fill-rule="evenodd" clip-rule="evenodd" d="M4.40887 20C4.46999 19.8261 4.50332 19.6389 4.50332 19.4445V18.8889H15.6144V17.2222H13.5867C13.2984 17.3185 13.0059 17.4014 12.71 17.4706C11.8409 17.6741 10.9514 17.7772 10.0589 17.7778C8.98221 17.7778 8.06221 17.6245 7.40832 17.4706C7.11224 17.4014 6.81952 17.3185 6.5311 17.2222H5.23499C5.66392 16.9371 6.02133 16.5569 6.27943 16.1111H6.72554V13.0078C7.83064 12.8604 8.94401 12.7836 10.0589 12.7778C13.3967 12.7778 20.0589 13.6572 20.0589 16.6667V20H4.40887ZM18.3005 15.6795C18.81 16.06 18.9478 16.3856 18.9478 16.6667V18.8889H16.7255V16.6667C16.7255 16.5193 16.667 16.378 16.5628 16.2739C16.4586 16.1697 16.3173 16.1111 16.17 16.1111V14.7106C17.0767 14.9828 17.8083 15.3117 18.3005 15.6795ZM13.3922 14.1295C13.9494 14.2061 14.5128 14.3039 15.0589 14.4239V16.1111H13.3922V14.1289V14.1295ZM10.0589 13.8889C10.8009 13.8918 11.5425 13.9289 12.2811 14V16.4278C11.5509 16.5858 10.806 16.6658 10.0589 16.6667C9.31177 16.6658 8.56686 16.5858 7.83665 16.4278V14C8.65165 13.9234 9.41887 13.8889 10.0589 13.8889Z" fill="black"/>
<path d="M1.16995 10.5556C1.16995 10.4082 1.11142 10.2669 1.00723 10.1627C0.903044 10.0586 0.761736 10 0.614393 10C0.467051 10 0.325743 10.0586 0.221556 10.1627C0.11737 10.2669 0.0588379 10.4082 0.0588379 10.5556V14.4445C0.0588379 15.0338 0.292964 15.5991 0.709712 16.0158C1.12646 16.4326 1.69169 16.6667 2.28106 16.6667V19.4445C2.28106 19.5918 2.33959 19.7331 2.44378 19.8373C2.54797 19.9415 2.68927 20 2.83662 20C2.98396 20 3.12527 19.9415 3.22945 19.8373C3.33364 19.7331 3.39217 19.5918 3.39217 19.4445V16.6667C3.98154 16.6667 4.54677 16.4326 4.96352 16.0158C5.38027 15.5991 5.61439 15.0338 5.61439 14.4445V10.5556C5.61439 10.4082 5.55586 10.2669 5.45167 10.1627C5.34749 10.0586 5.20618 10 5.05884 10C4.9115 10 4.77019 10.0586 4.666 10.1627C4.56181 10.2669 4.50328 10.4082 4.50328 10.5556V14.4445C4.50328 14.7392 4.38622 15.0218 4.17784 15.2302C3.96947 15.4385 3.68686 15.5556 3.39217 15.5556V10.5556C3.39217 10.4082 3.33364 10.2669 3.22945 10.1627C3.12527 10.0586 2.98396 10 2.83662 10C2.68927 10 2.54797 10.0586 2.44378 10.1627C2.33959 10.2669 2.28106 10.4082 2.28106 10.5556V15.5556C1.98637 15.5556 1.70376 15.4385 1.49539 15.2302C1.28701 15.0218 1.16995 14.7392 1.16995 14.4445V10.5556Z" fill="black"/>
</g>
<defs>
<clipPath id="clip0_1_482">
<rect width="20" height="20" fill="white" transform="translate(0.0588379 3.05176e-05)"/>
</clipPath>
</defs>
</svg>
