<svg width="21" height="20" viewBox="0 0 21 20" fill="none" xmlns="http://www.w3.org/2000/svg">
<g clip-path="url(#clip0_1_483)">
<path d="M5.06115 20H14.8995C15.891 20 16.6393 19.7414 17.1443 19.224C17.6493 18.7129 17.9018 17.9615 17.9018 16.97V8.59125C17.9018 8.16015 17.8772 7.7968 17.8279 7.50119C17.7786 7.19941 17.6832 6.92536 17.5415 6.67901C17.406 6.42651 17.2028 6.16477 16.9318 5.89379L12.0912 0.970007C11.8325 0.705188 11.58 0.505034 11.3337 0.369546C11.0873 0.227898 10.8194 0.13244 10.53 0.0831714C10.2405 0.0277441 9.90179 3.05176e-05 9.5138 3.05176e-05H5.06115C4.06962 3.05176e-05 3.32135 0.258691 2.81634 0.776012C2.31134 1.28717 2.05884 2.03852 2.05884 3.03005V16.97C2.05884 17.9677 2.31134 18.7221 2.81634 19.2333C3.32135 19.7444 4.06962 20 5.06115 20ZM5.20895 18.1802C4.76554 18.1802 4.43297 18.0662 4.21126 17.8384C3.98955 17.6105 3.8787 17.2841 3.8787 16.8592V3.15015C3.8787 2.7252 3.98955 2.39572 4.21126 2.16169C4.43297 1.92767 4.76861 1.81065 5.21819 1.81065H9.15353V6.87301C9.15353 7.53198 9.31365 8.02466 9.6339 8.35107C9.9603 8.67747 10.453 8.84068 11.112 8.84068H16.0912V16.8592C16.0912 17.2841 15.9803 17.6105 15.7586 17.8384C15.5369 18.0662 15.2013 18.1802 14.7517 18.1802H5.20895ZM11.2875 7.24252C11.0966 7.24252 10.958 7.19941 10.8718 7.11319C10.7917 7.02697 10.7517 6.88841 10.7517 6.69749V2.06008L15.8417 7.24252H11.2875Z" fill="black"/>
</g>
<defs>
<clipPath id="clip0_1_483">
<rect width="20" height="20" fill="white" transform="translate(0.0588379 3.05176e-05)"/>
</clipPath>
</defs>
</svg>
