<svg width="20" height="20" viewBox="0 0 20 20" fill="none" xmlns="http://www.w3.org/2000/svg">
<path d="M5.00231 20H14.8406C15.8322 20 16.5804 19.7414 17.0855 19.224C17.5905 18.7129 17.843 17.9615 17.843 16.97V8.59125C17.843 8.16015 17.8183 7.7968 17.7691 7.50119C17.7198 7.19941 17.6243 6.92536 17.4827 6.67901C17.3472 6.42651 17.144 6.16477 16.873 5.89379L12.0323 0.970007C11.7737 0.705188 11.5212 0.505034 11.2748 0.369546C11.0285 0.227898 10.7606 0.13244 10.4711 0.0831714C10.1817 0.0277441 9.84296 3.05176e-05 9.45497 3.05176e-05H5.00231C4.01078 3.05176e-05 3.26251 0.258691 2.75751 0.776012C2.2525 1.28717 2 2.03852 2 3.03005V16.97C2 17.9677 2.2525 18.7221 2.75751 19.2333C3.26251 19.7444 4.01078 20 5.00231 20ZM5.15012 18.1802C4.7067 18.1802 4.37413 18.0662 4.15243 17.8384C3.93072 17.6105 3.81986 17.2841 3.81986 16.8592V3.15015C3.81986 2.7252 3.93072 2.39572 4.15243 2.16169C4.37413 1.92767 4.70978 1.81065 5.15935 1.81065H9.09469V6.87301C9.09469 7.53198 9.25481 8.02466 9.57506 8.35107C9.90146 8.67747 10.3941 8.84068 11.0531 8.84068H16.0323V16.8592C16.0323 17.2841 15.9215 17.6105 15.6998 17.8384C15.4781 18.0662 15.1424 18.1802 14.6928 18.1802H5.15012ZM11.2286 7.24252C11.0377 7.24252 10.8992 7.19941 10.8129 7.11319C10.7329 7.02697 10.6928 6.88841 10.6928 6.69749V2.06008L15.7829 7.24252H11.2286Z" fill="black"/>
</svg>
