<svg width="24" height="24" viewBox="0 0 24 24" fill="none" xmlns="http://www.w3.org/2000/svg">
<path d="M7.08227 22H16.9206C17.9121 22 18.6604 21.7413 19.1654 21.224C19.6704 20.7129 19.9229 19.9615 19.9229 18.97V10.5912C19.9229 10.1601 19.8983 9.79677 19.849 9.50115C19.7997 9.19938 19.7043 8.92533 19.5626 8.67898C19.4271 8.42648 19.2239 8.16474 18.9529 7.89376L14.1123 2.96998C13.8536 2.70516 13.6011 2.505 13.3548 2.36951C13.1084 2.22787 12.8405 2.13241 12.5511 2.08314C12.2616 2.02771 11.9229 2 11.5349 2H7.08227C6.09073 2 5.34247 2.25866 4.83746 2.77598C4.33246 3.28714 4.07996 4.03849 4.07996 5.03002V18.97C4.07996 19.9677 4.33246 20.7221 4.83746 21.2333C5.34247 21.7444 6.09073 22 7.08227 22ZM7.23007 20.1801C6.78665 20.1801 6.45409 20.0662 6.23238 19.8383C6.01067 19.6105 5.89982 19.2841 5.89982 18.8591V5.15012C5.89982 4.72517 6.01067 4.39569 6.23238 4.16166C6.45409 3.92764 6.78973 3.81062 7.23931 3.81062H11.1746V8.87298C11.1746 9.53195 11.3348 10.0246 11.655 10.351C11.9814 10.6774 12.4741 10.8406 13.1331 10.8406H18.1123V18.8591C18.1123 19.2841 18.0014 19.6105 17.7797 19.8383C17.558 20.0662 17.2224 20.1801 16.7728 20.1801H7.23007ZM13.3086 9.24249C13.1177 9.24249 12.9791 9.19938 12.8929 9.11316C12.8128 9.02694 12.7728 8.88838 12.7728 8.69746V4.06005L17.8629 9.24249H13.3086Z" fill="black"/>
</svg>
