<svg width="24" height="24" viewBox="0 0 24 24" fill="none" xmlns="http://www.w3.org/2000/svg">
<path d="M12.0048 22C10.6363 22 9.34772 21.7378 8.13909 21.2134C6.93046 20.6954 5.86571 19.976 4.94484 19.0552C4.02398 18.1343 3.30136 17.0727 2.77698 15.8705C2.25899 14.6619 2 13.3701 2 11.9952C2 10.6267 2.25899 9.34133 2.77698 8.13909C3.30136 6.93046 4.02078 5.86571 4.93525 4.94484C5.85612 4.02398 6.92086 3.30456 8.1295 2.78657C9.33813 2.26219 10.6267 2 11.9952 2C13.3637 2 14.6523 2.26219 15.8609 2.78657C17.0759 3.30456 18.1407 4.02398 19.0552 4.94484C19.976 5.86571 20.6986 6.93046 21.223 8.13909C21.7474 9.34133 22.0096 10.6267 22.0096 11.9952C22.0096 13.3701 21.7474 14.6619 21.223 15.8705C20.6986 17.0727 19.976 18.1343 19.0552 19.0552C18.1407 19.976 17.0791 20.6954 15.8705 21.2134C14.6619 21.7378 13.3733 22 12.0048 22ZM12.0048 19.8034C13.0855 19.8034 14.0959 19.6019 15.036 19.199C15.9824 18.7962 16.8137 18.2398 17.53 17.53C18.2462 16.8137 18.8058 15.9856 19.2086 15.0456C19.6115 14.0991 19.813 13.0823 19.813 11.9952C19.813 10.9145 19.6083 9.90408 19.199 8.96403C18.7962 8.01759 18.2366 7.18625 17.5204 6.47002C16.8106 5.7538 15.9824 5.19424 15.036 4.79137C14.0959 4.38849 13.0823 4.18705 11.9952 4.18705C10.9145 4.18705 9.90088 4.38849 8.95444 4.79137C8.01439 5.19424 7.18625 5.7538 6.47002 6.47002C5.76019 7.18625 5.20384 8.01759 4.80096 8.96403C4.40448 9.90408 4.20623 10.9145 4.20623 11.9952C4.20623 13.0823 4.40448 14.0991 4.80096 15.0456C5.20384 15.9856 5.76339 16.8137 6.47962 17.53C7.19584 18.2398 8.02398 18.7962 8.96403 19.199C9.91047 19.6019 10.9241 19.8034 12.0048 19.8034ZM7.13189 10.211C6.8761 10.211 6.66507 10.1375 6.4988 9.99041C6.33893 9.83693 6.25899 9.63869 6.25899 9.39568C6.25899 9.15268 6.33893 8.95763 6.4988 8.81055C6.66507 8.66347 6.8761 8.58993 7.13189 8.58993H16.8873C17.1495 8.58993 17.3605 8.66347 17.5204 8.81055C17.6867 8.95763 17.7698 9.15268 17.7698 9.39568C17.7698 9.63869 17.6867 9.83693 17.5204 9.99041C17.3605 10.1375 17.1495 10.211 16.8873 10.211H7.13189ZM8.39808 13.3669C8.14229 13.3669 7.93125 13.2934 7.76499 13.1463C7.60512 12.9992 7.52518 12.8042 7.52518 12.5612C7.52518 12.3181 7.60512 12.1231 7.76499 11.976C7.93125 11.8225 8.14229 11.7458 8.39808 11.7458H15.6307C15.8865 11.7458 16.0943 11.8225 16.2542 11.976C16.4205 12.1231 16.5036 12.3181 16.5036 12.5612C16.5036 12.8042 16.4205 12.9992 16.2542 13.1463C16.0943 13.2934 15.8865 13.3669 15.6307 13.3669H8.39808ZM9.70264 16.5324C9.44045 16.5324 9.22942 16.4588 9.06954 16.3118C8.90967 16.1647 8.82974 15.9696 8.82974 15.7266C8.82974 15.4836 8.90967 15.2886 9.06954 15.1415C9.22942 14.988 9.44045 14.9113 9.70264 14.9113H14.3357C14.5851 14.9113 14.7898 14.988 14.9496 15.1415C15.1159 15.2886 15.199 15.4836 15.199 15.7266C15.199 15.9696 15.1159 16.1647 14.9496 16.3118C14.7898 16.4588 14.5851 16.5324 14.3357 16.5324H9.70264Z" fill="black"/>
</svg>
