<svg width="24" height="24" viewBox="0 0 24 24" fill="none" xmlns="http://www.w3.org/2000/svg">
<path d="M15.2636 16.5441C15.3613 16.716 15.3828 16.9015 15.3281 17.1007C15.2773 17.3 15.166 17.4503 14.9941 17.5519C14.8183 17.6574 14.6328 17.6808 14.4374 17.6222C14.2421 17.5675 14.0917 17.4523 13.9863 17.2765L10.6171 11.4347C10.5117 11.4816 10.3847 11.5343 10.2363 11.5929C10.0917 11.6515 9.9394 11.7277 9.77924 11.8214C9.45893 12.0089 9.16987 12.2238 8.91206 12.466C8.65815 12.7082 8.41206 12.9621 8.17377 13.2277C7.93549 13.4894 7.68159 13.7472 7.41206 14.0011C7.14643 14.2511 6.83979 14.4757 6.49213 14.675C6.24604 14.8195 6.0019 14.9386 5.75971 15.0324C5.51752 15.1261 5.29682 15.1828 5.0976 15.2023C4.85932 15.2218 4.64252 15.1906 4.44721 15.1085C4.2519 15.0265 4.08784 14.8703 3.95502 14.6398L1.61713 10.5734C1.48432 10.3468 1.45698 10.1281 1.5351 9.91714C1.61323 9.70229 1.76166 9.53042 1.98041 9.40151C2.12104 9.32339 2.31245 9.24136 2.55463 9.15542C2.79682 9.06948 3.05659 8.94448 3.33393 8.78042C3.65815 8.59683 3.94721 8.38393 4.20112 8.14175C4.45502 7.89565 4.70112 7.64175 4.9394 7.38003C5.17768 7.11831 5.42963 6.86245 5.69526 6.61245C5.96479 6.35854 6.27338 6.13003 6.62104 5.9269C6.87104 5.78628 7.11713 5.66909 7.35932 5.57534C7.60151 5.48159 7.82221 5.42495 8.02143 5.40542C8.25581 5.38589 8.47065 5.41909 8.66596 5.50503C8.86127 5.58706 9.02534 5.74526 9.15815 5.97964L15.2636 16.5441ZM12.6035 10.3214L15.1171 5.97964C15.2499 5.74526 15.4121 5.58706 15.6035 5.50503C15.7988 5.41909 16.0156 5.38589 16.2539 5.40542C16.4531 5.42495 16.6738 5.48159 16.916 5.57534C17.1581 5.66909 17.4023 5.78628 17.6484 5.9269C17.996 6.13003 18.3027 6.35854 18.5683 6.61245C18.8378 6.86245 19.0917 7.11831 19.33 7.38003C19.5683 7.64175 19.8144 7.89565 20.0683 8.14175C20.3222 8.38393 20.6113 8.59683 20.9355 8.78042C21.2167 8.94448 21.4785 9.06948 21.7206 9.15542C21.9628 9.24136 22.1523 9.32339 22.289 9.40151C22.5117 9.53042 22.6601 9.70229 22.7343 9.91714C22.8124 10.1281 22.7871 10.3468 22.6581 10.5734L20.3144 14.6398C20.1816 14.8703 20.0175 15.0265 19.8222 15.1085C19.6269 15.1906 19.4101 15.2218 19.1718 15.2023C18.9726 15.1828 18.7519 15.1261 18.5097 15.0324C18.2714 14.9386 18.0273 14.8195 17.7773 14.675C17.4296 14.4757 17.121 14.2511 16.8515 14.0011C16.5859 13.7472 16.3339 13.4894 16.0956 13.2277C15.8574 12.9621 15.6113 12.7082 15.3574 12.466C15.1035 12.2238 14.8164 12.0089 14.496 11.8214C14.332 11.7277 14.1777 11.6515 14.0331 11.5929C13.8886 11.5343 13.7617 11.4816 13.6523 11.4347L13.4531 11.7921L12.6035 10.3214ZM11.666 14.88L10.2831 17.2765C10.1816 17.4523 10.0331 17.5675 9.83784 17.6222C9.64252 17.6808 9.45502 17.6574 9.27534 17.5519C9.10346 17.4503 8.99018 17.3 8.93549 17.1007C8.88471 16.9015 8.9101 16.716 9.01166 16.5441L10.8164 13.4035L11.666 14.88Z" fill="black"/>
</svg>
