<svg width="24" height="24" viewBox="0 0 24 24" fill="none" xmlns="http://www.w3.org/2000/svg">
<path d="M4.83036 21C4.53274 21 4.27679 20.8929 4.0625 20.6786C3.85417 20.4702 3.75 20.2173 3.75 19.9196V5.125C3.75 4.72024 3.83929 4.39583 4.01786 4.15179C4.20238 3.90774 4.45833 3.70833 4.78571 3.55357C5.05357 3.43452 5.32143 3.33333 5.58929 3.25C5.85714 3.16667 6.15476 3.10417 6.48214 3.0625C6.80952 3.02083 7.1875 3 7.61607 3C8.40774 3 9.16071 3.08333 9.875 3.25C10.5893 3.41071 11.2917 3.60119 11.9821 3.82143C12.6726 4.03571 13.369 4.22619 14.0714 4.39286C14.7738 4.55952 15.506 4.64286 16.2679 4.64286C16.9107 4.64286 17.4375 4.59524 17.8482 4.5C18.2649 4.39881 18.625 4.34821 18.9286 4.34821C19.3036 4.34821 19.6071 4.46429 19.8393 4.69643C20.0774 4.92857 20.1964 5.23214 20.1964 5.60714V14.2411C20.1964 14.6637 20.1101 15.0238 19.9375 15.3214C19.7708 15.619 19.5179 15.8452 19.1786 16C18.9405 16.1131 18.6875 16.2113 18.4196 16.2946C18.1518 16.372 17.8482 16.4345 17.5089 16.4821C17.1696 16.5238 16.7768 16.5446 16.3304 16.5446C15.5446 16.5446 14.7976 16.4613 14.0893 16.2946C13.381 16.128 12.6845 15.9375 12 15.7232C11.3214 15.5089 10.628 15.3185 9.91964 15.1518C9.21726 14.9851 8.47024 14.9018 7.67857 14.9018C7.24405 14.9018 6.875 14.9375 6.57143 15.0089C6.26786 15.0804 6.04762 15.1339 5.91071 15.1696V19.9196C5.91071 20.2232 5.80357 20.4792 5.58929 20.6875C5.38095 20.8958 5.12798 21 4.83036 21Z" fill="black"/>
</svg>
