<svg width="24" height="24" viewBox="0 0 24 24" fill="none" xmlns="http://www.w3.org/2000/svg">
<path d="M9.16173 21C8.82059 21 8.54969 20.9072 8.34902 20.7216C8.15337 20.536 8.06056 20.2801 8.07059 19.954L8.22109 11.3679C8.22109 11.2023 8.1935 11.0719 8.13832 10.9766C8.08815 10.8813 7.99534 10.8035 7.85989 10.7433C7.50872 10.5828 7.22277 10.4097 7.00203 10.2241C6.7813 10.0334 6.62076 9.79013 6.52043 9.49415C6.42009 9.19314 6.38247 8.80184 6.40755 8.32023L6.62578 3.71488C6.63581 3.52926 6.69099 3.38629 6.79133 3.28595C6.89166 3.1806 7.02962 3.12793 7.20521 3.12793C7.37578 3.12793 7.50621 3.1806 7.59651 3.28595C7.69183 3.3913 7.73698 3.5393 7.73196 3.72993L7.67176 8.19231C7.67176 8.49331 7.81223 8.64381 8.09317 8.64381C8.2236 8.64381 8.32895 8.60619 8.40922 8.53094C8.48949 8.45067 8.52962 8.34532 8.52962 8.21488L8.60487 3.58696C8.60989 3.40635 8.66257 3.26338 8.7629 3.15803C8.86323 3.05268 8.99618 3 9.16173 3C9.33732 3 9.47277 3.05268 9.56808 3.15803C9.66842 3.26338 9.72109 3.40635 9.72611 3.58696L9.80889 8.21488C9.80889 8.35033 9.84651 8.45569 9.92176 8.53094C10.002 8.60619 10.1074 8.64381 10.2378 8.64381C10.3632 8.64381 10.4636 8.60619 10.5388 8.53094C10.6141 8.45067 10.6517 8.33779 10.6517 8.19231L10.599 3.72993C10.594 3.5393 10.6392 3.3913 10.7345 3.28595C10.8298 3.1806 10.9602 3.12793 11.1258 3.12793C11.492 3.12793 11.6851 3.32358 11.7052 3.71488L11.9234 8.32023C11.9435 8.80184 11.9034 9.19314 11.803 9.49415C11.7077 9.79013 11.5497 10.0334 11.329 10.2241C11.1082 10.4097 10.8223 10.5828 10.4711 10.7433C10.3407 10.8035 10.2479 10.8813 10.1927 10.9766C10.1375 11.0719 10.1099 11.2023 10.1099 11.3679L10.2679 19.954C10.2679 20.2801 10.1701 20.536 9.97444 20.7216C9.77879 20.9072 9.50788 21 9.16173 21ZM15.2194 14.265C15.2244 14.1095 15.1968 13.9791 15.1366 13.8737C15.0764 13.7684 14.9786 13.6681 14.8432 13.5727L14.4744 13.3244C14.2487 13.1739 14.0856 13.0008 13.9853 12.8052C13.89 12.6095 13.8423 12.3737 13.8423 12.0978V11.6689C13.8423 10.9214 13.8925 10.1614 13.9928 9.3888C14.0982 8.6112 14.2462 7.85619 14.4368 7.12375C14.6274 6.3913 14.8507 5.71656 15.1065 5.0995C15.3674 4.48244 15.6509 3.95569 15.9569 3.51923C16.0873 3.34365 16.2077 3.21321 16.3181 3.12793C16.4285 3.04264 16.5589 3 16.7094 3C16.8699 3 17.0054 3.05268 17.1157 3.15803C17.2311 3.26338 17.2888 3.41137 17.2888 3.60201V19.9841C17.2888 20.3052 17.1885 20.5535 16.9878 20.7291C16.7922 20.9097 16.5213 21 16.1751 21C15.839 21 15.5706 20.9047 15.3699 20.714C15.1693 20.5284 15.0714 20.265 15.0764 19.9239L15.2194 14.265Z" fill="black"/>
</svg>
