<svg width="24" height="24" viewBox="0 0 24 24" fill="none" xmlns="http://www.w3.org/2000/svg">
<path d="M2.40002 12.4454C2.40002 11.3034 2.58934 10.2194 2.96799 9.1934C3.35273 8.16741 3.8871 7.23913 4.5711 6.40856C5.2612 5.57189 6.06734 4.86957 6.98951 4.30161C7.91169 3.73365 8.9102 3.33363 9.98505 3.10156V1.73662C9.98505 1.36409 10.1072 1.13202 10.3515 1.04041C10.5958 0.948808 10.8706 1.01293 11.1759 1.23279L14.3638 3.52295C14.6081 3.70006 14.7303 3.91381 14.7303 4.1642C14.7303 4.40848 14.6081 4.61613 14.3638 4.78712L11.1668 7.07729C10.8614 7.29714 10.5866 7.35822 10.3423 7.2605C10.1041 7.16279 9.98505 6.93072 9.98505 6.56429V5.27264C9.19723 5.48028 8.46743 5.81006 7.79565 6.26199C7.12998 6.70781 6.5498 7.24829 6.05513 7.88343C5.56656 8.51246 5.18486 9.21478 4.91004 9.99038C4.64133 10.7599 4.50698 11.5782 4.50698 12.4454C4.50698 13.4775 4.6963 14.4455 5.07494 15.3494C5.45968 16.2532 5.99406 17.0471 6.67805 17.7311C7.36205 18.409 8.15292 18.9403 9.05066 19.3251C9.95451 19.7098 10.9225 19.9022 11.9546 19.9022C12.9867 19.9022 13.9547 19.7098 14.8585 19.3251C15.7624 18.9403 16.5532 18.409 17.2311 17.7311C17.9151 17.0471 18.4495 16.2532 18.8342 15.3494C19.219 14.4455 19.4114 13.4775 19.4114 12.4454C19.4114 11.6637 19.2953 10.9217 19.0633 10.2194C18.8373 9.51097 18.5167 8.86056 18.1014 8.26817C17.6861 7.66968 17.1945 7.14141 16.6265 6.68338C16.3945 6.46963 16.2479 6.22229 16.1868 5.94137C16.1257 5.66044 16.1929 5.39478 16.3883 5.14439C16.5655 4.91843 16.8006 4.79628 17.0937 4.77796C17.3869 4.75354 17.6708 4.85736 17.9457 5.08943C18.6602 5.63296 19.2831 6.29558 19.8144 7.07729C20.3519 7.859 20.7671 8.71094 21.0603 9.63311C21.3595 10.5492 21.5092 11.4866 21.5092 12.4454C21.5092 13.7524 21.2588 14.9829 20.758 16.1372C20.2572 17.2914 19.5671 18.3083 18.6877 19.1877C17.8144 20.0671 16.8006 20.7542 15.6463 21.2488C14.4921 21.7496 13.2615 22 11.9546 22C10.6477 22 9.41709 21.7496 8.26285 21.2488C7.1086 20.7542 6.09177 20.0671 5.21235 19.1877C4.33292 18.3083 3.64282 17.2914 3.14204 16.1372C2.64736 14.9829 2.40002 13.7524 2.40002 12.4454ZM9.38961 16.3387C9.17586 16.3387 9.00181 16.2685 8.86745 16.128C8.7392 15.9876 8.67508 15.8013 8.67508 15.5692V10.7507L7.96054 11.3462C7.87504 11.4439 7.7926 11.511 7.71321 11.5477C7.63381 11.5782 7.5361 11.5935 7.42006 11.5935C7.24907 11.5935 7.1025 11.5324 6.98035 11.4103C6.86432 11.2881 6.8063 11.1385 6.8063 10.9614C6.8063 10.8271 6.83684 10.708 6.89791 10.6041C6.95898 10.4942 7.05669 10.3843 7.19105 10.2744L8.31781 9.43158C8.50713 9.28501 8.67202 9.18424 8.81249 9.12928C8.95295 9.07431 9.10257 9.04683 9.26136 9.04683C9.52396 9.04683 9.7316 9.12317 9.88428 9.27585C10.037 9.42852 10.1133 9.65449 10.1133 9.95374V15.5692C10.1133 15.8074 10.0461 15.9967 9.91176 16.1372C9.78351 16.2715 9.60946 16.3387 9.38961 16.3387ZM13.9516 16.412C13.3837 16.412 12.9042 16.2807 12.5134 16.0181C12.1286 15.7494 11.8752 15.4623 11.7531 15.157C11.7225 15.0776 11.7011 15.0043 11.6889 14.9371C11.6767 14.87 11.6706 14.7997 11.6706 14.7264C11.6706 14.5432 11.7256 14.3936 11.8355 14.2776C11.9515 14.1615 12.1012 14.1035 12.2844 14.1035C12.4187 14.1035 12.5287 14.134 12.6142 14.1951C12.7058 14.2562 12.7882 14.3386 12.8615 14.4425C12.9775 14.6501 13.1302 14.8211 13.3195 14.9555C13.5088 15.0837 13.7348 15.1478 13.9974 15.1478C14.3272 15.1478 14.599 15.0318 14.8127 14.7997C15.0326 14.5677 15.1425 14.2715 15.1425 13.9111C15.1425 13.5691 15.0448 13.2882 14.8494 13.0684C14.66 12.8485 14.4005 12.7386 14.0707 12.7386C13.8997 12.7386 13.744 12.7722 13.6035 12.8393C13.463 12.9065 13.3165 13.0073 13.1638 13.1416C13.0478 13.2333 12.9439 13.3004 12.8523 13.3432C12.7607 13.3798 12.6264 13.3981 12.4493 13.3981C12.2172 13.3981 12.034 13.331 11.8996 13.1966C11.7714 13.0623 11.7164 12.8699 11.7347 12.6195L11.9179 10.0179C11.9546 9.43158 12.2386 9.13844 12.7699 9.13844H15.6647C15.8479 9.13844 15.9975 9.19645 16.1135 9.31249C16.2357 9.42242 16.2967 9.57204 16.2967 9.76136C16.2967 9.95068 16.2357 10.1064 16.1135 10.2286C15.9975 10.3446 15.8479 10.4026 15.6647 10.4026H13.118L12.9623 12.3172H12.9531C13.0814 12.0851 13.2768 11.905 13.5394 11.7767C13.802 11.6485 14.0799 11.5843 14.373 11.5843C14.9837 11.5843 15.4937 11.795 15.9028 12.2164C16.312 12.6317 16.5166 13.1844 16.5166 13.8745C16.5166 14.644 16.2815 15.2608 15.8112 15.7249C15.3471 16.183 14.7272 16.412 13.9516 16.412Z" fill="black"/>
</svg>
