<svg width="24" height="24" viewBox="0 0 24 24" fill="none" xmlns="http://www.w3.org/2000/svg">
<path d="M4.55578 11.3307C4.24221 11.3307 3.9799 11.2281 3.76884 11.0231C3.56382 10.8121 3.46131 10.5467 3.46131 10.2271C3.46131 9.90754 3.56382 9.64523 3.76884 9.4402C3.9799 9.22915 4.24221 9.12362 4.55578 9.12362H5.20704L7.83015 9.32261L5.81307 7.41407L3.33467 4.93568C3.22613 4.82714 3.14171 4.70653 3.08141 4.57387C3.02714 4.44121 3 4.2995 3 4.14874C3 3.81106 3.10553 3.53668 3.31658 3.32563C3.53367 3.10854 3.81407 3 4.15779 3C4.46533 3 4.72462 3.10854 4.93568 3.32563L7.40503 5.82211L9.32261 7.83015L9.12362 5.22513V4.66432C9.12362 4.34472 9.22613 4.08543 9.43116 3.88643C9.64221 3.68141 9.90452 3.57889 10.2181 3.57889C10.5377 3.57889 10.803 3.68141 11.0141 3.88643C11.2251 4.09146 11.3307 4.35075 11.3307 4.66432V9.55779C11.3307 10.1186 11.1739 10.5558 10.8603 10.8693C10.5528 11.1769 10.1216 11.3307 9.56683 11.3307H4.55578ZM13.6462 20.4573C13.3327 20.4573 13.0704 20.3548 12.8593 20.1497C12.6482 19.9447 12.5427 19.6824 12.5427 19.3628V14.397C12.5427 13.8422 12.6965 13.4111 13.004 13.1035C13.3116 12.796 13.7457 12.6422 14.3065 12.6422H19.3809C19.6945 12.6422 19.9538 12.7447 20.1588 12.9497C20.3698 13.1548 20.4754 13.4201 20.4754 13.7457C20.4754 14.0593 20.3698 14.3186 20.1588 14.5236C19.9538 14.7286 19.6945 14.8312 19.3809 14.8312H18.6573L16.0251 14.6412L18.0513 16.5497L20.5749 19.0734C20.6774 19.1819 20.7588 19.2995 20.8191 19.4261C20.8794 19.5588 20.9095 19.7035 20.9095 19.8603C20.9095 20.192 20.801 20.4633 20.5839 20.6744C20.3668 20.8915 20.0894 21 19.7518 21C19.4382 21 19.1789 20.8945 18.9739 20.6834L16.4593 18.1508L14.5508 16.1337L14.7497 18.7387V19.3628C14.7497 19.6824 14.6442 19.9447 14.4332 20.1497C14.2221 20.3548 13.9598 20.4573 13.6462 20.4573Z" fill="black"/>
</svg>
