<svg width="21" height="20" viewBox="0 0 21 20" fill="none" xmlns="http://www.w3.org/2000/svg">
<g clip-path="url(#clip0_1_484)">
<path d="M9.12988 19.9818H10.9878C11.3825 19.9818 11.7255 19.8665 12.0169 19.6357C12.3084 19.4111 12.4966 19.1105 12.5816 18.7341L12.9368 17.1858L13.1463 17.1221L14.4942 17.9417C14.822 18.1542 15.1681 18.2332 15.5324 18.1785C15.9028 18.13 16.2276 17.966 16.5069 17.6867L17.7911 16.4117C18.0704 16.1263 18.2313 15.8015 18.2738 15.4372C18.3223 15.0668 18.2434 14.7177 18.037 14.3898L17.1991 13.0601L17.2811 12.8689L18.8111 12.5046C19.1876 12.4135 19.4881 12.2223 19.7128 11.9308C19.9435 11.6394 20.0588 11.2963 20.0588 10.9017V9.11661C20.0588 8.72195 19.9435 8.3789 19.7128 8.08746C19.4881 7.79602 19.1876 7.60477 18.8111 7.51369L17.2902 7.14029L17.2082 6.93992L18.0461 5.61023C18.2525 5.28236 18.3315 4.93628 18.2829 4.57198C18.2404 4.20768 18.0764 3.87981 17.7911 3.58837L16.5069 2.30422C16.2337 2.031 15.9119 1.8701 15.5415 1.82152C15.1772 1.76688 14.8312 1.84277 14.5033 2.04921L13.1554 2.87799L12.9368 2.79602L12.5816 1.24775C12.4966 0.871312 12.3084 0.570765 12.0169 0.346114C11.7255 0.115392 11.3825 3.05176e-05 10.9878 3.05176e-05H9.12988C8.73522 3.05176e-05 8.39217 0.115392 8.10073 0.346114C7.80929 0.576837 7.62107 0.877383 7.53607 1.24775L7.17177 2.79602L6.95319 2.87799L5.61439 2.04921C5.28045 1.84277 4.93133 1.76688 4.56703 1.82152C4.20274 1.8701 3.88094 2.031 3.60164 2.30422L2.3266 3.58837C2.04123 3.87981 1.87426 4.20768 1.82569 4.57198C1.78319 4.93628 1.86515 5.28236 2.07159 5.61023L2.90037 6.93992L2.82751 7.14029L1.30656 7.51369C0.924047 7.60477 0.620465 7.79602 0.395814 8.08746C0.171163 8.3789 0.0588379 8.72195 0.0588379 9.11661V10.9017C0.0588379 11.2963 0.171163 11.6394 0.395814 11.9308C0.626537 12.2223 0.930119 12.4135 1.30656 12.5046L2.83662 12.8689L2.90948 13.0601L2.0807 14.3898C1.86819 14.7177 1.78319 15.0668 1.82569 15.4372C1.87426 15.8015 2.04123 16.1263 2.3266 16.4117L3.61075 17.6867C3.88397 17.966 4.20274 18.13 4.56703 18.1785C4.9374 18.2332 5.2926 18.1542 5.63261 17.9417L6.97141 17.1221L7.17177 17.1858L7.53607 18.7341C7.62107 19.1105 7.80929 19.4111 8.10073 19.6357C8.39217 19.8665 8.73522 19.9818 9.12988 19.9818ZM9.42131 18.1603C9.2756 18.1603 9.19059 18.0905 9.16631 17.9508L8.62897 15.7195C8.33145 15.6588 8.04002 15.5708 7.75465 15.4554C7.47535 15.334 7.21731 15.1974 6.98051 15.0456L5.02241 16.2478C4.91312 16.3267 4.80383 16.3145 4.69454 16.2113L3.80201 15.3188C3.71093 15.2277 3.69879 15.1184 3.76558 14.9909L4.97687 13.0419C4.83722 12.8051 4.70972 12.5501 4.59436 12.2769C4.479 11.9976 4.38792 11.7092 4.32113 11.4117L2.0807 10.8835C1.94712 10.8592 1.88033 10.7742 1.88033 10.6284V9.38072C1.88033 9.24107 1.94712 9.15911 2.0807 9.13482L4.31203 8.59748C4.37881 8.28783 4.47292 7.99335 4.59436 7.71406C4.71579 7.42869 4.84026 7.17672 4.96776 6.95814L3.76558 5.00914C3.68665 4.88163 3.69272 4.76931 3.78379 4.67216L4.68543 3.79784C4.78865 3.7007 4.90098 3.68552 5.02241 3.75231L6.9623 4.93628C7.17481 4.8027 7.42982 4.6752 7.72733 4.55376C8.03091 4.42626 8.33449 4.32608 8.63807 4.25322L9.16631 2.031C9.19059 1.89135 9.2756 1.82152 9.42131 1.82152H10.6964C10.8421 1.82152 10.924 1.89135 10.9423 2.031L11.4887 4.27143C11.7984 4.33822 12.0898 4.43233 12.363 4.55376C12.6423 4.6752 12.9004 4.80574 13.1372 4.94539L15.0862 3.76141C15.2076 3.69463 15.3199 3.70677 15.4231 3.79784L16.3157 4.68127C16.4128 4.77842 16.4219 4.8877 16.343 5.00914L15.1408 6.95814C15.2683 7.17672 15.3928 7.42869 15.5142 7.71406C15.6356 7.99335 15.7298 8.28479 15.7965 8.58837L18.037 9.13482C18.1706 9.15911 18.2373 9.24107 18.2373 9.38072V10.6284C18.2373 10.7742 18.1706 10.8592 18.037 10.8835L15.7965 11.4117C15.7237 11.7031 15.6296 11.9915 15.5142 12.2769C15.3988 12.5562 15.2713 12.8112 15.1317 13.0419L16.3339 14.9909C16.4128 15.1124 16.4037 15.2186 16.3066 15.3097L15.414 16.2022C15.3108 16.3054 15.2015 16.3176 15.0862 16.2386L13.1372 15.0456C12.8943 15.1974 12.6363 15.3309 12.363 15.4463C12.0898 15.5617 11.7984 15.6527 11.4887 15.7195L10.9423 17.9508C10.924 18.0905 10.8421 18.1603 10.6964 18.1603H9.42131ZM10.0588 13.4427C10.6903 13.4427 11.2671 13.2878 11.7893 12.9782C12.3114 12.6624 12.7273 12.2435 13.037 11.7213C13.3466 11.1992 13.5015 10.6224 13.5015 9.99092C13.5015 9.36554 13.3466 8.79177 13.037 8.26961C12.7273 7.74745 12.3114 7.33154 11.7893 7.02189C11.2671 6.71223 10.6903 6.55741 10.0588 6.55741C9.42739 6.55741 8.85058 6.71223 8.32842 7.02189C7.80626 7.33154 7.38731 7.74745 7.07159 8.26961C6.76193 8.79177 6.60711 9.36554 6.60711 9.99092C6.60711 10.6224 6.76193 11.1992 7.07159 11.7213C7.38731 12.2435 7.80626 12.6624 8.32842 12.9782C8.85058 13.2878 9.42739 13.4427 10.0588 13.4427ZM10.0588 11.7669C9.73704 11.7669 9.44257 11.6879 9.17541 11.5301C8.90826 11.3662 8.69272 11.1506 8.52878 10.8835C8.37092 10.6163 8.29199 10.3188 8.29199 9.99092C8.29199 9.66913 8.37092 9.37465 8.52878 9.1075C8.69272 8.84035 8.90826 8.62784 9.17541 8.46998C9.44257 8.31211 9.73704 8.23318 10.0588 8.23318C10.3746 8.23318 10.663 8.31515 10.924 8.47908C11.1912 8.63695 11.4037 8.84945 11.5616 9.11661C11.7255 9.37769 11.8075 9.66913 11.8075 9.99092C11.8075 10.3127 11.7255 10.6102 11.5616 10.8835C11.4037 11.1506 11.1912 11.3662 10.924 11.5301C10.663 11.6879 10.3746 11.7669 10.0588 11.7669Z" fill="black"/>
</g>
<defs>
<clipPath id="clip0_1_484">
<rect width="20" height="20" fill="white" transform="translate(0.0588379 3.05176e-05)"/>
</clipPath>
</defs>
</svg>
