<svg width="24" height="24" viewBox="0 0 24 24" fill="none" xmlns="http://www.w3.org/2000/svg">
<path d="M11.1492 21.9907C10.8517 21.9907 10.5945 21.907 10.3775 21.7397C10.1667 21.5723 10.0273 21.3398 9.95909 21.0423L9.50349 19.1176C9.36092 19.068 9.21835 19.0153 9.07578 18.9596C8.93941 18.9038 8.80924 18.848 8.68526 18.7922L7.01162 19.8243C6.76368 19.9792 6.50333 20.0443 6.23059 20.0195C5.95785 19.9947 5.7161 19.877 5.50535 19.6662L4.3152 18.4854C4.11065 18.2746 3.99287 18.0298 3.96188 17.7508C3.93708 17.4657 4.00837 17.1991 4.17573 16.9512L5.18921 15.2868C5.13343 15.1567 5.07764 15.0265 5.02185 14.8963C4.97226 14.7662 4.92577 14.6329 4.88238 14.4965L2.9484 14.0409C2.65086 13.9789 2.41841 13.8426 2.25105 13.6318C2.08368 13.4148 2 13.1545 2 12.8508V11.1864C2 10.8951 2.08368 10.644 2.25105 10.4333C2.41841 10.2163 2.65086 10.0738 2.9484 10.0056L4.86378 9.54998C4.90718 9.39501 4.95676 9.25244 5.01255 9.12227C5.07454 8.9921 5.13033 8.86812 5.17992 8.75035L4.15714 7.04881C3.98977 6.79467 3.91849 6.53123 3.94328 6.25848C3.96808 5.98574 4.08895 5.74709 4.3059 5.54254L5.50535 4.35239C5.7223 4.15404 5.95785 4.03936 6.21199 4.00837C6.46614 3.97737 6.72029 4.03006 6.97443 4.16643L8.67596 5.22641C8.79994 5.16442 8.93321 5.10553 9.07578 5.04974C9.21835 4.98776 9.36092 4.93197 9.50349 4.88238L9.95909 2.9484C10.0273 2.65706 10.1667 2.42771 10.3775 2.26034C10.5945 2.08678 10.8517 2 11.1492 2H12.8508C13.1483 2 13.4024 2.08678 13.6132 2.26034C13.8302 2.42771 13.9696 2.65706 14.0316 2.9484L14.4965 4.90098C14.6453 4.95057 14.7879 5.00325 14.9242 5.05904C15.0606 5.11483 15.1877 5.17372 15.3054 5.2357L17.0349 4.16643C17.2828 4.03006 17.5339 3.98047 17.788 4.01767C18.0422 4.04866 18.2746 4.15714 18.4854 4.3431L19.6941 5.54254C19.911 5.74709 20.0288 5.98574 20.0474 6.25848C20.0722 6.53123 20.0071 6.79467 19.8522 7.04881L18.8201 8.75035C18.8697 8.86812 18.9224 8.9921 18.9782 9.12227C19.0339 9.25244 19.0866 9.39501 19.1362 9.54998L21.0609 10.0056C21.3522 10.0738 21.5816 10.2163 21.749 10.4333C21.9163 10.644 22 10.8951 22 11.1864V12.8508C22 13.1545 21.9163 13.4148 21.749 13.6318C21.5816 13.8426 21.3522 13.9789 21.0609 14.0409L19.1176 14.4965C19.0742 14.6329 19.0246 14.7662 18.9689 14.8963C18.9193 15.0265 18.8635 15.1567 18.8015 15.2868L19.8243 16.9512C19.9916 17.1991 20.0629 17.4657 20.0381 17.7508C20.0133 18.0298 19.8956 18.2746 19.6848 18.4854L18.4947 19.6662C18.2839 19.877 18.0422 19.9947 17.7694 20.0195C17.4967 20.0443 17.2363 19.9792 16.9884 19.8243L15.3054 18.7922C15.1815 18.848 15.0513 18.9038 14.9149 18.9596C14.7786 19.0153 14.6391 19.068 14.4965 19.1176L14.0316 21.0423C13.9696 21.3398 13.8302 21.5723 13.6132 21.7397C13.4024 21.907 13.1483 21.9907 12.8508 21.9907H11.1492ZM12.0046 15.2311C12.5935 15.2311 13.1328 15.0854 13.6225 14.794C14.1122 14.5027 14.5027 14.1122 14.794 13.6225C15.0854 13.1266 15.2311 12.5811 15.2311 11.9861C15.2311 11.3972 15.0854 10.861 14.794 10.3775C14.5027 9.8878 14.1122 9.49729 13.6225 9.20595C13.1328 8.91461 12.5935 8.76894 12.0046 8.76894C11.4096 8.76894 10.8672 8.91461 10.3775 9.20595C9.894 9.49729 9.50349 9.8878 9.20595 10.3775C8.91461 10.861 8.76894 11.3972 8.76894 11.9861C8.76894 12.5811 8.91461 13.1266 9.20595 13.6225C9.49729 14.1122 9.8878 14.5027 10.3775 14.794C10.8672 15.0854 11.4096 15.2311 12.0046 15.2311Z" fill="black"/>
</svg>
