<svg width="20" height="20" viewBox="0 0 20 20" fill="none" xmlns="http://www.w3.org/2000/svg">
<path d="M9.07104 19.9818H10.929C11.3236 19.9818 11.6667 19.8665 11.9581 19.6357C12.2495 19.4111 12.4378 19.1105 12.5228 18.7341L12.878 17.1858L13.0874 17.1221L14.4353 17.9417C14.7632 18.1542 15.1093 18.2332 15.4736 18.1785C15.844 18.13 16.1688 17.966 16.4481 17.6867L17.7322 16.4117C18.0115 16.1263 18.1724 15.8015 18.2149 15.4372C18.2635 15.0668 18.1846 14.7177 17.9781 14.3898L17.1403 13.0601L17.2222 12.8689L18.7523 12.5046C19.1287 12.4135 19.4293 12.2223 19.6539 11.9308C19.8846 11.6394 20 11.2963 20 10.9017V9.11661C20 8.72195 19.8846 8.3789 19.6539 8.08746C19.4293 7.79602 19.1287 7.60477 18.7523 7.51369L17.2313 7.14029L17.1494 6.93992L17.9872 5.61023C18.1937 5.28236 18.2726 4.93628 18.224 4.57198C18.1815 4.20768 18.0176 3.87981 17.7322 3.58837L16.4481 2.30422C16.1749 2.031 15.8531 1.8701 15.4827 1.82152C15.1184 1.76688 14.7723 1.84277 14.4444 2.04921L13.0965 2.87799L12.878 2.79602L12.5228 1.24775C12.4378 0.871312 12.2495 0.570765 11.9581 0.346114C11.6667 0.115392 11.3236 3.05176e-05 10.929 3.05176e-05H9.07104C8.67638 3.05176e-05 8.33333 0.115392 8.04189 0.346114C7.75046 0.576837 7.56223 0.877383 7.47723 1.24775L7.11293 2.79602L6.89435 2.87799L5.55556 2.04921C5.22161 1.84277 4.8725 1.76688 4.5082 1.82152C4.1439 1.8701 3.8221 2.031 3.54281 2.30422L2.26776 3.58837C1.98239 3.87981 1.81542 4.20768 1.76685 4.57198C1.72435 4.93628 1.80631 5.28236 2.01275 5.61023L2.84153 6.93992L2.76867 7.14029L1.24772 7.51369C0.865209 7.60477 0.561627 7.79602 0.336976 8.08746C0.112325 8.3789 0 8.72195 0 9.11661V10.9017C0 11.2963 0.112325 11.6394 0.336976 11.9308C0.567699 12.2223 0.871281 12.4135 1.24772 12.5046L2.77778 12.8689L2.85064 13.0601L2.02186 14.3898C1.80935 14.7177 1.72435 15.0668 1.76685 15.4372C1.81542 15.8015 1.98239 16.1263 2.26776 16.4117L3.55191 17.6867C3.82514 17.966 4.1439 18.13 4.5082 18.1785C4.87857 18.2332 5.23376 18.1542 5.57377 17.9417L6.91257 17.1221L7.11293 17.1858L7.47723 18.7341C7.56223 19.1105 7.75046 19.4111 8.04189 19.6357C8.33333 19.8665 8.67638 19.9818 9.07104 19.9818ZM9.36248 18.1603C9.21676 18.1603 9.13175 18.0905 9.10747 17.9508L8.57013 15.7195C8.27262 15.6588 7.98118 15.5708 7.69581 15.4554C7.41651 15.334 7.15847 15.1974 6.92168 15.0456L4.96357 16.2478C4.85428 16.3267 4.74499 16.3145 4.6357 16.2113L3.74317 15.3188C3.65209 15.2277 3.63995 15.1184 3.70674 14.9909L4.91803 13.0419C4.77838 12.8051 4.65088 12.5501 4.53552 12.2769C4.42016 11.9976 4.32908 11.7092 4.2623 11.4117L2.02186 10.8835C1.88828 10.8592 1.82149 10.7742 1.82149 10.6284V9.38072C1.82149 9.24107 1.88828 9.15911 2.02186 9.13482L4.25319 8.59748C4.31998 8.28783 4.41409 7.99335 4.53552 7.71406C4.65695 7.42869 4.78142 7.17672 4.90893 6.95814L3.70674 5.00914C3.62781 4.88163 3.63388 4.76931 3.72495 4.67216L4.62659 3.79784C4.72981 3.7007 4.84214 3.68552 4.96357 3.75231L6.90346 4.93628C7.11597 4.8027 7.37098 4.6752 7.66849 4.55376C7.97207 4.42626 8.27565 4.32608 8.57923 4.25322L9.10747 2.031C9.13175 1.89135 9.21676 1.82152 9.36248 1.82152H10.6375C10.7832 1.82152 10.8652 1.89135 10.8834 2.031L11.4299 4.27143C11.7395 4.33822 12.031 4.43233 12.3042 4.55376C12.5835 4.6752 12.8415 4.80574 13.0783 4.94539L15.0273 3.76141C15.1488 3.69463 15.2611 3.70677 15.3643 3.79784L16.2568 4.68127C16.354 4.77842 16.3631 4.8877 16.2842 5.00914L15.082 6.95814C15.2095 7.17672 15.3339 7.42869 15.4554 7.71406C15.5768 7.99335 15.6709 8.28479 15.7377 8.58837L17.9781 9.13482C18.1117 9.15911 18.1785 9.24107 18.1785 9.38072V10.6284C18.1785 10.7742 18.1117 10.8592 17.9781 10.8835L15.7377 11.4117C15.6648 11.7031 15.5707 11.9915 15.4554 12.2769C15.34 12.5562 15.2125 12.8112 15.0729 13.0419L16.275 14.9909C16.354 15.1124 16.3449 15.2186 16.2477 15.3097L15.3552 16.2022C15.252 16.3054 15.1427 16.3176 15.0273 16.2386L13.0783 15.0456C12.8355 15.1974 12.5774 15.3309 12.3042 15.4463C12.031 15.5617 11.7395 15.6527 11.4299 15.7195L10.8834 17.9508C10.8652 18.0905 10.7832 18.1603 10.6375 18.1603H9.36248ZM10 13.4427C10.6315 13.4427 11.2083 13.2878 11.7304 12.9782C12.2526 12.6624 12.6685 12.2435 12.9781 11.7213C13.2878 11.1992 13.4426 10.6224 13.4426 9.99092C13.4426 9.36554 13.2878 8.79177 12.9781 8.26961C12.6685 7.74745 12.2526 7.33154 11.7304 7.02189C11.2083 6.71223 10.6315 6.55741 10 6.55741C9.36855 6.55741 8.79174 6.71223 8.26958 7.02189C7.74742 7.33154 7.32848 7.74745 7.01275 8.26961C6.7031 8.79177 6.54827 9.36554 6.54827 9.99092C6.54827 10.6224 6.7031 11.1992 7.01275 11.7213C7.32848 12.2435 7.74742 12.6624 8.26958 12.9782C8.79174 13.2878 9.36855 13.4427 10 13.4427ZM10 11.7669C9.6782 11.7669 9.38373 11.6879 9.11658 11.5301C8.84942 11.3662 8.63388 11.1506 8.46995 10.8835C8.31208 10.6163 8.23315 10.3188 8.23315 9.99092C8.23315 9.66913 8.31208 9.37465 8.46995 9.1075C8.63388 8.84035 8.84942 8.62784 9.11658 8.46998C9.38373 8.31211 9.6782 8.23318 10 8.23318C10.3157 8.23318 10.6041 8.31515 10.8652 8.47908C11.1324 8.63695 11.3449 8.84945 11.5027 9.11661C11.6667 9.37769 11.7486 9.66913 11.7486 9.99092C11.7486 10.3127 11.6667 10.6102 11.5027 10.8835C11.3449 11.1506 11.1324 11.3662 10.8652 11.5301C10.6041 11.6879 10.3157 11.7669 10 11.7669Z" fill="black"/>
</svg>
