<svg width="21" height="20" viewBox="0 0 21 20" fill="none" xmlns="http://www.w3.org/2000/svg">
<g clip-path="url(#clip0_1_485)">
<path d="M10.6916 17.3238C11.0048 17.3238 11.318 17.2023 11.6312 16.9593C11.9444 16.7227 12.248 16.4157 12.5421 16.0384C12.8361 15.6611 13.1141 15.2614 13.3762 14.8394C13.6383 14.4173 13.878 14.0272 14.0953 13.6691C14.4404 13.0872 14.7313 12.566 14.9678 12.1055C15.2043 11.6387 15.3225 11.2326 15.3225 10.8873C15.3225 10.4589 15.2106 10.1039 14.9869 9.82257C14.7696 9.5412 14.3989 9.24064 13.8748 8.92089C13.683 8.81218 13.6319 8.70027 13.7214 8.58516C13.8108 8.47005 13.9195 8.46366 14.0473 8.56598C14.3605 8.80259 14.629 8.98484 14.8527 9.11274C15.0764 9.23424 15.2937 9.29499 15.5047 9.29499C15.7603 9.29499 16.0544 9.22465 16.3867 9.08396C16.7255 8.94328 17.093 8.73544 17.4893 8.46046C17.892 8.17909 18.3171 7.83057 18.7645 7.4149C18.6558 7.044 18.5216 6.66989 18.3618 6.2926C18.202 5.9153 18.0103 5.538 17.7865 5.1607C17.5692 4.7834 17.3072 4.4125 17.0004 4.04799C16.6935 3.67709 16.3356 3.31578 15.9265 2.96406C15.3768 2.49723 14.7664 2.12633 14.0953 1.85135C13.4241 1.57637 12.7562 1.38452 12.0914 1.27581C11.4331 1.1671 10.8546 1.12553 10.3561 1.15111C10.0301 1.36214 9.79997 1.54759 9.66574 1.70746C9.53151 1.86734 9.44203 2.0336 9.39728 2.20627C9.35893 2.37253 9.33017 2.57077 9.311 2.80099C9.1512 2.77541 8.98821 2.75623 8.82202 2.74344C8.66223 2.72425 8.5248 2.71466 8.40975 2.71466C8.07737 2.71466 7.7482 2.80738 7.42221 2.99284C7.10262 3.17189 6.69035 3.4149 6.1854 3.72185C5.92333 3.88173 5.76673 4.08956 5.7156 4.34535C5.66446 4.59475 5.69642 4.83137 5.81147 5.05519C5.93292 5.27901 6.12148 5.43888 6.37715 5.5348C6.63922 5.62433 6.94922 5.58596 7.30716 5.41969C7.64593 5.25982 7.93675 5.13832 8.17964 5.05519C8.42892 4.96566 8.61748 4.92089 8.74532 4.92089C8.88594 4.92089 9.12563 4.96886 9.4644 5.06478C9.80317 5.15431 10.1611 5.26941 10.5382 5.4101C10.9217 5.54439 11.2477 5.67549 11.5162 5.80339C11.7846 5.93129 11.9189 6.02721 11.9189 6.09116C11.9189 6.19348 11.8326 6.30858 11.66 6.43648C11.4938 6.55798 11.3084 6.61874 11.1039 6.61874C10.861 6.61874 10.5606 6.57397 10.2027 6.48444C9.8511 6.38852 9.44842 6.2926 8.9946 6.19667C8.54717 6.09436 8.06459 6.0432 7.54685 6.0432C7.04829 6.0432 6.56891 6.17109 6.10869 6.42689C5.65487 6.68268 5.24899 6.99923 4.89105 7.37653C4.53311 7.74743 4.24868 8.11834 4.03774 8.48924C3.83321 8.85375 3.73094 9.14791 3.73094 9.37173C3.73094 9.64671 3.83001 9.95687 4.02816 10.3022C4.2263 10.6475 4.47558 10.98 4.776 11.2998C5.08281 11.6131 5.39601 11.8753 5.7156 12.0864C6.03519 12.291 6.31643 12.3933 6.55932 12.3933C6.87891 12.3933 7.1985 12.3709 7.51809 12.3262C7.83768 12.2814 8.11892 12.2398 8.36181 12.2015C8.6047 12.1695 8.76769 12.243 8.85078 12.4221C8.9147 12.55 8.96584 12.6971 9.00419 12.8633C9.04893 13.0296 9.0713 13.2247 9.0713 13.4485C9.0713 13.6211 9.06171 13.8641 9.04254 14.1775C9.02976 14.4844 9.03295 14.8202 9.05213 15.1847C9.0713 15.5428 9.13202 15.8849 9.23429 16.2111C9.33656 16.5372 9.50275 16.8026 9.73286 17.0072C9.96296 17.2183 10.2826 17.3238 10.6916 17.3238ZM14.2199 5.17029C14.0537 5.17029 13.8556 5.12233 13.6255 5.02641C13.4018 4.93049 13.2036 4.81538 13.031 4.68109C12.8585 4.5404 12.7722 4.4093 12.7722 4.2878C12.7722 4.11514 12.8553 4.00323 13.0214 3.95207C13.194 3.90091 13.357 3.87533 13.5104 3.87533C13.6766 3.87533 13.846 3.92009 14.0186 4.00962C14.1911 4.09915 14.3382 4.20786 14.4596 4.33576C14.581 4.46366 14.6418 4.58197 14.6418 4.69068C14.6418 4.84416 14.6002 4.96246 14.5171 5.04559C14.434 5.12873 14.335 5.17029 14.2199 5.17029ZM10.0588 20C11.4267 20 12.7146 19.7378 13.9227 19.2135C15.1307 18.6955 16.1918 17.9761 17.1058 17.0552C18.0262 16.1343 18.7485 15.0728 19.2726 13.8705C19.7968 12.6619 20.0588 11.3701 20.0588 9.99523C20.0588 8.62673 19.7968 7.34136 19.2726 6.13912C18.7485 4.93049 18.0262 3.86574 17.1058 2.94487C16.1918 2.02401 15.1276 1.30459 13.9131 0.786601C12.7051 0.262221 11.4171 3.05176e-05 10.0493 3.05176e-05C8.6814 3.05176e-05 7.39345 0.262221 6.1854 0.786601C4.97734 1.30459 3.9131 2.02401 2.99268 2.94487C2.07865 3.86574 1.35957 4.93049 0.835444 6.13912C0.317707 7.34136 0.0588379 8.62673 0.0588379 9.99523C0.0588379 11.3701 0.317707 12.6619 0.835444 13.8705C1.35957 15.0728 2.08185 16.1343 3.00227 17.0552C3.92269 17.9761 4.98693 18.6955 6.19498 19.2135C7.40304 19.7378 8.69099 20 10.0588 20ZM10.0588 18.2926C8.92749 18.2926 7.86005 18.0752 6.85654 17.6403C5.85941 17.2055 4.97734 16.6075 4.21032 15.8466C3.4497 15.0856 2.85206 14.2063 2.41742 13.2087C1.98917 12.2047 1.77504 11.1335 1.77504 9.99523C1.77504 8.86334 1.98917 7.79859 2.41742 6.80099C2.85206 5.79699 3.4497 4.9145 4.21032 4.15351C4.97095 3.39252 5.84983 2.79459 6.84695 2.35974C7.85046 1.92489 8.9179 1.70746 10.0493 1.70746C11.187 1.70746 12.2544 1.92489 13.2516 2.35974C14.2487 2.79459 15.1307 3.39252 15.8978 4.15351C16.6648 4.9145 17.2624 5.79699 17.6907 6.80099C18.1253 7.79859 18.3426 8.86334 18.3426 9.99523C18.3426 11.1335 18.1253 12.2047 17.6907 13.2087C17.2624 14.2063 16.6648 15.0856 15.8978 15.8466C15.1371 16.6075 14.2551 17.2055 13.2516 17.6403C12.2544 18.0752 11.1902 18.2926 10.0588 18.2926Z" fill="black"/>
</g>
<defs>
<clipPath id="clip0_1_485">
<rect width="20" height="20" fill="white" transform="translate(0.0588379 3.05176e-05)"/>
</clipPath>
</defs>
</svg>
