<svg width="20" height="20" viewBox="0 0 20 20" fill="none" xmlns="http://www.w3.org/2000/svg">
<path d="M10.6328 17.3238C10.946 17.3238 11.2592 17.2023 11.5724 16.9593C11.8856 16.7227 12.1892 16.4157 12.4832 16.0384C12.7772 15.6611 13.0553 15.2614 13.3174 14.8394C13.5794 14.4173 13.8191 14.0272 14.0364 13.6691C14.3816 13.0872 14.6724 12.566 14.9089 12.1055C15.1454 11.6387 15.2637 11.2326 15.2637 10.8873C15.2637 10.4589 15.1518 10.1039 14.9281 9.82257C14.7108 9.5412 14.34 9.24064 13.8159 8.92089C13.6242 8.81218 13.573 8.70027 13.6625 8.58516C13.752 8.47005 13.8607 8.46366 13.9885 8.56598C14.3017 8.80259 14.5702 8.98484 14.7939 9.11274C15.0176 9.23424 15.2349 9.29499 15.4458 9.29499C15.7015 9.29499 15.9955 9.22465 16.3279 9.08396C16.6667 8.94328 17.0342 8.73544 17.4305 8.46046C17.8332 8.17909 18.2582 7.83057 18.7057 7.4149C18.597 7.044 18.4628 6.66989 18.303 6.2926C18.1432 5.9153 17.9514 5.538 17.7277 5.1607C17.5104 4.7834 17.2483 4.4125 16.9415 4.04799C16.6347 3.67709 16.2768 3.31578 15.8677 2.96406C15.318 2.49723 14.7076 2.12633 14.0364 1.85135C13.3653 1.57637 12.6973 1.38452 12.0326 1.27581C11.3742 1.1671 10.7958 1.12553 10.2972 1.15111C9.97124 1.36214 9.74113 1.54759 9.6069 1.70746C9.47267 1.86734 9.38319 2.0336 9.33845 2.20627C9.3001 2.37253 9.27133 2.57077 9.25216 2.80099C9.09236 2.77541 8.92937 2.75623 8.76318 2.74344C8.60339 2.72425 8.46596 2.71466 8.35091 2.71466C8.01854 2.71466 7.68936 2.80738 7.36338 2.99284C7.04378 3.17189 6.63151 3.4149 6.12656 3.72185C5.86449 3.88173 5.70789 4.08956 5.65676 4.34535C5.60562 4.59475 5.63758 4.83137 5.75264 5.05519C5.87408 5.27901 6.06264 5.43888 6.31831 5.5348C6.58038 5.62433 6.89038 5.58596 7.24832 5.41969C7.58709 5.25982 7.87792 5.13832 8.12081 5.05519C8.37009 4.96566 8.55865 4.92089 8.68648 4.92089C8.8271 4.92089 9.0668 4.96886 9.40556 5.06478C9.74433 5.15431 10.1023 5.26941 10.4794 5.4101C10.8629 5.54439 11.1889 5.67549 11.4573 5.80339C11.7258 5.93129 11.86 6.02721 11.86 6.09116C11.86 6.19348 11.7737 6.30858 11.6012 6.43648C11.435 6.55798 11.2496 6.61874 11.0451 6.61874C10.8022 6.61874 10.5018 6.57397 10.1438 6.48444C9.79227 6.38852 9.38958 6.2926 8.93576 6.19667C8.48834 6.09436 8.00575 6.0432 7.48802 6.0432C6.98945 6.0432 6.51007 6.17109 6.04986 6.42689C5.59604 6.68268 5.19016 6.99923 4.83221 7.37653C4.47427 7.74743 4.18984 8.11834 3.97891 8.48924C3.77437 8.85375 3.6721 9.14791 3.6721 9.37173C3.6721 9.64671 3.77117 9.95687 3.96932 10.3022C4.16747 10.6475 4.41675 10.98 4.71716 11.2998C5.02397 11.6131 5.33717 11.8753 5.65676 12.0864C5.97635 12.291 6.25759 12.3933 6.50048 12.3933C6.82007 12.3933 7.13966 12.3709 7.45925 12.3262C7.77884 12.2814 8.06008 12.2398 8.30297 12.2015C8.54586 12.1695 8.70885 12.243 8.79195 12.4221C8.85586 12.55 8.907 12.6971 8.94535 12.8633C8.99009 13.0296 9.01246 13.2247 9.01246 13.4485C9.01246 13.6211 9.00288 13.8641 8.9837 14.1775C8.97092 14.4844 8.97411 14.8202 8.99329 15.1847C9.01246 15.5428 9.07319 15.8849 9.17546 16.2111C9.27773 16.5372 9.44391 16.8026 9.67402 17.0072C9.90412 17.2183 10.2237 17.3238 10.6328 17.3238ZM14.1611 5.17029C13.9949 5.17029 13.7967 5.12233 13.5666 5.02641C13.3429 4.93049 13.1448 4.81538 12.9722 4.68109C12.7996 4.5404 12.7133 4.4093 12.7133 4.2878C12.7133 4.11514 12.7964 4.00323 12.9626 3.95207C13.1352 3.90091 13.2982 3.87533 13.4516 3.87533C13.6178 3.87533 13.7872 3.92009 13.9597 4.00962C14.1323 4.09915 14.2793 4.20786 14.4008 4.33576C14.5222 4.46366 14.5829 4.58197 14.5829 4.69068C14.5829 4.84416 14.5414 4.96246 14.4583 5.04559C14.3752 5.12873 14.2761 5.17029 14.1611 5.17029ZM10 20C11.3678 20 12.6558 19.7378 13.8639 19.2135C15.0719 18.6955 16.1329 17.9761 17.047 17.0552C17.9674 16.1343 18.6897 15.0728 19.2138 13.8705C19.7379 12.6619 20 11.3701 20 9.99523C20 8.62673 19.7379 7.34136 19.2138 6.13912C18.6897 4.93049 17.9674 3.86574 17.047 2.94487C16.1329 2.02401 15.0687 1.30459 13.8543 0.786601C12.6462 0.262221 11.3583 3.05176e-05 9.99041 3.05176e-05C8.62256 3.05176e-05 7.33461 0.262221 6.12656 0.786601C4.9185 1.30459 3.85427 2.02401 2.93384 2.94487C2.01981 3.86574 1.30074 4.93049 0.776606 6.13912C0.258869 7.34136 0 8.62673 0 9.99523C0 11.3701 0.258869 12.6619 0.776606 13.8705C1.30074 15.0728 2.02301 16.1343 2.94343 17.0552C3.86385 17.9761 4.92809 18.6955 6.13615 19.2135C7.3442 19.7378 8.63215 20 10 20ZM10 18.2926C8.86865 18.2926 7.80121 18.0752 6.7977 17.6403C5.80058 17.2055 4.9185 16.6075 4.15149 15.8466C3.39086 15.0856 2.79322 14.2063 2.35858 13.2087C1.93033 12.2047 1.7162 11.1335 1.7162 9.99523C1.7162 8.86334 1.93033 7.79859 2.35858 6.80099C2.79322 5.79699 3.39086 4.9145 4.15149 4.15351C4.91211 3.39252 5.79099 2.79459 6.78811 2.35974C7.79163 1.92489 8.85906 1.70746 9.99041 1.70746C11.1282 1.70746 12.1956 1.92489 13.1927 2.35974C14.1898 2.79459 15.0719 3.39252 15.8389 4.15351C16.6059 4.9145 17.2036 5.79699 17.6318 6.80099C18.0665 7.79859 18.2838 8.86334 18.2838 9.99523C18.2838 11.1335 18.0665 12.2047 17.6318 13.2087C17.2036 14.2063 16.6059 15.0856 15.8389 15.8466C15.0783 16.6075 14.1962 17.2055 13.1927 17.6403C12.1956 18.0752 11.1314 18.2926 10 18.2926Z" fill="black"/>
</svg>
