<svg width="24" height="24" viewBox="0 0 24 24" fill="none" xmlns="http://www.w3.org/2000/svg">
<path d="M12.6328 19.3237C12.946 19.3237 13.2592 19.2022 13.5724 18.9592C13.8856 18.7226 14.1892 18.4157 14.4832 18.0384C14.7772 17.6611 15.0553 17.2614 15.3174 16.8393C15.5794 16.4173 15.8191 16.0272 16.0364 15.6691C16.3816 15.0871 16.6724 14.5659 16.9089 14.1055C17.1454 13.6387 17.2637 13.2326 17.2637 12.8873C17.2637 12.4588 17.1518 12.1039 16.9281 11.8225C16.7108 11.5412 16.34 11.2406 15.8159 10.9209C15.6242 10.8122 15.573 10.7002 15.6625 10.5851C15.752 10.47 15.8607 10.4636 15.9885 10.5659C16.3017 10.8026 16.5702 10.9848 16.7939 11.1127C17.0176 11.2342 17.2349 11.295 17.4458 11.295C17.7015 11.295 17.9955 11.2246 18.3279 11.0839C18.6667 10.9432 19.0342 10.7354 19.4305 10.4604C19.8332 10.1791 20.2582 9.83054 20.7057 9.41487C20.597 9.04396 20.4628 8.66986 20.303 8.29257C20.1432 7.91527 19.9514 7.53797 19.7277 7.16067C19.5104 6.78337 19.2483 6.41247 18.9415 6.04796C18.6347 5.67706 18.2768 5.31575 17.8677 4.96403C17.318 4.4972 16.7076 4.1263 16.0364 3.85132C15.3653 3.57634 14.6973 3.38449 14.0326 3.27578C13.3742 3.16707 12.7958 3.1255 12.2972 3.15108C11.9712 3.36211 11.7411 3.54756 11.6069 3.70743C11.4727 3.86731 11.3832 4.03357 11.3384 4.20623C11.3001 4.3725 11.2713 4.57074 11.2522 4.80096C11.0924 4.77538 10.9294 4.7562 10.7632 4.74341C10.6034 4.72422 10.466 4.71463 10.3509 4.71463C10.0185 4.71463 9.68936 4.80735 9.36338 4.99281C9.04378 5.17186 8.63151 5.41487 8.12656 5.72182C7.86449 5.88169 7.70789 6.08953 7.65676 6.34532C7.60562 6.59472 7.63758 6.83133 7.75264 7.05516C7.87408 7.27898 8.06264 7.43885 8.31831 7.53477C8.58038 7.6243 8.89038 7.58593 9.24832 7.41966C9.58709 7.25979 9.87792 7.13829 10.1208 7.05516C10.3701 6.96563 10.5586 6.92086 10.6865 6.92086C10.8271 6.92086 11.0668 6.96882 11.4056 7.06475C11.7443 7.15428 12.1023 7.26938 12.4794 7.41007C12.8629 7.54436 13.1889 7.67546 13.4573 7.80336C13.7258 7.93125 13.86 8.02718 13.86 8.09113C13.86 8.19345 13.7737 8.30855 13.6012 8.43645C13.435 8.55795 13.2496 8.6187 13.0451 8.6187C12.8022 8.6187 12.5018 8.57394 12.1438 8.48441C11.7923 8.38849 11.3896 8.29257 10.9358 8.19664C10.4883 8.09432 10.0058 8.04317 9.48802 8.04317C8.98945 8.04317 8.51007 8.17106 8.04986 8.42686C7.59604 8.68265 7.19016 8.9992 6.83221 9.3765C6.47427 9.7474 6.18984 10.1183 5.97891 10.4892C5.77437 10.8537 5.6721 11.1479 5.6721 11.3717C5.6721 11.6467 5.77117 11.9568 5.96932 12.3022C6.16747 12.6475 6.41675 12.98 6.71716 13.2998C7.02397 13.6131 7.33717 13.8753 7.65676 14.0863C7.97635 14.291 8.25759 14.3933 8.50048 14.3933C8.82007 14.3933 9.13966 14.3709 9.45925 14.3261C9.77884 14.2814 10.0601 14.2398 10.303 14.2014C10.5459 14.1695 10.7089 14.243 10.7919 14.4221C10.8559 14.55 10.907 14.697 10.9454 14.8633C10.9901 15.0296 11.0125 15.2246 11.0125 15.4484C11.0125 15.6211 11.0029 15.8641 10.9837 16.1775C10.9709 16.4844 10.9741 16.8201 10.9933 17.1847C11.0125 17.5428 11.0732 17.8849 11.1755 18.211C11.2777 18.5372 11.4439 18.8026 11.674 19.0072C11.9041 19.2182 12.2237 19.3237 12.6328 19.3237ZM16.1611 7.17026C15.9949 7.17026 15.7967 7.1223 15.5666 7.02638C15.3429 6.93046 15.1448 6.81535 14.9722 6.68106C14.7996 6.54037 14.7133 6.40927 14.7133 6.28777C14.7133 6.11511 14.7964 6.0032 14.9626 5.95204C15.1352 5.90088 15.2982 5.8753 15.4516 5.8753C15.6178 5.8753 15.7872 5.92006 15.9597 6.00959C16.1323 6.09912 16.2793 6.20783 16.4008 6.33573C16.5222 6.46363 16.5829 6.58193 16.5829 6.69065C16.5829 6.84412 16.5414 6.96243 16.4583 7.04556C16.3752 7.1287 16.2761 7.17026 16.1611 7.17026ZM12 22C13.3678 22 14.6558 21.7378 15.8639 21.2134C17.0719 20.6954 18.1329 19.976 19.047 19.0552C19.9674 18.1343 20.6897 17.0727 21.2138 15.8705C21.7379 14.6619 22 13.3701 22 11.9952C22 10.6267 21.7379 9.34133 21.2138 8.13909C20.6897 6.93046 19.9674 5.86571 19.047 4.94484C18.1329 4.02398 17.0687 3.30456 15.8543 2.78657C14.6462 2.26219 13.3583 2 11.9904 2C10.6226 2 9.33461 2.26219 8.12656 2.78657C6.9185 3.30456 5.85427 4.02398 4.93384 4.94484C4.01981 5.86571 3.30074 6.93046 2.77661 8.13909C2.25887 9.34133 2 10.6267 2 11.9952C2 13.3701 2.25887 14.6619 2.77661 15.8705C3.30074 17.0727 4.02301 18.1343 4.94343 19.0552C5.86385 19.976 6.92809 20.6954 8.13615 21.2134C9.3442 21.7378 10.6322 22 12 22ZM12 20.2926C10.8686 20.2926 9.80121 20.0751 8.7977 19.6403C7.80058 19.2054 6.9185 18.6075 6.15149 17.8465C5.39086 17.0855 4.79322 16.2062 4.35858 15.2086C3.93033 14.2046 3.7162 13.1335 3.7162 11.9952C3.7162 10.8633 3.93033 9.79856 4.35858 8.80096C4.79322 7.79696 5.39086 6.91447 6.15149 6.15348C6.91211 5.39249 7.79099 4.79456 8.78811 4.35971C9.79163 3.92486 10.8591 3.70743 11.9904 3.70743C13.1282 3.70743 14.1956 3.92486 15.1927 4.35971C16.1898 4.79456 17.0719 5.39249 17.8389 6.15348C18.6059 6.91447 19.2036 7.79696 19.6318 8.80096C20.0665 9.79856 20.2838 10.8633 20.2838 11.9952C20.2838 13.1335 20.0665 14.2046 19.6318 15.2086C19.2036 16.2062 18.6059 17.0855 17.8389 17.8465C17.0783 18.6075 16.1962 19.2054 15.1927 19.6403C14.1956 20.0751 13.1314 20.2926 12 20.2926Z" fill="black"/>
</svg>
