<svg width="24" height="24" viewBox="0 0 24 24" fill="none" xmlns="http://www.w3.org/2000/svg">
<path d="M4.74772 19.8684L3.50813 18.6288C3.152 18.2727 2.98307 17.8846 3.00134 17.4645C3.02416 17.0445 3.24332 16.6564 3.6588 16.3003L11.2949 9.72567L13.6577 12.0884L7.07623 19.7177C6.72011 20.1286 6.33202 20.3455 5.91198 20.3683C5.49193 20.3912 5.10385 20.2245 4.74772 19.8684ZM17.3833 13.5403L16.9245 13.0815C16.751 12.9171 16.6414 12.7664 16.5957 12.6295C16.5546 12.4879 16.5432 12.3304 16.5615 12.1569L16.6437 11.4926L16.1917 11.0406L15.3082 11.2255C15.0251 11.2803 14.7695 11.2712 14.5412 11.1981C14.3129 11.1205 14.0869 10.9698 13.8632 10.7461L12.4729 9.35584C12.2446 9.11843 12.1031 8.8696 12.0483 8.60935C11.9935 8.34454 12.0323 8.04549 12.1647 7.71219L12.5756 6.64381C12.1419 6.39726 11.6534 6.28312 11.11 6.30138C10.5713 6.31508 10.0029 6.40868 9.40474 6.58218C9.17646 6.64153 8.971 6.63925 8.78837 6.57533C8.60575 6.51141 8.46193 6.41096 8.35691 6.27399C8.23821 6.10962 8.18342 5.91558 8.19255 5.69186C8.20168 5.46814 8.30669 5.25584 8.50758 5.05495C8.91393 4.64403 9.38192 4.32215 9.91154 4.0893C10.4412 3.85188 10.9982 3.70121 11.5826 3.63729C12.167 3.57337 12.7514 3.59164 13.3358 3.69208C13.9248 3.78796 14.4818 3.96374 15.0069 4.21942C15.5319 4.4751 15.9976 4.80611 16.404 5.21246L17.7394 6.54793C18.0271 6.83101 18.2211 7.1118 18.3216 7.39031C18.4266 7.66881 18.4471 7.94961 18.3832 8.23268L18.1915 9.04081L18.6435 9.48597L19.3009 9.41063C19.479 9.39693 19.6342 9.41063 19.7666 9.45172C19.9036 9.49281 20.0565 9.59554 20.2255 9.75991L20.6912 10.2325C20.8875 10.4379 20.9902 10.6639 20.9994 10.9105C21.0085 11.1525 20.9195 11.3693 20.7323 11.5611L18.7188 13.5677C18.5225 13.7686 18.3033 13.8645 18.0613 13.8554C17.8193 13.8462 17.5933 13.7412 17.3833 13.5403Z" fill="black"/>
</svg>
