<svg width="24" height="24" viewBox="0 0 24 24" fill="none" xmlns="http://www.w3.org/2000/svg">
<path d="M5.5 15.4712V6.64029C5.5 6.33453 5.60492 6.07674 5.81475 5.86691C6.02458 5.65707 6.28237 5.55216 6.58813 5.55216C6.88789 5.55216 7.14269 5.65707 7.35252 5.86691C7.56235 6.07674 7.66727 6.33453 7.66727 6.64029V12.1888C7.77518 12.1229 7.88909 12.057 8.00899 11.991C8.13489 11.9251 8.26379 11.8591 8.39568 11.7932V3.83453C8.39568 3.52878 8.5006 3.27398 8.71043 3.07014C8.92026 2.86031 9.17506 2.7554 9.47482 2.7554C9.77458 2.7554 10.0294 2.86031 10.2392 3.07014C10.449 3.27398 10.554 3.52878 10.554 3.83453V11.1817C10.6799 11.1577 10.8058 11.1397 10.9317 11.1277C11.0576 11.1097 11.1835 11.0947 11.3094 11.0827V3.08813C11.3094 2.78237 11.4113 2.52458 11.6151 2.31475C11.8249 2.10492 12.0827 2 12.3885 2C12.6942 2 12.952 2.10492 13.1619 2.31475C13.3717 2.52458 13.4766 2.78237 13.4766 3.08813V11.1817C13.6025 11.2056 13.7254 11.2356 13.8453 11.2716C13.9652 11.3016 14.0821 11.3375 14.196 11.3795V4.35612C14.196 4.05036 14.298 3.79257 14.5018 3.58273C14.7116 3.3729 14.9694 3.26799 15.2752 3.26799C15.5809 3.26799 15.8357 3.3729 16.0396 3.58273C16.2494 3.79257 16.3543 4.05036 16.3543 4.35612V13.9065C16.3543 14.0504 16.3783 14.1493 16.4263 14.2032C16.4802 14.2512 16.5462 14.2752 16.6241 14.2752C16.69 14.2752 16.753 14.2512 16.8129 14.2032C16.8729 14.1553 16.9299 14.0653 16.9838 13.9335L18.2518 11.1906C18.4376 10.801 18.6415 10.5132 18.8633 10.3273C19.0911 10.1415 19.3639 10.0665 19.6817 10.1025C19.9634 10.1325 20.1823 10.2464 20.3381 10.4442C20.5 10.6361 20.5659 10.8729 20.536 11.1547C20.524 11.3225 20.476 11.5504 20.3921 11.8381C20.3141 12.1259 20.2212 12.4376 20.1133 12.7734C20.0114 13.1091 19.9125 13.4299 19.8165 13.7356C19.6966 14.1193 19.5647 14.53 19.4209 14.9676C19.277 15.4053 19.1181 15.8519 18.9442 16.3076C18.7764 16.7572 18.5875 17.1978 18.3777 17.6295C18.1739 18.0552 17.952 18.4478 17.7122 18.8076C17.0827 19.8747 16.3064 20.6721 15.3831 21.1996C14.4658 21.7332 13.3387 22 12.0018 22C11.0725 22 10.2122 21.8531 9.42086 21.5594C8.6295 21.2656 7.94005 20.8369 7.35252 20.2734C6.77098 19.7098 6.31535 19.0264 5.98561 18.223C5.66187 17.4137 5.5 16.4964 5.5 15.4712Z" fill="black"/>
</svg>
