<svg width="21" height="20" viewBox="0 0 21 20" fill="none" xmlns="http://www.w3.org/2000/svg">
<g clip-path="url(#clip0_1_486)">
<path d="M0.0588379 7.33496C0.0588379 11.4498 3.51338 15.5455 8.7574 18.9809C9.2263 19.2871 9.72391 19.5742 10.0588 19.5742C10.3938 19.5742 10.8914 19.2871 11.3507 18.9809C16.5947 15.5455 20.0588 11.4498 20.0588 7.33496C20.0588 3.54549 17.4081 1.00003 14.2215 1.00003C12.3076 1.00003 10.8914 1.83257 10.0588 3.02874C9.2263 1.83257 7.81003 1.00003 5.88659 1.00003C2.69999 1.00003 0.0588379 3.54549 0.0588379 7.33496ZM2.77654 7.31582C2.77654 5.134 4.26936 3.62204 6.25023 3.62204C7.82917 3.62204 8.68085 4.52156 9.26458 5.3541C9.53252 5.73687 9.76219 5.90912 10.0588 5.90912C10.3555 5.90912 10.5564 5.73687 10.8435 5.3541C11.4655 4.52156 12.2885 3.62204 13.8579 3.62204C15.8387 3.62204 17.3316 5.134 17.3316 7.31582C17.3316 10.3397 14.2885 13.8804 10.2024 16.5981C10.1354 16.6364 10.0971 16.6651 10.0588 16.6651C10.0206 16.6651 9.97271 16.6364 9.9153 16.5981C5.8196 13.8804 2.77654 10.3397 2.77654 7.31582Z" fill="black"/>
</g>
<defs>
<clipPath id="clip0_1_486">
<rect width="20" height="20" fill="white" transform="translate(0.0588379 3.05176e-05)"/>
</clipPath>
</defs>
</svg>
