<svg width="24" height="24" viewBox="0 0 24 24" fill="none" xmlns="http://www.w3.org/2000/svg">
<path d="M2 9.17516C2 8.26472 2.14514 7.43345 2.43543 6.68135C2.72571 5.92265 3.13145 5.2695 3.65265 4.72192C4.18044 4.17434 4.794 3.7521 5.49332 3.45522C6.19264 3.15174 6.94475 3 7.74963 3C8.69306 3 9.52763 3.20122 10.2533 3.60366C10.9791 3.99951 11.5596 4.524 11.9951 5.17714C12.4437 4.524 13.0275 3.99951 13.7467 3.60366C14.4724 3.20122 15.3069 3 16.2504 3C17.0619 3 17.814 3.15174 18.5067 3.45522C19.206 3.7521 19.8163 4.17434 20.3375 4.72192C20.8587 5.2695 21.2644 5.92265 21.5547 6.68135C21.8516 7.43345 22 8.26472 22 9.17516C22 10.5804 21.6272 11.9758 20.8817 13.3612C20.1362 14.7467 19.084 16.0925 17.7249 17.3988C16.3724 18.7051 14.7726 19.952 12.9253 21.1395C12.7735 21.2385 12.6119 21.3276 12.4404 21.4067C12.2754 21.4859 12.127 21.5255 11.9951 21.5255C11.8763 21.5255 11.7312 21.4859 11.5596 21.4067C11.3881 21.3276 11.2298 21.2385 11.0846 21.1395C9.23734 19.952 7.63088 18.7051 6.26522 17.3988C4.90615 16.0925 3.85387 14.7467 3.10836 13.3612C2.36945 11.9758 2 10.5804 2 9.17516ZM3.99901 9.16526C3.99901 10.0361 4.20683 10.9235 4.62246 11.8273C5.0447 12.7312 5.61867 13.6251 6.34438 14.5092C7.0701 15.3932 7.90137 16.241 8.8382 17.0524C9.78163 17.8573 10.7745 18.6061 11.8169 19.2989C11.9093 19.3714 11.9687 19.4077 11.9951 19.4077C12.0214 19.4077 12.0874 19.3714 12.193 19.2989C13.2354 18.6061 14.225 17.8573 15.1618 17.0524C16.0986 16.241 16.9299 15.3932 17.6556 14.5092C18.3813 13.6251 18.952 12.7312 19.3676 11.8273C19.7899 10.9235 20.001 10.0361 20.001 9.16526C20.001 8.3274 19.8328 7.59508 19.4963 6.96833C19.1598 6.34158 18.698 5.85337 18.1108 5.50371C17.5303 5.14745 16.8738 4.96932 16.1415 4.96932C15.5412 4.96932 15.0266 5.07488 14.5977 5.286C14.1755 5.49052 13.8126 5.75111 13.5092 6.06779C13.2057 6.37787 12.9418 6.68794 12.7175 6.99802C12.5723 7.18935 12.447 7.32459 12.3414 7.40376C12.2425 7.48293 12.127 7.52251 11.9951 7.52251C11.8697 7.52251 11.7542 7.48623 11.6487 7.41366C11.5431 7.33449 11.4178 7.19594 11.2726 6.99802C11.0681 6.68135 10.8141 6.36797 10.5106 6.05789C10.2072 5.74781 9.8377 5.49052 9.40228 5.286C8.96685 5.07488 8.45225 4.96932 7.85849 4.96932C7.12618 4.96932 6.46644 5.14745 5.87927 5.50371C5.2987 5.85337 4.84018 6.34158 4.50371 6.96833C4.16724 7.59508 3.99901 8.3274 3.99901 9.16526Z" fill="black"/>
</svg>
