<svg width="21" height="20" viewBox="0 0 21 20" fill="none" xmlns="http://www.w3.org/2000/svg">
<path d="M0.0588379 9.97521C0.0588379 10.4796 0.467165 10.8399 0.995587 10.8399C1.28382 10.8399 1.53202 10.7118 1.74018 10.5116L9.83466 3.11372C9.90672 3.04967 9.97877 3.01764 10.0588 3.01764C10.1389 3.01764 10.219 3.04166 10.291 3.11372L18.3775 10.5116C18.5857 10.7118 18.8419 10.8399 19.1301 10.8399C19.6585 10.8399 20.0588 10.4796 20.0588 9.97521C20.0588 9.69499 19.9788 9.47081 19.7146 9.23061L16.7282 6.50043V1.5925C16.7282 1.23222 16.488 1.00003 16.1277 1.00003H14.6385C14.2702 1.00003 14.03 1.23222 14.03 1.5925V4.04246L11.3319 1.57649C10.9475 1.22421 10.5152 1.05608 10.0588 1.05608C9.60247 1.05608 9.17013 1.22421 8.79383 1.57649L0.403113 9.23061C0.138902 9.47081 0.0588379 9.69499 0.0588379 9.97521ZM2.82905 16.7326C2.82905 17.9176 3.59767 18.6461 4.83066 18.6461H7.96116V12.8015C7.96116 12.4252 8.20936 12.177 8.59367 12.177H11.548C11.9243 12.177 12.1645 12.4252 12.1645 12.8015V18.6461H15.287C16.528 18.6461 17.2966 17.9176 17.2966 16.7326V10.952L10.275 4.5869C10.211 4.52285 10.1309 4.49082 10.0508 4.49082C9.97877 4.49082 9.89871 4.52285 9.82665 4.59491L2.82905 10.984V16.7326Z" fill="black"/>
</svg>
