<svg width="24" height="24" viewBox="0 0 24 24" fill="none" xmlns="http://www.w3.org/2000/svg">
<path fill-rule="evenodd" clip-rule="evenodd" d="M15.3574 3.98834C13.3995 2.40386 10.6004 2.40388 8.6426 3.98835ZM15.3574 3.98834L20.0204 7.76212C20.0204 7.76213 20.0204 7.76211 20.0204 7.76212C21.2726 8.77543 22 10.3001 22 11.9107V18.2884C22 19.8922 20.6999 21.1924 19.096 21.1924H15.0411C14.1092 21.1924 13.3536 20.4368 13.3536 19.5048V14.8417C13.3536 14.0942 12.7476 13.4881 12 13.4881C11.2524 13.4881 10.6464 14.0942 10.6464 14.8417V19.5048C10.6464 20.4367 9.89092 21.1924 8.95886 21.1924H4.904C3.30018 21.1924 2 19.8922 2 18.2884V11.9107C2 10.3 2.72745 8.77544 3.97951 7.76215L8.6426 3.98835M13.7443 5.98149C12.7271 5.15829 11.2729 5.15828 10.2557 5.9815L5.59256 9.75531C4.94206 10.2818 4.5641 11.0739 4.5641 11.9107V18.2884C4.5641 18.4761 4.71626 18.6283 4.904 18.6283H8.08229V14.8417C8.08229 12.6781 9.83633 10.924 12 10.924C14.1637 10.924 15.9177 12.6781 15.9177 14.8417V18.6283H19.096C19.2837 18.6283 19.4359 18.4761 19.4359 18.2884V11.9107C19.4359 11.0739 19.058 10.2818 18.4074 9.75533L13.7443 5.98149Z" fill="black"/>
</svg>
