<svg width="20" height="20" viewBox="0 0 20 20" fill="none" xmlns="http://www.w3.org/2000/svg">
<path d="M0 9.97521C0 10.4796 0.408327 10.8399 0.936749 10.8399C1.22498 10.8399 1.47318 10.7118 1.68135 10.5116L9.77582 3.11372C9.84788 3.04967 9.91994 3.01764 10 3.01764C10.0801 3.01764 10.1601 3.04166 10.2322 3.11372L18.3187 10.5116C18.5268 10.7118 18.783 10.8399 19.0713 10.8399C19.5997 10.8399 20 10.4796 20 9.97521C20 9.69499 19.9199 9.47081 19.6557 9.23061L16.6693 6.50043V1.5925C16.6693 1.23222 16.4291 1.00003 16.0689 1.00003H14.5797C14.2114 1.00003 13.9712 1.23222 13.9712 1.5925V4.04246L11.273 1.57649C10.8887 1.22421 10.4564 1.05608 10 1.05608C9.54363 1.05608 9.11129 1.22421 8.73499 1.57649L0.344275 9.23061C0.0800641 9.47081 0 9.69499 0 9.97521ZM2.77022 16.7326C2.77022 17.9176 3.53883 18.6461 4.77182 18.6461H7.90232V12.8015C7.90232 12.4252 8.15052 12.177 8.53483 12.177H11.4892C11.8655 12.177 12.1057 12.4252 12.1057 12.8015V18.6461H15.2282C16.4692 18.6461 17.2378 17.9176 17.2378 16.7326V10.952L10.2162 4.5869C10.1521 4.52285 10.0721 4.49082 9.99199 4.49082C9.91994 4.49082 9.83987 4.52285 9.76781 4.59491L2.77022 10.984V16.7326Z" fill="black"/>
</svg>
