<svg width="24" height="24" viewBox="0 0 24 24" fill="none" xmlns="http://www.w3.org/2000/svg">
<path d="M12 21.9904C10.6322 21.9904 9.3442 21.7283 8.13615 21.2042C6.92809 20.6865 5.86385 19.9674 4.94343 19.047C4.02301 18.1266 3.30074 17.0655 2.77661 15.8639C2.25887 14.6558 2 13.3647 2 11.9904C2 10.6226 2.25887 9.33781 2.77661 8.13615C3.30074 6.92809 4.01981 5.86385 4.93384 4.94343C5.85427 4.02301 6.9185 3.30393 8.12656 2.78619C9.33461 2.26206 10.6226 2 11.9904 2C13.3583 2 14.6462 2.26206 15.8543 2.78619C17.0687 3.30393 18.133 4.02301 19.047 4.94343C19.9674 5.86385 20.6897 6.92809 21.2138 8.13615C21.7379 9.33781 22 10.6226 22 11.9904C22 13.3647 21.7379 14.6558 21.2138 15.8639C20.6897 17.0655 19.9674 18.1266 19.047 19.047C18.133 19.9674 17.0719 20.6865 15.8639 21.2042C14.6558 21.7283 13.3678 21.9904 12 21.9904ZM10.2167 17.4842H14.2627C14.5056 17.4842 14.7101 17.4075 14.8763 17.2541C15.0425 17.0943 15.1256 16.8897 15.1256 16.6405C15.1256 16.4167 15.0425 16.225 14.8763 16.0652C14.7101 15.899 14.5056 15.8159 14.2627 15.8159H13.2464V11.348C13.2464 11.0221 13.1665 10.7632 13.0067 10.5714C12.8533 10.3733 12.6232 10.2742 12.3164 10.2742H10.3988C10.156 10.2742 9.95142 10.3541 9.78524 10.5139C9.61905 10.6737 9.53595 10.8686 9.53595 11.0988C9.53595 11.348 9.61905 11.5494 9.78524 11.7028C9.95142 11.8562 10.156 11.9329 10.3988 11.9329H11.3672V15.8159H10.2167C9.97379 15.8159 9.76926 15.899 9.60307 16.0652C9.43688 16.225 9.35379 16.4167 9.35379 16.6405C9.35379 16.8897 9.43688 17.0943 9.60307 17.2541C9.76926 17.4075 9.97379 17.4842 10.2167 17.4842ZM11.9521 8.7977C12.3484 8.7977 12.6839 8.66027 12.9588 8.38543C13.2336 8.10419 13.371 7.76862 13.371 7.37871C13.371 6.97603 13.2336 6.63726 12.9588 6.36242C12.6839 6.08118 12.3484 5.94056 11.9521 5.94056C11.5622 5.94056 11.2266 6.08118 10.9454 6.36242C10.6705 6.63726 10.5331 6.97603 10.5331 7.37871C10.5331 7.76862 10.6705 8.10419 10.9454 8.38543C11.2266 8.66027 11.5622 8.7977 11.9521 8.7977Z" fill="black"/>
</svg>
