<svg width="24" height="24" viewBox="0 0 24 24" fill="none" xmlns="http://www.w3.org/2000/svg">
<path d="M11.9953 21.9905C10.626 21.9905 9.3387 21.7287 8.13346 21.2049C6.92822 20.6875 5.86496 19.9681 4.94368 19.0469C4.0224 18.1319 3.29989 17.0718 2.77615 15.8665C2.25872 14.6613 2 13.3709 2 11.9953C2 10.626 2.25872 9.3387 2.77615 8.13346C3.29989 6.92822 4.01925 5.86496 4.93422 4.94368C5.8555 4.0224 6.91876 3.30304 8.12399 2.78561C9.33554 2.26187 10.626 2 11.9953 2C13.3646 2 14.6518 2.26187 15.8571 2.78561C17.0686 3.30304 18.1319 4.0224 19.0469 4.94368C19.9681 5.86496 20.6906 6.92822 21.2144 8.13346C21.7381 9.3387 22 10.626 22 11.9953C22 13.3709 21.7381 14.6613 21.2144 15.8665C20.6906 17.0718 19.9681 18.1319 19.0469 19.0469C18.1319 19.9681 17.0718 20.6875 15.8665 21.2049C14.6613 21.7287 13.3709 21.9905 11.9953 21.9905ZM11.9953 19.5012C13.0364 19.5012 14.0114 19.3056 14.92 18.9143C15.8287 18.5294 16.6269 17.9962 17.3147 17.3147C18.0025 16.6269 18.5389 15.8287 18.9238 14.92C19.315 14.0114 19.5106 13.0364 19.5106 11.9953C19.5106 10.9541 19.315 9.98233 18.9238 9.07998C18.5326 8.17132 17.9931 7.37309 17.3053 6.68528C16.6238 5.99748 15.8287 5.46111 14.92 5.0762C14.0114 4.68497 13.0364 4.48935 11.9953 4.48935C10.9541 4.48935 9.97918 4.68497 9.07052 5.0762C8.16817 5.46111 7.37309 5.99748 6.68528 6.68528C5.99748 7.37309 5.46111 8.17132 5.0762 9.07998C4.69128 9.98233 4.49882 10.9541 4.49882 11.9953C4.49882 13.0364 4.69128 14.0114 5.0762 14.92C5.46111 15.8287 5.99748 16.6269 6.68528 17.3147C7.37309 17.9962 8.17132 18.5294 9.07998 18.9143C9.98864 19.3056 10.9604 19.5012 11.9953 19.5012ZM10.3389 17.0308C10.1054 17.0308 9.90661 16.955 9.74255 16.8036C9.57848 16.6458 9.49645 16.4471 9.49645 16.2073C9.49645 15.9738 9.57848 15.7814 9.74255 15.6299C9.90661 15.4722 10.1054 15.3933 10.3389 15.3933H11.38V12.1089H10.5187C10.2789 12.1089 10.077 12.0331 9.91292 11.8817C9.74886 11.7302 9.66682 11.5315 9.66682 11.2854C9.66682 11.0582 9.74886 10.8658 9.91292 10.708C10.077 10.5502 10.2789 10.4714 10.5187 10.4714H12.3076C12.6105 10.4714 12.8408 10.5692 12.9986 10.7648C13.1563 10.9541 13.2352 11.2097 13.2352 11.5315V15.3933H14.0776C14.3174 15.3933 14.5162 15.4722 14.6739 15.6299C14.838 15.7814 14.92 15.9738 14.92 16.2073C14.92 16.4471 14.838 16.6458 14.6739 16.8036C14.5162 16.955 14.3174 17.0308 14.0776 17.0308H10.3389ZM11.9858 9.19356C11.6135 9.19356 11.2917 9.06105 11.0204 8.79603C10.7553 8.52469 10.6228 8.20603 10.6228 7.84004C10.6228 7.45512 10.7553 7.13015 11.0204 6.86512C11.2917 6.60009 11.6135 6.46758 11.9858 6.46758C12.3644 6.46758 12.6831 6.60009 12.9418 6.86512C13.2068 7.13015 13.3393 7.45512 13.3393 7.84004C13.3393 8.20603 13.2068 8.52469 12.9418 8.79603C12.6831 9.06105 12.3644 9.19356 11.9858 9.19356Z" fill="black"/>
</svg>
