<svg width="20" height="20" viewBox="0 0 20 20" fill="none" xmlns="http://www.w3.org/2000/svg">
<path d="M5.55556 3.05176e-05C2.48778 3.05176e-05 0 2.48781 0 5.55559V14.4445C0 17.5123 2.48778 20 5.55556 20H14.4444C17.5122 20 20 17.5123 20 14.4445V5.55559C20 2.48781 17.5122 3.05176e-05 14.4444 3.05176e-05H5.55556ZM16.6667 2.22225C17.28 2.22225 17.7778 2.72003 17.7778 3.33336C17.7778 3.9467 17.28 4.44448 16.6667 4.44448C16.0533 4.44448 15.5556 3.9467 15.5556 3.33336C15.5556 2.72003 16.0533 2.22225 16.6667 2.22225ZM10 4.44448C13.0678 4.44448 15.5556 6.93225 15.5556 10C15.5556 13.0678 13.0678 15.5556 10 15.5556C6.93222 15.5556 4.44444 13.0678 4.44444 10C4.44444 6.93225 6.93222 4.44448 10 4.44448ZM10 6.6667C9.11595 6.6667 8.2681 7.01789 7.64298 7.64301C7.01786 8.26813 6.66667 9.11598 6.66667 10C6.66667 10.8841 7.01786 11.7319 7.64298 12.3571C8.2681 12.9822 9.11595 13.3334 10 13.3334C10.8841 13.3334 11.7319 12.9822 12.357 12.3571C12.9821 11.7319 13.3333 10.8841 13.3333 10C13.3333 9.11598 12.9821 8.26813 12.357 7.64301C11.7319 7.01789 10.8841 6.6667 10 6.6667Z" fill="black"/>
</svg>
