<svg width="21" height="20" viewBox="0 0 21 20" fill="none" xmlns="http://www.w3.org/2000/svg">
<g clip-path="url(#clip0_1_494)">
<path d="M5.61439 3.05176e-05C2.54662 3.05176e-05 0.0588379 2.48781 0.0588379 5.55559V14.4445C0.0588379 17.5123 2.54662 20 5.61439 20H14.5033C17.5711 20 20.0588 17.5123 20.0588 14.4445V5.55559C20.0588 2.48781 17.5711 3.05176e-05 14.5033 3.05176e-05H5.61439ZM16.7255 2.22225C17.3388 2.22225 17.8366 2.72003 17.8366 3.33336C17.8366 3.9467 17.3388 4.44448 16.7255 4.44448C16.1122 4.44448 15.6144 3.9467 15.6144 3.33336C15.6144 2.72003 16.1122 2.22225 16.7255 2.22225ZM10.0588 4.44448C13.1266 4.44448 15.6144 6.93225 15.6144 10C15.6144 13.0678 13.1266 15.5556 10.0588 15.5556C6.99106 15.5556 4.50328 13.0678 4.50328 10C4.50328 6.93225 6.99106 4.44448 10.0588 4.44448ZM10.0588 6.6667C9.17478 6.6667 8.32694 7.01789 7.70182 7.64301C7.07669 8.26813 6.7255 9.11598 6.7255 10C6.7255 10.8841 7.07669 11.7319 7.70182 12.3571C8.32694 12.9822 9.17478 13.3334 10.0588 13.3334C10.9429 13.3334 11.7907 12.9822 12.4159 12.3571C13.041 11.7319 13.3922 10.8841 13.3922 10C13.3922 9.11598 13.041 8.26813 12.4159 7.64301C11.7907 7.01789 10.9429 6.6667 10.0588 6.6667Z" fill="black"/>
</g>
<defs>
<clipPath id="clip0_1_494">
<rect width="20" height="20" fill="white" transform="translate(0.0588379 3.05176e-05)"/>
</clipPath>
</defs>
</svg>
