<svg width="24" height="24" viewBox="0 0 24 24" fill="none" xmlns="http://www.w3.org/2000/svg">
<path d="M7.60747 18.706C7.83809 18.7252 8.07592 18.7877 8.32095 18.8934C8.56598 18.9991 8.77498 19.136 8.94795 19.3042C9.06326 19.4195 9.05845 19.5252 8.93353 19.6213C8.74135 19.775 8.51554 19.8855 8.25609 19.9528C7.99664 20.0249 7.74921 20.0465 7.51378 20.0176C7.28316 19.9984 7.04534 19.9336 6.8003 19.8231C6.55527 19.7126 6.34627 19.5756 6.17331 19.4123C6.03878 19.2777 6.05319 19.1576 6.21655 19.0519C6.40873 18.9318 6.63214 18.8381 6.88679 18.7709C7.14143 18.7084 7.38166 18.6868 7.60747 18.706ZM9.12812 16.2196C9.23863 16.0611 9.35634 16.0539 9.48126 16.198C9.63981 16.371 9.77193 16.58 9.87763 16.825C9.98814 17.07 10.0506 17.3079 10.065 17.5385C10.089 17.7787 10.0602 18.0286 9.97853 18.288C9.89685 18.5474 9.77674 18.7661 9.61819 18.9438C9.51249 19.0687 9.40919 19.0711 9.30829 18.951C9.14974 18.7877 9.01761 18.5811 8.91191 18.3312C8.81102 18.0862 8.75336 17.8436 8.73895 17.6033C8.72934 17.3775 8.75817 17.1373 8.82543 16.8827C8.8975 16.628 8.9984 16.407 9.12812 16.2196ZM5.56072 16.7313C5.78173 16.8034 5.99554 16.9235 6.20213 17.0917C6.40873 17.2598 6.57209 17.4472 6.6922 17.6538C6.77868 17.7883 6.74745 17.8868 6.59851 17.9493C6.3727 18.0502 6.12526 18.103 5.85621 18.1078C5.58715 18.1174 5.34212 18.0766 5.12111 17.9853C4.9049 17.9036 4.6911 17.7763 4.47969 17.6033C4.2731 17.4352 4.10974 17.2502 3.98963 17.0484C3.89354 16.8851 3.93438 16.7746 4.11215 16.7169C4.33316 16.6448 4.57579 16.6112 4.84004 16.616C5.10429 16.616 5.34452 16.6544 5.56072 16.7313ZM7.65792 14.7206C7.80686 14.5861 7.92217 14.6053 8.00385 14.7783C8.10955 14.9849 8.18162 15.2227 8.22006 15.4917C8.2633 15.756 8.2633 16.001 8.22006 16.2268C8.18162 16.4671 8.09033 16.7025 7.94619 16.9331C7.80206 17.1589 7.6339 17.3391 7.44171 17.4736C7.30238 17.5697 7.19908 17.5433 7.13182 17.3943C7.02131 17.1926 6.94684 16.9595 6.90841 16.6953C6.87477 16.431 6.88198 16.1836 6.93003 15.953C6.97807 15.732 7.06696 15.5086 7.19668 15.2827C7.33121 15.0521 7.48496 14.8647 7.65792 14.7206ZM2.40412 13.9062C2.3801 13.7237 2.46177 13.6396 2.64915 13.654C2.87497 13.6732 3.10799 13.7405 3.34822 13.8558C3.58845 13.9663 3.79024 14.1008 3.95359 14.2594C4.12656 14.4083 4.2731 14.6005 4.39321 14.8359C4.51813 15.0713 4.595 15.3092 4.62383 15.5494C4.64305 15.7176 4.57098 15.7992 4.40763 15.7944C4.1674 15.7896 3.92236 15.7368 3.67253 15.6359C3.42269 15.535 3.21609 15.3956 3.05274 15.2179C2.88458 15.0593 2.74044 14.8599 2.62033 14.6197C2.50021 14.3747 2.42814 14.1368 2.40412 13.9062ZM6.69941 13.2576C6.88198 13.2 6.97567 13.2672 6.98048 13.4594C7.0045 13.69 6.98048 13.9351 6.90841 14.1945C6.83634 14.4491 6.73544 14.6726 6.60572 14.8647C6.4808 15.0713 6.30543 15.2491 6.07962 15.398C5.8538 15.547 5.62318 15.6479 5.38776 15.7007C5.2244 15.7248 5.13552 15.6575 5.12111 15.4989C5.10669 15.2635 5.13552 15.0185 5.20759 14.7638C5.27966 14.5044 5.38536 14.281 5.52469 14.0936C5.65922 13.911 5.83458 13.7429 6.05079 13.5891C6.267 13.4354 6.4832 13.3249 6.69941 13.2576ZM5.40217 11.5712C5.57514 11.4271 5.78414 11.3094 6.02917 11.2181C6.27901 11.122 6.52164 11.0691 6.75706 11.0595C6.93964 11.0547 7.01651 11.1436 6.98768 11.3262C6.94444 11.5568 6.85315 11.7898 6.71382 12.0252C6.57929 12.2559 6.42315 12.4456 6.24538 12.5946C6.07241 12.7579 5.85621 12.8853 5.59676 12.9765C5.33731 13.063 5.08747 13.0991 4.84724 13.0846C4.6935 13.075 4.62864 12.991 4.65266 12.8324C4.6959 12.6018 4.78479 12.3712 4.91931 12.1405C5.05865 11.9099 5.2196 11.7201 5.40217 11.5712ZM2.42574 10.5911C2.44976 10.3989 2.55066 10.3388 2.72843 10.4109C2.94463 10.4926 3.15363 10.6175 3.35542 10.7857C3.56202 10.949 3.72538 11.1268 3.84549 11.319C3.97041 11.5208 4.0617 11.7538 4.11935 12.018C4.18181 12.2775 4.19623 12.5177 4.16259 12.7387C4.14337 12.9069 4.05449 12.9693 3.89594 12.9261C3.66052 12.8684 3.4347 12.7579 3.21849 12.5946C3.00709 12.4264 2.84374 12.239 2.72843 12.0324C2.60351 11.8259 2.51222 11.5928 2.45457 11.3334C2.40172 11.0691 2.39211 10.8217 2.42574 10.5911ZM5.82017 9.11367C6.03157 9.03199 6.2694 8.99115 6.53365 8.99115C6.7979 8.98635 7.04053 9.01998 7.26154 9.09205C7.43451 9.15451 7.47535 9.26021 7.38406 9.40915C7.27355 9.61094 7.1126 9.80072 6.9012 9.97849C6.6946 10.1515 6.4784 10.2812 6.25258 10.3677C6.02677 10.4541 5.77693 10.4974 5.50307 10.4974C5.23401 10.4926 4.99138 10.4397 4.77518 10.3388C4.62623 10.2668 4.595 10.1635 4.68149 10.0289C4.8016 9.82715 4.96496 9.64457 5.17155 9.48122C5.37815 9.31306 5.59436 9.19054 5.82017 9.11367ZM3.35542 7.16782C3.44671 7.00446 3.56202 6.98044 3.70135 7.09575C3.87432 7.24469 4.02807 7.43447 4.16259 7.66509C4.30193 7.8909 4.39562 8.11672 4.44366 8.34253C4.49651 8.56835 4.50372 8.81578 4.46528 9.08484C4.43165 9.34909 4.35958 9.58211 4.24908 9.78391C4.1722 9.92804 4.0689 9.95447 3.93918 9.86318C3.74219 9.72865 3.57163 9.54848 3.42749 9.32267C3.28336 9.09205 3.18967 8.85903 3.14643 8.6236C3.10318 8.39779 3.10078 8.15275 3.13922 7.8885C3.17766 7.61945 3.24972 7.37922 3.35542 7.16782ZM7.15344 7.00206C7.38406 6.95401 7.62909 6.94921 7.88854 6.98764C8.14799 7.02128 8.38101 7.08854 8.58761 7.18944C8.75577 7.26631 8.78219 7.37922 8.66688 7.52816C8.51794 7.70593 8.32816 7.86448 8.09754 8.00381C7.87172 8.14314 7.64351 8.23924 7.41289 8.29209C7.18227 8.35455 6.93243 8.36656 6.66337 8.32812C6.39912 8.28488 6.1661 8.2008 5.96431 8.07588C5.82978 7.98459 5.81056 7.87889 5.90665 7.75878C6.05079 7.5714 6.23577 7.40804 6.46158 7.26871C6.6922 7.12938 6.92282 7.04049 7.15344 7.00206ZM4.99138 4.72469C5.10189 4.57575 5.222 4.57094 5.35173 4.71028C5.50067 4.88324 5.62559 5.09224 5.72648 5.33727C5.83218 5.58231 5.89224 5.81773 5.90665 6.04355C5.92587 6.27416 5.89704 6.5192 5.82017 6.77864C5.7481 7.03329 5.6448 7.2567 5.51028 7.44888C5.41899 7.58341 5.31089 7.59302 5.18597 7.47771C5.0082 7.31435 4.86406 7.11016 4.75356 6.86513C4.64305 6.61529 4.5854 6.37266 4.58059 6.13723C4.56618 5.91142 4.59741 5.66879 4.67428 5.40934C4.75115 5.14509 4.85685 4.91687 4.99138 4.72469ZM8.82543 4.004C9.01281 3.97998 9.09929 4.06406 9.08488 4.25624C9.05605 4.48686 8.98398 4.72469 8.86867 4.96972C8.75817 5.21476 8.62364 5.41655 8.46509 5.5751C8.29693 5.75767 8.09033 5.90421 7.8453 6.01472C7.60507 6.12522 7.36484 6.18528 7.12461 6.19489C6.96606 6.19969 6.89399 6.12282 6.90841 5.96427C6.92763 5.73365 6.99249 5.49823 7.10299 5.258C7.2183 5.01296 7.35763 4.80877 7.52099 4.64541C7.68435 4.48686 7.88614 4.34993 8.12637 4.23462C8.36659 4.11451 8.59962 4.03764 8.82543 4.004Z" fill="black"/>
<path d="M16.3926 18.706C16.162 18.7252 15.9241 18.7877 15.6791 18.8934C15.4341 18.9991 15.2251 19.136 15.0521 19.3042C14.9368 19.4195 14.9416 19.5252 15.0665 19.6213C15.2587 19.775 15.4845 19.8855 15.744 19.9528C16.0034 20.0249 16.2508 20.0465 16.4863 20.0176C16.7169 19.9984 16.9547 19.9336 17.1997 19.8231C17.4448 19.7126 17.6538 19.5756 17.8267 19.4123C17.9613 19.2777 17.9469 19.1576 17.7835 19.0519C17.5913 18.9318 17.3679 18.8381 17.1133 18.7709C16.8586 18.7084 16.6184 18.6868 16.3926 18.706ZM14.8719 16.2196C14.7614 16.0611 14.6437 16.0539 14.5188 16.198C14.3602 16.371 14.2281 16.58 14.1224 16.825C14.0119 17.07 13.9495 17.3079 13.935 17.5385C13.911 17.7787 13.9398 18.0286 14.0215 18.288C14.1032 18.5474 14.2233 18.7661 14.3819 18.9438C14.4876 19.0687 14.5909 19.0711 14.6918 18.951C14.8503 18.7877 14.9824 18.5811 15.0881 18.3312C15.189 18.0862 15.2467 17.8436 15.2611 17.6033C15.2707 17.3775 15.2419 17.1373 15.1746 16.8827C15.1025 16.628 15.0017 16.407 14.8719 16.2196ZM18.4393 16.7313C18.2183 16.8034 18.0045 16.9235 17.7979 17.0917C17.5913 17.2598 17.428 17.4472 17.3078 17.6538C17.2214 17.7883 17.2526 17.8868 17.4015 17.9493C17.6274 18.0502 17.8748 18.103 18.1438 18.1078C18.4129 18.1174 18.6579 18.0766 18.8789 17.9853C19.0952 17.9036 19.309 17.7763 19.5204 17.6033C19.7269 17.4352 19.8903 17.2502 20.0104 17.0484C20.1065 16.8851 20.0657 16.7746 19.8879 16.7169C19.6669 16.6448 19.4243 16.6112 19.16 16.616C18.8958 16.616 18.6555 16.6544 18.4393 16.7313ZM16.3421 14.7206C16.1932 14.5861 16.0779 14.6053 15.9962 14.7783C15.8905 14.9849 15.8184 15.2227 15.78 15.4917C15.7368 15.756 15.7368 16.001 15.78 16.2268C15.8184 16.4671 15.9097 16.7025 16.0539 16.9331C16.198 17.1589 16.3662 17.3391 16.5583 17.4736C16.6977 17.5697 16.801 17.5433 16.8682 17.3943C16.9787 17.1926 17.0532 16.9595 17.0916 16.6953C17.1253 16.431 17.1181 16.1836 17.07 15.953C17.022 15.732 16.9331 15.5086 16.8034 15.2827C16.6688 15.0521 16.5151 14.8647 16.3421 14.7206ZM21.5959 13.9062C21.62 13.7237 21.5383 13.6396 21.3509 13.654C21.1251 13.6732 20.8921 13.7405 20.6518 13.8558C20.4116 13.9663 20.2098 14.1008 20.0465 14.2594C19.8735 14.4083 19.727 14.6005 19.6068 14.8359C19.4819 15.0713 19.405 15.3092 19.3762 15.5494C19.357 15.7176 19.4291 15.7992 19.5924 15.7944C19.8327 15.7896 20.0777 15.7368 20.3275 15.6359C20.5774 15.535 20.784 15.3956 20.9473 15.2179C21.1155 15.0593 21.2596 14.8599 21.3797 14.6197C21.4998 14.3747 21.5719 14.1368 21.5959 13.9062ZM17.3006 13.2576C17.1181 13.2 17.0244 13.2672 17.0196 13.4594C16.9956 13.69 17.0196 13.9351 17.0916 14.1945C17.1637 14.4491 17.2646 14.6726 17.3943 14.8647C17.5192 15.0713 17.6946 15.2491 17.9204 15.398C18.1462 15.547 18.3769 15.6479 18.6123 15.7007C18.7756 15.7248 18.8645 15.6575 18.8789 15.4989C18.8934 15.2635 18.8645 15.0185 18.7925 14.7638C18.7204 14.5044 18.6147 14.281 18.4754 14.0936C18.3408 13.911 18.1655 13.7429 17.9493 13.5891C17.7331 13.4354 17.5168 13.3249 17.3006 13.2576ZM18.5979 11.5712C18.4249 11.4271 18.2159 11.3094 17.9709 11.2181C17.721 11.122 17.4784 11.0691 17.243 11.0595C17.0604 11.0547 16.9835 11.1436 17.0124 11.3262C17.0556 11.5568 17.1469 11.7898 17.2862 12.0252C17.4208 12.2559 17.5769 12.4456 17.7547 12.5946C17.9276 12.7579 18.1438 12.8853 18.4033 12.9765C18.6627 13.063 18.9126 13.0991 19.1528 13.0846C19.3065 13.075 19.3714 12.991 19.3474 12.8324C19.3041 12.6018 19.2153 12.3712 19.0807 12.1405C18.9414 11.9099 18.7804 11.7201 18.5979 11.5712ZM21.5743 10.5911C21.5503 10.3989 21.4494 10.3388 21.2716 10.4109C21.0554 10.4926 20.8464 10.6175 20.6446 10.7857C20.438 10.949 20.2747 11.1268 20.1546 11.319C20.0296 11.5208 19.9384 11.7538 19.8807 12.018C19.8182 12.2775 19.8038 12.5177 19.8375 12.7387C19.8567 12.9069 19.9456 12.9693 20.1041 12.9261C20.3395 12.8684 20.5653 12.7579 20.7816 12.5946C20.993 12.4264 21.1563 12.239 21.2716 12.0324C21.3965 11.8259 21.4878 11.5928 21.5455 11.3334C21.5983 11.0691 21.6079 10.8217 21.5743 10.5911ZM18.1799 9.11367C17.9685 9.03199 17.7307 8.99115 17.4664 8.99115C17.2021 8.98635 16.9595 9.01998 16.7385 9.09205C16.5655 9.15451 16.5247 9.26021 16.616 9.40915C16.7265 9.61094 16.8874 9.80072 17.0988 9.97849C17.3054 10.1515 17.5217 10.2812 17.7475 10.3677C17.9733 10.4541 18.2231 10.4974 18.497 10.4974C18.766 10.4926 19.0087 10.4397 19.2249 10.3388C19.3738 10.2668 19.405 10.1635 19.3186 10.0289C19.1984 9.82715 19.0351 9.64457 18.8285 9.48122C18.6219 9.31306 18.4057 9.19054 18.1799 9.11367ZM20.6446 7.16782C20.5533 7.00446 20.438 6.98044 20.2987 7.09575C20.1257 7.24469 19.972 7.43447 19.8375 7.66509C19.6981 7.8909 19.6044 8.11672 19.5564 8.34253C19.5035 8.56835 19.4963 8.81578 19.5348 9.08484C19.5684 9.34909 19.6405 9.58211 19.751 9.78391C19.8278 9.92804 19.9311 9.95447 20.0609 9.86318C20.2579 9.72865 20.4284 9.54848 20.5726 9.32267C20.7167 9.09205 20.8104 8.85903 20.8536 8.6236C20.8969 8.39779 20.8993 8.15275 20.8608 7.8885C20.8224 7.61945 20.7503 7.37922 20.6446 7.16782ZM16.8466 7.00206C16.616 6.95401 16.371 6.94921 16.1115 6.98764C15.8521 7.02128 15.619 7.08854 15.4124 7.18944C15.2443 7.26631 15.2179 7.37922 15.3332 7.52816C15.4821 7.70593 15.6719 7.86448 15.9025 8.00381C16.1283 8.14314 16.3565 8.23924 16.5872 8.29209C16.8178 8.35455 17.0676 8.36656 17.3367 8.32812C17.6009 8.28488 17.8339 8.2008 18.0357 8.07588C18.1703 7.98459 18.1895 7.87889 18.0934 7.75878C17.9493 7.5714 17.7643 7.40804 17.5385 7.26871C17.3078 7.12938 17.0772 7.04049 16.8466 7.00206ZM19.0087 4.72469C18.8982 4.57575 18.778 4.57094 18.6483 4.71028C18.4994 4.88324 18.3745 5.09224 18.2736 5.33727C18.1679 5.58231 18.1078 5.81773 18.0934 6.04355C18.0742 6.27416 18.103 6.5192 18.1799 6.77864C18.2519 7.03329 18.3552 7.2567 18.4898 7.44888C18.5811 7.58341 18.6892 7.59302 18.8141 7.47771C18.9919 7.31435 19.136 7.11016 19.2465 6.86513C19.357 6.61529 19.4147 6.37266 19.4195 6.13723C19.4339 5.91142 19.4026 5.66879 19.3258 5.40934C19.2489 5.14509 19.1432 4.91687 19.0087 4.72469ZM15.1746 4.004C14.9872 3.97998 14.9008 4.06406 14.9152 4.25624C14.944 4.48686 15.0161 4.72469 15.1314 4.96972C15.2419 5.21476 15.3764 5.41655 15.535 5.5751C15.7031 5.75767 15.9097 5.90421 16.1547 6.01472C16.395 6.12522 16.6352 6.18528 16.8754 6.19489C17.034 6.19969 17.1061 6.12282 17.0916 5.96427C17.0724 5.73365 17.0076 5.49823 16.8971 5.258C16.7817 5.01296 16.6424 4.80877 16.4791 4.64541C16.3157 4.48686 16.1139 4.34993 15.8737 4.23462C15.6335 4.11451 15.4004 4.03764 15.1746 4.004Z" fill="black"/>
</svg>
