<svg width="20" height="20" viewBox="0 0 20 20" fill="none" xmlns="http://www.w3.org/2000/svg">
<path d="M1.24379 2.55885C1.15711 2.96842 1.09481 3.41788 1.05688 3.90723C1.01896 4.39658 1 4.82476 1 5.19178C1 6.71834 1.21941 8.10129 1.65824 9.34062C2.10248 10.58 2.73634 11.6438 3.55982 12.532C4.38871 13.4203 5.37743 14.1065 6.52596 14.5905C7.67991 15.0692 8.96659 15.3086 10.386 15.3086C11.1391 15.3086 11.8108 15.2315 12.4014 15.0772C12.9919 14.9229 13.5093 14.7288 13.9535 14.4948C14.3977 14.2554 14.7743 14.0028 15.0831 13.7368C15.3919 13.4709 15.6411 13.2209 15.8307 12.9868C16.0203 12.7528 16.1585 12.5693 16.2451 12.4363L14.8962 12.3485C15.2862 12.7528 15.6059 13.1597 15.8551 13.5693C16.1097 13.9735 16.3264 14.4097 16.5052 14.8777C16.6894 15.3405 16.8736 15.8564 17.0578 16.4256C17.1228 16.6277 17.223 16.774 17.3585 16.8644C17.4993 16.9548 17.651 17 17.8135 17C18.144 17 18.423 16.875 18.6506 16.625C18.8835 16.375 19 16.0639 19 15.6915C19 15.4096 18.9106 15.0878 18.7318 14.7261C18.5585 14.3644 18.3336 13.9974 18.0573 13.6251C17.7865 13.2528 17.5074 12.907 17.2203 12.5879C16.9332 12.2688 16.684 12.0081 16.4727 11.806C15.8605 11.2528 15.2077 10.8273 14.5142 10.5294C13.8208 10.2262 13.1165 9.99752 12.4014 9.84327C11.6916 9.68902 10.9982 9.5587 10.321 9.45232C9.64379 9.34594 9.01264 9.20765 8.42754 9.03744C7.84244 8.86723 7.33047 8.61989 6.89165 8.29543C6.45824 7.96565 6.13047 7.5029 5.90835 6.90716C5.85959 6.78483 5.88397 6.6944 5.98149 6.63589C6.07901 6.57207 6.18194 6.59334 6.29029 6.69972C6.75621 7.18375 7.24921 7.54013 7.7693 7.76885C8.28939 7.99757 8.82573 8.15448 9.37833 8.23958C9.93093 8.32469 10.4944 8.38852 11.0686 8.43107C11.6483 8.4683 12.2307 8.53745 12.8158 8.63851C13.4063 8.73957 13.9968 8.91776 14.5874 9.17307C15.1833 9.42307 15.7711 9.81136 16.3508 10.3379C16.5242 10.4869 16.6975 10.5347 16.8709 10.4816C17.0442 10.4284 17.1472 10.3113 17.1797 10.1305C17.2014 10.0188 17.2176 9.87784 17.2284 9.70764C17.2393 9.53211 17.2447 9.35126 17.2447 9.16509C17.2447 7.85661 16.9576 6.76089 16.3833 5.87793C15.809 4.99497 15.0099 4.33009 13.986 3.88329C12.9621 3.4365 11.7702 3.2131 10.4104 3.2131C9.96614 3.2131 9.50293 3.24235 9.02077 3.30086C8.54402 3.35405 8.07269 3.4099 7.60677 3.46841C7.14628 3.5216 6.71287 3.54819 6.30655 3.54819C5.87856 3.54819 5.43702 3.52426 4.98194 3.47639C4.53228 3.42852 4.08533 3.31416 3.64108 3.13331C3.20226 2.94714 2.7851 2.65194 2.38962 2.24769C2.18375 2.04025 1.95892 1.96312 1.71512 2.01631C1.47675 2.0695 1.31964 2.25035 1.24379 2.55885Z" fill="black"/>
</svg>
