<svg width="21" height="20" viewBox="0 0 21 20" fill="none" xmlns="http://www.w3.org/2000/svg">
<path d="M1.30263 2.55885C1.21595 2.96842 1.15365 3.41788 1.11572 3.90723C1.0778 4.39658 1.05884 4.82476 1.05884 5.19178C1.05884 6.71834 1.27825 8.10129 1.71708 9.34062C2.16132 10.58 2.79518 11.6438 3.61866 12.532C4.44755 13.4203 5.43626 14.1065 6.5848 14.5905C7.73875 15.0692 9.02543 15.3086 10.4448 15.3086C11.1979 15.3086 11.8697 15.2315 12.4602 15.0772C13.0507 14.9229 13.5681 14.7288 14.0123 14.4948C14.4566 14.2554 14.8331 14.0028 15.1419 13.7368C15.4507 13.4709 15.6999 13.2209 15.8895 12.9868C16.0792 12.7528 16.2173 12.5693 16.304 12.4363L14.955 12.3485C15.3451 12.7528 15.6647 13.1597 15.9139 13.5693C16.1685 13.9735 16.3852 14.4097 16.564 14.8777C16.7482 15.3405 16.9324 15.8564 17.1166 16.4256C17.1816 16.6277 17.2819 16.774 17.4173 16.8644C17.5582 16.9548 17.7099 17 17.8724 17C18.2029 17 18.4819 16.875 18.7094 16.625C18.9424 16.375 19.0588 16.0639 19.0588 15.6915C19.0588 15.4096 18.9694 15.0878 18.7907 14.7261C18.6173 14.3644 18.3925 13.9974 18.1162 13.6251C17.8453 13.2528 17.5663 12.907 17.2792 12.5879C16.992 12.2688 16.7428 12.0081 16.5315 11.806C15.9193 11.2528 15.2665 10.8273 14.5731 10.5294C13.8796 10.2262 13.1753 9.99752 12.4602 9.84327C11.7505 9.68902 11.057 9.5587 10.3798 9.45232C9.70263 9.34594 9.07148 9.20765 8.48638 9.03744C7.90128 8.86723 7.38931 8.61989 6.95049 8.29543C6.51708 7.96565 6.18931 7.5029 5.96719 6.90716C5.91843 6.78483 5.94281 6.6944 6.04033 6.63589C6.13784 6.57207 6.24078 6.59334 6.34913 6.69972C6.81505 7.18375 7.30805 7.54013 7.82814 7.76885C8.34823 7.99757 8.88457 8.15448 9.43717 8.23958C9.98976 8.32469 10.5532 8.38852 11.1275 8.43107C11.7071 8.4683 12.2895 8.53745 12.8746 8.63851C13.4652 8.73957 14.0557 8.91776 14.6462 9.17307C15.2421 9.42307 15.8299 9.81136 16.4096 10.3379C16.583 10.4869 16.7564 10.5347 16.9297 10.4816C17.1031 10.4284 17.206 10.3113 17.2385 10.1305C17.2602 10.0188 17.2764 9.87784 17.2873 9.70764C17.2981 9.53211 17.3035 9.35126 17.3035 9.16509C17.3035 7.85661 17.0164 6.76089 16.4421 5.87793C15.8679 4.99497 15.0688 4.33009 14.0448 3.88329C13.0209 3.4365 11.829 3.2131 10.4692 3.2131C10.025 3.2131 9.56177 3.24235 9.07961 3.30086C8.60286 3.35405 8.13152 3.4099 7.66561 3.46841C7.20511 3.5216 6.7717 3.54819 6.36538 3.54819C5.93739 3.54819 5.49586 3.52426 5.04078 3.47639C4.59112 3.42852 4.14417 3.31416 3.69992 3.13331C3.2611 2.94714 2.84394 2.65194 2.44845 2.24769C2.24259 2.04025 2.01775 1.96312 1.77396 2.01631C1.53559 2.0695 1.37848 2.25035 1.30263 2.55885Z" fill="black"/>
</svg>
