<svg width="21" height="20" viewBox="0 0 21 20" fill="none" xmlns="http://www.w3.org/2000/svg">
<g clip-path="url(#clip0_1_491)">
<path d="M17.6779 3.05176e-05H2.43979C1.1255 3.05176e-05 0.0588379 1.0667 0.0588379 2.38098V17.6191C0.0588379 18.9334 1.1255 20 2.43979 20H17.6779C18.9922 20 20.0588 18.9334 20.0588 17.6191V2.38098C20.0588 1.0667 18.9922 3.05176e-05 17.6779 3.05176e-05ZM6.24931 7.61908V16.6667H3.39217V7.61908H6.24931ZM3.39217 4.98575C3.39217 4.31908 3.9636 3.80955 4.82074 3.80955C5.67789 3.80955 6.21598 4.31908 6.24931 4.98575C6.24931 5.65241 5.71598 6.19051 4.82074 6.19051C3.9636 6.19051 3.39217 5.65241 3.39217 4.98575ZM16.7255 16.6667H13.8684C13.8684 16.6667 13.8684 12.2572 13.8684 11.9048C13.8684 10.9524 13.3922 10 12.2017 9.98098H12.1636C11.0112 9.98098 10.535 10.9619 10.535 11.9048C10.535 12.3381 10.535 16.6667 10.535 16.6667H7.67789V7.61908H10.535V8.83813C10.535 8.83813 11.4541 7.61908 13.3017 7.61908C15.1922 7.61908 16.7255 8.91908 16.7255 11.5524V16.6667Z" fill="black"/>
</g>
<defs>
<clipPath id="clip0_1_491">
<rect width="20" height="20" fill="white" transform="translate(0.0588379 3.05176e-05)"/>
</clipPath>
</defs>
</svg>
