<svg width="21" height="20" viewBox="0 0 21 20" fill="none" xmlns="http://www.w3.org/2000/svg">
<g clip-path="url(#clip0_1_492)">
<path d="M9.38697 13.9458L10.9384 12.3943C9.94696 12.2933 9.17583 11.9445 8.64338 11.412C7.12867 9.89733 7.12867 7.77673 8.6342 6.27119L11.7279 3.17749C13.2426 1.67196 15.354 1.67196 16.8688 3.17749C18.3927 4.70139 18.3835 6.822 16.8779 8.32753L15.5101 9.69537C15.8314 10.439 15.9599 11.3753 15.7488 12.1924L18.3192 9.62193C20.6326 7.33608 20.6326 4.05878 18.31 1.73622C15.9875 -0.586347 12.7285 -0.567987 10.4335 1.72704L7.18375 4.96761C4.88872 7.27182 4.87954 10.5399 7.20211 12.8533C7.69783 13.3582 8.42306 13.7622 9.38697 13.9458ZM10.7273 6.05087L9.17583 7.61148C10.1673 7.71246 10.9384 8.05213 11.4709 8.58457C12.9856 10.0993 12.9856 12.2291 11.48 13.7254L8.38634 16.8191C6.87162 18.3247 4.75102 18.3338 3.24548 16.8191C1.72159 15.2952 1.73077 13.1838 3.2363 11.6783L4.60414 10.3104C4.28283 9.56685 4.15431 8.62129 4.36545 7.80427L1.78585 10.3747C-0.518359 12.6697 -0.518359 15.9378 1.79503 18.2604C4.12677 20.583 7.38571 20.5738 9.68073 18.2696L12.9213 15.029C15.2255 12.7248 15.2347 9.46586 12.9121 7.1433C12.4164 6.63839 11.6912 6.23447 10.7273 6.05087Z" fill="black"/>
</g>
<defs>
<clipPath id="clip0_1_492">
<rect width="20" height="20" fill="white" transform="translate(0.0588379 3.05176e-05)"/>
</clipPath>
</defs>
</svg>
