<svg width="20" height="20" viewBox="0 0 20 20" fill="none" xmlns="http://www.w3.org/2000/svg">
<path d="M17.619 3.05176e-05H2.38095C1.06667 3.05176e-05 0 1.0667 0 2.38098V17.6191C0 18.9334 1.06667 20 2.38095 20H17.619C18.9333 20 20 18.9334 20 17.6191V2.38098C20 1.0667 18.9333 3.05176e-05 17.619 3.05176e-05ZM6.19048 7.61908V16.6667H3.33333V7.61908H6.19048ZM3.33333 4.98575C3.33333 4.31908 3.90476 3.80955 4.7619 3.80955C5.61905 3.80955 6.15714 4.31908 6.19048 4.98575C6.19048 5.65241 5.65714 6.19051 4.7619 6.19051C3.90476 6.19051 3.33333 5.65241 3.33333 4.98575ZM16.6667 16.6667H13.8095C13.8095 16.6667 13.8095 12.2572 13.8095 11.9048C13.8095 10.9524 13.3333 10 12.1429 9.98098H12.1048C10.9524 9.98098 10.4762 10.9619 10.4762 11.9048C10.4762 12.3381 10.4762 16.6667 10.4762 16.6667H7.61905V7.61908H10.4762V8.83813C10.4762 8.83813 11.3952 7.61908 13.2429 7.61908C15.1333 7.61908 16.6667 8.91908 16.6667 11.5524V16.6667Z" fill="black"/>
</svg>
