<svg width="24" height="24" viewBox="0 0 24 24" fill="none" xmlns="http://www.w3.org/2000/svg">
<path d="M4.58071 6.40028C4.13544 6.40028 3.76067 6.24814 3.4564 5.94388C3.15213 5.63961 3 5.26484 3 4.81957C3 4.38173 3.15213 4.01067 3.4564 3.7064C3.76067 3.40213 4.13544 3.25 4.58071 3.25H19.4304C19.8683 3.25 20.2393 3.40584 20.5436 3.71753C20.8479 4.0218 21 4.38915 21 4.81957C21 5.26484 20.8442 5.63961 20.5325 5.94388C20.2282 6.24814 19.8609 6.40028 19.4304 6.40028H4.58071ZM4.58071 13.5802C4.13544 13.5802 3.76067 13.4281 3.4564 13.1238C3.15213 12.8122 3 12.4374 3 11.9995C3 11.5617 3.15213 11.1906 3.4564 10.8864C3.76067 10.5821 4.13544 10.43 4.58071 10.43H19.4304C19.8683 10.43 20.2393 10.5821 20.5436 10.8864C20.8479 11.1906 21 11.5617 21 11.9995C21 12.4448 20.8442 12.8196 20.5325 13.1238C20.2282 13.4281 19.8609 13.5802 19.4304 13.5802H4.58071ZM4.58071 20.7491C4.13544 20.7491 3.76067 20.5969 3.4564 20.2927C3.15213 19.9884 3 19.6173 3 19.1795C3 18.7417 3.15213 18.3706 3.4564 18.0663C3.76067 17.7546 4.13544 17.5988 4.58071 17.5988H19.4304C19.8683 17.5988 20.2393 17.7546 20.5436 18.0663C20.8479 18.3706 21 18.7417 21 19.1795C21 19.6173 20.8442 19.9884 20.5325 20.2927C20.2282 20.5969 19.8609 20.7491 19.4304 20.7491H4.58071Z" fill="black"/>
</svg>
