<svg width="24" height="24" viewBox="0 0 24 24" fill="none" xmlns="http://www.w3.org/2000/svg">
<path d="M2.40002 19.3425V7.30065C2.40002 6.90045 2.48365 6.55699 2.6509 6.27028C2.81814 5.98357 3.08096 5.74166 3.43935 5.54455L7.19345 3.42111C7.37265 3.31956 7.5399 3.23594 7.6952 3.17023C7.8505 3.10453 7.99385 3.05376 8.12526 3.01792V18.787L4.84602 20.5699C4.52944 20.7432 4.21287 20.8298 3.89629 20.8298C3.48415 20.8298 3.13173 20.7043 2.83905 20.4535C2.54637 20.2026 2.40002 19.8323 2.40002 19.3425ZM9.57673 18.4465V3C9.72008 3.04181 9.87837 3.10752 10.0516 3.19711C10.2308 3.28074 10.4279 3.38228 10.6429 3.50174L14.415 5.7327V21C14.2358 20.9642 14.0775 20.9134 13.9401 20.8477C13.8027 20.788 13.6504 20.7133 13.4832 20.6237L9.57673 18.4465ZM15.8664 20.9283V5.1772L18.9575 3.4659C19.3159 3.26282 19.6803 3.16127 20.0506 3.16127C20.5225 3.16127 20.9107 3.28372 21.2154 3.52862C21.526 3.76755 21.6813 4.14684 21.6813 4.6665V16.5381C21.6813 16.9502 21.5946 17.2997 21.4214 17.5864C21.2482 17.8731 20.9705 18.121 20.5882 18.33L16.2517 20.767C16.186 20.8029 16.1203 20.8328 16.0546 20.8566C15.9889 20.8865 15.9262 20.9104 15.8664 20.9283Z" fill="black"/>
</svg>
