<svg width="24" height="24" viewBox="0 0 24 24" fill="none" xmlns="http://www.w3.org/2000/svg">
<path d="M3.86502 20.7043C3.45288 20.7043 3.12734 20.5879 2.88842 20.3549C2.64949 20.122 2.53003 19.7994 2.53003 19.3873V7.34545C2.53003 6.97511 2.60469 6.66152 2.75402 6.40468C2.90932 6.14186 3.15721 5.91488 3.49767 5.72374L7.79832 3.29567C8.13879 3.09856 8.5151 3 8.92724 3C9.35133 3 9.74855 3.10752 10.1189 3.32255L14.7152 6.07317L19.1054 3.63614C19.3085 3.52265 19.4877 3.43604 19.643 3.37631C19.8043 3.3106 19.9686 3.27775 20.1358 3.27775C20.5479 3.27775 20.8735 3.39721 21.1124 3.63614C21.3513 3.87506 21.4708 4.19761 21.4708 4.60378V16.6098C21.4708 16.9801 21.3931 17.2997 21.2378 17.5684C21.0885 17.8372 20.8436 18.0642 20.5032 18.2494L16.1935 20.6864C15.8232 20.8955 15.429 21 15.0109 21C14.5868 21 14.1746 20.8895 13.7744 20.6685L9.13331 18.0702L4.89539 20.3639C4.69827 20.4774 4.51908 20.561 4.3578 20.6147C4.19653 20.6745 4.03227 20.7043 3.86502 20.7043ZM8.18359 16.3589V5.29368C8.14178 5.31757 8.09698 5.34445 8.04919 5.37432C8.00738 5.39821 7.96258 5.4221 7.9148 5.44599L4.70723 7.30065C4.57582 7.37232 4.48324 7.45296 4.42948 7.54256C4.3817 7.62618 4.3578 7.73967 4.3578 7.88303V18.0971C4.3578 18.2524 4.41754 18.33 4.537 18.33C4.58478 18.33 4.6475 18.3091 4.72515 18.2673L8.18359 16.3589ZM10.0562 16.3499L13.5952 18.339C13.649 18.3688 13.7057 18.3987 13.7655 18.4286C13.8312 18.4584 13.8909 18.4883 13.9447 18.5182V7.83823L10.3429 5.6879C10.2951 5.65804 10.2473 5.63116 10.1995 5.60727C10.1517 5.5774 10.1039 5.55052 10.0562 5.52663V16.3499ZM15.8172 18.6346C15.8829 18.5988 15.9486 18.56 16.0143 18.5182C16.086 18.4823 16.1547 18.4435 16.2204 18.4017L19.2936 16.6366C19.425 16.565 19.5146 16.4843 19.5624 16.3947C19.6161 16.3051 19.643 16.1916 19.643 16.0543V5.9119C19.643 5.84619 19.6221 5.79243 19.5803 5.75062C19.5445 5.70881 19.4967 5.6879 19.4369 5.6879C19.3951 5.6879 19.3414 5.70582 19.2757 5.74166L15.8172 7.63216V18.6346Z" fill="black"/>
</svg>
