<svg width="24" height="24" viewBox="0 0 24 24" fill="none" xmlns="http://www.w3.org/2000/svg">
<path d="M8.7054 6.26913C8.7054 5.66755 8.85289 5.12137 9.14789 4.63061C9.44289 4.13456 9.8398 3.73879 10.3386 3.44327C10.8374 3.14776 11.3926 3 12.004 3C12.6155 3 13.1706 3.14776 13.6694 3.44327C14.1682 3.73879 14.5652 4.13456 14.8602 4.63061C15.1605 5.12137 15.3107 5.66755 15.3107 6.26913C15.3107 6.76517 15.2061 7.22691 14.9969 7.65435C14.7877 8.07652 14.5035 8.44063 14.1441 8.7467C13.7847 9.04749 13.3744 9.26121 12.9132 9.38786V14.3588C12.9132 14.8654 12.8837 15.3272 12.8247 15.7441C12.7657 16.1557 12.6906 16.5119 12.5994 16.8127C12.5082 17.1135 12.409 17.3456 12.3017 17.5092C12.1944 17.6675 12.0952 17.7467 12.004 17.7467C11.9128 17.7467 11.8136 17.6675 11.7063 17.5092C11.6044 17.3456 11.5052 17.1135 11.4087 16.8127C11.3175 16.5119 11.2397 16.1557 11.1753 15.7441C11.1163 15.3272 11.0868 14.8654 11.0868 14.3588V9.38786C10.6309 9.26121 10.2233 9.04749 9.86394 8.7467C9.50458 8.44063 9.2203 8.07652 9.01112 7.65435C8.8073 7.22691 8.7054 6.76517 8.7054 6.26913ZM11.0708 6.45119C11.3818 6.45119 11.6473 6.34037 11.8673 6.11873C12.0925 5.8971 12.2052 5.63588 12.2052 5.33509C12.2052 5.0343 12.0925 4.77573 11.8673 4.55937C11.6473 4.33773 11.3818 4.22691 11.0708 4.22691C10.7704 4.22691 10.5076 4.33773 10.2823 4.55937C10.057 4.77573 9.94439 5.0343 9.94439 5.33509C9.94439 5.63588 10.057 5.8971 10.2823 6.11873C10.5076 6.34037 10.7704 6.45119 11.0708 6.45119ZM12.004 21C10.6846 21 9.49921 20.8997 8.44794 20.6992C7.40204 20.504 6.50899 20.2296 5.76881 19.876C5.034 19.5277 4.47082 19.124 4.07927 18.6649C3.69309 18.2111 3.5 17.7256 3.5 17.2084C3.5 16.7757 3.62068 16.3747 3.86204 16.0053C4.10341 15.6359 4.43059 15.3034 4.84359 15.0079C5.25659 14.7071 5.72859 14.4485 6.25958 14.2322C6.79058 14.0106 7.3484 13.8338 7.93303 13.7018C8.52303 13.5699 9.10499 13.4908 9.67889 13.4644V15.0317C9.20153 15.058 8.71344 15.1266 8.21462 15.2375C7.72117 15.3483 7.26526 15.4934 6.8469 15.6728C6.4339 15.8522 6.10136 16.0607 5.84927 16.2982C5.59718 16.5356 5.47113 16.7916 5.47113 17.066C5.47113 17.409 5.63204 17.7203 5.95386 18C6.27567 18.285 6.7289 18.5277 7.31354 18.7282C7.89817 18.9288 8.5874 19.0844 9.38121 19.1953C10.1804 19.3113 11.0547 19.3694 12.004 19.3694C12.948 19.3694 13.8169 19.3113 14.6107 19.1953C15.4099 19.0844 16.1018 18.9261 16.6865 18.7203C17.2711 18.5198 17.7243 18.2797 18.0461 18C18.3733 17.7203 18.5369 17.409 18.5369 17.066C18.5369 16.7916 18.4082 16.5356 18.1507 16.2982C17.8933 16.0607 17.5581 15.8522 17.1451 15.6728C16.7321 15.4934 16.2788 15.3483 15.7854 15.2375C15.2919 15.1266 14.8012 15.058 14.3131 15.0317V13.4644C14.8923 13.4908 15.4743 13.5699 16.0589 13.7018C16.6489 13.8338 17.2094 14.0106 17.7404 14.2322C18.2714 14.4485 18.7434 14.7071 19.1564 15.0079C19.5748 15.3034 19.902 15.6359 20.138 16.0053C20.3793 16.3747 20.5 16.7757 20.5 17.2084C20.5 17.7256 20.3042 18.2111 19.9127 18.6649C19.5265 19.124 18.966 19.5277 18.2312 19.876C17.4964 20.2296 16.6033 20.504 15.5521 20.6992C14.5062 20.8997 13.3235 21 12.004 21Z" fill="black"/>
</svg>
