<svg width="20" height="20" viewBox="0 0 20 20" fill="none" xmlns="http://www.w3.org/2000/svg">
<path d="M0 10.2896C0 11.4861 0.326825 12.4029 0.980474 13.0399C1.63966 13.6714 2.58967 13.9872 3.83049 13.9872H6.79684C7.55574 14.0758 8.31741 14.206 9.08184 14.3777C9.84628 14.5494 10.6079 14.7654 11.3668 15.0258C12.1257 15.2806 12.8763 15.5797 13.6186 15.9232C14.3609 16.2666 15.0893 16.6516 15.8039 17.0781V15.1754C15.1115 14.7654 14.4024 14.3998 13.6768 14.0786C12.9567 13.7517 12.2171 13.4692 11.4582 13.231C10.7049 12.9928 9.93491 12.7934 9.14832 12.6328C8.36726 12.4721 7.57236 12.3503 6.76361 12.2672H3.83049C3.0716 12.2672 2.53151 12.1176 2.21022 11.8185C1.88894 11.5138 1.72829 11.0042 1.72829 10.2896V9.05986C1.72829 8.35081 1.88894 7.84673 2.21022 7.5476C2.53151 7.24293 3.0716 7.0906 3.83049 7.0906H6.67221C7.49758 7.00751 8.3091 6.88564 9.10677 6.725C9.90445 6.55882 10.6855 6.35663 11.4499 6.11844C12.2199 5.88024 12.9677 5.6005 13.6934 5.27922C14.4191 4.95239 15.1226 4.58679 15.8039 4.18242V2.26301C15.1392 2.68401 14.4301 3.069 13.6768 3.41798C12.929 3.76142 12.1618 4.06609 11.3752 4.33198C10.5886 4.59233 9.81028 4.81114 9.0403 4.9884C8.27586 5.16566 7.54466 5.29029 6.8467 5.36231H3.83049C2.58967 5.36231 1.63966 5.68082 0.980474 6.31785C0.326825 6.95488 0 7.86889 0 9.05986V10.2896ZM8.41712 13.6382H6.77192L7.52804 17.4188C7.56682 17.6182 7.53635 17.7761 7.43664 17.8924C7.34247 18.0088 7.2123 18.0669 7.04612 18.0669C6.89655 18.0669 6.77745 18.0281 6.68882 17.9506C6.60573 17.873 6.52264 17.7484 6.43955 17.5767L4.51184 13.472H2.75031L4.81928 18.0586C5.06855 18.6125 5.37322 19.0252 5.73328 19.2967C6.09888 19.5681 6.54203 19.7038 7.06273 19.7038C7.51142 19.7038 7.90749 19.5986 8.25093 19.3881C8.59438 19.1831 8.84642 18.8923 9.00706 18.5156C9.17324 18.1445 9.20648 17.7069 9.10677 17.2028L8.41712 13.6382ZM5.45077 6.06027V13.2892H7.17906V6.06027H5.45077ZM15.2306 15.9066C15.2306 16.3719 15.3331 16.7818 15.538 17.1363C15.743 17.4964 16.0255 17.7789 16.3855 17.9838C16.7456 18.1888 17.1555 18.2913 17.6153 18.2913C18.0806 18.2913 18.4905 18.1888 18.845 17.9838C19.2051 17.7789 19.4876 17.4964 19.6926 17.1363C19.8975 16.7818 20 16.3719 20 15.9066V3.38474C20 2.91943 19.8975 2.50952 19.6926 2.155C19.4876 1.79493 19.2051 1.51242 18.845 1.30747C18.4905 1.10251 18.0806 1.00003 17.6153 1.00003C17.1555 1.00003 16.7456 1.10251 16.3855 1.30747C16.0255 1.51242 15.743 1.79493 15.538 2.155C15.3331 2.50952 15.2306 2.91943 15.2306 3.38474V15.9066ZM16.9589 15.9066V3.38474C16.9589 3.18532 17.0198 3.02745 17.1417 2.91112C17.2635 2.78926 17.4214 2.72832 17.6153 2.72832C17.8092 2.72832 17.967 2.78926 18.0889 2.91112C18.2108 3.02745 18.2717 3.18532 18.2717 3.38474V15.9066C18.2717 16.1004 18.2108 16.2583 18.0889 16.3802C17.967 16.502 17.8092 16.563 17.6153 16.563C17.4214 16.563 17.2635 16.502 17.1417 16.3802C17.0198 16.2583 16.9589 16.1004 16.9589 15.9066Z" fill="black"/>
</svg>
