<svg width="21" height="20" viewBox="0 0 21 20" fill="none" xmlns="http://www.w3.org/2000/svg">
<g clip-path="url(#clip0_1_490)">
<path d="M0.0588379 10.2896C0.0588379 11.4861 0.385662 12.4029 1.03931 13.0399C1.6985 13.6714 2.64851 13.9872 3.88933 13.9872H6.85568C7.61458 14.0758 8.37625 14.206 9.14068 14.3777C9.90512 14.5494 10.6668 14.7654 11.4257 15.0258C12.1846 15.2806 12.9352 15.5797 13.6774 15.9232C14.4197 16.2666 15.1482 16.6516 15.8627 17.0781V15.1754C15.1703 14.7654 14.4613 14.3998 13.7356 14.0786C13.0155 13.7517 12.276 13.4692 11.5171 13.231C10.7637 12.9928 9.99375 12.7934 9.20716 12.6328C8.4261 12.4721 7.6312 12.3503 6.82244 12.2672H3.88933C3.13043 12.2672 2.59034 12.1176 2.26906 11.8185C1.94777 11.5138 1.78713 11.0042 1.78713 10.2896V9.05986C1.78713 8.35081 1.94777 7.84673 2.26906 7.5476C2.59034 7.24293 3.13043 7.0906 3.88933 7.0906H6.73104C7.55641 7.00751 8.36794 6.88564 9.16561 6.725C9.96328 6.55882 10.7443 6.35663 11.5088 6.11844C12.2788 5.88024 13.0266 5.6005 13.7522 5.27922C14.4779 4.95239 15.1814 4.58679 15.8627 4.18242V2.26301C15.198 2.68401 14.489 3.069 13.7356 3.41798C12.9878 3.76142 12.2206 4.06609 11.434 4.33198C10.6474 4.59233 9.86911 4.81114 9.09914 4.9884C8.3347 5.16566 7.6035 5.29029 6.90553 5.36231H3.88933C2.64851 5.36231 1.6985 5.68082 1.03931 6.31785C0.385662 6.95488 0.0588379 7.86889 0.0588379 9.05986V10.2896ZM8.47595 13.6382H6.83075L7.58688 17.4188C7.62566 17.6182 7.59519 17.7761 7.49548 17.8924C7.40131 18.0088 7.27114 18.0669 7.10495 18.0669C6.95539 18.0669 6.83629 18.0281 6.74766 17.9506C6.66457 17.873 6.58148 17.7484 6.49839 17.5767L4.57068 13.472H2.80915L4.87811 18.0586C5.12739 18.6125 5.43205 19.0252 5.79212 19.2967C6.15772 19.5681 6.60087 19.7038 7.12157 19.7038C7.57026 19.7038 7.96633 19.5986 8.30977 19.3881C8.65322 19.1831 8.90526 18.8923 9.0659 18.5156C9.23208 18.1445 9.26532 17.7069 9.16561 17.2028L8.47595 13.6382ZM5.50961 6.06027V13.2892H7.2379V6.06027H5.50961ZM15.2894 15.9066C15.2894 16.3719 15.3919 16.7818 15.5969 17.1363C15.8018 17.4964 16.0843 17.7789 16.4444 17.9838C16.8044 18.1888 17.2144 18.2913 17.6741 18.2913C18.1394 18.2913 18.5494 18.1888 18.9039 17.9838C19.2639 17.7789 19.5464 17.4964 19.7514 17.1363C19.9564 16.7818 20.0588 16.3719 20.0588 15.9066V3.38474C20.0588 2.91943 19.9564 2.50952 19.7514 2.155C19.5464 1.79493 19.2639 1.51242 18.9039 1.30747C18.5494 1.10251 18.1394 1.00003 17.6741 1.00003C17.2144 1.00003 16.8044 1.10251 16.4444 1.30747C16.0843 1.51242 15.8018 1.79493 15.5969 2.155C15.3919 2.50952 15.2894 2.91943 15.2894 3.38474V15.9066ZM17.0177 15.9066V3.38474C17.0177 3.18532 17.0786 3.02745 17.2005 2.91112C17.3224 2.78926 17.4802 2.72832 17.6741 2.72832C17.868 2.72832 18.0259 2.78926 18.1477 2.91112C18.2696 3.02745 18.3305 3.18532 18.3305 3.38474V15.9066C18.3305 16.1004 18.2696 16.2583 18.1477 16.3802C18.0259 16.502 17.868 16.563 17.6741 16.563C17.4802 16.563 17.3224 16.502 17.2005 16.3802C17.0786 16.2583 17.0177 16.1004 17.0177 15.9066Z" fill="black"/>
</g>
<defs>
<clipPath id="clip0_1_490">
<rect width="20" height="20" fill="white" transform="translate(0.0588379 3.05176e-05)"/>
</clipPath>
</defs>
</svg>
