<svg width="21" height="20" viewBox="0 0 21 20" fill="none" xmlns="http://www.w3.org/2000/svg">
<g clip-path="url(#clip0_1_489)">
<path d="M7.50328 6.6667L3.79958 10.3704L5.28106 11.8519L8.98476 8.14818V7.40744L9.7255 6.6667L10.4662 7.40744V8.14818L14.1699 11.8519L15.6514 10.3704L11.9477 6.6667H11.207L10.4662 5.92596L11.207 5.18522H11.9477L15.6514 1.48151L14.1699 3.05176e-05L10.4662 3.70373V4.44447L9.7255 5.18522L8.98476 4.44447V3.70373L5.28106 3.05176e-05L3.79958 1.48151L7.50328 5.18522H8.24402L8.98476 5.92596L8.24402 6.6667H7.50328ZM15.6514 18.5185H14.1699L12.6885 12.5926L9.7255 9.62966L6.76254 12.5926L5.28106 18.5185H3.79958C3.60312 18.5185 3.41471 18.5966 3.2758 18.7355C3.13688 18.8744 3.05884 19.0628 3.05884 19.2593C3.05884 19.4557 3.13688 19.6442 3.2758 19.7831C3.41471 19.922 3.60312 20 3.79958 20H15.6514C15.8479 20 16.0363 19.922 16.1752 19.7831C16.3141 19.6442 16.3922 19.4557 16.3922 19.2593C16.3922 19.0628 16.3141 18.8744 16.1752 18.7355C16.0363 18.5966 15.8479 18.5185 15.6514 18.5185ZM10.4662 18.5185H8.98476V16.2934C8.98476 15.886 9.31513 15.5556 9.72254 15.5556C10.1329 15.5556 10.4662 15.8889 10.4662 16.2993V18.5185Z" fill="black"/>
</g>
<defs>
<clipPath id="clip0_1_489">
<rect width="20" height="20" fill="white" transform="translate(0.0588379 3.05176e-05)"/>
</clipPath>
</defs>
</svg>
