<svg width="24" height="24" viewBox="0 0 24 24" fill="none" xmlns="http://www.w3.org/2000/svg">
<path d="M16.8349 14.8663C17.3635 14.8663 17.877 14.8208 18.3752 14.7296C18.8734 14.6385 19.2805 14.5291 19.5965 14.4015C19.8699 14.2739 20.1068 14.2101 20.3073 14.2101C20.4775 14.2101 20.6203 14.2709 20.7357 14.3924C20.8572 14.5078 20.918 14.6628 20.918 14.8572C20.918 14.9423 20.9058 15.0516 20.8815 15.1853C20.8572 15.3129 20.8116 15.4496 20.7448 15.5954C20.4228 16.3792 19.9823 17.1023 19.4233 17.7646C18.8643 18.4208 18.2142 18.9919 17.4729 19.478C16.7316 19.9641 15.9235 20.3377 15.0486 20.599C14.1737 20.8663 13.2623 21 12.3144 21C10.9838 21 9.75342 20.7752 8.62329 20.3256C7.49316 19.8759 6.50582 19.238 5.66127 18.4116C4.82278 17.5853 4.16962 16.6132 3.70177 15.4952C3.23392 14.3772 3 13.1529 3 11.8223C3 10.5585 3.23696 9.35241 3.71089 8.20405C4.18481 7.0557 4.84709 6.04101 5.69772 5.16C6.54835 4.27899 7.54177 3.60759 8.67797 3.14582C8.81165 3.09722 8.9362 3.06076 9.05165 3.03646C9.17316 3.01215 9.27646 3 9.36152 3C9.57418 3 9.73823 3.06684 9.85367 3.20051C9.96911 3.3281 10.0268 3.47696 10.0268 3.64709C10.0268 3.73823 10.0116 3.84152 9.98127 3.95696C9.95089 4.06633 9.90228 4.19089 9.83544 4.33063C9.72 4.56759 9.61975 4.86228 9.53468 5.21468C9.44962 5.56101 9.38278 5.92861 9.33418 6.31747C9.28557 6.70633 9.26127 7.08 9.26127 7.43848C9.26127 8.58684 9.43747 9.61975 9.78987 10.5372C10.1423 11.4486 10.6466 12.2294 11.3028 12.8795C11.9651 13.5235 12.761 14.0157 13.6906 14.3559C14.6263 14.6962 15.6744 14.8663 16.8349 14.8663Z" fill="black"/>
</svg>
