<svg width="24" height="24" viewBox="0 0 24 24" fill="none" xmlns="http://www.w3.org/2000/svg">
<path d="M13.0539 11.0526C12.8854 11.0526 12.715 10.9858 12.5427 10.852C12.3742 10.7183 12.1962 10.5751 12.0085 10.4222C11.8209 10.2694 11.6122 10.1643 11.3825 10.107L13.6283 6.43931C13.9002 5.99518 14.2027 5.69908 14.5358 5.55104C14.8728 5.40299 15.2098 5.40299 15.5467 5.55104C15.8837 5.69431 16.1862 5.98562 16.4543 6.42499L18.7059 10.107C18.4684 10.1596 18.2559 10.2646 18.0683 10.4222C17.8807 10.5751 17.7045 10.7183 17.5399 10.852C17.3752 10.9858 17.2067 11.0526 17.0344 11.0526C16.8851 11.0526 16.7395 11.0025 16.5979 10.9022C16.46 10.8019 16.3145 10.6849 16.1613 10.5512C16.0082 10.4175 15.8397 10.3005 15.6559 10.2002C15.4759 10.0999 15.271 10.0497 15.0413 10.0497C14.823 10.0497 14.6239 10.0999 14.4439 10.2002C14.264 10.3005 14.0955 10.4175 13.9385 10.5512C13.7853 10.6849 13.636 10.8019 13.4904 10.9022C13.3488 11.0025 13.2033 11.0526 13.0539 11.0526ZM8.99302 18.56C8.64456 18.56 8.3612 18.4669 8.14293 18.2806C7.92467 18.0991 7.76958 17.8628 7.67768 17.5714C7.58961 17.2849 7.56663 16.9792 7.60875 16.6545C7.65088 16.325 7.76001 16.017 7.93615 15.7304L10.406 11.683C10.5209 11.6305 10.6204 11.5708 10.7047 11.5039C10.7889 11.4371 10.8636 11.3798 10.9287 11.332C10.9976 11.2795 11.0627 11.2532 11.124 11.2532C11.235 11.2628 11.348 11.3177 11.4629 11.418C11.5816 11.5135 11.7137 11.6257 11.8592 11.7547C12.0047 11.8788 12.1732 11.991 12.3647 12.0913C12.5599 12.1869 12.7897 12.2346 13.0539 12.2346C13.3258 12.2346 13.5594 12.1845 13.7547 12.0842C13.9538 11.9839 14.1261 11.8669 14.2716 11.7332C14.4209 11.5994 14.5569 11.4824 14.6794 11.3821C14.802 11.2819 14.9226 11.2317 15.0413 11.2317C15.1638 11.2317 15.2864 11.2819 15.4089 11.3821C15.5314 11.4824 15.6654 11.5994 15.811 11.7332C15.9603 11.8669 16.1326 11.9839 16.3279 12.0842C16.527 12.1845 16.7625 12.2346 17.0344 12.2346C17.2948 12.2346 17.5226 12.1869 17.7179 12.0913C17.9132 11.9958 18.0817 11.8836 18.2234 11.7547C18.3689 11.6257 18.4991 11.5135 18.614 11.418C18.7327 11.3177 18.8475 11.2628 18.9586 11.2532C19.0199 11.2532 19.083 11.2795 19.1481 11.332C19.2171 11.3798 19.2936 11.4371 19.3779 11.5039C19.466 11.5708 19.5655 11.6305 19.6766 11.683L22.1522 15.7232C22.3283 16.0098 22.4374 16.3178 22.4796 16.6473C22.5217 16.9721 22.4987 17.2801 22.4106 17.5714C22.3226 17.8628 22.1675 18.0991 21.9454 18.2806C21.7271 18.4669 21.4438 18.56 21.0953 18.56H8.99302ZM5.65585 12.8077C5.48736 12.8077 5.33228 12.7528 5.1906 12.6429C5.05275 12.5331 4.90723 12.4185 4.75407 12.2991C4.60473 12.1749 4.42475 12.0961 4.21414 12.0627L5.90283 9.38352C6.17471 8.94416 6.47722 8.65284 6.81036 8.50957C7.1435 8.36153 7.47665 8.36153 7.80979 8.50957C8.14676 8.65284 8.44927 8.94177 8.71732 9.37636L9.73972 10.9953L8.75178 12.6071C8.73263 12.6214 8.71732 12.6334 8.70583 12.6429C8.69434 12.6477 8.68094 12.6501 8.66562 12.6501C8.57372 12.6501 8.46267 12.5952 8.33248 12.4853C8.20611 12.3755 8.05869 12.2657 7.8902 12.1558C7.72172 12.046 7.53408 11.991 7.32731 11.991C7.07841 11.991 6.86014 12.0603 6.67251 12.1988C6.48488 12.3325 6.31065 12.4686 6.14982 12.6071C5.98899 12.7408 5.82433 12.8077 5.65585 12.8077ZM2.77818 18.56C2.4795 18.56 2.2306 18.474 2.03148 18.3021C1.83236 18.1302 1.68685 17.9081 1.59495 17.6359C1.50688 17.3637 1.48008 17.0724 1.51454 16.762C1.549 16.4515 1.65431 16.1554 1.83045 15.8737L3.36406 13.4381C3.49042 13.4094 3.59955 13.3688 3.69145 13.3163C3.78719 13.259 3.87143 13.2088 3.94418 13.1659C4.02077 13.1181 4.09352 13.0942 4.16245 13.0942C4.26584 13.0942 4.36923 13.1277 4.47262 13.1945C4.57601 13.2566 4.68897 13.3306 4.8115 13.4166C4.93787 13.4978 5.08338 13.5718 5.24804 13.6387C5.41269 13.7055 5.6099 13.7389 5.83965 13.7389C6.06558 13.7389 6.26087 13.7055 6.42552 13.6387C6.59018 13.5718 6.73378 13.4978 6.85631 13.4166C6.98268 13.3306 7.09755 13.2566 7.20094 13.1945C7.30433 13.1277 7.40772 13.0942 7.51111 13.0942C7.60684 13.0942 7.70831 13.142 7.81553 13.2375C7.92275 13.3282 8.04912 13.4238 8.19463 13.524L7.24689 15.0714C7.02097 15.4486 6.8678 15.845 6.78738 16.2605C6.7108 16.676 6.70123 17.0819 6.75867 17.4783C6.81993 17.8795 6.9463 18.24 7.13776 18.56H2.77818Z" fill="black"/>
</svg>
