<svg width="24" height="24" viewBox="0 0 24 24" fill="none" xmlns="http://www.w3.org/2000/svg">
<path d="M5.70364 7.46215L7.75782 9.50814C6.48112 10.0592 5.33536 10.8667 4.32055 11.9306C4.21688 12.0452 4.09139 12.1052 3.94408 12.1106C3.80223 12.1106 3.67947 12.0561 3.5758 11.947L2.39731 10.7603C2.30456 10.6621 2.25546 10.5557 2.25 10.4411C2.25 10.3211 2.28819 10.2147 2.36458 10.1219C2.7956 9.59817 3.29209 9.11258 3.85406 8.66519C4.42148 8.21235 5.03801 7.81133 5.70364 7.46215ZM11.9889 8.67338L9.43553 6.11179C9.88292 6.0245 10.3167 5.96175 10.7368 5.92356C11.1623 5.87991 11.5825 5.85809 11.9971 5.85809C13.2793 5.85809 14.526 6.04087 15.7372 6.40642C16.9484 6.76651 18.0614 7.26846 19.0763 7.91227C20.0911 8.55062 20.9449 9.28718 21.6378 10.1219C21.7197 10.2147 21.7579 10.3211 21.7524 10.4411C21.747 10.5557 21.6951 10.6621 21.5969 10.7603L20.4266 11.9388C20.3229 12.0424 20.2002 12.097 20.0583 12.1025C19.9219 12.1079 19.8019 12.0588 19.6982 11.9552C18.6998 10.9185 17.5704 10.1192 16.3101 9.55725C15.0497 8.98982 13.6748 8.68975 12.1853 8.65701C12.1526 8.65701 12.1199 8.65974 12.0871 8.66519C12.0544 8.66519 12.0217 8.66792 11.9889 8.67338ZM9.42735 11.1613L11.7598 13.5019C11.2578 13.5237 10.7668 13.6138 10.2867 13.772C9.80654 13.9248 9.35369 14.1321 8.92812 14.394C8.50256 14.6559 8.12609 14.9587 7.79874 15.3024C7.68962 15.4224 7.56413 15.4852 7.42227 15.4906C7.28042 15.4961 7.1522 15.447 7.03763 15.3433L5.72001 14.0748C5.62725 13.9875 5.57542 13.8893 5.56451 13.7802C5.55905 13.6656 5.59725 13.5592 5.67909 13.461C6.12102 12.9481 6.66116 12.4926 7.29951 12.0943C7.94332 11.696 8.6526 11.385 9.42735 11.1613ZM17.8323 14.5167L14.4605 11.1368C15.2407 11.3386 15.9691 11.6469 16.6456 12.0615C17.3222 12.4707 17.8814 12.9372 18.3233 13.461C18.3997 13.5592 18.4352 13.6656 18.4297 13.7802C18.4243 13.8893 18.3752 13.9875 18.2824 14.0748L17.8323 14.5167ZM12.0053 15.5888C12.5836 15.5888 13.1238 15.7171 13.6257 15.9735C14.1331 16.2299 14.5451 16.5545 14.8615 16.9474C14.9433 17.0456 14.9761 17.1574 14.9597 17.2829C14.9488 17.4084 14.897 17.5148 14.8042 17.6021L12.7828 19.5581C12.6082 19.7217 12.4636 19.8363 12.349 19.9018C12.2345 19.9673 12.1199 20 12.0053 20C11.8907 20 11.7761 19.9673 11.6616 19.9018C11.547 19.8363 11.4024 19.7217 11.2278 19.5581L9.1982 17.6021C9.11636 17.5203 9.0618 17.4275 9.03452 17.3238C9.01269 17.2202 9.03179 17.1247 9.0918 17.0374C9.40825 16.6118 9.82563 16.2654 10.344 15.998C10.8677 15.7252 11.4215 15.5888 12.0053 15.5888ZM18.9289 19.0752L5.008 5.16245C4.87706 5.03696 4.81158 4.87601 4.81158 4.6796C4.81158 4.48318 4.87706 4.3195 5.008 4.18856C5.13894 4.05762 5.29989 3.99487 5.49085 4.00033C5.68727 4.00033 5.85368 4.0658 5.99008 4.19674L19.9028 18.1177C20.0392 18.2486 20.1074 18.4069 20.1074 18.5924C20.1074 18.7779 20.0392 18.9388 19.9028 19.0752C19.7773 19.2062 19.6191 19.2716 19.4282 19.2716C19.2372 19.2771 19.0708 19.2116 18.9289 19.0752Z" fill="black"/>
</svg>
