<svg width="24" height="24" viewBox="0 0 24 24" fill="none" xmlns="http://www.w3.org/2000/svg">
<path fill-rule="evenodd" clip-rule="evenodd" d="M12 2C6.47715 2 2 6.47717 2 12C2 17.5229 6.47715 22 12 22C17.5228 22 22 17.5229 22 12C22 6.47717 17.5228 2 12 2ZM12.3535 14.6114C10.2476 15.1931 8.03621 14.6852 6.65846 13.093C4.65592 10.7786 5.17375 7.04982 7.81486 4.76443C10.4561 2.47936 14.2206 2.50294 16.2231 4.81745C16.3275 4.93803 16.4236 5.06361 16.5145 5.1916C14.9194 4.18028 12.6752 4.11338 10.7173 5.19504C7.99725 6.69774 6.85995 9.84847 8.17666 12.2321C9.00427 13.7298 10.604 14.5679 12.3535 14.6114ZM20.5288 12.3156C20.0633 8.85415 17.2271 6.37879 14.1939 6.78663C12.1072 7.06737 10.4711 8.63931 9.80448 10.7203C10.799 9.28029 12.3765 8.40066 14.0828 8.52844C16.7983 8.73212 18.8114 11.4094 18.5789 14.5082C18.4118 16.7388 17.1266 18.5797 15.407 19.3603C15.5638 19.3545 15.7214 19.343 15.8797 19.3216C18.9128 18.9136 20.9943 15.7769 20.5288 12.3156ZM13.8895 10.216C14.7318 11.7497 14.8127 13.554 13.9345 15.0226C12.5373 17.3599 9.2423 17.9619 6.57489 16.3673C4.65508 15.2193 3.58392 13.2463 3.65551 11.359C3.59059 11.502 3.53027 11.6482 3.47864 11.7991C2.48587 14.6941 4.35952 17.9593 7.66312 19.0922C10.9669 20.2251 14.4499 18.7965 15.4426 15.9015C16.1254 13.9099 15.4518 11.743 13.8895 10.216Z" fill="black"/>
</svg>
