<svg width="24" height="24" viewBox="0 0 24 24" fill="none" xmlns="http://www.w3.org/2000/svg">
<path d="M5.97889 21.98C5.38601 21.98 4.93938 21.8298 4.63899 21.5294C4.33859 21.229 4.19235 20.7824 4.20026 20.1895V3.77864C4.20026 3.19366 4.35045 2.75098 4.65084 2.45059C4.95123 2.1502 5.39392 2 5.97889 2H8.82471C9.40968 2.00791 9.85236 2.1581 10.1528 2.45059C10.4531 2.74307 10.6033 3.18576 10.6033 3.77864V20.1895C10.6033 20.7824 10.4531 21.229 10.1528 21.5294C9.85236 21.8298 9.40968 21.98 8.82471 21.98H5.97889ZM15.2278 21.98C14.627 21.98 14.1764 21.8298 13.876 21.5294C13.5835 21.229 13.4373 20.7824 13.4373 20.1895V3.77864C13.4373 3.19366 13.5875 2.75098 13.8879 2.45059C14.1883 2.1502 14.6349 2 15.2278 2H18.0617C18.6546 2 19.0973 2.1502 19.3898 2.45059C19.6902 2.74307 19.8404 3.18576 19.8404 3.77864V20.1895C19.8404 20.7824 19.6902 21.229 19.3898 21.5294C19.0973 21.8298 18.6546 21.98 18.0617 21.98H15.2278Z" fill="black"/>
</svg>
