<svg width="21" height="20" viewBox="0 0 21 20" fill="none" xmlns="http://www.w3.org/2000/svg">
<path d="M13.8899 9.4312C15.5068 9.4312 16.8469 8.00367 16.8469 6.17556C16.8469 4.39843 15.4922 3.00003 13.8899 3.00003C12.2803 3.00003 10.9256 4.41299 10.9256 6.18284C10.9328 8.00367 12.273 9.4312 13.8899 9.4312ZM5.44121 9.59144C6.84689 9.59144 8.01222 8.34599 8.01222 6.75822C8.01222 5.20688 6.83233 3.99785 5.44121 3.99785C4.04281 3.99785 2.85563 5.22873 2.86292 6.76551C2.86292 8.34599 4.02825 9.59144 5.44121 9.59144ZM1.45724 16.2338H6.86146C6.06758 15.1122 6.84689 12.9199 8.55119 11.5652C7.75731 11.0627 6.71579 10.6912 5.43393 10.6912C2.20742 10.6912 0.0588379 13.0656 0.0588379 15.0102C0.0588379 15.7823 0.430287 16.2338 1.45724 16.2338ZM9.37421 16.2338H18.3982C19.6364 16.2338 20.0588 15.8332 20.0588 15.1413C20.0588 13.2768 17.6626 10.7131 13.8826 10.7131C10.1098 10.7131 7.70633 13.2768 7.70633 15.1413C7.70633 15.8332 8.12876 16.2338 9.37421 16.2338Z" fill="black"/>
</svg>
