<svg width="20" height="20" viewBox="0 0 20 20" fill="none" xmlns="http://www.w3.org/2000/svg">
<path d="M13.831 9.4312C15.4479 9.4312 16.7881 8.00367 16.7881 6.17556C16.7881 4.39843 15.4334 3.00003 13.831 3.00003C12.2214 3.00003 10.8667 4.41299 10.8667 6.18284C10.874 8.00367 12.2141 9.4312 13.831 9.4312ZM5.38237 9.59144C6.78806 9.59144 7.95339 8.34599 7.95339 6.75822C7.95339 5.20688 6.77349 3.99785 5.38237 3.99785C3.98398 3.99785 2.7968 5.22873 2.80408 6.76551C2.80408 8.34599 3.96941 9.59144 5.38237 9.59144ZM1.3984 16.2338H6.80262C6.00874 15.1122 6.78806 12.9199 8.49235 11.5652C7.69847 11.0627 6.65696 10.6912 5.37509 10.6912C2.14858 10.6912 0 13.0656 0 15.0102C0 15.7823 0.371449 16.2338 1.3984 16.2338ZM9.31537 16.2338H18.3394C19.5776 16.2338 20 15.8332 20 15.1413C20 13.2768 17.6038 10.7131 13.8237 10.7131C10.051 10.7131 7.64749 13.2768 7.64749 15.1413C7.64749 15.8332 8.06992 16.2338 9.31537 16.2338Z" fill="black"/>
</svg>
