<svg width="21" height="20" viewBox="0 0 21 20" fill="none" xmlns="http://www.w3.org/2000/svg">
<path d="M10.054 20.0001C15.5349 20.0001 20.0588 15.4761 20.0588 10.0049C20.0588 4.52399 15.5252 6.10352e-05 10.0443 6.10352e-05C4.5731 6.10352e-05 0.0588379 4.52399 0.0588379 10.0049C0.0588379 15.4761 4.58276 20.0001 10.054 20.0001ZM15.9312 15.4471C14.9066 14.3162 12.7993 13.3398 10.054 13.3398C7.31838 13.3398 5.21109 14.3162 4.18644 15.4375C2.87179 14.0165 2.06947 12.1122 2.06947 10.0049C2.06947 5.56797 5.61708 2.00103 10.0443 2.00103C14.4813 2.00103 18.0482 5.56797 18.0579 10.0049C18.0579 12.1122 17.2556 14.0262 15.9312 15.4471ZM10.054 11.7545C11.9293 11.7739 13.3889 10.1692 13.3889 8.10059C13.3889 6.14796 11.9196 4.51432 10.054 4.51432C8.19804 4.51432 6.71906 6.14796 6.72868 8.10059C6.73839 10.1692 8.18837 11.7449 10.054 11.7545Z" fill="black"/>
</svg>
