<svg width="21" height="20" viewBox="0 0 21 20" fill="none" xmlns="http://www.w3.org/2000/svg">
<g clip-path="url(#clip0_1_497)">
<path d="M0.750979 15.3555H15.5671L14.2694 13.964H0.750979C0.553911 13.964 0.388086 14.0313 0.253503 14.1659C0.123726 14.3005 0.0588379 14.4639 0.0588379 14.6562C0.0588379 14.8532 0.123726 15.019 0.253503 15.1536C0.388086 15.2882 0.553911 15.3555 0.750979 15.3555ZM2.32272 14.3678H3.21673V5.69437C3.21673 5.4252 3.28162 5.22573 3.4114 5.09595C3.54598 4.96137 3.74785 4.89408 4.01702 4.89408H16.2953C16.5597 4.89408 16.7591 4.96137 16.8937 5.09595C17.0283 5.22573 17.0956 5.4252 17.0956 5.69437V6.163H17.9824V5.47807C17.9824 4.9878 17.8574 4.6201 17.6075 4.37497C17.3576 4.12503 16.9899 4.00006 16.5044 4.00006H3.80794C3.3369 4.00006 2.9716 4.12503 2.71205 4.37497C2.45249 4.6201 2.32272 4.9878 2.32272 5.47807V14.3678ZM14.0531 7.16517V13.8847C14.0531 14.3365 14.1901 14.6946 14.464 14.959C14.738 15.2233 15.1057 15.3555 15.5671 15.3555H18.552C19.0134 15.3555 19.3787 15.2233 19.6479 14.959C19.9219 14.6946 20.0588 14.3365 20.0588 13.8847V7.16517C20.0588 6.71335 19.9219 6.35526 19.6479 6.0909C19.3787 5.82655 19.0134 5.69437 18.552 5.69437H15.5671C15.1057 5.69437 14.738 5.82655 14.464 6.0909C14.1901 6.35526 14.0531 6.71335 14.0531 7.16517ZM14.8173 7.2661C14.8173 7.00655 14.8894 6.80708 15.0336 6.66769C15.1778 6.5283 15.3845 6.4586 15.6536 6.4586H18.4655C18.7298 6.4586 18.9341 6.5283 19.0783 6.66769C19.2225 6.80708 19.2946 7.00655 19.2946 7.2661V13.7838C19.2946 14.0385 19.2225 14.238 19.0783 14.3822C18.9341 14.5216 18.7298 14.5913 18.4655 14.5913H15.6536C15.3845 14.5913 15.1778 14.5216 15.0336 14.3822C14.8894 14.238 14.8173 14.0385 14.8173 13.7838V7.2661ZM15.9637 14.1298H18.1627C18.3261 14.1298 18.4078 14.0481 18.4078 13.8847C18.4078 13.7165 18.3261 13.6324 18.1627 13.6324H15.9637C15.7954 13.6324 15.7113 13.7165 15.7113 13.8847C15.7113 14.0481 15.7954 14.1298 15.9637 14.1298ZM16.1079 7.12191H18.0113C18.1314 7.12191 18.2275 7.08345 18.2996 7.00655C18.3717 6.92965 18.4078 6.83351 18.4078 6.71816V6.32162H15.7113V6.71816C15.7113 6.83351 15.7474 6.92965 15.8195 7.00655C15.8916 7.08345 15.9877 7.12191 16.1079 7.12191Z" fill="black"/>
</g>
<defs>
<clipPath id="clip0_1_497">
<rect width="20" height="20" fill="white" transform="translate(0.0588379 6.10352e-05)"/>
</clipPath>
</defs>
</svg>
