<svg width="21" height="20" viewBox="0 0 21 20" fill="none" xmlns="http://www.w3.org/2000/svg">
<path d="M10.7404 8.86514L18.3938 4.47157C16.7288 1.93869 13.9342 0.20464 10.7404 6.10352e-05V8.86514ZM10.0588 20.0001C12.4055 20.0001 14.5671 19.172 16.2808 17.8081L9.25066 10.9499C9.04618 10.7453 8.95855 10.57 8.95855 10.2193V0.0390284C3.97315 0.584571 0.0588379 4.83201 0.0588379 9.98545C0.0588379 15.4896 4.55738 20.0001 10.0588 20.0001ZM17.6051 16.5222C19.1241 14.7687 20.0588 12.4794 20.0588 9.98545C20.0588 8.58262 19.757 7.25773 19.2409 6.04974L11.461 10.5115L17.6051 16.5222Z" fill="black"/>
</svg>
