<svg width="20" height="20" viewBox="0 0 20 20" fill="none" xmlns="http://www.w3.org/2000/svg">
<path d="M10.6816 8.86514L18.335 4.47157C16.6699 1.93869 13.8754 0.20464 10.6816 6.10352e-05V8.86514ZM10 20.0001C12.3466 20.0001 14.5083 19.172 16.222 17.8081L9.19182 10.9499C8.98734 10.7453 8.89971 10.57 8.89971 10.2193V0.0390284C3.91431 0.584571 0 4.83201 0 9.98545C0 15.4896 4.49854 20.0001 10 20.0001ZM17.5463 16.5222C19.0652 14.7687 20 12.4794 20 9.98545C20 8.58262 19.6982 7.25773 19.1821 6.04974L11.4021 10.5115L17.5463 16.5222Z" fill="black"/>
</svg>
