<svg width="24" height="24" viewBox="0 0 24 24" fill="none" xmlns="http://www.w3.org/2000/svg">
<path d="M20.6709 3.33971C21.2167 3.88552 21.5747 4.53766 21.7448 5.29612C21.9149 6.05458 22 6.94063 22 7.95428V16.0245C22 17.0452 21.9149 17.9348 21.7448 18.6932C21.5747 19.4446 21.2167 20.0968 20.6709 20.6497C20.118 21.1955 19.4588 21.5534 18.6932 21.7236C17.9348 21.9008 17.0487 21.9894 16.0351 21.9894H7.95428C6.94772 21.9894 6.06167 21.9008 5.29612 21.7236C4.53766 21.5534 3.88198 21.1955 3.32908 20.6497C2.77618 20.1038 2.41467 19.4517 2.24455 18.6932C2.08152 17.9348 2 17.0452 2 16.0245V7.93301C2 6.93355 2.08506 6.05812 2.25518 5.30675C2.42531 4.54829 2.78327 3.89261 3.32908 3.33971C3.88198 2.7939 4.53766 2.43594 5.29612 2.26582C6.06167 2.08861 6.94418 2 7.94365 2H16.0351C17.0487 2 17.9348 2.08861 18.6932 2.26582C19.4588 2.43594 20.118 2.7939 20.6709 3.33971ZM6.78469 11.9947C6.78469 12.3208 6.89102 12.5901 7.10367 12.8028C7.31632 13.0083 7.58923 13.1111 7.92238 13.1111H10.857V16.067C10.857 16.3931 10.9633 16.6624 11.176 16.8751C11.3886 17.0877 11.658 17.194 11.9841 17.194C12.3101 17.194 12.5795 17.0877 12.7921 16.8751C13.0119 16.6624 13.1217 16.3931 13.1217 16.067V13.1111H16.067C16.3931 13.1111 16.6624 13.0083 16.8751 12.8028C17.0948 12.5901 17.2047 12.3208 17.2047 11.9947C17.2047 11.6615 17.0984 11.3886 16.8857 11.176C16.673 10.9633 16.4001 10.857 16.067 10.857H13.1217V7.91175C13.1217 7.57859 13.0119 7.30569 12.7921 7.09304C12.5795 6.88038 12.3101 6.77406 11.9841 6.77406C11.658 6.77406 11.3886 6.88038 11.176 7.09304C10.9633 7.30569 10.857 7.57859 10.857 7.91175V10.857H7.92238C7.58923 10.857 7.31632 10.9633 7.10367 11.176C6.89102 11.3886 6.78469 11.6615 6.78469 11.9947Z" fill="black"/>
</svg>
