<svg width="20" height="20" viewBox="0 0 20 20" fill="none" xmlns="http://www.w3.org/2000/svg">
<path d="M9.99522 20.0001C15.4758 20.0001 19.9904 15.4759 19.9904 9.99528C19.9904 4.51465 15.4663 6.10352e-05 9.99522 6.10352e-05C4.51459 6.10352e-05 0 4.51465 0 9.99528C0 15.4759 4.51459 20.0001 9.99522 20.0001ZM9.99522 17.7523C5.70062 17.7523 2.25729 14.2899 2.25729 9.99528C2.25729 5.70068 5.69106 2.24779 9.99522 2.24779C14.2898 2.24779 17.7427 5.70068 17.7523 9.99528C17.7523 14.2899 14.2898 17.7523 9.99522 17.7523ZM9.97609 14.2803C10.5787 14.2803 10.9708 13.8595 10.9708 13.2473V10.99H13.3716C13.9742 10.99 14.4142 10.6074 14.4142 10.024C14.4142 9.42139 13.9933 9.02923 13.3716 9.02923H10.9708V6.65716C10.9708 6.03545 10.5787 5.62416 9.97609 5.62416C9.39263 5.62416 9.01004 6.05458 9.01004 6.65716V9.02923H6.60928C5.98757 9.02923 5.56671 9.42139 5.56671 10.024C5.56671 10.6074 6.0067 10.99 6.60928 10.99H9.01004V13.2473C9.01004 13.8499 9.39263 14.2803 9.97609 14.2803Z" fill="black"/>
</svg>
