<svg width="21" height="20" viewBox="0 0 21 20" fill="none" xmlns="http://www.w3.org/2000/svg">
<g clip-path="url(#clip0_1_501)">
<path d="M10.0541 20.0001C15.5347 20.0001 20.0493 15.4759 20.0493 9.99528C20.0493 4.51465 15.5251 6.10352e-05 10.0541 6.10352e-05C4.57342 6.10352e-05 0.0588379 4.51465 0.0588379 9.99528C0.0588379 15.4759 4.57342 20.0001 10.0541 20.0001ZM10.0541 17.7523C5.75946 17.7523 2.31613 14.2899 2.31613 9.99528C2.31613 5.70068 5.74989 2.24779 10.0541 2.24779C14.3487 2.24779 17.8015 5.70068 17.8111 9.99528C17.8111 14.2899 14.3487 17.7523 10.0541 17.7523ZM10.0349 14.2803C10.6375 14.2803 11.0297 13.8595 11.0297 13.2473V10.99H13.4304C14.033 10.99 14.473 10.6074 14.473 10.024C14.473 9.42139 14.0521 9.02923 13.4304 9.02923H11.0297V6.65716C11.0297 6.03545 10.6375 5.62416 10.0349 5.62416C9.45147 5.62416 9.06888 6.05458 9.06888 6.65716V9.02923H6.66812C6.0464 9.02923 5.62555 9.42139 5.62555 10.024C5.62555 10.6074 6.06553 10.99 6.66812 10.99H9.06888V13.2473C9.06888 13.8499 9.45147 14.2803 10.0349 14.2803Z" fill="black"/>
</g>
<defs>
<clipPath id="clip0_1_501">
<rect width="20" height="20" fill="white" transform="translate(0.0588379 6.10352e-05)"/>
</clipPath>
</defs>
</svg>
