<svg width="21" height="20" viewBox="0 0 21 20" fill="none" xmlns="http://www.w3.org/2000/svg">
<path d="M10.0529 20.0001C10.9153 20.0001 11.6241 19.2775 11.6241 18.4849V11.5502H18.5113C19.3382 11.5502 20.0588 10.8509 20.0588 10.0001C20.0588 9.1609 19.3382 8.44994 18.5113 8.44994H11.6241V1.51521C11.6241 0.699362 10.9153 6.10352e-05 10.0529 6.10352e-05C9.20237 6.10352e-05 8.49357 0.699362 8.49357 1.51521V8.44994H1.60639C0.803079 8.44994 0.0588379 9.1609 0.0588379 10.0001C0.0588379 10.8509 0.803079 11.5502 1.60639 11.5502H8.49357V18.4849C8.49357 19.2775 9.20237 20.0001 10.0529 20.0001Z" fill="black"/>
</svg>
