<svg width="21" height="20" viewBox="0 0 21 20" fill="none" xmlns="http://www.w3.org/2000/svg">
<g clip-path="url(#clip0_1_499)">
<path d="M10.0588 20.0001C8.69065 20.0001 7.40314 19.7387 6.1963 19.216C4.98946 18.6997 3.9246 17.9801 3.00172 17.0572C2.0853 16.1343 1.36571 15.0695 0.842962 13.8626C0.320212 12.6558 0.0588379 11.3683 0.0588379 10.0001C0.0588379 8.63191 0.320212 7.3444 0.842962 6.13756C1.36571 4.93071 2.0853 3.86908 3.00172 2.95266C3.9246 2.02978 4.98623 1.30696 6.18662 0.784215C7.39346 0.261466 8.68097 9.15527e-05 10.0492 9.15527e-05C11.4238 9.15527e-05 12.7145 0.261466 13.9214 0.784215C15.1282 1.30696 16.1931 2.02978 17.116 2.95266C18.0388 3.86908 18.7616 4.93071 19.2844 6.13756C19.8071 7.3444 20.0685 8.63191 20.0685 10.0001C20.0685 11.3683 19.8071 12.6558 19.2844 13.8626C18.7616 15.0695 18.0388 16.1343 17.116 17.0572C16.1931 17.9801 15.1282 18.6997 13.9214 19.216C12.7145 19.7387 11.427 20.0001 10.0588 20.0001ZM10.0588 18.0253C11.1753 18.0253 12.2176 17.8187 13.1857 17.4057C14.1537 16.9927 15.0056 16.4183 15.7413 15.6826C16.477 14.9468 17.0514 14.095 17.4645 13.1269C17.8775 12.1589 18.084 11.1166 18.084 10.0001C18.084 8.89006 17.8775 7.85101 17.4645 6.88296C17.0514 5.90845 16.477 5.05333 15.7413 4.31761C15.0056 3.58189 14.1505 3.00751 13.176 2.59448C12.2079 2.18144 11.1656 1.97492 10.0492 1.97492C8.93912 1.97492 7.89685 2.18144 6.92234 2.59448C5.95429 3.00751 5.10563 3.58189 4.37636 4.31761C3.64709 5.05333 3.07594 5.90845 2.6629 6.88296C2.24987 7.85101 2.04335 8.89006 2.04335 10.0001C2.04335 11.1166 2.24987 12.1589 2.6629 13.1269C3.07594 14.095 3.64709 14.9468 4.37636 15.6826C5.11208 16.4183 5.96397 16.9927 6.93202 17.4057C7.90653 17.8187 8.9488 18.0253 10.0588 18.0253ZM5.58643 10.0001C5.58643 9.72904 5.67032 9.50961 5.83812 9.34181C6.00592 9.16757 6.22857 9.08044 6.50608 9.08044H9.15855V6.42797C9.15855 6.16337 9.24245 5.94717 9.41024 5.77938C9.57804 5.60513 9.79101 5.518 10.0492 5.518C10.3202 5.518 10.5396 5.6019 10.7074 5.76969C10.8817 5.93749 10.9688 6.15692 10.9688 6.42797V9.08044H13.6213C13.8923 9.08044 14.1118 9.16757 14.2796 9.34181C14.4473 9.50961 14.5312 9.72904 14.5312 10.0001C14.5312 10.2582 14.4473 10.4712 14.2796 10.639C14.1118 10.8068 13.8923 10.8907 13.6213 10.8907H10.9688V13.5529C10.9688 13.8175 10.8817 14.0369 10.7074 14.2111C10.5396 14.3789 10.3202 14.4628 10.0492 14.4628C9.79101 14.4628 9.57804 14.3789 9.41024 14.2111C9.24245 14.0369 9.15855 13.8175 9.15855 13.5529V10.8907H6.50608C6.23502 10.8907 6.01237 10.8068 5.83812 10.639C5.67032 10.4712 5.58643 10.2582 5.58643 10.0001Z" fill="black"/>
</g>
<defs>
<clipPath id="clip0_1_499">
<rect width="20" height="20" fill="white" transform="translate(0.0588379 6.10352e-05)"/>
</clipPath>
</defs>
</svg>
