<svg width="24" height="24" viewBox="0 0 24 24" fill="none" xmlns="http://www.w3.org/2000/svg">
<path d="M11.9952 22C17.4759 22 21.9904 17.4758 21.9904 11.9952C21.9904 6.51456 17.4663 1.99997 11.9952 1.99997C6.51459 1.99997 2 6.51456 2 11.9952C2 17.4758 6.51459 22 11.9952 22ZM11.9952 19.7522C7.70062 19.7522 4.25729 16.2898 4.25729 11.9952C4.25729 7.70059 7.69106 4.2477 11.9952 4.2477C16.2898 4.2477 19.7427 7.70059 19.7523 11.9952C19.7523 16.2898 16.2898 19.7522 11.9952 19.7522ZM11.9761 16.2802C12.5787 16.2802 12.9708 15.8594 12.9708 15.2472V12.9899H15.3716C15.9742 12.9899 16.4142 12.6073 16.4142 12.0239C16.4142 11.4213 15.9933 11.0291 15.3716 11.0291H12.9708V8.65707C12.9708 8.03536 12.5787 7.62407 11.9761 7.62407C11.3926 7.62407 11.01 8.05449 11.01 8.65707V11.0291H8.60928C7.98757 11.0291 7.56671 11.4213 7.56671 12.0239C7.56671 12.6073 8.0067 12.9899 8.60928 12.9899H11.01V15.2472C11.01 15.8498 11.3926 16.2802 11.9761 16.2802Z" fill="black"/>
</svg>
