<svg width="24" height="24" viewBox="0 0 24 24" fill="none" xmlns="http://www.w3.org/2000/svg">
<path d="M12 21C10.7686 21 9.60987 20.7647 8.52372 20.2943C7.43756 19.8296 6.47919 19.182 5.6486 18.3514C4.82381 17.5208 4.17619 16.5624 3.70571 15.4763C3.23524 14.3901 3 13.2313 3 12C3 10.7686 3.23524 9.60984 3.70571 8.52369C4.17619 7.43753 4.82381 6.48206 5.6486 5.65728C6.47919 4.82669 7.43466 4.17616 8.515 3.70568C9.60116 3.23521 10.7599 2.99997 11.9913 2.99997C13.2285 2.99997 14.3901 3.23521 15.4763 3.70568C16.5624 4.17616 17.5208 4.82669 18.3514 5.65728C19.182 6.48206 19.8325 7.43753 20.303 8.52369C20.7735 9.60984 21.0087 10.7686 21.0087 12C21.0087 13.2313 20.7735 14.3901 20.303 15.4763C19.8325 16.5624 19.182 17.5208 18.3514 18.3514C17.5208 19.182 16.5624 19.8296 15.4763 20.2943C14.3901 20.7647 13.2314 21 12 21ZM12 19.2226C13.0048 19.2226 13.9429 19.0368 14.8141 18.665C15.6854 18.2933 16.4521 17.7763 17.1142 17.1142C17.7764 16.4521 18.2933 15.6854 18.6651 14.8141C19.0368 13.9429 19.2227 13.0048 19.2227 12C19.2227 11.0009 19.0368 10.0658 18.6651 9.19455C18.2933 8.31749 17.7764 7.54789 17.1142 6.88574C16.4521 6.22359 15.6825 5.70665 14.8054 5.33492C13.9342 4.96318 12.9961 4.77732 11.9913 4.77732C10.9923 4.77732 10.0542 4.96318 9.17715 5.33492C8.3059 5.70665 7.54211 6.22359 6.88577 6.88574C6.22943 7.54789 5.71539 8.31749 5.34366 9.19455C4.97193 10.0658 4.78606 11.0009 4.78606 12C4.78606 13.0048 4.97193 13.9429 5.34366 14.8141C5.71539 15.6854 6.22943 16.4521 6.88577 17.1142C7.54792 17.7763 8.31462 18.2933 9.18587 18.665C10.0629 19.0368 11.001 19.2226 12 19.2226ZM7.97483 12C7.97483 11.756 8.05034 11.5585 8.20135 11.4075C8.35237 11.2507 8.55276 11.1723 8.80252 11.1723H11.1897V8.78506C11.1897 8.54692 11.2652 8.35234 11.4163 8.20132C11.5673 8.0445 11.759 7.96609 11.9913 7.96609C12.2352 7.96609 12.4327 8.0416 12.5837 8.19261C12.7406 8.34363 12.819 8.54111 12.819 8.78506V11.1723H15.2062C15.4501 11.1723 15.6476 11.2507 15.7986 11.4075C15.9497 11.5585 16.0252 11.756 16.0252 12C16.0252 12.2323 15.9497 12.424 15.7986 12.575C15.6476 12.726 15.4501 12.8015 15.2062 12.8015H12.819V15.1975C12.819 15.4356 12.7406 15.6331 12.5837 15.7899C12.4327 15.9409 12.2352 16.0164 11.9913 16.0164C11.759 16.0164 11.5673 15.9409 11.4163 15.7899C11.2652 15.6331 11.1897 15.4356 11.1897 15.1975V12.8015H8.80252C8.55857 12.8015 8.35818 12.726 8.20135 12.575C8.05034 12.424 7.97483 12.2323 7.97483 12Z" fill="black"/>
</svg>
