<svg width="24" height="24" viewBox="0 0 24 24" fill="none" xmlns="http://www.w3.org/2000/svg">
<path fill-rule="evenodd" clip-rule="evenodd" d="M10.7786 20.743C10.1465 20.743 9.6625 20.5865 9.32654 20.2619C8.99626 19.9431 8.83113 19.477 8.83113 18.8734V5.12913C8.83113 4.52553 8.99626 4.06144 9.32654 3.73687C9.6625 3.41229 10.1465 3.25 10.7786 3.25H13.2044C13.8478 3.25 14.3347 3.41229 14.665 3.73687C15.0009 4.06144 15.1689 4.52553 15.1689 5.12913V18.8734C15.1689 19.477 15.0009 19.9431 14.665 20.2619C14.3347 20.5865 13.8478 20.743 13.2044 20.743H10.7786ZM3.35603 20.743C2.71826 20.743 2.2314 20.5865 1.89543 20.2619C1.56516 19.943 1.40002 19.477 1.40002 18.8734V14.8159C1.40002 14.2066 1.56516 13.7425 1.89543 13.4236C2.2314 13.099 2.71826 12.9367 3.35603 12.9367H5.78181C6.41958 12.9367 6.9036 13.099 7.23387 13.4236C7.56983 13.7425 7.73782 14.2066 7.73782 14.8159V18.8734C7.73782 19.477 7.56983 19.943 7.23387 20.2619C6.9036 20.5865 6.41958 20.743 5.78181 20.743H3.35603ZM16.7576 20.251C17.0936 20.5756 17.5805 20.743 18.2182 20.743H20.644C21.2818 20.743 21.7658 20.5756 22.0961 20.251C22.432 19.9321 22.6 19.477 22.6 18.8734V10.1341C22.6 9.52482 22.432 9.05789 22.0961 8.73331C21.7658 8.40873 21.2818 8.24644 20.644 8.24644H18.2182C17.5805 8.24644 17.0936 8.40873 16.7576 8.73331C16.4274 9.05789 16.2622 9.52482 16.2622 10.1341V18.8734C16.2622 19.477 16.4274 19.9321 16.7576 20.251Z" fill="black"/>
</svg>
