<svg width="24" height="24" viewBox="0 0 24 24" fill="none" xmlns="http://www.w3.org/2000/svg">
<path d="M12.0048 22C10.6363 22 9.34772 21.7378 8.13909 21.2134C6.93046 20.6954 5.86571 19.976 4.94484 19.0552C4.02398 18.1343 3.30136 17.0727 2.77698 15.8705C2.25899 14.6619 2 13.3701 2 11.9952C2 10.6267 2.25899 9.34133 2.77698 8.13909C3.30136 6.93046 4.02078 5.86571 4.93525 4.94484C5.85612 4.02398 6.92086 3.30456 8.1295 2.78657C9.33813 2.26219 10.6267 2 11.9952 2C13.3637 2 14.6523 2.26219 15.8609 2.78657C17.0759 3.30456 18.1407 4.02398 19.0552 4.94484C19.976 5.86571 20.6986 6.93046 21.223 8.13909C21.7474 9.34133 22.0096 10.6267 22.0096 11.9952C22.0096 13.3701 21.7474 14.6619 21.223 15.8705C20.6986 17.0727 19.976 18.1343 19.0552 19.0552C18.1407 19.976 17.0791 20.6954 15.8705 21.2134C14.6619 21.7378 13.3733 22 12.0048 22ZM11.7746 13.9424C12.0687 13.9424 12.3054 13.8721 12.4844 13.7314C12.6699 13.5843 12.7722 13.4053 12.7914 13.1942C12.7978 13.1751 12.801 13.1559 12.801 13.1367C12.801 13.1111 12.8042 13.0919 12.8106 13.0791C12.8361 12.8297 12.9384 12.6123 13.1175 12.4269C13.303 12.2414 13.5492 12.0496 13.8561 11.8513C14.3549 11.5316 14.745 11.2022 15.0264 10.8633C15.3141 10.518 15.458 10.0608 15.458 9.49161C15.458 8.93525 15.3046 8.45883 14.9976 8.06235C14.6906 7.66587 14.2814 7.36211 13.7698 7.15108C13.2646 6.93365 12.705 6.82494 12.0911 6.82494C11.2278 6.82494 10.5116 6.99121 9.94245 7.32374C9.3797 7.64988 9.01199 8.05276 8.83933 8.53237C8.80735 8.6219 8.78177 8.71143 8.76259 8.80096C8.74341 8.89049 8.73381 8.98321 8.73381 9.07914C8.73381 9.33493 8.82014 9.54277 8.99281 9.70264C9.16547 9.86251 9.3701 9.94245 9.60671 9.94245C9.79856 9.94245 9.96483 9.90408 10.1055 9.82734C10.2462 9.7506 10.3677 9.64508 10.47 9.51079L10.6043 9.31894C10.7194 9.14628 10.8441 9.0056 10.9784 8.89688C11.1127 8.78177 11.2566 8.69544 11.4101 8.63789C11.5699 8.58034 11.7426 8.55156 11.9281 8.55156C12.2926 8.55156 12.5899 8.65068 12.8201 8.84892C13.0504 9.04716 13.1655 9.29976 13.1655 9.60671C13.1655 9.91367 13.06 10.1663 12.8489 10.3645C12.6379 10.5564 12.3245 10.793 11.9089 11.0743C11.5572 11.3237 11.2662 11.5891 11.036 11.8705C10.8122 12.1455 10.7002 12.4972 10.7002 12.9257C10.7002 12.9448 10.7002 12.964 10.7002 12.9832C10.7002 12.996 10.7002 13.0088 10.7002 13.0216C10.7002 13.6355 11.0584 13.9424 11.7746 13.9424ZM11.765 17.0791C12.1103 17.0791 12.4045 16.9736 12.6475 16.7626C12.8905 16.5452 13.012 16.267 13.012 15.9281C13.012 15.5955 12.8905 15.3205 12.6475 15.1031C12.4045 14.8857 12.1103 14.777 11.765 14.777C11.4133 14.777 11.1159 14.8857 10.8729 15.1031C10.6299 15.3205 10.5084 15.5955 10.5084 15.9281C10.5084 16.267 10.6299 16.5452 10.8729 16.7626C11.1223 16.9736 11.4197 17.0791 11.765 17.0791Z" fill="black"/>
</svg>
