<svg width="24" height="24" viewBox="0 0 24 24" fill="none" xmlns="http://www.w3.org/2000/svg">
<path d="M12 21.9904C10.6322 21.9904 9.3442 21.7283 8.13615 21.2042C6.92809 20.6865 5.86385 19.9674 4.94343 19.047C4.02301 18.1266 3.30074 17.0655 2.77661 15.8639C2.25887 14.6558 2 13.3647 2 11.9904C2 10.6226 2.25887 9.33781 2.77661 8.13615C3.30074 6.92809 4.01981 5.86385 4.93384 4.94343C5.85427 4.02301 6.9185 3.30393 8.12656 2.78619C9.33461 2.26206 10.6226 2 11.9904 2C13.3583 2 14.6462 2.26206 15.8543 2.78619C17.0687 3.30393 18.133 4.02301 19.047 4.94343C19.9674 5.86385 20.6897 6.92809 21.2138 8.13615C21.7379 9.33781 22 10.6226 22 11.9904C22 13.3647 21.7379 14.6558 21.2138 15.8639C20.6897 17.0655 19.9674 18.1266 19.047 19.047C18.133 19.9674 17.0719 20.6865 15.8639 21.2042C14.6558 21.7283 13.3678 21.9904 12 21.9904ZM12 19.7948C13.0802 19.7948 14.0901 19.5935 15.0297 19.1908C15.9757 18.7881 16.8066 18.232 17.5225 17.5225C18.2384 16.8066 18.7977 15.9789 19.2004 15.0393C19.6031 14.0933 19.8044 13.077 19.8044 11.9904C19.8044 10.9102 19.5999 9.90029 19.1908 8.96069C18.7881 8.0147 18.2288 7.18376 17.5129 6.46788C16.8035 5.752 15.9757 5.19271 15.0297 4.79003C14.0901 4.38734 13.077 4.186 11.9904 4.186C10.9102 4.186 9.89709 4.38734 8.9511 4.79003C8.01151 5.19271 7.18376 5.752 6.46788 6.46788C5.75839 7.18376 5.2023 8.0147 4.79962 8.96069C4.40332 9.90029 4.20518 10.9102 4.20518 11.9904C4.20518 13.077 4.40332 14.0933 4.79962 15.0393C5.2023 15.9789 5.76159 16.8066 6.47747 17.5225C7.19335 18.232 8.02109 18.7881 8.96069 19.1908C9.90668 19.5935 10.9198 19.7948 12 19.7948ZM11.7795 13.8504C11.1019 13.8504 10.7632 13.5596 10.7632 12.9779C10.7632 12.9652 10.7632 12.9524 10.7632 12.9396C10.7632 12.9204 10.7632 12.9012 10.7632 12.8821C10.7632 12.473 10.8718 12.1342 11.0892 11.8658C11.3065 11.5973 11.5845 11.348 11.9233 11.1179C12.3196 10.8367 12.6168 10.6034 12.815 10.418C13.0195 10.2327 13.1218 9.99616 13.1218 9.70853C13.1218 9.41451 13.0099 9.17162 12.7862 8.97987C12.5689 8.78172 12.2812 8.68265 11.9233 8.68265C11.7507 8.68265 11.5877 8.71141 11.4343 8.76894C11.2809 8.82646 11.1403 8.90956 11.0125 9.01822C10.8846 9.12688 10.7664 9.2643 10.6577 9.43049L10.5235 9.60307C10.4276 9.7373 10.3126 9.83956 10.1783 9.90987C10.0441 9.98018 9.88431 10.0153 9.69895 10.0153C9.48162 10.0153 9.28987 9.94183 9.12368 9.79482C8.96389 9.64781 8.88399 9.44966 8.88399 9.20038C8.88399 9.1109 8.89038 9.02461 8.90316 8.94151C8.92234 8.85842 8.94791 8.77213 8.97987 8.68265C9.13966 8.22883 9.49121 7.84212 10.0345 7.52253C10.5778 7.20294 11.2585 7.04314 12.0767 7.04314C12.6647 7.04314 13.1985 7.14541 13.6779 7.34995C14.1636 7.55449 14.5535 7.84851 14.8476 8.23202C15.1416 8.60914 15.2886 9.06296 15.2886 9.59348C15.2886 10.1432 15.1512 10.581 14.8763 10.907C14.6079 11.2266 14.2339 11.5398 13.7546 11.8466C13.4541 12.0447 13.2176 12.2333 13.0451 12.4123C12.8725 12.5912 12.7766 12.7958 12.7574 13.0259C12.7574 13.0387 12.7542 13.0578 12.7478 13.0834C12.7478 13.1026 12.7478 13.1218 12.7478 13.1409C12.7223 13.3391 12.6232 13.5085 12.4506 13.6491C12.278 13.7833 12.0543 13.8504 11.7795 13.8504ZM11.7603 16.8418C11.4343 16.8418 11.1531 16.7395 10.9166 16.535C10.6865 16.3305 10.5714 16.0684 10.5714 15.7488C10.5714 15.4292 10.6865 15.1671 10.9166 14.9626C11.1467 14.7581 11.4279 14.6558 11.7603 14.6558C12.0927 14.6558 12.3739 14.7581 12.604 14.9626C12.8341 15.1671 12.9492 15.4292 12.9492 15.7488C12.9492 16.0684 12.8341 16.3305 12.604 16.535C12.3739 16.7395 12.0927 16.8418 11.7603 16.8418Z" fill="black"/>
</svg>
