<svg width="24" height="24" viewBox="0 0 24 24" fill="none" xmlns="http://www.w3.org/2000/svg">
<path d="M3.80005 13.7652C3.80005 13.4161 3.91141 13.1302 4.13413 12.9074C4.35686 12.6847 4.63978 12.5734 4.98289 12.5734C5.31999 12.5734 5.59388 12.6847 5.80456 12.9074C6.01525 13.1302 6.12059 13.4161 6.12059 13.7652C6.12059 14.5839 6.27108 15.3514 6.57206 16.0677C6.87906 16.778 7.30343 17.4041 7.8452 17.9458C8.38696 18.4876 9.01299 18.912 9.7233 19.219C10.4396 19.5199 11.2071 19.6704 12.0258 19.6704C12.8384 19.6704 13.5999 19.5199 14.3102 19.219C15.0265 18.912 15.6526 18.4876 16.1883 17.9458C16.7241 17.4041 17.1424 16.778 17.4434 16.0677C17.7504 15.3514 17.9039 14.5839 17.9039 13.7652C17.9039 12.9345 17.7564 12.161 17.4614 11.4447C17.1665 10.7223 16.7541 10.0903 16.2244 9.54853C15.6947 9.00677 15.0777 8.5854 14.3734 8.28442C13.6691 7.97743 12.9107 7.82393 12.098 7.82393C11.8813 7.82393 11.6766 7.83296 11.484 7.85102C11.2914 7.86907 11.1108 7.89315 10.9423 7.92325L12.9739 9.92777C13.0762 10.0301 13.1545 10.1415 13.2086 10.2619C13.2628 10.3822 13.2899 10.5237 13.2899 10.6862C13.2899 10.9992 13.1815 11.2671 12.9648 11.4898C12.7481 11.7065 12.4833 11.8149 12.1703 11.8149C11.8512 11.8149 11.5894 11.7096 11.3847 11.4989L7.70073 7.76975C7.57432 7.64936 7.48101 7.51994 7.42082 7.38149C7.36664 7.23702 7.33955 7.08352 7.33955 6.92099C7.33955 6.60196 7.45994 6.32205 7.70073 6.08126L11.3847 2.33409C11.5894 2.11136 11.8512 2 12.1703 2C12.4833 2 12.7481 2.11136 12.9648 2.33409C13.1815 2.55681 13.2899 2.8307 13.2899 3.15576C13.2899 3.31226 13.2628 3.45071 13.2086 3.57111C13.1545 3.6915 13.0762 3.80286 12.9739 3.90519L11.177 5.67494C11.3155 5.65087 11.463 5.63281 11.6195 5.62077C11.776 5.60271 11.9355 5.59368 12.098 5.59368C13.2297 5.59368 14.2891 5.80436 15.2763 6.22573C16.2636 6.6471 17.1274 7.231 17.8678 7.97743C18.6082 8.71783 19.1861 9.58465 19.6014 10.5779C20.0228 11.5651 20.2335 12.6275 20.2335 13.7652C20.2335 14.909 20.0198 15.9774 19.5924 16.9707C19.171 17.9639 18.5841 18.8397 17.8317 19.5982C17.0792 20.3506 16.2064 20.9375 15.2131 21.3589C14.2199 21.7863 13.1575 22 12.0258 22C10.8881 22 9.81961 21.7863 8.82036 21.3589C7.82714 20.9375 6.9543 20.3506 6.20185 19.5982C5.45543 18.8397 4.86852 17.9639 4.44113 16.9707C4.01374 15.9774 3.80005 14.909 3.80005 13.7652Z" fill="black"/>
</svg>
