<svg width="24" height="24" viewBox="0 0 24 24" fill="none" xmlns="http://www.w3.org/2000/svg">
<path d="M2.26324 17.3887C2.02846 17.3887 1.84786 17.3346 1.72143 17.2262C1.59953 17.1223 1.52729 16.9891 1.50471 16.8266C1.48665 16.6641 1.52051 16.5015 1.6063 16.339C2.39643 14.7903 3.18657 13.2417 3.9767 11.693C4.77135 10.1443 5.56375 8.59566 6.35388 7.047C6.43064 6.90251 6.52545 6.79415 6.63833 6.72191C6.75572 6.64967 6.88666 6.61355 7.03114 6.61355H7.50522C7.69034 6.61355 7.82353 6.68353 7.9048 6.8235C7.99059 6.95895 7.99736 7.11472 7.92512 7.29081C7.2885 8.87108 6.65187 10.4513 6.01525 12.0316C5.37863 13.6119 4.74201 15.1899 4.10538 16.7657C4.03314 16.9463 3.92478 17.0953 3.7803 17.2126C3.63582 17.33 3.4349 17.3887 3.17754 17.3887H2.26324ZM20.8269 17.3887C20.5695 17.3887 20.3686 17.33 20.2241 17.2126C20.0796 17.0953 19.9713 16.9463 19.899 16.7657C19.2669 15.1899 18.6303 13.6119 17.9892 12.0316C17.3526 10.4513 16.7159 8.87108 16.0793 7.29081C16.0116 7.11472 16.0184 6.95895 16.0996 6.8235C16.1809 6.68353 16.3141 6.61355 16.4992 6.61355H16.9733C17.1223 6.61355 17.2532 6.64967 17.3661 6.72191C17.4835 6.78964 17.5806 6.89574 17.6573 7.04022C18.4475 8.58889 19.2376 10.1398 20.0277 11.693C20.8224 13.2417 21.6125 14.7903 22.3981 16.339C22.4839 16.5015 22.5155 16.6641 22.4929 16.8266C22.4749 16.9891 22.4026 17.1223 22.2762 17.2262C22.1543 17.3346 21.9782 17.3887 21.748 17.3887H20.8269ZM11.8329 8.82819C11.6342 8.82819 11.4672 8.76272 11.3317 8.63178C11.2008 8.50084 11.1353 8.33604 11.1353 8.13738C11.1353 7.99742 11.1353 7.85745 11.1353 7.71748C11.1353 7.573 11.1353 7.43303 11.1353 7.29758C11.1353 7.09892 11.2008 6.93412 11.3317 6.80318C11.4672 6.66773 11.6342 6.60001 11.8329 6.60001H12.158C12.3566 6.60001 12.5214 6.66773 12.6524 6.80318C12.7878 6.93412 12.8556 7.09892 12.8556 7.29758C12.8556 7.43303 12.8556 7.573 12.8556 7.71748C12.8556 7.85745 12.8556 7.99742 12.8556 8.13738C12.8556 8.33604 12.7878 8.50084 12.6524 8.63178C12.5214 8.76272 12.3566 8.82819 12.158 8.82819H11.8329ZM11.8329 12.824C11.6342 12.824 11.4672 12.7585 11.3317 12.6276C11.2008 12.4967 11.1353 12.3319 11.1353 12.1332C11.1353 11.8984 11.1353 11.6636 11.1353 11.4289C11.1353 11.1941 11.1353 10.9593 11.1353 10.7245C11.1353 10.5258 11.2008 10.361 11.3317 10.2301C11.4672 10.0992 11.6342 10.0337 11.8329 10.0337H12.158C12.3566 10.0337 12.5214 10.0992 12.6524 10.2301C12.7878 10.361 12.8556 10.5258 12.8556 10.7245C12.8556 10.9593 12.8556 11.1941 12.8556 11.4289C12.8556 11.6636 12.8556 11.8984 12.8556 12.1332C12.8556 12.3319 12.7878 12.4967 12.6524 12.6276C12.5214 12.7585 12.3566 12.824 12.158 12.824H11.8329ZM11.8329 17.3887C11.6342 17.3887 11.4672 17.3233 11.3317 17.1923C11.2008 17.0614 11.1353 16.8966 11.1353 16.6979C11.1353 16.3728 11.1353 16.0478 11.1353 15.7227C11.1353 15.3976 11.1353 15.0748 11.1353 14.7542C11.1353 14.5555 11.2008 14.3907 11.3317 14.2598C11.4672 14.1243 11.6342 14.0566 11.8329 14.0566H12.158C12.3566 14.0566 12.5214 14.1243 12.6524 14.2598C12.7878 14.3907 12.8556 14.5555 12.8556 14.7542C12.8556 15.0748 12.8556 15.3976 12.8556 15.7227C12.8556 16.0478 12.8556 16.3728 12.8556 16.6979C12.8556 16.8966 12.7878 17.0614 12.6524 17.1923C12.5214 17.3233 12.3566 17.3887 12.158 17.3887H11.8329Z" fill="black"/>
</svg>
