<svg width="24" height="24" viewBox="0 0 24 24" fill="none" xmlns="http://www.w3.org/2000/svg">
<path d="M22 10.8769C22 9.79481 21.7963 8.77638 21.3889 7.82161C20.9816 6.86683 20.4151 6.02982 19.6894 5.31055C18.9638 4.58492 18.1268 4.01843 17.1784 3.61106C16.2236 3.20369 15.202 3 14.1136 3C13.0251 3 12.0067 3.20369 11.0583 3.61106C10.1035 4.01843 9.26332 4.58492 8.53769 5.31055C7.81206 6.02982 7.24556 6.86683 6.83819 7.82161C6.43082 8.77638 6.22714 9.79481 6.22714 10.8769C6.22714 11.6916 6.34807 12.4682 6.58995 13.2065C6.82546 13.9449 7.15645 14.6228 7.58291 15.2402L3.46784 19.3744C3.31507 19.5335 3.2005 19.7085 3.12412 19.8995C3.04137 20.0968 3 20.3069 3 20.5296C3 20.8352 3.07002 21.1121 3.21005 21.3603C3.35008 21.6085 3.54104 21.8027 3.78292 21.9427C4.02479 22.0891 4.30486 22.1623 4.62312 22.1623C4.83953 22.1623 5.04958 22.1241 5.25327 22.0477C5.45695 21.9714 5.63836 21.8536 5.79749 21.6945L9.95075 17.5412C10.5491 17.9231 11.2015 18.2255 11.908 18.4482C12.6082 18.6647 13.3434 18.7729 14.1136 18.7729C15.202 18.7729 16.2236 18.5692 17.1784 18.1618C18.1268 17.7544 18.9638 17.1879 19.6894 16.4623C20.4151 15.7367 20.9816 14.8965 21.3889 13.9417C21.7963 12.9869 22 11.9653 22 10.8769ZM19.6799 10.8769C19.6799 11.6471 19.5367 12.3695 19.2503 13.0442C18.9575 13.7126 18.5564 14.3013 18.0472 14.8106C17.538 15.3198 16.9492 15.7208 16.2809 16.0136C15.6062 16.3 14.8838 16.4432 14.1136 16.4432C13.3434 16.4432 12.6241 16.3 11.9558 16.0136C11.2811 15.7208 10.6891 15.3198 10.1799 14.8106C9.67069 14.3013 9.27286 13.7126 8.98643 13.0442C8.69363 12.3695 8.54724 11.6471 8.54724 10.8769C8.54724 10.1131 8.69363 9.39699 8.98643 8.72864C9.27286 8.05394 9.67069 7.46198 10.1799 6.95276C10.6891 6.43719 11.2811 6.03618 11.9558 5.74975C12.6241 5.46332 13.3434 5.3201 14.1136 5.3201C14.8838 5.3201 15.6062 5.46332 16.2809 5.74975C16.9492 6.03618 17.538 6.43719 18.0472 6.95276C18.5564 7.46198 18.9575 8.05394 19.2503 8.72864C19.5367 9.39699 19.6799 10.1131 19.6799 10.8769Z" fill="black"/>
</svg>
