<svg width="21" height="20" viewBox="0 0 21 20" fill="none" xmlns="http://www.w3.org/2000/svg">
<g clip-path="url(#clip0_1_502)">
<path d="M18.5588 18.5001C18.8298 18.2608 18.8428 17.8426 18.5872 17.587L14.0308 13.0306C15.2391 11.5801 15.8416 9.71958 15.713 7.83612C15.5845 5.95266 14.7347 4.19127 13.3406 2.91837C11.9464 1.64547 10.1152 0.959072 8.22782 1.00196C6.34046 1.04484 4.5423 1.81371 3.20739 3.14862C1.87249 4.48352 1.10362 6.28169 1.06073 8.16904C1.01785 10.0564 1.70425 11.8876 2.97715 13.2818C4.25004 14.676 6.01143 15.5257 7.89489 15.6543C9.77835 15.7828 11.6389 15.1803 13.0894 13.9721L17.6458 18.5284C17.9014 18.784 18.3196 18.771 18.5588 18.5001V18.5001V18.5001ZM2.41422 8.3475C2.41422 7.16238 2.76564 6.00388 3.42406 5.01849C4.08248 4.0331 5.01831 3.26508 6.11322 2.81156C7.20812 2.35803 8.41293 2.23937 9.57527 2.47058C10.7376 2.70178 11.8053 3.27247 12.6433 4.11047C13.4813 4.94848 14.052 6.01616 14.2832 7.17851C14.5144 8.34086 14.3958 9.54566 13.9422 10.6406C13.4887 11.7355 12.7207 12.6713 11.7353 13.3297C10.7499 13.9881 9.5914 14.3396 8.40628 14.3396C6.81763 14.3378 5.29455 13.7059 4.1712 12.5826C3.04785 11.4592 2.41598 9.93616 2.41422 8.3475Z" fill="black" stroke="black"/>
</g>
<defs>
<clipPath id="clip0_1_502">
<rect width="20" height="20" fill="white" transform="translate(0.0588379 6.10352e-05)"/>
</clipPath>
</defs>
</svg>
