<svg width="20" height="20" viewBox="0 0 20 20" fill="none" xmlns="http://www.w3.org/2000/svg">
<path d="M19.2108 13.6863H5.93468L6.60127 12.3354L17.677 12.3154C18.0515 12.3154 18.3725 12.0492 18.4394 11.681L19.9732 3.13847C20.0134 2.91442 19.9532 2.68372 19.806 2.50848C19.7333 2.42224 19.6426 2.35276 19.5402 2.30488C19.4378 2.257 19.3262 2.23186 19.213 2.2312L5.12317 2.18461L5.00279 1.62117C4.92699 1.26182 4.60149 1.00006 4.23141 1.00006H0.78698C0.57826 1.00006 0.378089 1.08256 0.230501 1.22941C0.0829138 1.37626 0 1.57543 0 1.78311C0 1.99079 0.0829138 2.18996 0.230501 2.33681C0.378089 2.48366 0.57826 2.56616 0.78698 2.56616H3.5938L4.11994 5.05505L5.41523 11.295L3.74763 14.0035C3.66103 14.1198 3.60887 14.2579 3.59705 14.4022C3.58523 14.5464 3.61422 14.6911 3.68075 14.8198C3.81451 15.0838 4.08427 15.2502 4.38301 15.2502H5.78308C5.4846 15.6446 5.32338 16.1251 5.32382 16.6189C5.32382 17.8744 6.34935 18.8948 7.61119 18.8948C8.87304 18.8948 9.89856 17.8744 9.89856 16.6189C9.89856 16.1242 9.73359 15.6428 9.4393 15.2502H13.0309C12.7324 15.6446 12.5712 16.1251 12.5716 16.6189C12.5716 17.8744 13.5971 18.8948 14.859 18.8948C16.1208 18.8948 17.1464 17.8744 17.1464 16.6189C17.1464 16.1242 16.9814 15.6428 16.6871 15.2502H19.213C19.6455 15.2502 20 14.8997 20 14.4671C19.9987 14.2597 19.915 14.0612 19.7671 13.9149C19.6193 13.7686 19.4193 13.6864 19.2108 13.6863V13.6863ZM5.4509 3.72853L18.2878 3.77067L17.0304 10.776L6.94683 10.7937L5.4509 3.72853ZM7.61119 17.3198C7.22328 17.3198 6.9067 17.0048 6.9067 16.6189C6.9067 16.2329 7.22328 15.9179 7.61119 15.9179C7.99911 15.9179 8.31568 16.2329 8.31568 16.6189C8.31568 16.8048 8.24146 16.9831 8.10934 17.1145C7.97723 17.246 7.79803 17.3198 7.61119 17.3198V17.3198ZM14.859 17.3198C14.4711 17.3198 14.1545 17.0048 14.1545 16.6189C14.1545 16.2329 14.4711 15.9179 14.859 15.9179C15.2469 15.9179 15.5635 16.2329 15.5635 16.6189C15.5635 16.8048 15.4893 16.9831 15.3571 17.1145C15.225 17.246 15.0458 17.3198 14.859 17.3198V17.3198Z" fill="black"/>
</svg>
