<svg width="24" height="24" viewBox="0 0 24 24" fill="none" xmlns="http://www.w3.org/2000/svg">
<path d="M21.2108 15.6862H7.93468L8.60127 14.3353L19.677 14.3153C20.0515 14.3153 20.3725 14.0491 20.4394 13.6809L21.9732 5.13838C22.0134 4.91433 21.9532 4.68363 21.806 4.50839C21.7333 4.42214 21.6426 4.35267 21.5402 4.30479C21.4378 4.25691 21.3262 4.23177 21.213 4.23111L7.12318 4.18452L7.00279 3.62108C6.92699 3.26172 6.60149 2.99997 6.23141 2.99997H2.78698C2.57826 2.99997 2.37809 3.08247 2.2305 3.22932C2.08291 3.37617 2 3.57534 2 3.78302C2 3.99069 2.08291 4.18986 2.2305 4.33671C2.37809 4.48356 2.57826 4.56606 2.78698 4.56606H5.5938L6.11994 7.05496L7.41523 13.2949L5.74763 16.0034C5.66103 16.1197 5.60887 16.2578 5.59705 16.4021C5.58523 16.5464 5.61422 16.691 5.68075 16.8198C5.81451 17.0837 6.08427 17.2501 6.38301 17.2501H7.78308C7.4846 17.6446 7.32338 18.125 7.32382 18.6188C7.32382 19.8743 8.34935 20.8947 9.61119 20.8947C10.873 20.8947 11.8986 19.8743 11.8986 18.6188C11.8986 18.1241 11.7336 17.6427 11.4393 17.2501H15.0309C14.7324 17.6446 14.5712 18.125 14.5716 18.6188C14.5716 19.8743 15.5971 20.8947 16.859 20.8947C18.1208 20.8947 19.1464 19.8743 19.1464 18.6188C19.1464 18.1241 18.9814 17.6427 18.6871 17.2501H21.213C21.6455 17.2501 22 16.8996 22 16.467C21.9987 16.2596 21.915 16.0611 21.7671 15.9148C21.6193 15.7685 21.4193 15.6863 21.2108 15.6862ZM7.4509 5.72843L20.2878 5.77058L19.0304 12.7759L8.94683 12.7936L7.4509 5.72843ZM9.61119 19.3197C9.22328 19.3197 8.9067 19.0047 8.9067 18.6188C8.9067 18.2328 9.22328 17.9178 9.61119 17.9178C9.99911 17.9178 10.3157 18.2328 10.3157 18.6188C10.3157 18.8047 10.2415 18.983 10.1093 19.1144C9.97723 19.2459 9.79803 19.3197 9.61119 19.3197ZM16.859 19.3197C16.4711 19.3197 16.1545 19.0047 16.1545 18.6188C16.1545 18.2328 16.4711 17.9178 16.859 17.9178C17.2469 17.9178 17.5635 18.2328 17.5635 18.6188C17.5635 18.8047 17.4893 18.983 17.3571 19.1144C17.225 19.2459 17.0458 19.3197 16.859 19.3197Z" fill="black"/>
</svg>
