<svg width="20" height="20" viewBox="0 0 20 20" fill="none" xmlns="http://www.w3.org/2000/svg">
<path d="M19.25 4.00256V0.80006C19.25 0.357561 18.8925 6.10352e-05 18.45 6.10352e-05H1.55001C1.10751 6.10352e-05 0.750015 0.357561 0.750015 0.80006V4.00256C0.332515 4.02756 1.54898e-05 4.37506 1.54898e-05 4.80006V8.09256C-0.00158552 8.69767 0.120939 9.29667 0.360015 9.85255C0.467515 10.1076 0.600015 10.3476 0.750015 10.5751V19.2C0.750015 19.64 1.10751 20 1.55001 20H18.45C18.8925 20 19.25 19.6425 19.25 19.2V10.5751C19.4024 10.347 19.5329 10.1051 19.64 9.85255C19.8775 9.29505 20 8.70255 20 8.09256V4.80006C20 4.37506 19.6675 4.02756 19.25 4.00256ZM2.55001 1.80006H17.45V4.00006H2.55001V1.80006ZM11.6 18.2025H8.40001V15.6H11.6V18.2025ZM17.45 18.2025H13.2V14.8001C13.2 14.3576 12.8425 14.0001 12.4 14.0001H7.60001C7.15751 14.0001 6.80001 14.3576 6.80001 14.8001V18.2025H2.55001V12.1476C2.62251 12.1826 2.69751 12.2176 2.77501 12.2476C3.33251 12.4826 3.92501 12.6001 4.53501 12.6001C5.14501 12.6001 5.73501 12.4826 6.29501 12.2476C6.64001 12.1026 6.96501 11.9176 7.26251 11.6951C7.26751 11.6926 7.27251 11.6926 7.27751 11.6951C7.57593 11.9185 7.90091 12.1041 8.24501 12.2476C8.80251 12.4826 9.39501 12.6001 10.005 12.6001C10.615 12.6001 11.205 12.4826 11.765 12.2476C12.11 12.1026 12.435 11.9176 12.7325 11.6951C12.7375 11.6926 12.7425 11.6926 12.7475 11.6951C13.0459 11.9185 13.3709 12.1041 13.715 12.2476C14.2725 12.4826 14.865 12.6001 15.475 12.6001C16.085 12.6001 16.675 12.4826 17.235 12.2476C17.31 12.2151 17.385 12.1826 17.46 12.1476V18.2025H17.45ZM18.2 8.09256C18.2 9.58755 16.975 10.8001 15.4675 10.8001C14.4475 10.8001 13.5575 10.2476 13.0875 9.42755C13.015 9.30255 12.885 9.22505 12.74 9.22505H12.725C12.5825 9.22505 12.45 9.30255 12.3775 9.42755C12.1377 9.84585 11.7913 10.1932 11.3737 10.4342C10.9562 10.6753 10.4822 10.8015 10 10.8001C8.98251 10.8001 8.09501 10.2501 7.62501 9.43255C7.55001 9.30505 7.41501 9.22505 7.26751 9.22505C7.12001 9.22505 6.98251 9.30505 6.91001 9.43255C6.66876 9.84924 6.322 10.195 5.90462 10.4351C5.48725 10.6752 5.014 10.801 4.53251 10.8001C3.02501 10.8001 1.80001 9.58755 1.80001 8.09256V5.81256C1.80001 5.80506 1.80501 5.80006 1.81251 5.80006H18.1875C18.195 5.80006 18.2 5.80506 18.2 5.81256V8.09256V8.09256Z" fill="black"/>
</svg>
