<svg width="21" height="20" viewBox="0 0 21 20" fill="none" xmlns="http://www.w3.org/2000/svg">
<g clip-path="url(#clip0_1_503)">
<path d="M19.3088 4.00256V0.80006C19.3088 0.357561 18.9513 6.10352e-05 18.5088 6.10352e-05H1.60885C1.16635 6.10352e-05 0.808853 0.357561 0.808853 0.80006V4.00256C0.391353 4.02756 0.0588534 4.37506 0.0588534 4.80006V8.09256C0.0572524 8.69767 0.179777 9.29667 0.418853 9.85255C0.526353 10.1076 0.658853 10.3476 0.808853 10.5751V19.2C0.808853 19.64 1.16635 20 1.60885 20H18.5088C18.9513 20 19.3088 19.6425 19.3088 19.2V10.5751C19.4612 10.347 19.5918 10.1051 19.6988 9.85255C19.9363 9.29505 20.0588 8.70255 20.0588 8.09256V4.80006C20.0588 4.37506 19.7263 4.02756 19.3088 4.00256ZM2.60885 1.80006H17.5088V4.00006H2.60885V1.80006ZM11.6588 18.2025H8.45885V15.6H11.6588V18.2025ZM17.5088 18.2025H13.2588V14.8001C13.2588 14.3576 12.9013 14.0001 12.4588 14.0001H7.65885C7.21635 14.0001 6.85885 14.3576 6.85885 14.8001V18.2025H2.60885V12.1476C2.68135 12.1826 2.75635 12.2176 2.83385 12.2476C3.39135 12.4826 3.98385 12.6001 4.59385 12.6001C5.20385 12.6001 5.79385 12.4826 6.35385 12.2476C6.69885 12.1026 7.02385 11.9176 7.32135 11.6951C7.32635 11.6926 7.33135 11.6926 7.33635 11.6951C7.63477 11.9185 7.95975 12.1041 8.30385 12.2476C8.86135 12.4826 9.45385 12.6001 10.0638 12.6001C10.6738 12.6001 11.2638 12.4826 11.8238 12.2476C12.1688 12.1026 12.4938 11.9176 12.7913 11.6951C12.7963 11.6926 12.8013 11.6926 12.8063 11.6951C13.1048 11.9185 13.4297 12.1041 13.7738 12.2476C14.3313 12.4826 14.9238 12.6001 15.5338 12.6001C16.1438 12.6001 16.7338 12.4826 17.2938 12.2476C17.3688 12.2151 17.4438 12.1826 17.5188 12.1476V18.2025H17.5088ZM18.2588 8.09256C18.2588 9.58755 17.0338 10.8001 15.5263 10.8001C14.5063 10.8001 13.6163 10.2476 13.1463 9.42755C13.0738 9.30255 12.9438 9.22505 12.7988 9.22505H12.7838C12.6413 9.22505 12.5088 9.30255 12.4363 9.42755C12.1965 9.84585 11.8502 10.1932 11.4326 10.4342C11.015 10.6753 10.541 10.8015 10.0588 10.8001C9.04135 10.8001 8.15385 10.2501 7.68385 9.43255C7.60885 9.30505 7.47385 9.22505 7.32635 9.22505C7.17885 9.22505 7.04135 9.30505 6.96885 9.43255C6.7276 9.84924 6.38083 10.195 5.96346 10.4351C5.54609 10.6752 5.07284 10.801 4.59135 10.8001C3.08385 10.8001 1.85885 9.58755 1.85885 8.09256V5.81256C1.85885 5.80506 1.86385 5.80006 1.87135 5.80006H18.2463C18.2538 5.80006 18.2588 5.80506 18.2588 5.81256V8.09256V8.09256Z" fill="black"/>
</g>
<defs>
<clipPath id="clip0_1_503">
<rect width="20" height="20" fill="white" transform="translate(0.0588379 6.10352e-05)"/>
</clipPath>
</defs>
</svg>
