<svg width="21" height="20" viewBox="0 0 21 20" fill="none" xmlns="http://www.w3.org/2000/svg">
<g clip-path="url(#clip0_1_511)">
<path d="M19.2696 13.6863H5.99352L6.66011 12.3354L17.7358 12.3154C18.1103 12.3154 18.4314 12.0492 18.4983 11.681L20.0321 3.13847C20.0722 2.91442 20.012 2.68372 19.8649 2.50848C19.7922 2.42224 19.7014 2.35276 19.599 2.30488C19.4966 2.257 19.385 2.23186 19.2719 2.2312L5.18201 2.18461L5.06163 1.62117C4.98583 1.26182 4.66033 1.00006 4.29025 1.00006H0.845818C0.637098 1.00006 0.436927 1.08256 0.289339 1.22941C0.141752 1.37626 0.0588379 1.57543 0.0588379 1.78311C0.0588379 1.99079 0.141752 2.18996 0.289339 2.33681C0.436927 2.48366 0.637098 2.56616 0.845818 2.56616H3.65264L4.17878 5.05505L5.47407 11.295L3.80647 14.0035C3.71987 14.1198 3.66771 14.2579 3.65589 14.4022C3.64407 14.5464 3.67306 14.6911 3.73959 14.8198C3.87335 15.0838 4.14311 15.2502 4.44185 15.2502H5.84192C5.54344 15.6446 5.38222 16.1251 5.38266 16.6189C5.38266 17.8744 6.40819 18.8948 7.67003 18.8948C8.93187 18.8948 9.9574 17.8744 9.9574 16.6189C9.9574 16.1242 9.79242 15.6428 9.49814 15.2502H13.0897C12.7912 15.6446 12.63 16.1251 12.6305 16.6189C12.6305 17.8744 13.656 18.8948 14.9178 18.8948C16.1797 18.8948 17.2052 17.8744 17.2052 16.6189C17.2052 16.1242 17.0402 15.6428 16.7459 15.2502H19.2719C19.7044 15.2502 20.0588 14.8997 20.0588 14.4671C20.0575 14.2597 19.9738 14.0612 19.826 13.9149C19.6781 13.7686 19.4781 13.6864 19.2696 13.6863V13.6863ZM5.50974 3.72853L18.3467 3.77067L17.0893 10.776L7.00567 10.7937L5.50974 3.72853ZM7.67003 17.3198C7.28211 17.3198 6.96554 17.0048 6.96554 16.6189C6.96554 16.2329 7.28211 15.9179 7.67003 15.9179C8.05795 15.9179 8.37452 16.2329 8.37452 16.6189C8.37452 16.8048 8.3003 16.9831 8.16818 17.1145C8.03606 17.246 7.85687 17.3198 7.67003 17.3198V17.3198ZM14.9178 17.3198C14.5299 17.3198 14.2133 17.0048 14.2133 16.6189C14.2133 16.2329 14.5299 15.9179 14.9178 15.9179C15.3057 15.9179 15.6223 16.2329 15.6223 16.6189C15.6223 16.8048 15.5481 16.9831 15.416 17.1145C15.2839 17.246 15.1047 17.3198 14.9178 17.3198V17.3198Z" fill="black"/>
</g>
<defs>
<clipPath id="clip0_1_511">
<rect width="20" height="20" fill="white" transform="translate(0.0588379 6.10352e-05)"/>
</clipPath>
</defs>
</svg>
