<svg width="21" height="20" viewBox="0 0 21 20" fill="none" xmlns="http://www.w3.org/2000/svg">
<g clip-path="url(#clip0_1_510)">
<path d="M14.6043 4.72733H13.6952V3.81824C13.6952 2.81824 12.877 2.00006 11.877 2.00006H8.24066C7.24066 2.00006 6.42247 2.81824 6.42247 3.81824V4.72733H5.51338C2.50429 4.72733 0.0588379 7.17279 0.0588379 10.1819C0.0588379 13.191 2.50429 15.6364 5.51338 15.6364V18.3637H7.33157V15.6364H12.7861V18.3637H14.6043V15.6364C17.6134 15.6364 20.0588 13.191 20.0588 10.1819C20.0588 7.17279 17.6134 4.72733 14.6043 4.72733ZM8.24066 3.81824H11.877V4.72733H8.24066V3.81824ZM14.6043 13.8182H5.51338C3.50429 13.8182 1.87702 12.191 1.87702 10.1819C1.87702 8.17279 3.50429 6.54552 5.51338 6.54552H14.6043C16.6134 6.54552 18.2407 8.17279 18.2407 10.1819C18.2407 12.191 16.6134 13.8182 14.6043 13.8182Z" fill="black"/>
</g>
<defs>
<clipPath id="clip0_1_510">
<rect width="20" height="20" fill="white" transform="translate(0.0588379 6.10352e-05)"/>
</clipPath>
</defs>
</svg>
