<svg width="24" height="24" viewBox="0 0 24 24" fill="none" xmlns="http://www.w3.org/2000/svg">
<path d="M12 22C10.6318 22 9.3443 21.7386 8.13746 21.2159C6.93062 20.6996 5.86576 19.98 4.94288 19.0571C4.02646 18.1342 3.30687 17.0694 2.78412 15.8625C2.26137 14.6557 2 13.3682 2 12C2 10.6318 2.26137 9.3443 2.78412 8.13746C3.30687 6.93062 4.02646 5.86899 4.94288 4.95257C5.86576 4.02969 6.9274 3.30687 8.12778 2.78412C9.33462 2.26137 10.6221 2 11.9903 2C13.365 2 14.6557 2.26137 15.8625 2.78412C17.0694 3.30687 18.1342 4.02969 19.0571 4.95257C19.98 5.86899 20.7028 6.93062 21.2256 8.13746C21.7483 9.3443 22.0097 10.6318 22.0097 12C22.0097 13.3682 21.7483 14.6557 21.2256 15.8625C20.7028 17.0694 19.98 18.1342 19.0571 19.0571C18.1342 19.98 17.0694 20.6996 15.8625 21.2159C14.6557 21.7386 13.3682 22 12 22ZM12 20.0252C13.1165 20.0252 14.1588 19.8187 15.1268 19.4056C16.0949 18.9926 16.9468 18.4182 17.6825 17.6825C18.4182 16.9468 18.9926 16.0949 19.4056 15.1268C19.8186 14.1588 20.0252 13.1165 20.0252 12C20.0252 10.89 19.8186 9.85092 19.4056 8.88287C18.9926 7.90836 18.4182 7.05324 17.6825 6.31752C16.9468 5.5818 16.0916 5.00742 15.1171 4.59439C14.1491 4.18135 13.1068 3.97483 11.9903 3.97483C10.8803 3.97483 9.83801 4.18135 8.8635 4.59439C7.89545 5.00742 7.04679 5.5818 6.31752 6.31752C5.58825 7.05324 5.0171 7.90836 4.60407 8.88287C4.19103 9.85092 3.98451 10.89 3.98451 12C3.98451 13.1165 4.19103 14.1588 4.60407 15.1268C5.0171 16.0949 5.58825 16.9468 6.31752 17.6825C7.05324 18.4182 7.90513 18.9926 8.87318 19.4056C9.84769 19.8187 10.89 20.0252 12 20.0252ZM8.57309 7.51791C8.72152 7.36947 8.88609 7.30171 9.0668 7.31462C9.25395 7.32107 9.41207 7.38883 9.54114 7.51791L11.8935 9.92836C12.029 10.0574 12.0968 10.2123 12.0968 10.393C12.0968 10.5931 12.0355 10.7544 11.9129 10.8771C11.7903 10.9932 11.6354 11.0513 11.4482 11.0513C11.2611 11.0513 11.1062 10.99 10.9835 10.8674L10.0058 9.84124L9.70571 9.5121L9.72507 9.99613V16.0561C9.72507 16.2369 9.66054 16.3885 9.53146 16.5111C9.40884 16.6338 9.25073 16.6951 9.05711 16.6951C8.86996 16.6951 8.71184 16.6338 8.58277 16.5111C8.46015 16.3885 8.39884 16.2369 8.39884 16.0561V10.0058L8.4182 9.5121L8.10842 9.84124L7.13069 10.8577C7.00161 10.9868 6.84672 11.0513 6.66602 11.0513C6.48532 11.0513 6.33043 10.99 6.20135 10.8674C6.07873 10.7448 6.01742 10.5866 6.01742 10.393C6.01742 10.2317 6.08519 10.0768 6.22072 9.92836L8.57309 7.51791ZM15.4172 16.5015C15.2752 16.6434 15.1042 16.7112 14.9042 16.7047C14.7106 16.6918 14.5524 16.6241 14.4298 16.5015L12.0774 14.091C11.9484 13.949 11.8838 13.7909 11.8838 13.6167C11.8838 13.423 11.9419 13.2682 12.0581 13.152C12.1807 13.0294 12.3388 12.9681 12.5324 12.9681C12.7131 12.9681 12.868 13.0326 12.9971 13.1617L13.9651 14.1684L14.2749 14.4976L14.2556 14.0329V7.96321C14.2556 7.77606 14.3201 7.62117 14.4492 7.49855C14.5782 7.36947 14.7364 7.30494 14.9235 7.30494C15.1107 7.30494 15.2688 7.36947 15.3979 7.49855C15.5269 7.62117 15.5915 7.77606 15.5915 7.96321V14.0232L15.5721 14.4879L15.8722 14.1684L16.85 13.1617C16.9661 13.0326 17.1178 12.9681 17.3049 12.9681C17.505 12.9681 17.6631 13.0294 17.7793 13.152C17.9019 13.2746 17.9632 13.4295 17.9632 13.6167C17.9632 13.7909 17.8954 13.949 17.7599 14.091L15.4172 16.5015Z" fill="black"/>
</svg>
