<svg width="24" height="24" viewBox="0 0 24 24" fill="none" xmlns="http://www.w3.org/2000/svg">
<path d="M13.2295 22C13.3811 22 13.5046 21.951 13.6 21.853C13.7011 21.755 13.7656 21.6282 13.7937 21.4725C13.9172 20.5445 14.0519 19.7605 14.1979 19.1206C14.3439 18.4865 14.5375 17.9648 14.7789 17.5556C15.0204 17.1405 15.3375 16.8119 15.7305 16.5698C16.1235 16.3277 16.6232 16.1375 17.2295 15.9991C17.8414 15.855 18.5909 15.7311 19.4779 15.6273C19.6295 15.61 19.753 15.5466 19.8484 15.4371C19.9495 15.3276 20 15.1979 20 15.048C20 14.8981 19.9523 14.7713 19.8568 14.6675C19.7614 14.558 19.6351 14.4917 19.4779 14.4687C18.5909 14.3591 17.8442 14.2352 17.2379 14.0968C16.6372 13.9527 16.1404 13.7596 15.7474 13.5175C15.3544 13.2696 15.0372 12.9411 14.7958 12.5318C14.56 12.1225 14.3663 11.6008 14.2147 10.9667C14.0632 10.3326 13.9228 9.55152 13.7937 8.62343C13.7656 8.46779 13.7011 8.34385 13.6 8.25162C13.4989 8.15362 13.3754 8.10463 13.2295 8.10463C13.0891 8.10463 12.9656 8.15362 12.8589 8.25162C12.7579 8.34385 12.6961 8.46779 12.6737 8.62343C12.5558 9.55152 12.4211 10.3355 12.2695 10.9754C12.1235 11.6095 11.9298 12.1311 11.6884 12.5404C11.447 12.9497 11.1298 13.2783 10.7368 13.5262C10.3439 13.774 9.8414 13.97 9.22947 14.1141C8.62316 14.2525 7.87649 14.3707 6.98947 14.4687C6.83228 14.4859 6.70316 14.5494 6.60211 14.6589C6.50667 14.7684 6.45895 14.8981 6.45895 15.048C6.45895 15.1979 6.50667 15.3276 6.60211 15.4371C6.70316 15.5466 6.83228 15.61 6.98947 15.6273C7.87649 15.7484 8.62035 15.8838 9.22105 16.0337C9.82737 16.1836 10.3242 16.3796 10.7116 16.6217C11.0989 16.8638 11.4133 17.1866 11.6547 17.5901C11.8961 17.9937 12.0926 18.5096 12.2442 19.1379C12.3958 19.7662 12.5389 20.5445 12.6737 21.4725C12.7018 21.6282 12.7663 21.755 12.8674 21.853C12.9684 21.951 13.0891 22 13.2295 22ZM7.31789 12.3934C7.41333 12.3934 7.49193 12.3646 7.55368 12.307C7.61544 12.2436 7.65193 12.1657 7.66316 12.0735C7.73614 11.5086 7.80912 11.0676 7.88211 10.7505C7.9607 10.4277 8.0814 10.1856 8.24421 10.0242C8.40702 9.8628 8.65123 9.73887 8.97684 9.6524C9.30246 9.56017 9.75719 9.45929 10.3411 9.34976C10.5432 9.30941 10.6442 9.19124 10.6442 8.99524C10.6442 8.89725 10.6133 8.81654 10.5516 8.75313C10.4954 8.68972 10.4225 8.65226 10.3326 8.64073C9.75439 8.56002 9.30246 8.47932 8.97684 8.39862C8.65123 8.31791 8.40702 8.19398 8.24421 8.0268C8.0814 7.85963 7.9607 7.61176 7.88211 7.28318C7.80912 6.9546 7.73614 6.49921 7.66316 5.91699C7.6407 5.69794 7.52561 5.58841 7.31789 5.58841C7.11579 5.58841 7.00351 5.70082 6.98105 5.92564C6.91368 6.49633 6.8407 6.94019 6.76211 7.25724C6.68912 7.57429 6.56842 7.81352 6.4 7.97492C6.23719 8.13057 5.99018 8.2545 5.65895 8.34674C5.33333 8.4332 4.8814 8.5312 4.30316 8.64073C4.10105 8.67531 4 8.79349 4 8.99524C4 9.197 4.11509 9.31518 4.34526 9.34976C4.91228 9.44199 5.35579 9.53134 5.67579 9.61781C6.0014 9.69852 6.24561 9.82245 6.40842 9.98962C6.57123 10.151 6.68912 10.396 6.76211 10.7246C6.8407 11.0474 6.91368 11.4913 6.98105 12.0562C7.00351 12.281 7.11579 12.3934 7.31789 12.3934ZM11.4105 6.28016C11.5284 6.28016 11.6014 6.21675 11.6295 6.08993C11.6856 5.73829 11.7389 5.46159 11.7895 5.25984C11.84 5.05808 11.913 4.90532 12.0084 4.80156C12.1095 4.6978 12.2582 4.61709 12.4547 4.55945C12.6568 4.5018 12.9404 4.43551 13.3053 4.36057C13.4344 4.33751 13.4989 4.26546 13.4989 4.1444C13.4989 4.02335 13.4344 3.94841 13.3053 3.91958C12.9404 3.85041 12.6568 3.78988 12.4547 3.738C12.2582 3.68036 12.1123 3.59965 12.0168 3.49589C11.9214 3.39213 11.8484 3.23937 11.7979 3.03761C11.7474 2.83586 11.6912 2.55628 11.6295 2.19888C11.6014 2.06629 11.5284 2 11.4105 2C11.2926 2 11.2225 2.06917 11.2 2.20752C11.1326 2.55916 11.0737 2.83297 11.0232 3.02897C10.9782 3.22496 10.9053 3.37484 10.8042 3.4786C10.7088 3.58236 10.56 3.66306 10.3579 3.72071C10.1614 3.77835 9.8807 3.84465 9.51579 3.91958C9.38667 3.94841 9.32211 4.02335 9.32211 4.1444C9.32211 4.26546 9.38947 4.33751 9.52421 4.36057C9.88351 4.42974 10.1614 4.49604 10.3579 4.55945C10.56 4.61709 10.7116 4.6978 10.8126 4.80156C10.9137 4.89955 10.9867 5.04943 11.0316 5.25119C11.0821 5.45295 11.1382 5.73253 11.2 6.08993C11.2225 6.21675 11.2926 6.28016 11.4105 6.28016Z" fill="black"/>
</svg>
