<svg width="21" height="20" viewBox="0 0 21 20" fill="none" xmlns="http://www.w3.org/2000/svg">
<g clip-path="url(#clip0_1_509)">
<path d="M11.2883 20.0001C11.4399 20.0001 11.5634 19.9511 11.6588 19.8531C11.7599 19.7551 11.8245 19.6282 11.8525 19.4726C11.976 18.5445 12.1108 17.7605 12.2567 17.1207C12.4027 16.4866 12.5964 15.9649 12.8378 15.5556C13.0792 15.1406 13.3964 14.812 13.7894 14.5699C14.1823 14.3278 14.682 14.1375 15.2883 13.9992C15.9002 13.8551 16.6497 13.7311 17.5367 13.6274C17.6883 13.6101 17.8118 13.5467 17.9073 13.4372C18.0083 13.3276 18.0588 13.1979 18.0588 13.0481C18.0588 12.8982 18.0111 12.7714 17.9157 12.6676C17.8202 12.5581 17.6939 12.4918 17.5367 12.4687C16.6497 12.3592 15.903 12.2353 15.2967 12.0969C14.696 11.9528 14.1992 11.7597 13.8062 11.5176C13.4132 11.2697 13.096 10.9411 12.8546 10.5318C12.6188 10.1226 12.4252 9.60087 12.2736 8.96677C12.122 8.33267 11.9816 7.55158 11.8525 6.62349C11.8245 6.46785 11.7599 6.34391 11.6588 6.25168C11.5578 6.15369 11.4343 6.10469 11.2883 6.10469C11.148 6.10469 11.0245 6.15369 10.9178 6.25168C10.8167 6.34391 10.755 6.46785 10.7325 6.62349C10.6146 7.55158 10.4799 8.33556 10.3283 8.97542C10.1823 9.60951 9.98866 10.1312 9.74726 10.5405C9.50586 10.9498 9.18866 11.2783 8.79568 11.5262C8.4027 11.7741 7.90024 11.9701 7.28831 12.1142C6.682 12.2525 5.93533 12.3707 5.04831 12.4687C4.89112 12.486 4.762 12.5494 4.66094 12.6589C4.5655 12.7685 4.51779 12.8982 4.51779 13.0481C4.51779 13.1979 4.5655 13.3276 4.66094 13.4372C4.762 13.5467 4.89112 13.6101 5.04831 13.6274C5.93533 13.7484 6.67919 13.8839 7.27989 14.0338C7.88621 14.1837 8.38305 14.3797 8.77042 14.6218C9.15779 14.8639 9.47217 15.1867 9.71358 15.5902C9.95498 15.9937 10.1515 16.5096 10.303 17.138C10.4546 17.7663 10.5978 18.5445 10.7325 19.4726C10.7606 19.6282 10.8252 19.7551 10.9262 19.8531C11.0273 19.9511 11.148 20.0001 11.2883 20.0001ZM5.37673 10.3935C5.47217 10.3935 5.55077 10.3647 5.61252 10.307C5.67428 10.2436 5.71077 10.1658 5.722 10.0736C5.79498 9.50864 5.86796 9.06765 5.94094 8.7506C6.01954 8.42779 6.14024 8.18568 6.30305 8.02427C6.46586 7.86287 6.71007 7.73893 7.03568 7.65246C7.36129 7.56023 7.81603 7.45935 8.39989 7.34982C8.602 7.30947 8.70305 7.1913 8.70305 6.99531C8.70305 6.89731 8.67217 6.81661 8.61042 6.7532C8.55428 6.68979 8.48129 6.65232 8.39147 6.64079C7.81322 6.56008 7.36129 6.47938 7.03568 6.39868C6.71007 6.31797 6.46586 6.19404 6.30305 6.02687C6.14024 5.85969 6.01954 5.61182 5.94094 5.28324C5.86796 4.95467 5.79498 4.49927 5.722 3.91705C5.69954 3.698 5.58445 3.58847 5.37673 3.58847C5.17463 3.58847 5.06235 3.70088 5.03989 3.9257C4.97252 4.49639 4.89954 4.94025 4.82094 5.2573C4.74796 5.57435 4.62726 5.81358 4.45884 5.97499C4.29603 6.13063 4.04901 6.25456 3.71779 6.3468C3.39217 6.43326 2.94024 6.53126 2.362 6.64079C2.15989 6.67537 2.05884 6.79355 2.05884 6.99531C2.05884 7.19706 2.17393 7.31524 2.4041 7.34982C2.97112 7.44206 3.41463 7.53141 3.73463 7.61787C4.06024 7.69858 4.30445 7.82251 4.46726 7.98968C4.63007 8.15109 4.74796 8.39608 4.82094 8.72466C4.89954 9.04747 4.97252 9.49134 5.03989 10.0563C5.06235 10.2811 5.17463 10.3935 5.37673 10.3935ZM9.46936 4.28022C9.58726 4.28022 9.66024 4.21681 9.68831 4.08999C9.74445 3.73835 9.79779 3.46165 9.84831 3.2599C9.89884 3.05814 9.97182 2.90538 10.0673 2.80162C10.1683 2.69786 10.3171 2.61715 10.5136 2.55951C10.7157 2.50186 10.9992 2.43557 11.3641 2.36063C11.4932 2.33757 11.5578 2.26552 11.5578 2.14446C11.5578 2.02341 11.4932 1.94847 11.3641 1.91965C10.9992 1.85047 10.7157 1.78994 10.5136 1.73806C10.3171 1.68042 10.1711 1.59972 10.0757 1.49595C9.98024 1.39219 9.90726 1.23943 9.85673 1.03767C9.80621 0.835916 9.75007 0.556337 9.68831 0.198937C9.66024 0.066353 9.58726 6.10352e-05 9.46936 6.10352e-05C9.35147 6.10352e-05 9.28129 0.0692353 9.25884 0.207584C9.19147 0.559219 9.13252 0.833034 9.082 1.02903C9.03708 1.22502 8.9641 1.3749 8.86305 1.47866C8.76761 1.58242 8.61884 1.66312 8.41673 1.72077C8.22024 1.77842 7.93954 1.84471 7.57463 1.91965C7.4455 1.94847 7.38094 2.02341 7.38094 2.14446C7.38094 2.26552 7.44831 2.33757 7.58305 2.36063C7.94235 2.42981 8.22024 2.4961 8.41673 2.55951C8.61884 2.61715 8.77042 2.69786 8.87147 2.80162C8.97252 2.89961 9.0455 3.04949 9.09042 3.25125C9.14094 3.45301 9.19708 3.73259 9.25884 4.08999C9.28129 4.21681 9.35147 4.28022 9.46936 4.28022Z" fill="black"/>
</g>
<defs>
<clipPath id="clip0_1_509">
<rect width="20" height="20" fill="white" transform="translate(0.0588379 6.10352e-05)"/>
</clipPath>
</defs>
</svg>
