<svg width="24" height="24" viewBox="0 0 24 24" fill="none" xmlns="http://www.w3.org/2000/svg">
<path d="M11.9953 21.9905C10.626 21.9905 9.3387 21.7287 8.13346 21.2049C6.92822 20.6875 5.86496 19.9681 4.94368 19.0469C4.0224 18.1319 3.29989 17.0718 2.77615 15.8665C2.25872 14.6613 2 13.3709 2 11.9953C2 10.626 2.25872 9.3387 2.77615 8.13346C3.29989 6.92822 4.01925 5.86496 4.93422 4.94368C5.8555 4.0224 6.91876 3.30304 8.12399 2.78561C9.33554 2.26187 10.626 2 11.9953 2C13.3646 2 14.6518 2.26187 15.8571 2.78561C17.0686 3.30304 18.1319 4.0224 19.0469 4.94368C19.9681 5.86496 20.6906 6.92822 21.2144 8.13346C21.7381 9.3387 22 10.626 22 11.9953C22 13.3709 21.7381 14.6613 21.2144 15.8665C20.6906 17.0718 19.9681 18.1319 19.0469 19.0469C18.1319 19.9681 17.0718 20.6875 15.8665 21.2049C14.6613 21.7287 13.3709 21.9905 11.9953 21.9905ZM9.03265 16.7657H14.7591C15.2324 16.7657 15.6173 16.6111 15.9139 16.3019C16.2104 15.9864 16.3587 15.5637 16.3587 15.0336V9.97918L15.0999 11.238V14.9673C15.0999 15.1377 15.0652 15.2702 14.9957 15.3649C14.9263 15.4532 14.8443 15.4974 14.7496 15.4974H9.05159C8.90014 15.4974 8.77709 15.4532 8.68244 15.3649C8.5941 15.2702 8.54993 15.1377 8.54993 14.9673V9.47752C8.54993 9.30715 8.5941 9.17779 8.68244 9.08945C8.77709 8.99479 8.90014 8.94747 9.05159 8.94747H12.8566L14.1344 7.66966H9.03265C8.49629 7.66966 8.0672 7.83057 7.74539 8.15239C7.42988 8.4679 7.27212 8.89068 7.27212 9.42073V15.0336C7.27212 15.5637 7.42988 15.9864 7.74539 16.3019C8.0672 16.6111 8.49629 16.7657 9.03265 16.7657ZM10.8121 13.576L11.8344 13.15L16.1789 8.80549L15.2513 7.89683L10.9257 12.2414L10.4619 13.2068C10.4051 13.3204 10.4209 13.4214 10.5092 13.5097C10.6039 13.598 10.7048 13.6201 10.8121 13.576ZM16.6522 8.32276L17.1159 7.82111C17.2169 7.70752 17.2674 7.57817 17.2674 7.43303C17.2737 7.2879 17.2232 7.16485 17.1159 7.06389L16.9834 6.93138C16.8762 6.81779 16.7468 6.76731 16.5954 6.77993C16.4439 6.78624 16.3114 6.84303 16.1978 6.95031L15.7435 7.40464L16.6522 8.32276Z" fill="black"/>
</svg>
