<svg width="24" height="24" viewBox="0 0 24 24" fill="none" xmlns="http://www.w3.org/2000/svg">
<path d="M11.9957 16.745C11.3442 16.745 10.7327 16.6221 10.1612 16.3763C9.58966 16.1249 9.08387 15.782 8.64381 15.3476C8.20946 14.9076 7.86941 14.4018 7.62366 13.8303C7.37791 13.2588 7.25504 12.6501 7.25504 12.0043C7.25504 11.3528 7.37791 10.7412 7.62366 10.1697C7.86941 9.59251 8.20946 9.08673 8.64381 8.65238C9.08387 8.21803 9.58966 7.87798 10.1612 7.63223C10.7327 7.38077 11.3442 7.25504 11.9957 7.25504C12.6415 7.25504 13.2502 7.38077 13.8217 7.63223C14.3932 7.87798 14.8961 8.21803 15.3305 8.65238C15.7705 9.08673 16.1134 9.59251 16.3592 10.1697C16.6049 10.7412 16.7278 11.3528 16.7278 12.0043C16.7278 12.6501 16.6049 13.2588 16.3592 13.8303C16.1134 14.4018 15.7705 14.9076 15.3305 15.3476C14.8961 15.782 14.3932 16.1249 13.8217 16.3763C13.2502 16.6221 12.6415 16.745 11.9957 16.745ZM11.9957 5.78911C11.71 5.78911 11.4614 5.68624 11.2499 5.4805C11.0441 5.26904 10.9413 5.02043 10.9413 4.73468V3.06301C10.9413 2.77725 11.0441 2.52865 11.2499 2.31719C11.4614 2.10573 11.71 2 11.9957 2C12.2815 2 12.5272 2.10573 12.733 2.31719C12.9444 2.52865 13.0501 2.77725 13.0501 3.06301V4.73468C13.0501 5.02043 12.9444 5.26904 12.733 5.4805C12.5272 5.68624 12.2815 5.78911 11.9957 5.78911ZM16.3935 7.64081C16.1877 7.43506 16.082 7.18646 16.0763 6.89498C16.0763 6.5978 16.1763 6.34919 16.3763 6.14916L17.5679 4.94899C17.768 4.74896 18.0137 4.64895 18.3052 4.64895C18.6024 4.64323 18.851 4.74039 19.051 4.94042C19.2568 5.14045 19.3596 5.39191 19.3596 5.69481C19.3653 5.992 19.2682 6.23775 19.0682 6.43206L17.8851 7.62366C17.6794 7.8294 17.4279 7.93513 17.1307 7.94085C16.8393 7.94085 16.5935 7.84083 16.3935 7.64081ZM18.2109 12.0043C18.2109 11.7128 18.3138 11.4642 18.5195 11.2585C18.731 11.047 18.9796 10.9413 19.2653 10.9413H20.937C21.2227 10.9413 21.4685 11.047 21.6742 11.2585C21.8857 11.4642 21.9914 11.7128 21.9914 12.0043C21.9914 12.29 21.8857 12.5358 21.6742 12.7415C21.4685 12.9473 21.2227 13.0501 20.937 13.0501H19.2653C18.9796 13.0501 18.731 12.9473 18.5195 12.7415C18.3138 12.5358 18.2109 12.29 18.2109 12.0043ZM16.3763 16.3849C16.5821 16.1849 16.8307 16.0849 17.1222 16.0849C17.4193 16.0792 17.668 16.1735 17.868 16.3678L19.0596 17.5594C19.2653 17.7594 19.3682 18.0051 19.3682 18.2966C19.3739 18.5938 19.2768 18.8424 19.0767 19.0424C18.871 19.2425 18.6195 19.3453 18.3223 19.351C18.0309 19.3568 17.7851 19.2625 17.5851 19.0682L16.3935 17.868C16.1877 17.668 16.082 17.4222 16.0763 17.1307C16.0763 16.8335 16.1763 16.5849 16.3763 16.3849ZM11.9957 18.2109C12.2815 18.2109 12.5272 18.3138 12.733 18.5195C12.9444 18.731 13.0501 18.9796 13.0501 19.2653V20.937C13.0501 21.2227 12.9444 21.4714 12.733 21.6828C12.5272 21.8943 12.2815 22 11.9957 22C11.71 22 11.4614 21.8943 11.2499 21.6828C11.0441 21.4714 10.9413 21.2227 10.9413 20.937V19.2653C10.9413 18.9796 11.0441 18.731 11.2499 18.5195C11.4614 18.3138 11.71 18.2109 11.9957 18.2109ZM7.61509 16.3849C7.8094 16.5849 7.9037 16.8335 7.89799 17.1307C7.89799 17.4222 7.79797 17.668 7.59794 17.868L6.40634 19.0596C6.20632 19.2539 5.95771 19.3482 5.66052 19.3425C5.36334 19.3425 5.11187 19.2425 4.90613 19.0424C4.71182 18.8367 4.61466 18.5852 4.61466 18.288C4.62037 17.9966 4.7261 17.7508 4.93185 17.5508L6.11487 16.3678C6.3149 16.1735 6.56351 16.0792 6.86069 16.0849C7.15788 16.0849 7.40934 16.1849 7.61509 16.3849ZM5.78911 12.0043C5.78911 12.29 5.68338 12.5358 5.47192 12.7415C5.26047 12.9473 5.01186 13.0501 4.7261 13.0501H3.05444C2.76868 13.0501 2.52007 12.9473 2.30862 12.7415C2.10287 12.5358 2 12.29 2 12.0043C2 11.7128 2.10287 11.4642 2.30862 11.2585C2.52007 11.047 2.76868 10.9413 3.05444 10.9413H4.7261C5.01186 10.9413 5.26047 11.047 5.47192 11.2585C5.68338 11.4642 5.78911 11.7128 5.78911 12.0043ZM7.59794 7.64081C7.39791 7.84083 7.14931 7.94085 6.85212 7.94085C6.55494 7.93513 6.30633 7.8294 6.1063 7.62366L4.92327 6.43206C4.72896 6.23775 4.6318 5.992 4.6318 5.69481C4.63752 5.39191 4.74039 5.14045 4.94042 4.94042C5.14045 4.74039 5.38906 4.64323 5.68624 4.64895C5.98343 4.65466 6.23203 4.75468 6.43206 4.94899L7.61509 6.14916C7.8094 6.34348 7.9037 6.59208 7.89799 6.89498C7.89799 7.19217 7.79797 7.44078 7.59794 7.64081Z" fill="black"/>
</svg>
