<svg width="24" height="24" viewBox="0 0 24 24" fill="none" xmlns="http://www.w3.org/2000/svg">
<path d="M11.9953 21.9905C10.626 21.9905 9.3387 21.7287 8.13346 21.2049C6.92822 20.6875 5.86496 19.9681 4.94368 19.0469C4.0224 18.1319 3.29989 17.0718 2.77615 15.8665C2.25872 14.6613 2 13.3709 2 11.9953C2 10.626 2.25872 9.3387 2.77615 8.13346C3.29989 6.92822 4.01925 5.86496 4.93422 4.94368C5.8555 4.0224 6.91876 3.30304 8.12399 2.78561C9.33554 2.26187 10.626 2 11.9953 2C13.3646 2 14.6518 2.26187 15.8571 2.78561C17.0686 3.30304 18.1319 4.0224 19.0469 4.94368C19.9681 5.86496 20.6906 6.92822 21.2144 8.13346C21.7381 9.3387 22 10.626 22 11.9953C22 13.3709 21.7381 14.6613 21.2144 15.8665C20.6906 17.0718 19.9681 18.1319 19.0469 19.0469C18.1319 19.9681 17.0718 20.6875 15.8665 21.2049C14.6613 21.7287 13.3709 21.9905 11.9953 21.9905ZM9.86559 16.9929C10.2 17.3273 10.5471 17.5135 10.9068 17.5513C11.2728 17.5829 11.6293 17.422 11.9763 17.0686L16.6711 12.4023C16.8541 12.2256 16.9961 12.0584 17.097 11.9006C17.198 11.7429 17.2485 11.5157 17.2485 11.2191V9.42073C17.2485 9.18094 17.2169 8.98533 17.1538 8.83388C17.0907 8.67613 16.9771 8.51207 16.8131 8.34169L15.8855 7.42357C15.7214 7.26581 15.5605 7.14908 15.4027 7.07336C15.245 6.99132 15.0494 6.95031 14.8159 6.95031H12.9702C12.6862 6.95031 12.4622 7.00394 12.2982 7.11122C12.1404 7.21218 11.97 7.351 11.787 7.52769L7.13961 12.213C6.79255 12.56 6.63165 12.9165 6.65689 13.2825C6.68844 13.6422 6.87143 13.9893 7.20587 14.3237L9.86559 16.9929ZM13.5002 10.6891C13.3425 10.5376 13.2636 10.3452 13.2636 10.1117C13.2636 9.87821 13.3456 9.67944 13.5097 9.51538C13.6738 9.35763 13.8662 9.27875 14.0871 9.27875C14.3142 9.27875 14.5099 9.35763 14.6739 9.51538C14.8317 9.67313 14.9106 9.86875 14.9106 10.1022C14.9106 10.3294 14.8317 10.525 14.6739 10.6891C14.5099 10.8531 14.3142 10.9352 14.0871 10.9352C13.8599 10.9352 13.6643 10.8531 13.5002 10.6891Z" fill="black"/>
</svg>
