<svg width="21" height="20" viewBox="0 0 21 20" fill="none" xmlns="http://www.w3.org/2000/svg">
<g clip-path="url(#clip0_1_508)">
<path d="M17.6779 6.10352e-05H2.43979C1.12693 6.10352e-05 0.0588379 1.06816 0.0588379 2.38101V17.6191C0.0588379 18.932 1.12693 20.0001 2.43979 20.0001H17.6779C18.9907 20.0001 20.0588 18.932 20.0588 17.6191V2.38101C20.0588 1.06816 18.9907 6.10352e-05 17.6779 6.10352e-05ZM15.776 8.7253C15.6679 8.7353 15.5584 8.74197 15.4474 8.74197C14.1984 8.74197 13.1007 8.09958 12.4622 7.12863C12.4622 9.67578 12.4622 12.5739 12.4622 12.6224C12.4622 14.8648 10.6441 16.6829 8.4017 16.6829C6.15931 16.6829 4.34122 14.8648 4.34122 12.6224C4.34122 10.3801 6.15931 8.56197 8.4017 8.56197C8.48646 8.56197 8.56931 8.56958 8.65265 8.57482V10.5758C8.56931 10.5658 8.48741 10.5505 8.4017 10.5505C7.25693 10.5505 6.32931 11.4782 6.32931 12.6229C6.32931 13.7677 7.25693 14.6953 8.4017 14.6953C9.54646 14.6953 10.5574 13.7934 10.5574 12.6486C10.5574 12.6034 10.5774 3.31816 10.5774 3.31816H12.4898C12.6698 5.02816 14.0503 6.37768 15.776 6.50149V8.7253Z" fill="black"/>
</g>
<defs>
<clipPath id="clip0_1_508">
<rect width="20" height="20" fill="white" transform="translate(0.0588379 6.10352e-05)"/>
</clipPath>
</defs>
</svg>
