<svg width="24" height="24" viewBox="0 0 24 24" fill="none" xmlns="http://www.w3.org/2000/svg">
<path d="M7.75274 22H15.814C17.2319 22 18.1335 21.1772 18.1947 19.7505L18.7812 7.24289H19.674C20.1729 7.24289 20.558 6.86652 20.558 6.36761C20.558 5.87746 20.1729 5.50109 19.674 5.50109H15.8665V4.21444C15.8665 2.814 14.9825 2 13.442 2H10.1072C8.55799 2 7.67396 2.814 7.67396 4.21444V5.50109H3.88403C3.39387 5.50109 3 5.87746 3 6.36761C3 6.86652 3.39387 7.24289 3.88403 7.24289H4.77681L5.36324 19.7593C5.43326 21.186 6.31729 22 7.75274 22ZM9.50328 4.28446C9.50328 3.87309 9.78337 3.6105 10.2385 3.6105H13.3107C13.7571 3.6105 14.046 3.87309 14.046 4.28446V5.50109H9.50328V4.28446ZM7.97155 20.2407C7.49891 20.2407 7.17505 19.8993 7.15755 19.3829L6.57987 7.24289H16.9519L16.4004 19.3829C16.3829 19.9081 16.0591 20.2407 15.5777 20.2407H7.97155ZM9.20569 18.9015C9.61707 18.9015 9.8709 18.639 9.86214 18.2626L9.59956 9.26477C9.59081 8.8884 9.31947 8.63457 8.93435 8.63457C8.54048 8.63457 8.28665 8.8884 8.2954 9.27352L8.55799 18.2713C8.57549 18.6477 8.82932 18.9015 9.20569 18.9015ZM11.779 18.9015C12.1729 18.9015 12.4354 18.6477 12.4354 18.2713V9.26477C12.4354 8.8884 12.1729 8.63457 11.779 8.63457C11.3851 8.63457 11.1225 8.8884 11.1225 9.26477V18.2713C11.1225 18.6477 11.3851 18.9015 11.779 18.9015ZM14.3523 18.9015C14.7287 18.9015 14.9825 18.6477 15 18.2713L15.2626 9.27352C15.2713 8.89716 15.0175 8.64333 14.6236 8.64333C14.2385 8.64333 13.9672 8.8884 13.9584 9.26477L13.6958 18.2626C13.6871 18.639 13.9409 18.9015 14.3523 18.9015Z" fill="black"/>
</svg>
