<svg width="24" height="24" viewBox="0 0 24 24" fill="none" xmlns="http://www.w3.org/2000/svg">
<path d="M7.75274 21.9999H15.814C17.2319 21.9999 18.1335 21.1772 18.1947 19.7505L18.7812 7.24283H19.674C20.1729 7.24283 20.558 6.86646 20.558 6.36755C20.558 5.8774 20.1729 5.50103 19.674 5.50103H15.8665V4.21438C15.8665 2.81394 14.9825 1.99994 13.442 1.99994H10.1072C8.55799 1.99994 7.67396 2.81394 7.67396 4.21438V5.50103H3.88403C3.39387 5.50103 3 5.8774 3 6.36755C3 6.86646 3.39387 7.24283 3.88403 7.24283H4.77681L5.36324 19.7592C5.43326 21.1859 6.31729 21.9999 7.75274 21.9999ZM9.50328 4.2844C9.50328 3.87302 9.78337 3.61044 10.2385 3.61044H13.3107C13.7571 3.61044 14.046 3.87302 14.046 4.2844V5.50103H9.50328V4.2844ZM7.97155 20.2406C7.49891 20.2406 7.17506 19.8993 7.15755 19.3829L6.57987 7.24283H16.9519L16.4004 19.3829C16.3829 19.908 16.0591 20.2406 15.5777 20.2406H7.97155ZM9.20569 18.9015C9.61707 18.9015 9.8709 18.6389 9.86214 18.2625L9.59956 9.26471C9.59081 8.88834 9.31948 8.63451 8.93435 8.63451C8.54048 8.63451 8.28665 8.88834 8.2954 9.27346L8.55799 18.2713C8.57549 18.6476 8.82932 18.9015 9.20569 18.9015ZM11.779 18.9015C12.1729 18.9015 12.4354 18.6476 12.4354 18.2713V9.26471C12.4354 8.88834 12.1729 8.63451 11.779 8.63451C11.3851 8.63451 11.1225 8.88834 11.1225 9.26471V18.2713C11.1225 18.6476 11.3851 18.9015 11.779 18.9015ZM14.3523 18.9015C14.7287 18.9015 14.9825 18.6476 15 18.2713L15.2626 9.27346C15.2713 8.89709 15.0175 8.64327 14.6236 8.64327C14.2385 8.64327 13.9672 8.88834 13.9584 9.26471L13.6958 18.2625C13.6871 18.6389 13.9409 18.9015 14.3523 18.9015Z" fill="black"/>
</svg>
