<svg width="21" height="20" viewBox="0 0 21 20" fill="none" xmlns="http://www.w3.org/2000/svg">
<g clip-path="url(#clip0_1_507)">
<path d="M5.81157 20.0001H13.8728C15.2908 20.0001 16.1923 19.1773 16.2536 17.7506L16.84 5.24295H17.7328C18.2317 5.24295 18.6168 4.86658 18.6168 4.36768C18.6168 3.87752 18.2317 3.50116 17.7328 3.50116H13.9254V2.2145C13.9254 0.814065 13.0413 6.10352e-05 11.5009 6.10352e-05H8.16606C6.61682 6.10352e-05 5.7328 0.814065 5.7328 2.2145V3.50116H1.94286C1.45271 3.50116 1.05884 3.87752 1.05884 4.36768C1.05884 4.86658 1.45271 5.24295 1.94286 5.24295H2.83564L3.42208 17.7594C3.4921 19.1861 4.37612 20.0001 5.81157 20.0001ZM7.56212 2.28452C7.56212 1.87315 7.84221 1.61056 8.29735 1.61056H11.3696C11.8159 1.61056 12.1048 1.87315 12.1048 2.28452V3.50116H7.56212V2.28452ZM6.03039 18.2408C5.55774 18.2408 5.23389 17.8994 5.21639 17.383L4.63871 5.24295H15.0107L14.4593 17.383C14.4418 17.9082 14.1179 18.2408 13.6365 18.2408H6.03039ZM7.26453 16.9016C7.67591 16.9016 7.92974 16.639 7.92098 16.2626L7.6584 7.26483C7.64965 6.88846 7.37831 6.63463 6.99319 6.63463C6.59932 6.63463 6.34549 6.88846 6.35424 7.27358L6.61682 16.2714C6.63433 16.6478 6.88816 16.9016 7.26453 16.9016ZM9.83783 16.9016C10.2317 16.9016 10.4943 16.6478 10.4943 16.2714V7.26483C10.4943 6.88846 10.2317 6.63463 9.83783 6.63463C9.44396 6.63463 9.18138 6.88846 9.18138 7.26483V16.2714C9.18138 16.6478 9.44396 16.9016 9.83783 16.9016ZM12.4111 16.9016C12.7875 16.9016 13.0413 16.6478 13.0588 16.2714L13.3214 7.27358C13.3302 6.89722 13.0763 6.64339 12.6825 6.64339C12.2974 6.64339 12.026 6.88846 12.0173 7.26483L11.7547 16.2626C11.7459 16.639 11.9998 16.9016 12.4111 16.9016Z" fill="black"/>
</g>
<defs>
<clipPath id="clip0_1_507">
<rect width="20" height="20" fill="white" transform="translate(0.0588379 6.10352e-05)"/>
</clipPath>
</defs>
</svg>
