<svg width="21" height="20" viewBox="0 0 21 20" fill="none" xmlns="http://www.w3.org/2000/svg">
<g clip-path="url(#clip0_1_506)">
<path d="M0.860747 1.60388H8.25932C8.48207 1.60388 8.673 1.52433 8.83211 1.36522C8.99122 1.20611 9.07077 1.01518 9.07077 0.792424C9.07077 0.576036 8.99122 0.391469 8.83211 0.238725C8.673 0.0796155 8.48207 6.10352e-05 8.25932 6.10352e-05H0.860747C0.625266 6.10352e-05 0.431153 0.0796155 0.278408 0.238725C0.132028 0.391469 0.0588379 0.576036 0.0588379 0.792424C0.0588379 1.01518 0.132028 1.20611 0.278408 1.36522C0.431153 1.52433 0.625266 1.60388 0.860747 1.60388ZM4.57435 20.0001C5.66266 20.0001 6.53776 19.6691 7.19965 19.0072C7.86154 18.3453 8.19249 17.4702 8.19249 16.3819V0.80197H6.66504V16.3819C6.66504 17.012 6.47093 17.518 6.0827 17.8998C5.70084 18.288 5.19806 18.4822 4.57435 18.4822C3.93792 18.4822 3.42558 18.288 3.03736 17.8998C2.6555 17.518 2.46457 17.012 2.46457 16.3819V0.80197H0.927573V16.3819C0.927573 17.4702 1.2617 18.3453 1.92996 19.0072C2.59822 19.6691 3.47968 20.0001 4.57435 20.0001ZM7.10418 4.12417H2.02543V16.3819C2.02543 17.1329 2.26091 17.7439 2.73187 18.2149C3.20283 18.6858 3.81699 18.9213 4.57435 18.9213C5.31898 18.9213 5.92678 18.6858 6.39774 18.2149C6.8687 17.7439 7.10418 17.1329 7.10418 16.3819V4.12417ZM2.46457 7.22679V6.10985H4.53617C4.68891 6.10985 4.82256 6.16394 4.93712 6.27214C5.05168 6.38033 5.10896 6.50762 5.10896 6.654C5.10896 6.81947 5.05486 6.95631 4.94667 7.0645C4.83847 7.17269 4.70482 7.22679 4.54571 7.22679H2.46457ZM2.46457 10.3199V9.20292H4.54571C4.69846 9.20292 4.82893 9.2602 4.93712 9.37476C5.05168 9.48296 5.10896 9.61024 5.10896 9.75662C5.10896 9.9221 5.05486 10.0589 4.94667 10.1671C4.83847 10.269 4.70482 10.3199 4.54571 10.3199H2.46457ZM2.46457 13.4225V12.3056H4.53617C4.68891 12.3056 4.81938 12.3628 4.92757 12.4774C5.04213 12.5856 5.09941 12.7129 5.09941 12.8592C5.10578 13.0184 5.05486 13.152 4.94667 13.2602C4.84484 13.3684 4.708 13.4225 4.53617 13.4225H2.46457ZM11.4097 1.60388H18.8082C19.0246 1.60388 19.2124 1.52433 19.3715 1.36522C19.5306 1.20611 19.6102 1.01518 19.6102 0.792424C19.6102 0.576036 19.5306 0.391469 19.3715 0.238725C19.2124 0.0796155 19.0246 6.10352e-05 18.8082 6.10352e-05H11.4097C11.1678 6.10352e-05 10.9705 0.0796155 10.8178 0.238725C10.6714 0.391469 10.5982 0.576036 10.5982 0.792424C10.5982 1.01518 10.6714 1.20611 10.8178 1.36522C10.9705 1.52433 11.1678 1.60388 11.4097 1.60388ZM15.1137 20.0001C16.202 20.0001 17.0771 19.6691 17.739 19.0072C18.4073 18.3453 18.7414 17.4702 18.7414 16.3819V0.80197H17.214V16.3819C17.214 17.012 17.0199 17.518 16.6316 17.8998C16.2498 18.288 15.7438 18.4822 15.1137 18.4822C14.4837 18.4822 13.9745 18.288 13.5863 17.8998C13.1981 17.518 13.0039 17.012 13.0039 16.3819V0.80197H11.467V16.3819C11.467 17.4702 11.8011 18.3453 12.4693 19.0072C13.1376 19.6691 14.0191 20.0001 15.1137 20.0001ZM17.6436 15.3604H12.5744V16.3819C12.5744 17.1329 12.8098 17.7439 13.2808 18.2149C13.7518 18.6858 14.3627 18.9213 15.1137 18.9213C15.8647 18.9213 16.4725 18.6858 16.9371 18.2149C17.4081 17.7439 17.6436 17.1329 17.6436 16.3819V15.3604ZM12.603 7.22679H15.0946C15.2537 7.22679 15.3842 7.17269 15.486 7.0645C15.5942 6.95631 15.6483 6.81947 15.6483 6.654C15.6483 6.50762 15.5911 6.38033 15.4765 6.27214C15.3683 6.16394 15.2378 6.10985 15.0851 6.10985H12.603V7.22679ZM12.603 10.3199H15.0946C15.2537 10.3199 15.3842 10.269 15.486 10.1671C15.5942 10.0589 15.6483 9.9221 15.6483 9.75662C15.6483 9.61024 15.5942 9.48296 15.486 9.37476C15.3779 9.2602 15.2474 9.20292 15.0946 9.20292H12.603V10.3199ZM12.603 13.4225H15.0851C15.2506 13.4225 15.3842 13.3684 15.486 13.2602C15.5942 13.152 15.6452 13.0184 15.6388 12.8592C15.6388 12.7129 15.5847 12.5856 15.4765 12.4774C15.3683 12.3628 15.2378 12.3056 15.0851 12.3056H12.603V13.4225Z" fill="black"/>
</g>
<defs>
<clipPath id="clip0_1_506">
<rect width="20" height="20" fill="white" transform="translate(0.0588379 6.10352e-05)"/>
</clipPath>
</defs>
</svg>
