<svg width="20" height="20" viewBox="0 0 20 20" fill="none" xmlns="http://www.w3.org/2000/svg">
<path d="M20 3.92383C19.2639 4.25074 18.4731 4.47074 17.6432 4.56996C18.4908 4.06229 19.1408 3.25847 19.4469 2.30005C18.6547 2.77003 17.7762 3.11156 16.8409 3.29616C16.0925 2.4985 15.0263 2.00006 13.8464 2.00006C11.5803 2.00006 9.74347 3.83768 9.74347 6.10298C9.74347 6.42451 9.78039 6.73834 9.84962 7.03756C6.43975 6.8668 3.41679 5.23301 1.39225 2.75003C1.03996 3.35616 0.83766 4.06075 0.83766 4.8138C0.83766 6.23682 1.56148 7.49293 2.66221 8.22828C1.98992 8.20675 1.35687 8.02214 0.803815 7.71523C0.803815 7.73292 0.803815 7.74907 0.803815 7.76676C0.803815 9.75515 2.21761 11.4135 4.09523 11.7897C3.75139 11.8835 3.38833 11.9335 3.01373 11.9335C2.74989 11.9335 2.49221 11.9074 2.24222 11.8605C2.76451 13.4904 4.27984 14.6773 6.07515 14.7103C4.67136 15.8111 2.9022 16.4672 0.979193 16.4672C0.648437 16.4672 0.321526 16.448 0 16.4095C1.81608 17.5733 3.97216 18.2525 6.28976 18.2525C13.8372 18.2525 17.9632 12.0004 17.9632 6.57835C17.9632 6.40066 17.9593 6.22374 17.9516 6.0476C18.7539 5.46839 19.45 4.74611 20 3.92383Z" fill="black"/>
</svg>
