<svg width="21" height="20" viewBox="0 0 21 20" fill="none" xmlns="http://www.w3.org/2000/svg">
<g clip-path="url(#clip0_1_505)">
<path d="M20.0588 3.92383C19.3227 4.25074 18.532 4.47074 17.702 4.56996C18.5497 4.06229 19.1996 3.25847 19.5058 2.30005C18.7135 2.77003 17.8351 3.11156 16.8997 3.29616C16.1513 2.4985 15.0852 2.00006 13.9052 2.00006C11.6392 2.00006 9.80231 3.83768 9.80231 6.10298C9.80231 6.42451 9.83923 6.73834 9.90846 7.03756C6.49859 6.8668 3.47563 5.23301 1.45109 2.75003C1.0988 3.35616 0.896498 4.06075 0.896498 4.8138C0.896498 6.23682 1.62032 7.49293 2.72104 8.22828C2.04876 8.20675 1.41571 8.02214 0.862653 7.71523C0.862653 7.73292 0.862653 7.74907 0.862653 7.76676C0.862653 9.75515 2.27644 11.4135 4.15407 11.7897C3.81023 11.8835 3.44717 11.9335 3.07257 11.9335C2.80873 11.9335 2.55105 11.9074 2.30106 11.8605C2.82335 13.4904 4.33867 14.6773 6.13399 14.7103C4.7302 15.8111 2.96103 16.4672 1.03803 16.4672C0.707275 16.4672 0.380364 16.448 0.0588379 16.4095C1.87492 17.5733 4.03099 18.2525 6.3486 18.2525C13.896 18.2525 18.022 12.0004 18.022 6.57835C18.022 6.40066 18.0181 6.22374 18.0105 6.0476C18.8127 5.46839 19.5089 4.74611 20.0588 3.92383Z" fill="black"/>
</g>
<defs>
<clipPath id="clip0_1_505">
<rect width="20" height="20" fill="white" transform="translate(0.0588379 6.10352e-05)"/>
</clipPath>
</defs>
</svg>
