<svg width="20" height="20" viewBox="0 0 20 20" fill="none" xmlns="http://www.w3.org/2000/svg">
<path d="M16.0357 16.1851C16.0357 17.3724 16.8694 18.2279 18.0094 18.2279C19.1578 18.2279 20 17.3724 20 16.1851V2.04284C20 0.864312 19.1578 6.10352e-05 18.0094 6.10352e-05C16.8694 6.10352e-05 16.0357 0.864312 16.0357 2.04284V16.1851ZM6.93322 13.6273C9.54487 13.959 12.2161 14.7884 14.7342 16.1415C14.7256 16.0455 14.7171 15.9494 14.7171 15.8534V2.37457C14.7171 2.31346 14.7256 2.23489 14.7256 2.17378C12.2841 3.50072 9.34071 4.40862 6.93322 4.67924V13.6273ZM3.87069 4.67924C1.36112 4.67924 0 6.04109 0 8.52036V9.78618C0 12.2654 1.36112 13.6186 3.87069 13.6186H5.62314V4.67924H3.87069ZM7.56274 20.0001C8.74521 20.0001 9.63845 19.066 9.28966 17.6256L8.71119 15.1026C8.1242 14.8669 6.7886 14.736 5.73373 14.736H3.65802L5.39345 18.3589C5.89536 19.4064 6.44832 20.0001 7.56274 20.0001Z" fill="black"/>
</svg>
