<svg width="21" height="20" viewBox="0 0 21 20" fill="none" xmlns="http://www.w3.org/2000/svg">
<path d="M16.0946 16.1851C16.0946 17.3724 16.9283 18.2279 18.0682 18.2279C19.2166 18.2279 20.0588 17.3724 20.0588 16.1851V2.04284C20.0588 0.864312 19.2166 6.10352e-05 18.0682 6.10352e-05C16.9283 6.10352e-05 16.0946 0.864312 16.0946 2.04284V16.1851ZM6.99206 13.6273C9.60371 13.959 12.2749 14.7884 14.793 16.1415C14.7845 16.0455 14.776 15.9494 14.776 15.8534V2.37457C14.776 2.31346 14.7845 2.23489 14.7845 2.17378C12.343 3.50072 9.39954 4.40862 6.99206 4.67924V13.6273ZM3.92953 4.67924C1.41996 4.67924 0.0588379 6.04109 0.0588379 8.52036V9.78618C0.0588379 12.2654 1.41996 13.6186 3.92953 13.6186H5.68198V4.67924H3.92953ZM7.62158 20.0001C8.80405 20.0001 9.69729 19.066 9.3485 17.6256L8.77002 15.1026C8.18304 14.8669 6.84744 14.736 5.79257 14.736H3.71686L5.45229 18.3589C5.9542 19.4064 6.50716 20.0001 7.62158 20.0001Z" fill="black"/>
</svg>
