<svg width="24" height="24" viewBox="0 0 24 24" fill="none" xmlns="http://www.w3.org/2000/svg">
<path d="M11.9974 21C10.749 21 9.65604 20.744 8.71836 20.232C7.78068 19.7258 7.0501 19.0153 6.52661 18.1007C6.00887 17.186 5.75 16.1189 5.75 14.8993C5.75 14.3183 5.81616 13.7344 5.94847 13.1477C6.08653 12.5609 6.25911 11.9914 6.4662 11.4391C6.67905 10.8869 6.89765 10.372 7.122 9.89454C7.42689 9.22723 7.78068 8.55129 8.18337 7.86673C8.5918 7.17641 9.0175 6.48897 9.46045 5.80441C9.90916 5.11409 10.3492 4.43816 10.7807 3.77661C10.9533 3.51774 11.1402 3.32502 11.3416 3.19847C11.5487 3.06616 11.7673 3 11.9974 3C12.2332 3 12.4518 3.06616 12.6532 3.19847C12.8545 3.32502 13.0415 3.51774 13.214 3.77661C13.6397 4.42665 14.0712 5.08821 14.5084 5.76127C14.9456 6.43432 15.3627 7.11026 15.7596 7.78907C16.1623 8.46213 16.5132 9.12656 16.8123 9.78236C17.0482 10.2713 17.2754 10.8006 17.494 11.3701C17.7126 11.9338 17.8909 12.5149 18.029 13.1131C18.1671 13.7114 18.2361 14.3068 18.2361 14.8993C18.2361 16.1189 17.9772 17.186 17.4595 18.1007C16.9418 19.0153 16.214 19.7258 15.2764 20.232C14.3387 20.744 13.2457 21 11.9974 21Z" fill="black"/>
</svg>
