<svg width="21" height="20" viewBox="0 0 21 20" fill="none" xmlns="http://www.w3.org/2000/svg">
<g clip-path="url(#clip0_1_512)">
<path d="M10.0588 6.10352e-05C4.53634 6.10352e-05 0.0588379 4.47756 0.0588379 10.0001C0.0588379 11.8761 0.585789 13.6251 1.48462 15.1254L0.148356 20.0001L5.1272 18.6931C6.5833 19.5209 8.26425 20.0001 10.0588 20.0001C15.5813 20.0001 20.0588 15.5226 20.0588 10.0001C20.0588 4.47756 15.5813 6.10352e-05 10.0588 6.10352e-05ZM6.63599 5.33535C6.79849 5.33535 6.96545 5.33436 7.10962 5.34186C7.28795 5.34602 7.48205 5.35908 7.66789 5.76992C7.88872 6.25825 8.36957 7.48332 8.43123 7.60748C8.4929 7.73165 8.5366 7.87793 8.45076 8.04043C8.3691 8.20709 8.32662 8.30797 8.20662 8.45547C8.08246 8.5988 7.9464 8.77682 7.8339 8.88515C7.70974 9.00932 7.58152 9.14547 7.72485 9.39297C7.86819 9.64047 8.36597 10.4518 9.10181 11.1068C10.0476 11.9518 10.8457 12.2115 11.094 12.3357C11.3423 12.4598 11.4861 12.4405 11.6295 12.2738C11.777 12.1113 12.2489 11.5537 12.4156 11.3054C12.5781 11.0571 12.744 11.1 12.969 11.1817C13.1973 11.2634 14.415 11.8632 14.6633 11.9874C14.9117 12.1115 15.0745 12.173 15.137 12.2738C15.2011 12.378 15.2012 12.8739 14.9954 13.4522C14.7895 14.0297 13.7788 14.5882 13.3254 14.6273C12.8679 14.6698 12.441 14.833 10.3518 14.0105C7.83181 13.018 6.24257 10.4369 6.11841 10.2702C5.99424 10.1077 5.10929 8.92832 5.10929 7.71165C5.10929 6.49082 5.74939 5.89293 5.97355 5.64459C6.20188 5.39626 6.46932 5.33535 6.63599 5.33535Z" fill="black"/>
</g>
<defs>
<clipPath id="clip0_1_512">
<rect width="20" height="20" fill="white" transform="translate(0.0588379 6.10352e-05)"/>
</clipPath>
</defs>
</svg>
