<svg width="20" height="20" viewBox="0 0 20 20" fill="none" xmlns="http://www.w3.org/2000/svg">
<path d="M10 6.10352e-05C4.4775 6.10352e-05 0 4.47756 0 10.0001C0 11.8761 0.526951 13.6251 1.42578 15.1254L0.0895182 20.0001L5.06836 18.6931C6.52446 19.5209 8.20541 20.0001 10 20.0001C15.5225 20.0001 20 15.5226 20 10.0001C20 4.47756 15.5225 6.10352e-05 10 6.10352e-05ZM6.57715 5.33535C6.73965 5.33535 6.90661 5.33436 7.05078 5.34186C7.22912 5.34602 7.42322 5.35908 7.60905 5.76992C7.82988 6.25825 8.31073 7.48332 8.3724 7.60748C8.43406 7.73165 8.47776 7.87793 8.39193 8.04043C8.31026 8.20709 8.26779 8.30797 8.14779 8.45547C8.02362 8.5988 7.88757 8.77682 7.77507 8.88515C7.6509 9.00932 7.52268 9.14547 7.66602 9.39297C7.80935 9.64047 8.30714 10.4518 9.04297 11.1068C9.9888 11.9518 10.7868 12.2115 11.0352 12.3357C11.2835 12.4598 11.4273 12.4405 11.5706 12.2738C11.7181 12.1113 12.1901 11.5537 12.3568 11.3054C12.5193 11.0571 12.6852 11.1 12.9102 11.1817C13.1385 11.2634 14.3562 11.8632 14.6045 11.9874C14.8528 12.1115 15.0156 12.173 15.0781 12.2738C15.1423 12.378 15.1424 12.8739 14.9365 13.4522C14.7307 14.0297 13.7199 14.5882 13.2666 14.6273C12.8091 14.6698 12.3821 14.833 10.293 14.0105C7.77297 13.018 6.18374 10.4369 6.05957 10.2702C5.9354 10.1077 5.05046 8.92832 5.05046 7.71165C5.05046 6.49082 5.69055 5.89293 5.91471 5.64459C6.14305 5.39626 6.41048 5.33535 6.57715 5.33535Z" fill="black"/>
</svg>
