<svg width="24" height="24" viewBox="0 0 24 24" fill="none" xmlns="http://www.w3.org/2000/svg">
<path d="M12 1.99994C6.4775 1.99994 2 6.47744 2 11.9999C2 13.8759 2.52695 15.625 3.42578 17.1253L2.08952 21.9999L7.06836 20.693C8.52446 21.5208 10.2054 21.9999 12 21.9999C17.5225 21.9999 22 17.5224 22 11.9999C22 6.47744 17.5225 1.99994 12 1.99994ZM8.57715 7.33523C8.73965 7.33523 8.90662 7.33424 9.05078 7.34174C9.22912 7.3459 9.42322 7.35896 9.60905 7.7698C9.82988 8.25813 10.3107 9.48319 10.3724 9.60736C10.4341 9.73153 10.4778 9.8778 10.3919 10.0403C10.3103 10.207 10.2678 10.3078 10.1478 10.4553C10.0236 10.5987 9.88757 10.7767 9.77506 10.885C9.6509 11.0092 9.52268 11.1453 9.66602 11.3928C9.80935 11.6403 10.3071 12.4517 11.043 13.1067C11.9888 13.9517 12.7868 14.2114 13.0352 14.3356C13.2835 14.4597 13.4273 14.4404 13.5706 14.2737C13.7181 14.1112 14.1901 13.5536 14.3568 13.3053C14.5193 13.0569 14.6852 13.0999 14.9102 13.1816C15.1385 13.2632 16.3562 13.8631 16.6045 13.9872C16.8528 14.1114 17.0156 14.1729 17.0781 14.2737C17.1423 14.3779 17.1424 14.8738 16.9365 15.4521C16.7307 16.0296 15.7199 16.5881 15.2666 16.6272C14.8091 16.6697 14.3821 16.8329 12.293 16.0104C9.77297 15.0179 8.18374 12.4368 8.05957 12.2701C7.9354 12.1076 7.05046 10.9282 7.05046 9.71153C7.05046 8.49069 7.69055 7.8928 7.91471 7.64447C8.14305 7.39614 8.41048 7.33523 8.57715 7.33523Z" fill="black"/>
</svg>
